<svg width="267" height="269" xmlns="http://www.w3.org/2000/svg">
  <defs>
    <clipPath id="a">
      <path d="M-115.061447 533.501465h425.20015V108.301331h-425.20015v425.200134z"/>
    </clipPath>
    <clipPath id="b">
      <path d="M.46856 223.621384h145.340003v182.410019H.46856V223.621384z"/>
    </clipPath>
    <clipPath id="c">
      <path d="M-64.198448 459.291382h287.429985V161.951416H-64.198448v297.339966z"/>
    </clipPath>
    <clipPath id="d">
      <path d="M-64.198448 161.950378h287.429985v297.339966H-64.198448V161.950378z"/>
    </clipPath>
    <clipPath id="e">
      <path d="M-115.061447 533.501465h425.20015V108.301331h-425.20015v425.200134z"/>
    </clipPath>
    <clipPath id="f">
      <path d="M74.168549 250.821381l123.589981-2.575989 3.609009 173.179993-124.589981 4.578003-2.609009-175.182007z"/>
    </clipPath>
    <clipPath id="g">
      <path d="M42.198559 257.101379h105.139988v118.820007H42.198559V257.101379z"/>
    </clipPath>
    <clipPath id="h">
      <path d="M-115.061447 533.501465h425.20015V108.301331h-425.20015v425.200134z"/>
    </clipPath>
    <clipPath id="i">
      <path d="M42.198559 259.101379h105.139988v118.820007H42.198559V259.101379z"/>
    </clipPath>
  </defs>
  <g class="layer">
    <title>
      Layer 1
    </title>
    <g clip-path="url(#a)" transform="matrix(1.3333 0 0 -1.3333 0 566.93)">
      <path d="M184.128553 320.831376c0-48.231007-39.100998-87.331007-87.328979-87.331007-48.231003 0-87.330948 39.099989-87.330948 87.331007s39.09993 87.331009 87.330948 87.331009c48.227997 0 87.328979-39.100006 87.328979-87.331009" fill="#1d1d1b"/>
    </g>
    <g clip-path="url(#b)" transform="matrix(1.3333 0 0 -1.3333 0 566.93)">
      <g clip-path="url(#c)">
        <g clip-path="url(#d)">
          <path d="M52.468553 402.851376C7.125551 377.457379-9.228453 320.130379 16.012544 275.051369c25.241997-45.072002 82.665009-61.081989 128.009996-35.688019" fill="none" stroke="#1d1d1b" stroke-width=".665"/>
          <path d="M51.178553 405.171376C4.55955 379.064389-12.251455 320.115371 13.704554 273.76137c25.955986-46.347967 84.998993-62.814993 131.619997-36.705999" fill="none" stroke="#1d1d1b" stroke-width="1.99"/>
        </g>
      </g>
    </g>
    <g clip-path="url(#e)" transform="matrix(1.3333 0 0 -1.3333 0 566.93)">
      <path d="M178.878553 249.631376l.841995-.113998.364014 2.667999-.843994.115013-.362-2.669014h-.000015z"/>
    </g>
    <g clip-path="url(#f)" transform="matrix(1.3333 0 0 -1.3333 0 566.93)">
      <path d="M93.128553 422.081376c-.041.486-.215004.888-.522003 1.206001-.309013.315994-.706993.453995-1.194.413994-.291-.023994-.552986-.114014-.783997-.268013-.232994-.154999-.424004-.353996-.575005-.598999l-.018005-.001999-3.780006-5.129013c-.056007-.064987-.126007-.137001-.211006-.210999-.087013-.073006-.177994-.114006-.274994-.123001-.098007-.008995-.195007.018013-.290993.076004-.097.059006-.179001.116997-.245003.172997l-4.596008 4.43c-.212013.189995-.440002.348999-.682014.474998-.244003.127007-.511993.179001-.802994.153999-.486008-.040993-.855988-.242996-1.10701-.607986-.250992-.363007-.355988-.787987-.316986-1.275002l.444992-5.326996c.020996-.243004.123001-.445.307999-.600006.184998-.156006.399002-.224007.641998-.202995.242004.019997.442001.122002.598007.308006.155991.182999.224991.396004.203995.639999l-.332993 3.978004c-.041.499001-.031998.750999.029999.756996.061005.005005.24501-.145996.552002-.450996l4.395004-4.226013c.173996-.169006.378998-.289986.618996-.362.237999-.072006.491005-.097.758003-.074997.266998.023987.514.087997.737999.200996.223.110001.406013.263.549004.459l3.632996 4.896004c.264.352997.422005.531998.469994.535995.060005.004013.112999-.242996.153999-.740997l.332001-3.977997c.019997-.243004.121986-.444.306-.598.185997-.156013.398987-.224014.643005-.204002.243004.019997.440994.123001.598999.306999.156013.184013.223.399002.203995.640999l-.445999 5.329002.000015.000015h.000015zm13.878006-5.445l-7.366997.667c-.425995.038002-.760994.145004-1.009003.320007-.247986.176994-.439003.380997-.57.610992-.133003.234001-.214996.484001-.245003.749001-.032005.267014-.036987.509995-.016998.728004.019005.220001.067993.456001.147003.713005.077995.257004.202995.487007.375.690994.170998.206001.394997.373001.670998.501007.275002.129013.624001.174004 1.050003.135994l7.367996-.667c.412994-.036003.745995-.144005 1.000999-.32.253014-.175995.445-.381004.578003-.612999.132996-.233002.214996-.482002.245987-.749001.028999-.266014.036003-.509003.015999-.727013-.019997-.218987-.068985-.457001-.147987-.712997s-.201996-.487015-.373993-.693001c-.171997-.205002-.398994-.372002-.681007-.499001-.279999-.128014-.626999-.172005-1.040993-.135002m3.842995 3.274002c-.103004.474998-.274002.913986-.513 1.314987-.240997.401993-.542999.745003-.909004 1.029015-.366997.283997-.798996.461006-1.294998.530006l-8.314987.752014c-.522003.047997-1.000999-.032013-1.437004-.236-.435997-.206001-.816994-.488014-1.143005-.845001-.326004-.356003-.586998-.763-.780998-1.217003s-.312004-.911987-.354004-1.373001c-.040001-.449997-.009003-.912987.095001-1.388.104996-.474998.275986-.913986.515999-1.314987s.541-.745003.907997-1.028c.366005-.284004.798004-.462013 1.294014-.532013l8.315987-.750999c.522003-.046997 1.002014.032013 1.437004.238014.435997.204987.817986.486 1.141998.842987.326004.355003.585999.760994.780998 1.215004.194.454987.312004.912987.354004 1.375.041.449997.007996.912987-.095993 1.387985m13.961998-5.800987l.071007-.020004c.329994-.088005.657005-.107986.978996-.061996.322014.046997.620003.147987.893997.301987.276001.154999.514.357002.711006.606003.199997.25.341995.540993.43.871986.088005.329002.108994.653.060005.968002-.047997.317001-.154007.611-.315002.879997-.160995.270004-.369995.506004-.625999.708-.254997.199013-.548996.345001-.879005.433014l-10.597992 2.823013c-.236008.063995-.458008.033997-.667007-.087013-.209991-.120987-.345993-.300003-.409004-.536003s-.032997-.458.087006-.667c.121994-.209999.300995-.345001.536995-.407997l10.667-2.842987c.177994-.047005.316994-.152.417-.319.103004-.166.129005-.338013.083-.514-.050987-.189003-.160995-.327003-.330002-.416-.167999-.087013-.340996-.106995-.518997-.060013l-9.375008 2.498993c-.306999.080986-.606003.100006-.895004.057007s-.553986-.137001-.795998-.280006c-.237999-.145004-.449997-.335014-.633003-.569-.184006-.237015-.313995-.501015-.393005-.797005l-.452003-1.699005c-.062996-.235001-.032005-.458.088005-.667.121994-.209.299995-.345001.535995-.408005.223-.058998.441994-.028999.658005.089005.214996.119995.353996.298996.416.534996l.400993 1.503014c.046005.176987.139.310005.278.398987.137001.091003.285004.126999.444.109001l3.522003-.938004c.637001-.169006 1.229004-.408997 1.778999-.718987.549004-.310997 1.063004-.669014 1.541023-1.074997.479996-.406006.928986-.841003 1.347984-1.305.420013-.467003.824013-.940994 1.213013-1.424004.156998-.217987.334999-.352997.536003-.406013.235001-.063995.457977-.034996.667984.087013.207993.120003.343994.299004.409004.535004.042999.164993.032997.322006-.027.469994-.061996.149994-.144997.288994-.249001.418007-.269997.362999-.541.702995-.807999 1.019997-.270004.317993-.536003.620003-.802002.905998m6.526001 1.373001c.085999-.226013.238998-.389.460999-.491997l11.810013-5.388c.222015-.102005.445007-.110985.673008-.025993.226009.084.389.237.491001.459999.103001.222.107998.446014.024998.673004-.084999.226006-.237.390999-.459999.490997l-11.811001 5.389999c-.222.100014-.444.108994-.67099.024994-.227005-.085007-.391006-.238007-.491997-.461006-.102013-.220993-.110001-.445999-.026001-.671997m9.685013-11.545013c.223007-.101006.445999-.108986.673996-.024986.225014.084.390007.237999.490997.460999.102005.222.108994.445.024994.672005-.084.225998-.237999.390999-.459999.490997l-10.493004 4.788986c-.156006.072014-.260994.170013-.318001.296013-.055984.126999-.058998.245003-.007996.356003l.373001.816986 10.642998-4.857986c.222-.100014.445-.108994.674004-.023994.224998.084.387985.237.489998.459999.101006.222.110001.446007.024986.672005-.084.227005-.237991.390007-.459991.491997l-11.175995 5.101006c-.368004.167-.659004.240005-.875999.217995-.218002-.020996-.395004-.181999-.533005-.480995l-.682999-1.5c-.153-.334015-.228996-.661003-.227005-.983002 0-.321999.050987-.620995.153999-.896004.102005-.273994.252007-.519997.448006-.737999.196983-.216995.417984-.380997.661995-.491997l10.574997-4.828003.000023-.000023zm25.105995-8.435997l-9.708 8.028c-.188.155998-.401997.221001-.642998.197998-.240002-.021996-.438999-.126999-.595001-.315987-.146999-.177994-.213001-.382004-.195-.609993.016998-.227997.101002-.421997.257-.578987l4.233002-3.501007-3.407001-4.120995c-.155998-.188995-.223-.403-.199001-.641998.021-.240997.127003-.440002.315002-.596001.188999-.155006.403-.221001.643997-.199013.241001.022995.439003.128014.593002.315994l3.409 4.119995 4.175987-3.452995c.187-.154999.404003-.221001.644001-.200005.240002.024002.438.130005.592991.317001.15601.188004.223.402.200001.643013-.024002.240005-.129002.438995-.317001.594986m7.100002-18.467999l4.720999 4.05901c.184999.159004.286999.358994.303999.598999.018.243004-.052.454002-.209999.641006-.161001.185005-.360001.285995-.601.305-.241001.018005-.454-.052994-.640001-.212006l-1.693001-1.455002-7.055 8.206001 1.696003 1.455002c.184998.160004.285.358994.305.598999.016998.243004-.053001.454994-.212013.639999-.16.186005-.35899.286003-.600998.304001-.241001.019005-.452999-.050995-.639-.210007l-4.721001-4.05899c-.185001-.159004-.286991-.357994-.304001-.598-.02-.243004.052002-.455009.21101-.640015.159-.186996.35899-.286987.599003-.306.240997-.017998.453987.052002.640999.211006l1.693001 1.455994 7.055-8.205994-1.695004-1.454994c-.185009-.158997-.286999-.359001-.304996-.598999-.018013-.243.052998-.456001.211998-.640011.159-.187.358002-.28701.599998-.305.241001-.019001.455002.050991.639004.209999m8.770008-4.197998c.120991-.013.264999-.045002.43-.096001.164989-.051998.282999-.133999.351-.25.07-.114998.086-.257.052999-.426998-.035-.169003-.072001-.315002-.112999-.440002l-2.710011-6.577c-.111-.266998-.091-.524998.05801-.777.124001-.209.305-.343998.537991-.403.233999-.058998.455-.028.665998.098999.104.061001.190001.140003.254011.235001.062.096001.112999.195.148989.303001l2.837011 6.867001c.13699.321999.188999.663998.154999 1.028999-.032009.365002-.140999.703999-.328999 1.02-.199001.334999-.463001.603001-.790001.806999-.327.202999-.664999.321999-1.011999.356998l-7.421.761002c-.177002.035-.361-.004002-.549999-.116001-.209003-.125-.34399-.302998-.403004-.538998-.058998-.233002-.026997-.457001.098003-.667.136997-.229.347-.367001.629997-.412003l7.109001-.773998zm10.793-19.993999l-3.342-1.360001c-.406-.165001-.726999-.268002-.961-.310009-.233-.042-.385.021-.451.190998-.037989.09-.048.222-.034.392002.018002.171997.044001.390007.081001.65601l1.588999 9.697998c.028.159.034.320999.018011.493-.018011.170002-.05801.334999-.123001.493-.186998.465-.50301.787003-.945.969002-.444.182999-.896999.177998-1.362-.009003l-4.935011-2.007c-.226999-.091999-.386-.25-.480999-.472-.093-.223-.093-.446999-.00201-.674.092001-.225998.248001-.385998.472-.480999.22401-.092999.44701-.093998.673-.001999l3.341999 1.359001c.408001.165997.727001.268997.960001.311996.23299.042004.384991-.021999.45499-.192997.035-.089001.046009-.220001.03001-.391003-.017012-.170998-.043011-.390999-.08-.654999l-1.591002-9.699001c-.028-.155998-.032999-.32-.017-.491997.017-.171013.059-.335011.122002-.494003.188999-.463997.504999-.786999.948999-.968998.441-.181999.893999-.178001 1.358999.009998l4.936001 2.007c.226009.092003.384999.25.479.471992.092999.223007.094999.44701.002999.671997-.092999.228001-.248.387001-.472.482002-.222.09399-.447.09499-.672.001999m3.497001-19.422009c.106-.060001.224999-.146002.357989-.257.133-.110001.206-.233002.225-.366001s-.02399-.271-.119-.412991c-.099999-.143009-.191999-.264-.276-.361l-5.076-4.985999c-.206999-.2-.290998-.446-.252008-.736.032009-.241.143999-.436.338009-.583.191-.147.408001-.203.65-.172.120991.01701.229.05701.326.119.096001.063.182.136.257.219l5.305 5.201989c.24899.243.432.538.546.887011.113.346001.146.702999.096999 1.063999-.052.388-.188999.739-.41 1.054001-.221.31599-.482989.556-.789.725l-6.526991 3.614c-.149.101999-.331999.139-.549999.108999-.243-.031-.436001-.143999-.583-.336s-.205-.409-.172001-.650999c.035002-.265001.175991-.475.416-.628l6.236001-3.504009zm-2.222-18.947011c-.49001-.09-.941-.25-1.354-.478-.414001-.227-.765-.524-1.051-.883-.286991-.36-.458-.789-.517-1.287l-1.243999-10.78499c-.027-.243.032999-.459.184999-.64701.15-.189.345999-.299.587999-.328.245001-.026999.458.035.649.185.188999.148999.298.344.325001.587999l1.178999 10.223c.049001.424.163.758.344001 1 .183.244.391999.43.625999.55701.237.125.488.201.756001.226.266.024.507999.024.726999-.002.219001-.025.455001-.08.709001-.164.255-.086.481999-.217.683-.392.201-.178.362-.405.483-.68401.123-.277.159-.627.109-1.05299l-1.177-10.222001c-.028-.242999.033-.457.183001-.646999.151-.191.347-.299.59-.326.242-.02901.457.033.646.184.188999.14799.299.345.327.587l1.222 10.604c.059.523-.008 1.004-.203 1.44299-.195.442-.467.828-.814 1.164-.35.334-.74799.604-1.198.80901-.449.20699-.904.336-1.365.389-.449.05199-.918.031-1.408-.061m-.597-23.658001c.073-.098009.147-.22501.222-.380999.075999-.154011.093989-.299011.057-.42601-.038-.129002-.131001-.23999-.278001-.33-.148-.09-.280009-.161991-.398-.217001l-6.662001-2.497999c-.269999-.097-.445999-.287001-.528-.567991-.07-.234009-.045-.456999.070002-.67.115999-.210999.292-.35301.525999-.422009.117001-.032991.233-.041.347-.022991.112.017.219999.049.323.095001l6.959 2.602009c.328.118999.61501.31599.859.588001.245.271.418.581999.522.93401.11.37599.127.75099.054999 1.127989-.075.379002-.217999.705-.429999.983l-4.498001 5.951c-.094999.156012-.245998.264001-.456999.324011-.235001.071-.459.047-.67-.07-.212-.115011-.353001-.291-.422001-.525-.074009-.258001-.032999-.506001.127001-.743l4.276-5.731991v-.000031zm-2.75101-10.315001c-.226999-.079998-.394001-.228001-.500999-.449009l-5.671001-11.676991c-.105-.221008-.118999-.444-.039999-.674011.08-.22699.228001-.394989.449009-.501999.21899-.105999.44199-.118999.672001-.041.228001.080002.396.23.500999.449013l5.67 11.67799c.108.217999.122.443008.041.671997-.08.228012-.228001.396011-.448999.501011-.219.108002-.443001.12199-.672001.042999m-4.926991 2.676001c-.219999.108-.442999.121-.671999.041-.229-.07799-.396999-.228001-.502001-.446989-.108-.22101-.121-.44301-.042-.672001.079-.22801.227011-.396011.448-.501999l2.01-.976021-5.111-10.526001c-.105999-.21899-.119999-.442989-.039999-.672001.078999-.227997.229-.393997.449009-.501999.21899-.105.444-.118999.671-.041.228001.080002.396.229.501001.448002l5.368 11.05201c.174.363998.255999.654999.238008.870998-.016008.21899-.171999.399002-.469.545002l-2.848999 1.380999h-.000021zm-3.126999-18.657999c-.23801-.039001-.427999-.158001-.57-.35701l-7.532009-10.573002c-.142002-.19899-.193001-.417999-.152-.655991.038998-.240009.157997-.428009.356998-.57201.199001-.141006.417999-.191998.656002-.150997.238998.040009.428997.159.57.357998l7.532009 10.57201c.143.19899.19199.420002.152.655991-.039001.241001-.159.430012-.358002.570999-.199009.142002-.415998.193012-.654999.152012m-13.173012-7.318012c-.141998-.199997-.194-.417999-.153999-.656998.041-.237991.162003-.427002.360001-.569992.198002-.14101.417999-.19101.654999-.152008.239002.041.429001.16.571003.356991l6.693998 9.396999c.099001.138.21501.223999.35.256001.135.03101.25301.010998.353001-.05899l.727999-.521999-6.788-9.528992c-.14101-.19701-.193001-.416-.153011-.654011.041-.240009.160004-.42799.359001-.57201.199009-.140987.417999-.191998.65601-.153.239002.041.42799.16.570999.360001l7.127003 10.005001c.233999.328991.360998.602009.382.820999.019999.216999-.104.422001-.37199.611012l-1.342001.956997c-.299.213001-.607.349991-.924.409992-.313999.061001-.617001.067001-.907.02-.290001-.050991-.559999-.151001-.809999-.300991-.251001-.152008-.45401-.338009-.609001-.557011l-6.747-9.467999-.000011.000008z" fill="#1d1d1b"/>
    </g>
    <g clip-path="url(#g)" transform="matrix(1.3333 0 0 -1.3333 0 566.93)">
      <path d="M80.368553 306.111376l3.340996-.015999.251999 57.766991c.003014.728012-.217987 1.376999-.659996 1.945999-.445.528-1.009003.873993-1.696999 1.039993-.688004.123978-1.356995.046021-2.006004-.233002-.606987-.321991-1.056-.786011-1.340996-1.393021L51.143547 304.59736c-.203995-.523994-.306992-1.030998-.30899-1.515999.036987-.528.197998-1.014.479996-1.459999.281006-.448013.643021-.792 1.089005-1.036995.401978-.205002.888-.309006 1.455978-.310997l45.650002-.208-.170006-2.673004-45.492004.208c-.972.005005-1.882004.231995-2.730011.681-.848999.489014-1.534988 1.139999-2.057999 1.952003-.52298.853996-.821991 1.744003-.899002 2.678001.004013.93.190002 1.840996.55899 2.729996l27.112991 60.625008c.530014 1.212021 1.405014 2.118988 2.624001 2.722 1.176003.560989 2.432014.697021 3.766014.40799 1.295006-.289001 2.344986-.94101 3.149986-1.957001.806-1.057007 1.225014-2.253006 1.261002-3.589996l-.251999-57.764015 3.341003-.014999.251007 57.766014c-.031013 2.103989-.691002 3.990997-1.980003 5.65799-1.327995 1.624008-3.023987 2.684006-5.087997 3.180008-2.062996.414001-4.028.200012-5.893997-.641998-1.948013-1.004013-3.372002-2.47699-4.272003-4.416-2.332001-5.416-11.37001-25.624023-27.111984-60.625015-.572998-1.415001-.822998-2.830994-.746979-4.247993.113968-1.540001.571991-2.979996 1.377991-4.320007.844986-1.258003 1.912979-2.276993 3.205978-3.050003 1.333008-.695999 2.790009-1.066994 4.368988-1.112999l45.506004-.209007.340004-2.715004-7.348015.084-.038986-8.928993-2.674004.011993.039001 8.928001-3.339996.014999-.038994-8.93-2.671997.013.039001 8.929001-3.341003.013-.039986-8.928001-2.671013.011002.039001 8.929001-23.810997.105003c-2.025009.047997-3.906998.543007-5.641998 1.481995-1.697021.979004-3.088013 2.301003-4.174011 3.967003-1.046021 1.704987-1.646042 3.550003-1.797989 5.534996-.07402 1.862.258987 3.684006.993988 5.463013l27.114006 60.624977c1.185013 2.546021 3.015999 4.460007 5.491013 5.745987 2.473999 1.122009 5.047989 1.414993 7.717979.878021 2.629005-.659988 4.810005-2.027008 6.543007-4.100021 1.651001-2.153 2.510002-4.605988 2.580002-7.360001l-.251999-57.765984 7.962997-.010002-.480003-2.694-45.457993.258003-.060989.000999c12.674988 27.926987 21.426994 47.486984 26.253014 58.684006l-.243996-56.186005.000015.000023-.000015.000015v.000008zm-2.855003-.108986l.183014 42.215004-19.317009-42.132004 19.133995-.083h-.000023.000023zm33.791-11.628014c.004997 1.296013.009003 2.307007.010986 3.036995.147003 5.588005 1.584015 10.319 4.315002 14.194 2.160004 2.906006 5.512993 5.907997 10.062004 9.008995 6.091999 4.143005 10.030987 7.041977 11.821987 8.694 1.993 1.935989 3.559002 4.013977 4.703999 6.237 1.185001 2.544998 1.804001 5.29599 1.857002 8.252991l.063 13.848007c.007 2.106003-.387001 4.133011-1.189999 6.078979-.803001 1.826004-1.908001 3.472-3.318001 4.936005-1.412003 1.382004-3.047001 2.481995-4.907001 3.300995-1.899998.818008-3.901997 1.251999-6.007008 1.30101l-10.872993.046997c-2.105995-.029999-4.112-.428009-6.019997-1.186996-1.865013-.84201-3.510002-1.94902-4.934013-3.320023-1.422997-1.451996-2.544006-3.087006-3.361-4.906006-.818001-1.939011-1.231987-3.963989-1.241997-6.067993l-.022995-5.406006-2.671997.010986.023003 5.406021c.050987 2.468979.546997 4.835999 1.487999 7.099991.942001 2.143021 2.244995 4.060989 3.911987 5.75499 1.709 1.611008 3.637009 2.899002 5.788002 3.861008 2.270996.87999 4.623001 1.335983 7.052002 1.367004l10.873001-.047012c2.43-.011002 4.775997-.487991 7.038998-1.428009 2.142998-.981979 4.060997-2.28598 5.753998-3.912003 1.653-1.708008 2.940002-3.639008 3.864002-5.787979.919998-2.27301 1.393997-4.643997 1.424999-7.113998l-.060009-13.847992c-.055-3.362-.777-6.518021-2.166-9.465988-1.268002-2.466003-2.998001-4.767014-5.194-6.901993-1.952999-1.815002-6.014999-4.814011-12.189003-8.998024-4.305-2.938995-7.454987-5.718987-9.451004-8.341995-2.363014-3.433014-3.617004-7.658005-3.760002-12.678993l-.001991-.364014 33.348019-.145996-.014-2.673004-36.01701.158005.000038.000008-.000008.000023v.000015zm-.318993-3.338997c-.406006.001999-.791.084-1.152008.247993-.364998.162994-.689987.386993-.970993.671997-.281006.283997-.504005.588997-.663994.914001-.119003.403999-.199013.809998-.236 1.215996l.013 3.340004c.189987 6.275986 1.831985 11.673996 4.929985 16.197998 2.402 3.185997 6.041023 6.453003 10.916023 9.792999 5.970985 4.022018 9.767998 6.798996 11.395 8.333023 1.709 1.650986 3.030998 3.40799 3.969997 5.265976.983002 2.10202 1.498001 4.367004 1.549 6.796021l.061001 13.850006c.007999 1.660004-.311001 3.240021-.951 4.742004-.602001 1.460983-1.466999 2.759979-2.593998 3.89798-1.131001 1.097992-2.403 1.973999-3.817001 2.629013-1.53701.61499-3.115021.944977-4.734001.992996l-10.871002.047012c-1.620995-.034012-3.200996-.350021-4.741997-.951004-1.420013-.641006-2.700996-1.507004-3.838013-2.595001-1.140999-1.128998-2.015999-2.421005-2.628998-3.876007-.653999-1.495987-.986-3.07399-.991997-4.733994l-.025993-5.404999 2.613998-.013.022995 5.405991c.045006 1.296021.314987 2.530014.807007 3.703003.489998 1.12999 1.181 2.139999 2.078003 3.028.892006.847 1.889 1.529007 2.984001 2.052002 1.216995.479996 2.452995.717987 3.709.712997l10.872986-.046997c1.254013-.006012 2.488998-.254013 3.701-.74501 1.091999-.53299 2.081001-1.223999 2.966999-2.080002.887001-.893997 1.573002-1.909988 2.053001-3.044998.48-1.177002.737999-2.414001.772999-3.708008l-.059998-13.848999c-.051003-2.024994-.483002-3.905991-1.301003-5.644989-.815998-1.575012-1.956997-3.089005-3.421997-4.540009-1.545002-1.451004-5.242023-4.129013-11.090023-8.031029-5.077995-3.499977-8.920006-6.985977-11.525002-10.458977-3.464996-4.965004-5.271996-10.869003-5.421997-17.713013l-.016006-3.339996c-.001015-.769005.134987-1.519005.416-2.25.280006-.647995.681999-1.237999 1.208008-1.765999.522987-.530014 1.127998-.937004 1.818001-1.223.684998-.286003 1.413986-.452003 2.182999-.495003l36.323009-.157997.010998 2.671997-36.321999.158997.000008.000031h-.000008l.000008-.000008zm-.027008-6.015007c-1.214996.046005-2.389.294006-3.519997.744995-1.050003.491005-2 1.143005-2.844994 1.955994-.809006.813995-1.451996 1.768997-1.932007 2.864006-.440994 1.093994-.658005 2.269005-.652 3.525993l.013 3.340996c.196007 7.570015 2.207001 14.121994 6.039001 19.653015 2.849998 3.794006 6.978996 7.542 12.378998 11.245003 5.728996 3.863022 9.262001 6.417999 10.603996 7.667999 1.220013 1.209 2.137001 2.419998 2.750023 3.633011.611 1.252991.940998 2.64798.987999 4.187012l.063 13.847977c-.038998.85202-.197998 1.642014-.477001 2.371002-.321999.73201-.764 1.401978-1.327999 2.011002-.605999.569-1.272011 1.018005-1.997997 1.346008-.770004.327011-1.556992.491989-2.367004.495987l-10.873001.047012c-.810997.003998-1.601997-.156021-2.370995-.475998-.731003-.321014-1.400993-.763992-2.009995-1.327011-.530006-.565002-.977005-1.231003-1.346001-1.998001-.284996-.728989-.450996-1.518021-.493996-2.366989l-.024994-5.407013 2.673004-.010986.023987 5.404999c.002014.485992.103004.931992.308014 1.335999.163986.444.408997.827011.735001 1.149994.364998.322998.751999.582977 1.155998.785995.446999.159012.893013.239014 1.339996.237l10.870995-.047989c.445007-.003006.890999-.085999 1.335999-.248001.402-.204987.787003-.471008 1.150002-.796005.323017-.325012.56501-.712021.724998-1.156021.199009-.407013.299-.853012.297001-1.338013l-.061001-13.849991c-.04501-1.133987-.272991-2.144989-.681-3.033997-.449997-.929993-1.184013-1.877991-2.199997-2.845001-1.259003-1.169998-4.693001-3.643997-10.297005-7.42598-5.645996-3.863998-9.995987-7.814003-13.049995-11.847992-4.157005-6.018013-6.334-13.095001-6.532005-21.231995l-.013-3.340996c.009995-.505005.079994-1.076004.144005-1.569.137001-1.048004.363998-1.998001.745995-2.992004.600006-1.379997 1.424004-2.616997 2.473-3.715996 1.090004-1.056999 2.32-1.892006 3.695007-2.506004 1.454994-.614006 2.973-.923996 4.550995-.93l36.324001-.158997.012001 2.612007-36.324024.157005v-.00003h-.000008z" fill="#fff"/>
    </g>
    <g clip-path="url(#h)" transform="matrix(1.3333 0 0 -1.3333 0 566.93)">
      <path d="M84.988553 272.231376l.091995 21.193008" fill="none" stroke="#fff" stroke-width="2.918"/>
    </g>
    <g clip-path="url(#i)" transform="matrix(1.3333 0 0 -1.3333 0 566.93)">
      <path d="M84.988553 272.231376c3.223-.014999 5.823006-2.639 5.810005-5.861-.014999-3.223-2.638-5.824997-5.862-5.810005-3.223.014-5.823006 2.638-5.809006 5.860001.013 3.224007 2.636993 5.824997 5.861 5.810997v.000008z" fill="none" stroke="#fff" stroke-width="2.918"/>
    </g>
  </g>
</svg>