<svg xmlns="http://www.w3.org/2000/svg" width="300" height="350" viewBox="0 0 325.34 416.511" shape-rendering="geometricprecision" text-rendering="geometricprecision" fill-rule="evenodd" clip-rule="evenodd">
  <g fill-rule="nonzero">
    <path d="M93.4872 182.754v-.14906c.0137897-.033927 0-.0477167 0-.0879914v.237052zm177.707-7.83211c-3.78057-2.79756-8.39443-6.19902-10.0067-8.04837.881228-1.66024 2.94049-4.75657 4.72877-7.31007 9.00446-13.1501 25.8062-37.6352 25.8062-72.7157 0-40.0604-29.3018-86.848-111.848-86.848-39.085 0-83.3323 12.8991-121.441 35.4187-34.2066 20.224-56.3202 43.7869-56.3202 60.0196 0 3.86856 1.49717 7.41842 4.33588 10.2508 10.6975 10.6636 40.5282 10.4128 75.06 10.4128 51.334 0 72.4916 2.81135 72.4916 10.9755 0 9.89159-60.5136 34.2676-60.5136 55.5278 0 24.6063 50.7989 29.186 73.7929 33.2925 21.6733 3.8887 23.8888 15.6156 23.8888 23.6647 0 15.0474-5.54193 28.4138-15.6165 37.6074-9.52562 8.70612-21.3206 14.2343-38.6103 13.4351 5.48786-39.5524-22.5407-66.2317-63.3122-66.2317-46.0694 0-73.6298 38.1631-73.6298 75.039 0 58.1704 53.7247 117.099 156.427 117.099 40.6356 0 81.7191-13.4012 112.687-36.7679 25.6432-19.336 56.2259-54.5116 56.2259-112.268 0-52.6346-35.2296-78.5967-54.1456-92.553z" fill="#fff"/>
    <path d="M93.4872 182.754v-.14906c.0137897-.033927 0-.0477167 0-.0879914v.237052zm177.707-7.83211c-3.78057-2.79756-8.39443-6.19902-10.0067-8.04837.881228-1.66024 2.94049-4.75657 4.72877-7.31007 9.00446-13.1501 25.8062-37.6352 25.8062-72.7157 0-40.0604-29.3018-86.848-111.848-86.848-39.085 0-83.3323 12.8991-121.441 35.4187-34.2066 20.224-56.3202 43.7869-56.3202 60.0196 0 3.86856 1.49717 7.41842 4.33588 10.2508 10.6975 10.6636 40.5282 10.4128 75.06 10.4128 51.334 0 72.4916 2.81135 72.4916 10.9755 0 9.89159-60.5136 34.2676-60.5136 55.5278 0 24.6063 50.7989 29.186 73.7929 33.2925 21.6733 3.8887 23.8888 15.6156 23.8888 23.6647 0 15.0474-5.54193 28.4138-15.6165 37.6074-9.52562 8.70612-21.3206 14.2343-38.6103 13.4351 5.48786-39.5524-22.5407-66.2317-63.3122-66.2317-46.0694 0-73.6298 38.1631-73.6298 75.039 0 58.1704 53.7247 117.099 156.427 117.099 40.6356 0 81.7191-13.4012 112.687-36.7679 25.6432-19.336 56.2259-54.5116 56.2259-112.268 0-52.6346-35.2296-78.5967-54.1456-92.553zm-165.879 7.71019h-.0943391c.223262-6.477 17.906-17.7848 29.64-25.264 17.2557-11.0228 30.8738-19.7221 30.8738-30.2909 0-4.2678-1.63922-8.18408-4.7627-11.2938-11.714-11.6729-44.6403-11.558-79.4979-11.4019-12.6892.0332704-26.1582.433172-38.983-.664095 13.0689-4.33566 28.9426-12.8389 46.4903-22.2016 25.6771-13.733 54.3417-29.0575 81.2248-35.1893-7.13409 7.12709-11.8158 15.7384-11.8158 22.7436 0 2.85928 1.75458 5.91469 6.6462 5.91469 4.32274 0 9.4245-1.67315 15.3254-3.61837 15.5955-5.08774 36.395-11.869 59.7956 5.31188-8.00831-.033927-14.5934 2.17527-18.3261 5.08161-3.59145 2.79143-4.35667 5.79912-4.35667 7.80431 0 3.23861 2.43859 5.97598 5.79912 9.77668 5.2646 5.93483 12.4659 14.0581 12.4659 26.9983 0 10.7247-4.51864 21.8696-11.0158 29.7958.975348-6.97803-.230047-17.2958-4.3906-22.0316-1.95048-2.21555-4.51864-3.38767-7.42521-3.38767-4.74191 0-9.34241 3.84076-16.3476 9.64754-4.92577 4.07168-11.0368 9.13951-18.787 14.1524-23.0078 14.8036-49.1391 29.932-68.312 29.932-1.1382 0-4.14654-.31191-4.14654-1.81543zm28.5974 119.09c20.3181 1.09727 36.9238-4.3698 49.5519-15.9076 12.351-11.2738 19.4172-28.1365 19.4172-46.2526 0-10.2644-3.6245-17.6147-11.6328-24.0037 30.0469 6.17188 62.282 21.5443 78.8745 45.6023-8.62425-3.00156-13.9902-3.80771-19.6271-3.80771-4.30873 0-8.15716 4.74278-8.15716 10.4399 0 2.90656 1.15199 6.46299 2.62836 10.9687 4.51886 13.9223 11.802 36.3278-7.06602 64.5794.372979-11.6667-2.61545-21.0295-6.34107-25.6642-2.59531-3.2176-5.23089-3.90161-6.98525-3.90161-5.83304 0-8.86831 5.52092-13.0961 13.1633-7.62198 13.8011-20.0673 36.2466-59.2806 47.2284 5.58899-8.5634 7.50641-17.7506 5.47407-22.7167-1.00927-2.45938-3.03549-3.94254-5.44015-3.94254h-.149717c-3.76678.161974-8.44827 1.49717-13.8952 3.01447-17.676 4.95269-43.7462 12.2288-70.6834-9.43741 5.47473-.440176 10.2035-2.10742 13.401-4.87105 2.31054-1.97828 3.57766-4.43766 3.57766-6.89004 0-3.69258-3.05562-6.54486-6.93797-10.1494-7.6894-7.1203-17.8251-16.5577-9.7016-36.171 1.07012 4.28181 3.04227 8.12323 5.81969 11.185 3.26553 3.6245 7.19516 5.69777 10.8059 5.69777 7.96125 0 7.96125-6.7679 7.96125-11.2388 0-5.88798 5.36507-11.0438 11.4697-11.0438 17.3238 0 23.854 25.5823 18.1022 39.4644 5.75184-4.45845 10.2105-11.0228 11.9108-15.3453zm128.156 68.657c-28.9976 21.8565-67.4927 34.3966-105.642 34.3966-94.9721 0-144.693-53.0205-144.693-105.364 0-31.124 23.2177-63.5421 61.9569-63.5421 22.8857 0 58.5224 11.2467 54.0637 55.7848-.663219-4.51252-6.53019-20.3652-23.854-20.3652-9.64754 0-17.8047 7.94024-17.8047 17.3577 0 3.83376-.894142 4.90476-1.62631 4.90476-6.40214 0-14.3964-9.42428-12.757-25.203-24.8981 27.7635-7.15423 47.4377 1.52431 55.4668 1.93734 1.81543 4.89162 4.532 4.92555 5.508 0 2.7297-7.13409 7.20129-25.0399 5.56207 31.198 37.1538 67.5319 27.1263 86.7731 21.7072 4.81064-1.33497 10.5487-3.80749 12.0459-1.55889 2.53424 3.43539-4.26167 19.4039-13.4412 27.7574 52.5534-6.86311 69.7954-37.0389 78.5015-52.7905 2.94049-5.29787 5.46007-9.90473 7.57427-9.90473 5.47407 0 10.3519 22.3846 6.65999 39.5585 34.8437-32.4452 24.8162-67.2749 19.7285-82.8505-1.23319-3.80136-2.28953-7.09404-2.28953-9.01124 0-2.87942.907275-3.67857 2.90634-4.18682 8.71247 0 18.8882 3.11647 30.9951 8.89545-32.2283-75.4461-143.69-65.0935-170.762-81.7872 20.4803-1.09727 46.4757-16.1377 69.3753-30.8738 8.0893-5.23002 14.3632-10.4268 19.417-14.6204 5.28474-4.38294 9.85066-8.18342 12.303-8.18342 6.77512 0 7.7172 19.8981 4.22775 32.093 16.9445-10.9284 24.925-27.3642 24.925-42.7908 0-15.3315-8.46841-24.8919-14.0375-31.2059-1.74122-1.97149-4.13253-4.63378-4.2144-5.56907 0-.867.650961-1.89028 1.90407-2.81835 5.84705-4.28159 17.2419-5.87398 29.1188-3.18433-26.1313-33.5766-58.6104-24.0241-76.4422-18.1972-5.39287 1.76837-13.3734 4.2678-13.3734 2.04635 0-6.34895 8.38742-19.3292 23.2919-28.3536-30.426-2.06627-72.2206 20.7785-102.295 36.8829-24.6067 13.1501-47.7636 25.5011-61.0897 25.5011-8.21822 0-11.0979-2.98755-11.0979-6.0029 0-22.8047 80.751-83.7184 166.048-83.7184 32.3163 0 58.7255 7.97417 76.3744 23.0625 15.3044 13.1024 23.7597 31.5843 23.7597 52.0655 0 31.4421-14.8843 53.1293-23.7807 66.0757-4.5657 6.66699-7.06602 10.3318-7.06602 14.2281 0 6.08389 5.67085 10.2707 15.0673 17.201 18.4758 13.638 49.3829 36.4088 49.3829 83.1224 0 52.9262-28.0345 85.1545-51.5433 102.904z"/>
  </g>
</svg>