<svg xmlns="http://www.w3.org/2000/svg" width="1024" height="589" viewBox="-3.00201 -3.00201 184.46002 106.07102">
  <path d="M112.597 81.281l10.692-7.664h-5.292l-13.105 9.405v-9.405h-3.713v17.911h3.713v-4.743l4.797-3.438 8.932 8.181h5.189l-11.213-10.247m-24.55-.551l-5.37-.244c-3.487-.153-4.17-.759-4.17-1.754 0-1.877 3.308-2.271 6.084-2.271 4.5 0 6.734.877 8.476 1.825l.402.217 1.573-2.926-.397-.215c-1.856-1.011-4.501-2.044-10.054-2.044-6.21 0-9.771 2.053-9.771 5.633 0 3.95 3.942 4.675 7.376 4.866l5.374.244c3.894.185 4.58.781 4.58 1.971 0 1.729-2.374 2.68-6.685 2.68-4.715 0-7.549-1.219-9.096-2.241l-.37-.243-1.937 2.79.393.255c2.704 1.763 6.202 2.583 11.01 2.583 6.642 0 10.452-2.204 10.452-6.041 0-4.134-3.781-4.888-7.87-5.085m-26.735 1.498h-8.155v-5.386h8.155c4.475 0 5.295.884 5.295 2.625 0 1.658-.901 2.761-5.295 2.761zm.3-8.611h-12.17v17.911h3.715v-6.131h8.455c7.267 0 8.79-3.299 8.79-6.065 0-3.846-2.873-5.715-8.79-5.715M90.281 61.56h-8.797l4.352-6.475 4.445 6.475zm-4.442-12.419L73.155 68.055h3.985l2.206-3.297h13.141l2.262 3.297h4.126L85.839 49.141m60.79 12.419h-8.798l4.354-6.475 4.444 6.475zm-4.441-12.419l-12.684 18.914h3.984l2.206-3.297h13.142l2.26 3.297h4.127l-13.035-18.914m24.322 8.577v3.225h8.446v2.78c-1.597 1.034-3.8 1.542-6.738 1.542-5.543 0-8.237-2.017-8.237-6.167 0-4.073 2.773-6.138 8.237-6.138 4.088 0 5.922.838 7.418 2.098l.358.302 2.068-2.598-.348-.284c-2.255-1.822-5.167-2.633-9.442-2.633-7.488 0-12.142 3.566-12.142 9.307 0 5.779 4.54 9.228 12.142 9.228 4.372 0 7.744-.99 10.023-2.943l.161-.136v-7.583H166.51m-39.139-7.575l-5.717 11.985-7.475-12.906-7.124 12.906-5.954-11.985h-4.012l9.552 19.049 7.538-13.375 7.806 13.375 9.287-19.049h-3.901m-74.213 3.225h8.155c3.838 0 4.831.399 4.831 1.943 0 1.616-1.083 2.08-4.831 2.08h-8.155v-4.023zm8.047 11.46h-8.047v-4.321h8.047c5.18 0 6.058.531 6.058 2.134 0 1.779-1.133 2.187-6.058 2.187zm6.758-6.207c1.268-.711 1.894-1.855 1.894-3.473 0-4.398-4.001-5.005-8.326-5.005H49.444v17.912h12.087c4.793 0 9.473-.409 9.473-5.278 0-2.055-1.055-3.462-3.041-4.156"/>
  <path d="M18.05 0v100.067L43.399 50.15 18.05 0m-2.709 100.067V39.402L0 69.677l15.341 30.39" fill="#900" fill-rule="evenodd"/>
</svg>