<svg viewBox="0 0 411 110" xmlns="http://www.w3.org/2000/svg" fill-rule="evenodd" clip-rule="evenodd" stroke-linejoin="round" stroke-miterlimit="2">
  <path d="M95.478.972v68.174h13.037V40.744h21.731V28.435h-21.731V13.28h24.627L131.21.972H95.478zM249.149 69.148h16.418l-20.28-29.354c1.929-.442 3.813-1.198 5.65-2.273 1.836-1.07 3.478-2.416 4.925-4.021 1.45-1.61 2.625-3.471 3.525-5.589.9-2.114 1.352-4.464 1.352-7.051 0-3.095-.609-5.873-1.836-8.336-1.223-2.459-2.848-4.544-4.877-6.248-2.025-1.706-4.376-3.015-7.049-3.928-2.67-.917-5.488-1.376-8.448-1.376h-21.247v68.176h13.038V40.743h.963l17.866 28.405zm-1.933-48.289c0 1.641-.285 3.059-.867 4.256-.579 1.202-1.352 2.183-2.314 2.938-.968.757-2.095 1.326-3.385 1.704-1.283.381-2.639.568-4.055.568h-6.274V11.39h6.274c2.9 0 5.393.759 7.484 2.271 2.092 1.517 3.137 3.915 3.137 7.198M311.468.972l-14.875 48.287h-.195L281.527.972h-14.001l22.213 68.174h13.516L325.468.972h-14z" fill="#fff" fill-rule="nonzero"/>
  <path fill="#fff" d="M331.489.975h13.043v68.171h-13.043z"/>
  <path d="M380.831 15.911h.191l7.611 26.117h-15.414l7.612-26.117zM374.27.985l-23.197 68.149h13.858l4.865-15.916h22.264l4.84 15.916h13.857L387.589.985H374.27zM173.835 12.68c-11.438 0-20.744 10.002-20.744 22.298 0 12.3 9.307 22.305 20.744 22.305s20.742-10.005 20.742-22.305c0-12.296-9.304-22.298-20.742-22.298m0 57.282c-18.57 0-33.678-15.693-33.678-34.985C140.157 15.691 155.265 0 173.835 0c18.568 0 33.675 15.691 33.675 34.978 0 19.291-15.107 34.984-33.675 34.984M399.557 92.232h-1.055v16.643h1.793V97.017c0-.154-.003-.326-.011-.51-.006-.186-.018-.377-.031-.57l8.743 12.529c.104.148.212.252.321.314.108.062.244.094.405.094h1.035V92.232h-1.793v11.787c0 .18.004.363.011.553.007.19.021.385.042.586l-8.753-12.541c-.112-.154-.213-.258-.301-.309-.088-.051-.224-.076-.406-.076m-15.418 0v16.643h9.312v-1.836h-7.256v-5.678h5.875v-1.766h-5.875v-5.527h7.256v-1.836h-9.312zm-6.159 0h-2.046v16.643h2.046V92.232zm-13.33 0h-2.045v16.643h8.584v-1.895h-6.539V92.232zm-8.205 0H354.4v16.643h2.045V92.232zm-16.135 1.777h2.773c1.125 0 1.955.229 2.488.686.535.457.803 1.174.803 2.148 0 .418-.067.803-.201 1.156-.133.352-.339.65-.617.898-.277.248-.627.441-1.049.58-.422.141-.921.209-1.497.209h-2.7v-5.677zm3.258 7.282c1.119 0 1.953.25 2.506.75.552.498.828 1.178.828 2.037 0 .441-.063.846-.19 1.213-.126.369-.325.686-.597.953-.27.268-.614.475-1.032.621-.419.146-.919.221-1.503.221h-3.27v-5.795h3.258zm.043 7.584c.844 0 1.595-.115 2.252-.344.658-.229 1.213-.551 1.666-.969.453-.418.797-.918 1.033-1.498.236-.582.354-1.225.354-1.928 0-1.037-.281-1.873-.844-2.508s-1.396-1.072-2.5-1.314c.479-.16.896-.369 1.25-.627.355-.254.65-.545.887-.871.234-.324.41-.676.527-1.055.115-.379.174-.773.174-1.186 0-.672-.104-1.279-.312-1.816-.207-.539-.526-.994-.96-1.365-.432-.371-.984-.656-1.654-.859-.672-.201-1.473-.303-2.4-.303h-4.819v16.643h5.346zm-12.729-5.569c-.253.809-.611 1.494-1.076 2.055-.464.561-1.027.99-1.688 1.289-.661.299-1.399.447-2.215.447-.809 0-1.543-.148-2.203-.447-.661-.299-1.226-.729-1.693-1.289-.467-.561-.828-1.246-1.081-2.055-.253-.809-.379-1.725-.379-2.748 0-1.021.126-1.938.379-2.752.253-.812.614-1.5 1.081-2.061.468-.561 1.032-.992 1.693-1.295.66-.303 1.395-.453 2.203-.453.815 0 1.555.15 2.215.453.66.303 1.224.734 1.688 1.295.465.561.823 1.248 1.076 2.061.253.814.379 1.73.379 2.752 0 1.024-.126 1.94-.379 2.748m1.939-6.178c-.357-1.041-.864-1.939-1.518-2.695-.654-.754-1.439-1.34-2.357-1.758-.918-.42-1.932-.629-3.043-.629-1.11 0-2.123.209-3.037.629-.914.418-1.697 1.004-2.352 1.758-.654.756-1.16 1.654-1.519 2.695s-.538 2.184-.538 3.43c0 1.248.18 2.393.538 3.434.358 1.041.864 1.936 1.519 2.688.654.75 1.438 1.334 2.352 1.748.914.414 1.927.621 3.037.621 1.111 0 2.125-.207 3.043-.621.918-.414 1.703-.998 2.357-1.748.653-.752 1.16-1.646 1.518-2.688.359-1.041.539-2.186.539-3.434.001-1.246-.179-2.389-.539-3.43m-27.578 5.731l-5.219-10.242c-.093-.18-.188-.287-.285-.326-.099-.037-.239-.059-.422-.059h-1.509v16.643h1.794V96.646c0-.164-.006-.342-.017-.533-.011-.195-.026-.393-.047-.594l5.294 10.439c.175.348.422.523.738.523h.295c.316 0 .562-.176.738-.523l5.178-10.404c-.014.193-.024.383-.031.568-.008.186-.01.359-.01.523v12.229h1.791V92.232h-1.508c-.183 0-.322.021-.422.059-.098.039-.193.146-.283.326l-5.115 10.23c-.1.201-.188.4-.264.598-.078.197-.151.404-.222.621-.071-.209-.144-.416-.216-.621-.072-.205-.158-.401-.258-.586m-21.513 0l-5.22-10.242c-.092-.18-.187-.287-.285-.326-.099-.037-.239-.059-.422-.059h-1.508v16.643h1.793V96.646c0-.164-.005-.342-.017-.533-.01-.195-.025-.393-.047-.594l5.295 10.439c.174.348.422.523.737.523h.296c.316 0 .562-.176.738-.523l5.178-10.404c-.015.193-.025.383-.031.568-.008.186-.012.359-.012.523v12.229h1.793V92.232h-1.508c-.184 0-.322.021-.422.059-.098.039-.193.146-.284.326l-5.114 10.23c-.1.201-.188.4-.265.598-.077.198-.151.404-.221.621-.071-.209-.144-.416-.218-.621-.071-.205-.159-.401-.256-.586m-13.594-10.627h-2.046v16.643h2.046V92.232z" fill="#fff" fill-rule="nonzero"/>
  <path d="M68.17519072 29.66680504l-17.15384765.02826936c-.21924459 0-.43848918.00628208-.65741967.0157052-.56444489.02512832-1.12135128.078526-1.66820634.16019304l-1.6173215.3298092c-1.73385408.44916872-3.36279742 1.17789-4.83940033 2.14218928l-.96681211.64705424-.6511376.52769472c-1.44770533 1.17160792-2.70632006 2.56622968-3.72558754 4.1147624l-.10082738.16961616c-1.2799738 1.9945604-2.15632396 4.23098088-2.49806911 6.5490684-.13663524.74756752-.20134067 1.51084024-.20856506 2.277254l-.01947445 22.5212568H.00017394V.97340464h68.17501678v28.6934004z" fill="#fff"/>
  <path d="M68.17519072 69.14967784h-24.9784924c-.01005132-7.48509832.02889758-14.97333768.05245538-22.46471808l.0075385-.11935952c.0562246-2.39347248 1.2410249-4.51367448 2.9852444-5.92400144l.2735846-.20102656c1.1072166-.82923456 2.42111362-1.37577552 3.80285712-1.53282752.27012944-.03455144.54748327-.05339768.82640762-.05339768l17.03040478-.04083352v30.33616432z" fill="#fff"/>
</svg>