<svg xmlns="http://www.w3.org/2000/svg" width="872" height="269">
  <path d="M440.494 230.065c-1.203 0-2.016.027-2.834-.017-1.785-.076-2.62.582-2.532 2.367.109 2.164.049 4.334.017 6.504-.017 1.29.664 1.889 1.972 1.916 1.691.033 3.399.045 5.097.022 3.779-.055 5.768-2.076 5.668-5.751-.093-3.301-2.361-5.256-5.942-5.13-.606.018-1.221.067-1.446.089m.275 27.815c1.225 0 2.444.071 3.663-.011 2.812-.182 4.592-2.137 4.669-5.064.099-3.345-1.554-5.619-4.493-5.816-2.499-.17-5.02-.082-7.535-.044-1.297.021-1.961.687-1.928 1.961.038 1.274 0 2.548.011 3.822.027 5.596-.731 5.19 5.613 5.152m-12.15-14.023c0-5.756.049-11.518-.033-17.274-.027-1.922.868-2.719 2.779-2.724 4.092-.012 8.195-.176 12.275.038 7.855.406 12.722 7.953 10.14 15.494-.143.423-.264.879-.517 1.241-1.361 1.885-.823 3.422.462 5.234 3.361 4.746 2.384 11.568-1.955 15.489-1.852 1.67-4.032 2.599-6.619 2.599-4.575.005-9.145.016-13.72 0-2.164-.012-2.785-.604-2.807-2.626-.022-2.944 0-5.888 0-8.832.001-2.877.001-5.755-.005-8.639M503.526 235.344c0 1.076.061 2.17-.017 3.252-.12 1.686.77 2.301 2.45 2.269 1.626-.033 3.263.027 4.899-.011 3.57-.083 5.515-2.182 5.394-5.807-.11-3.207-2.34-5.168-5.8-5.08-1.357.033-2.714.065-4.076.088-2.57.044-2.822.274-2.851 2.604-.004.894.001 1.789.001 2.685m5.586 22.542c1.22 0 2.45.06 3.669-.011 2.823-.176 4.604-2.121 4.702-5.043.099-3.34-1.549-5.635-4.472-5.838-2.493-.176-5.02-.088-7.535-.05-1.279.017-1.988.647-1.955 1.928.044 1.28 0 2.549.005 3.828.029 5.624-.735 5.224 5.586 5.186m-12.116-13.957c0-5.756-.011-11.513 0-17.274.011-2.175.516-2.746 2.867-2.784 4.021-.071 8.058-.182 12.072.021 8.239.407 13.309 8.689 9.838 16.302-1.05 2.302-.945 3.867.478 5.949 3.175 4.63 2.186 11.149-1.911 15.033-1.912 1.812-4.197 2.79-6.943 2.784-4.504-.005-9.008.017-13.512-.005-2.29-.012-2.878-.582-2.889-2.746-.011-5.762 0-11.519 0-17.28M372.688 239.216c.45-.511.938-.994 1.351-1.538 2.861-3.74 5.701-7.491 8.558-11.237 1.779-2.329 4.878-3.329 7.723-2.405 1.67.532 1.055 1.477.329 2.372-2.867 3.499-5.624 7.08-8.629 10.469-1.895 2.126-2.087 3.944-.587 6.388 3.559 5.817 6.844 11.776 10.227 17.697 1.406 2.455 1.033 2.796-1.944 3.06-2.933.253-4.492-.856-5.668-3.257-2.246-4.581-4.713-9.062-7.118-13.572-1.065-2.005-1.632-2.005-3.142-.303-1.461 1.638-2.225 3.395-2.109 5.608.164 3.065.011 6.136.061 9.206.021 1.532-.688 2.207-2.302 2.273-3.01.109-3.911-.253-4.207-1.922-.088-.5-.05-1.021-.05-1.533 0-11.001.061-22.003-.033-33.01-.038-3.637 1.45-4.004 5.163-3.356.599.104 1.313 1.401 1.346 2.164.148 3.516.056 7.036.083 10.557.005.72.181 1.439.274 2.164.224.055.449.12.674.175M475.152 233.68h-.627c-.285.879-.62 1.752-.861 2.642-.945 3.576-1.89 7.151-2.779 10.732-.527 2.115-.056 2.67 2.263 2.72 1.296.021 2.593-.056 3.883-.028 1.808.028 2.466-.67 2.005-2.378-1.143-4.18-2.197-8.382-3.317-12.572-.1-.397-.375-.743-.567-1.116m-.236-9.866c3.471.018 3.91.313 4.812 3.461 3.208 11.122 6.404 22.262 9.59 33.395.341 1.182 1.099 2.604-.856 3.197-2.434.735-4.943.021-5.504-1.565-.494-1.374-.78-2.823-1.132-4.252-.362-1.51-1.263-2.296-3.01-2.252-2.526.061-5.053.071-7.574-.005-1.928-.066-2.905.774-3.273 2.461-.264 1.181-.55 2.361-.884 3.531-.577 1.978-4.933 3.207-6.404 1.708-.451-.456-.473-1.565-.27-2.269 3.076-10.896 6.223-21.767 9.354-32.647.143-.494.291-.983.439-1.472.9-3.015 1.317-3.301 4.712-3.291M398.745 243.852c-.006-5.695-.006-11.392 0-17.087.005-2.187.549-2.796 2.845-2.817 6.075-.045 12.149-.045 18.219.005 2.247.017 2.647.522 2.676 2.714.043 2.691-.385 3.35-2.604 3.399-3.955.088-7.91.022-11.875.055-2.45.022-2.719.303-2.736 2.555-.021 1.917.083 3.845-.032 5.756-.11 1.89.856 2.521 2.691 2.488 1.911-.027 3.822-.044 5.733.027 2.197.088 2.67.703 2.653 3.208-.011 2.279-.532 2.878-2.708 2.949-2.054.066-4.098.049-6.146.071-1.483.022-2.258.632-2.214 2.12.061 2.049.104 4.104-.011 6.141-.099 1.835.747 2.576 2.631 2.565 3.751-.022 7.503-.022 11.254.011 3.081.033 4.57 2.263 3.175 4.904-.274.527-1.285 1.022-1.961 1.027-6.41.072-12.825.033-19.24.033-1.928 0-2.361-1.109-2.356-2.658.017-5.822.006-11.644.006-17.466M862.334 5.93H794.83c-1.938 0-3.663 1.725-3.663 3.664v17.258c0 2.373 2.373 4.097 4.745 3.235l6.686-2.373c.434-.214.643-.214 1.082-.214h10.348c2.158 0 3.669 1.725 3.669 3.664v102.442c0 .219 0 .643-.22 1.076l-2.158 6.471c-.863 2.372.867 4.959 3.454 4.959h19.62c2.592 0 4.316-2.587 3.46-4.959l-2.373-6.471c0-.434-.22-.857-.22-1.076V31.163c0-1.939 1.725-3.664 3.664-3.664h10.567c.214 0 .648 0 1.082.214l6.679 2.373c2.373.862 4.746-.862 4.746-3.235V9.594c0-1.939-1.725-3.664-3.664-3.664M718.703 27.5h40.332c.429 0 .857 0 1.297.214l6.679 2.373c2.373.862 4.745-.862 4.745-3.235V9.594c0-1.939-1.725-3.664-3.668-3.664h-74.611v.22c-2.159.428-3.241 2.587-2.593 4.74l2.373 6.476c0 .423.22.857.22 1.071v115.169c0 .219-.22.643-.22 1.076l-2.373 6.471c-.648 2.158.434 4.311 2.593 4.745v.214h74.611c1.943 0 3.668-1.725 3.668-3.669v-17.247c0-2.373-2.372-4.103-4.745-3.235l-6.679 2.367c-.439.22-.868.22-1.297.22h-40.332c-2.152 0-3.663-1.725-3.663-3.669V79.256c0-1.725 1.511-3.235 3.235-3.235h26.523c.434 0 .862 0 1.296.219l6.471 2.368c2.372.868 4.745-.862 4.745-3.45V55.319c0-2.587-2.373-4.317-4.745-3.449l-6.471 2.373c-.434.214-.862.214-1.296.214h-26.523c-1.725 0-3.235-1.516-3.235-3.235V31.163c0-1.939 1.511-3.663 3.663-3.663m-52.184 94.461l-6.685 2.367c-.434.22-.867.22-1.296.22h-33.856c-2.158 0-3.669-1.725-3.669-3.669V18.437c0-.214 0-.648.214-1.071l2.373-6.476c.862-2.367-1.076-4.959-3.449-4.959h-19.839c-2.593 0-4.317 2.592-3.455 4.959l2.373 6.476c0 .423.214.857.214 1.071v115.169c0 .219-.214.643-.214 1.076l-2.373 6.471c-.643 2.158.434 4.311 2.587 4.745v.214h68.152c1.938 0 3.668-1.725 3.668-3.669v-17.247c0-2.373-2.372-4.103-4.745-3.235M457.317 81.415c0-1.939-1.714-3.669-3.663-3.669h-17.252c-2.582 0-4.312 2.373-3.449 4.959l2.372 6.471c.22.22.22.648.22 1.082v30.407c0 2.159-1.944 3.883-4.103 3.664-17.9-2.367-32.565-23.717-32.565-48.307 0-26.524 16.176-48.521 35.801-48.521 5.607 0 10.567 1.725 15.093 4.526.435.214 1.082.648 1.517 1.082 2.367 1.725 5.822 0 5.822-3.021v-18.33c0-2.587-2.593-4.317-4.966-3.455-.643.22-1.505.434-2.153.22-4.959-1.725-9.919-2.592-15.312-2.592-31.918 0-57.365 31.489-57.365 70.091 0 38.607 25.447 70.09 57.365 70.09h18.762c1.945 0 3.67-1.725 3.67-3.669-.002-15.957-.002-48.088.206-61.028M355.32 134.682c0-.434-.22-.857-.22-1.076V18.437c0-.214.22-.648.22-1.071l2.373-6.476c.857-2.367-.867-4.959-3.46-4.959h-19.62c-2.587 0-4.316 2.592-3.449 4.959l2.153 6.476c.22.423.22.857.22 1.071v71.387c0 1.725-2.158 2.159-3.021.648-37.096-79.582-11.863-25.232-36.448-77.643l.856-1.939c.868-2.367-1.07-4.959-3.443-4.959h-19.845c-2.587 0-4.312 2.592-3.449 4.959l2.373 6.476c0 .423.22.857.22 1.071v115.169c0 .219-.22.643-.22 1.076l-2.373 6.471c-.862 2.372.862 4.959 3.449 4.959h19.845c2.373 0 4.312-2.587 3.443-4.959l-2.361-6.471c-.22-.434-.22-.857-.22-1.076V62.218c0-1.719 2.159-2.153 3.021-.648l36.443 77.643-.643 1.939c-.867 2.372.862 4.959 3.449 4.959h19.62c2.593 0 4.317-2.587 3.46-4.959l-2.373-6.47zM191.197 87.671c-1.939-.434-3.235-2.587-2.807-4.532 4.537-16.609 8.195-30.84 8.195-30.84.434-1.511 3.021-1.511 3.454 0l8.838 33.428c.647 2.587-1.505 4.959-4.312 4.531l-13.368-2.587zm56.716 53.481l-4.092-6.471c-.22-.434-.439-.857-.439-1.076L213.195 21.023c-.648-2.587-.435-5.174.647-7.761l1.077-2.373c1.076-2.367-1.077-4.959-4.312-4.959h-24.584c-3.241 0-5.395 2.592-4.312 4.959l1.071 2.373c1.082 2.587 1.291 5.174.648 7.761-7.976 29.765-20.481 76.995-30.192 112.582 0 .428-.215.861-.435 1.076l-4.092 6.471c-1.505 2.372-.434 4.959 2.153 4.959h19.839c2.373 0 4.966-2.587 4.751-4.959l-.647-6.471c0-.434 0-.857.214-1.076 0-.429 2.587-10.14 5.822-22.646.648-1.725 2.373-3.021 4.312-2.587l29.336 5.822c1.291.22 2.373 1.291 2.801 2.587 1.297 5.18 2.802 11.002 4.526 17.043v.857l-.643 6.471c-.22 2.372 2.367 4.959 4.74 4.959h19.844c2.589 0 3.665-2.587 2.154-4.959m-121.847-6.47c-.215-.434-.215-.857-.215-1.076V18.437c0-.214 0-.648.215-1.071l2.373-6.476c.861-2.367-1.082-4.959-3.455-4.959H105.15c-2.592 0-4.312 2.592-3.455 4.959l.648 1.939L68.268 85.94c-.647 1.296-2.373 1.296-2.801 0L31.171 12.829l.868-1.939c.856-2.367-1.077-4.959-3.455-4.959H8.75c-2.592 0-4.317 2.592-3.455 4.959l2.373 6.476c0 .423.214.857.214 1.071v115.169c0 .219-.214.643-.214 1.076l-2.373 6.471c-.862 2.372.862 4.959 3.455 4.959h19.833c2.378 0 4.312-2.587 3.455-4.959l-2.373-6.471c-.214-.434-.214-.857-.214-1.076V62.218c0-1.719 2.153-2.153 3.015-.648l22.651 48.741c.423.862.423 1.944.208 2.807l-1.725 4.955c-.862 2.373.868 4.965 3.449 4.965H76.68c2.582 0 4.312-2.592 3.449-4.965l-1.725-4.955c-.434-.862-.434-1.944 0-2.807l22.86-48.741c.643-1.505 3.015-1.071 3.015.648v71.388c0 .219 0 .643-.214 1.076l-2.373 6.471c-.857 2.372.862 4.959 3.455 4.959h19.834c2.373 0 4.316-2.587 3.455-4.959l-2.37-6.471zM535.938 87.671c1.944-.434 3.235-2.593 2.801-4.532-4.525-16.604-8.194-30.84-8.194-30.84-.429-1.505-3.021-1.505-3.449 0l-8.844 33.428c-.648 2.592 1.511 4.959 4.312 4.531l13.374-2.587zm-56.721 53.481l4.103-6.465c.209-.435.429-.868.429-1.082l30.188-112.576c.647-2.593.434-5.18-.648-7.767l-1.071-2.373c-1.082-2.373 1.071-4.959 4.312-4.959h24.585c3.235 0 5.394 2.587 4.317 4.959l-1.082 2.373c-1.082 2.587-1.291 5.174-.643 7.767 7.975 29.764 20.487 76.989 30.188 112.576 0 .434.219.861.434 1.082l4.092 6.465c1.516 2.372.439 4.959-2.153 4.959h-19.839c-2.373 0-4.966-2.587-4.746-4.959l.648-6.465c0-.435 0-.868-.22-1.082 0-.435-2.587-10.134-5.822-22.646-.647-1.725-2.372-3.021-4.312-2.587l-29.33 5.822c-1.291.214-2.367 1.296-2.802 2.587-1.29 5.174-2.807 11.002-4.531 17.038v.868l.648 6.465c.214 2.372-2.373 4.959-4.745 4.959h-19.84c-2.594 0-3.671-2.587-2.16-4.959"/>
</svg>