<svg width="280" height="47" viewBox="0 0 280 47" fill="none" xmlns="http://www.w3.org/2000/svg">
<path d="M29.3721 40.5731C31.6589 40.5731 33.5127 38.7193 33.5127 36.4325C33.5127 34.1457 31.6589 32.2919 29.3721 32.2919C27.0853 32.2919 25.2314 34.1457 25.2314 36.4325C25.2314 38.7193 27.0853 40.5731 29.3721 40.5731Z" fill="#0336FF"/>
<path d="M8.28123 23.62C12.8548 23.62 16.5625 19.9124 16.5625 15.3388C16.5625 10.7652 12.8548 7.05756 8.28123 7.05756C3.70763 7.05756 0 10.7652 0 15.3388C0 19.9124 3.70763 23.62 8.28123 23.62Z" fill="#0336FF"/>
<path d="M42.1083 23.2292C39.9989 25.3386 37.3427 26.5104 34.6083 26.8229C34.5302 26.8229 34.5302 26.8229 34.4521 26.8229C30.7802 27.2135 26.249 27.8385 23.5146 30.651C21.7958 32.3698 21.4833 35.4166 20.7021 37.6041C20.624 37.7604 20.624 37.9166 20.5458 37.9948C20.1552 39.0104 19.5302 40.026 18.6709 40.8854C15.3896 44.1666 10.1553 44.1666 6.95214 40.8854C3.6709 37.6041 3.6709 32.3698 6.95214 29.1667C7.81151 28.3073 8.82714 27.6823 9.84276 27.2917C9.92088 27.2917 10.0771 27.2135 10.1553 27.1354C12.3427 26.3542 15.3896 26.0417 17.1084 24.2448C19.8427 21.5104 20.4677 17.0573 20.8583 13.5417C20.8583 13.3073 20.9365 13.1511 20.9365 12.9167C21.249 10.2605 22.4208 7.68235 24.4521 5.65111C29.2958 0.807377 37.1864 0.807377 42.1083 5.65111C46.952 10.4948 46.952 18.3854 42.1083 23.2292Z" fill="#0336FF"/>
<path d="M60.2334 33.8542C58.3584 32.7605 56.7959 31.2761 55.7021 29.323C54.6084 27.3699 54.0615 25.1824 54.0615 22.6043C54.0615 20.1043 54.6084 17.8387 55.7021 15.8855C56.7959 13.9324 58.3584 12.4481 60.3115 11.3543C62.2646 10.2606 64.4521 9.79181 66.7959 9.79181C69.2177 9.79181 71.3271 10.3387 73.2802 11.3543C75.2333 12.4481 76.7177 13.9324 77.8896 15.8855C78.9833 17.8387 79.5302 20.0262 79.5302 22.6043C79.5302 25.1043 78.9833 27.3699 77.8115 29.323C76.6396 31.2761 75.0771 32.7605 73.124 33.8542C71.1708 34.948 68.9834 35.4167 66.5615 35.4167C64.2959 35.4167 62.1084 34.948 60.2334 33.8542ZM69.8427 29.1667C70.8583 28.6199 71.6396 27.7605 72.2646 26.6668C72.8896 25.573 73.124 24.2449 73.124 22.6043C73.124 20.2605 72.499 18.4637 71.249 17.1355C69.999 15.8855 68.5146 15.2605 66.7177 15.2605C64.9209 15.2605 63.4365 15.8855 62.1865 17.1355C61.0146 18.3855 60.3896 20.1824 60.3896 22.6043C60.3896 24.948 61.0146 26.7449 62.1865 28.073C63.3584 29.323 64.8427 29.948 66.6396 29.948C67.8115 30.0261 68.9052 29.7136 69.8427 29.1667Z" fill="#0336FF"/>
<path d="M94.7646 15.4169H90.3896V35.1043H84.0615V15.4169H81.249V10.2607H84.0615V9.01066C84.0615 5.9638 84.9209 3.69818 86.6396 2.29193C88.3584 0.885689 91.0146 0.182566 94.4521 0.260691V5.57317C92.9677 5.57317 91.874 5.80755 91.249 6.35442C90.624 6.9013 90.3896 7.83879 90.3896 9.24504V10.2607H94.7646V15.4169Z" fill="#0336FF"/>
<path d="M110.463 15.4169H106.088V35.1043H99.7598V15.4169H96.9473V10.2607H99.7598V9.01066C99.7598 5.9638 100.619 3.69818 102.338 2.29193C104.057 0.885689 106.713 0.182566 110.15 0.260691V5.57317C108.666 5.57317 107.572 5.80755 106.947 6.35442C106.322 6.9013 106.088 7.83879 106.088 9.24504V10.2607H110.463V15.4169Z" fill="#0336FF"/>
<path d="M136.092 24.5571H117.967C118.123 26.354 118.748 27.7603 119.842 28.7759C120.936 29.7915 122.342 30.2602 123.904 30.2602C126.248 30.2602 127.889 29.2446 128.904 27.2915H135.701C134.998 29.7134 133.592 31.6665 131.56 33.1509C129.529 34.7134 127.029 35.4946 124.061 35.4946C121.639 35.4946 119.529 34.9477 117.654 33.9321C115.779 32.8384 114.295 31.354 113.201 29.4009C112.107 27.4478 111.639 25.2603 111.639 22.6821C111.639 20.104 112.186 17.8384 113.201 15.8853C114.217 13.9322 115.701 12.4478 117.576 11.4322C119.451 10.4166 121.639 9.86969 124.061 9.86969C126.404 9.86969 128.514 10.4166 130.389 11.3541C132.264 12.3697 133.67 13.7759 134.764 15.6509C135.779 17.5259 136.326 19.6353 136.326 22.0571C136.248 22.9946 136.17 23.854 136.092 24.5571ZM129.764 20.3384C129.764 18.6978 129.139 17.4478 128.045 16.4322C126.873 15.4947 125.545 14.9478 123.904 14.9478C122.342 14.9478 121.014 15.4165 119.998 16.354C118.904 17.2915 118.279 18.6197 118.045 20.2603H129.764V20.3384Z" fill="#0336FF"/>
<path d="M149.375 11.0417C150.703 10.2605 152.187 9.948 153.828 9.948V15.1042H152.187C150.234 15.1042 148.75 15.8855 147.734 16.823C146.719 17.7605 146.25 19.323 146.25 21.6667V35.026H140V10.2605H146.25V14.0886C147.031 12.7605 148.047 11.7449 149.375 11.0417Z" fill="#0336FF"/>
<path d="M164.924 11.0418C166.33 10.1824 168.127 9.79181 170.236 9.79181V13.073H169.377C167.111 13.073 165.236 13.698 163.83 14.948C162.424 16.198 161.721 18.2293 161.721 21.198V35.0261H158.596V10.2606H161.799V14.6355C162.424 13.073 163.518 11.9012 164.924 11.0418Z" fill="#0336FF"/>
<path d="M195.934 23.854H175.387C175.465 25.729 175.934 27.3696 176.715 28.6978C177.496 30.0259 178.59 31.0415 179.918 31.7446C181.246 32.4477 182.73 32.7602 184.293 32.7602C186.324 32.7602 188.121 32.2915 189.527 31.2759C190.934 30.2602 191.871 28.9321 192.34 27.2134H195.699C195.074 29.6352 193.824 31.5884 191.793 33.1509C189.84 34.7134 187.34 35.4165 184.293 35.4165C181.949 35.4165 179.84 34.8696 178.043 33.854C176.168 32.8384 174.762 31.354 173.668 29.4009C172.652 27.4478 172.105 25.2603 172.105 22.6821C172.105 20.104 172.652 17.8384 173.668 15.8853C174.684 13.9322 176.168 12.4478 177.965 11.4322C179.84 10.4166 181.949 9.86969 184.293 9.86969C186.637 9.86969 188.746 10.4166 190.465 11.4322C192.262 12.4478 193.59 13.8541 194.527 15.5728C195.465 17.2915 195.934 19.2447 195.934 21.354C196.012 22.4478 196.012 23.3071 195.934 23.854ZM191.715 16.5884C190.934 15.2603 189.918 14.3228 188.59 13.6197C187.262 12.9166 185.777 12.6041 184.215 12.6041C181.871 12.6041 179.84 13.3853 178.199 14.8697C176.559 16.354 175.621 18.5415 175.465 21.2759H192.887C192.809 19.4009 192.496 17.8384 191.715 16.5884Z" fill="#0336FF"/>
<path d="M200.624 15.8853C201.64 13.9322 203.046 12.4478 204.843 11.4322C206.64 10.4166 208.671 9.86969 210.936 9.86969C213.28 9.86969 215.311 10.4166 217.03 11.5103C218.749 12.6041 219.999 14.0103 220.702 15.6509V10.1822H223.905V35.0259H220.702V29.5571C219.921 31.2759 218.671 32.6821 216.952 33.7759C215.233 34.8696 213.202 35.4165 210.858 35.4165C208.593 35.4165 206.561 34.8696 204.765 33.854C202.968 32.7602 201.562 31.2759 200.546 29.3227C199.53 27.3696 199.062 25.104 199.062 22.604C199.062 20.104 199.608 17.8384 200.624 15.8853ZM219.608 17.3697C218.827 15.8853 217.655 14.7134 216.249 13.8541C214.843 13.0728 213.28 12.6041 211.561 12.6041C209.843 12.6041 208.202 12.9947 206.874 13.7759C205.468 14.5572 204.374 15.729 203.593 17.2134C202.812 18.6978 202.421 20.4947 202.421 22.5259C202.421 24.5571 202.812 26.354 203.593 27.8384C204.374 29.4009 205.468 30.5727 206.874 31.354C208.28 32.1352 209.843 32.5259 211.561 32.5259C213.28 32.5259 214.843 32.1352 216.249 31.2759C217.655 30.4946 218.749 29.3227 219.608 27.7603C220.39 26.2759 220.858 24.479 220.858 22.5259C220.78 20.6509 220.39 18.9322 219.608 17.3697Z" fill="#0336FF"/>
<path d="M229.687 15.8855C230.703 13.9324 232.109 12.448 233.906 11.4324C235.703 10.4168 237.734 9.86991 240 9.86991C242.187 9.86991 244.141 10.4168 245.937 11.4324C247.656 12.5262 248.984 13.8543 249.766 15.573V1.43243H252.969V35.0261H249.766V29.4792C248.984 31.198 247.734 32.6042 246.016 33.698C244.297 34.7917 242.266 35.3386 239.922 35.3386C237.656 35.3386 235.625 34.7917 233.828 33.7761C232.031 32.6824 230.625 31.198 229.609 29.2449C228.594 27.2917 228.125 25.0261 228.125 22.5261C228.125 20.0261 228.672 17.8386 229.687 15.8855ZM248.594 17.3699C247.812 15.8855 246.641 14.7136 245.234 13.8543C243.828 13.073 242.266 12.6043 240.547 12.6043C238.828 12.6043 237.187 12.9949 235.859 13.7761C234.453 14.5574 233.359 15.7293 232.578 17.2136C231.797 18.698 231.406 20.4949 231.406 22.5261C231.406 24.5574 231.797 26.3542 232.578 27.8386C233.359 29.4011 234.453 30.573 235.859 31.3542C237.266 32.1355 238.828 32.5261 240.547 32.5261C242.266 32.5261 243.828 32.1355 245.234 31.2761C246.641 30.4949 247.734 29.323 248.594 27.7605C249.375 26.2761 249.844 24.4792 249.844 22.5261C249.844 20.6511 249.453 18.9324 248.594 17.3699Z" fill="#0336FF"/>
<path d="M279.999 10.2609L265.312 46.7451H262.03L266.874 34.9483L256.718 10.2609H260.233L268.671 31.4327L276.874 10.2609H279.999Z" fill="#0336FF"/>
</svg>
