<?xml version="1.0" encoding="UTF-8" standalone="no"?><!DOCTYPE svg PUBLIC "-//W3C//DTD SVG 1.1//EN" "http://www.w3.org/Graphics/SVG/1.1/DTD/svg11.dtd"><svg width="100%" height="100%" viewBox="0 0 6538 2059" version="1.1" xmlns="http://www.w3.org/2000/svg" xmlns:xlink="http://www.w3.org/1999/xlink" xml:space="preserve" xmlns:serif="http://www.serif.com/" style="fill-rule:evenodd;clip-rule:evenodd;stroke-linejoin:round;stroke-miterlimit:2;"><rect id="Artboard2" x="0" y="0" width="6536.04" height="2057.43" style="fill:none;"/><g><g><path d="M6040.12,939.433c44.854,62.105 85.083,128.55 110.304,201.263c21.929,62.442 31.863,129.908 22.838,195.783c-12.396,97.284 -66.529,184.55 -135.184,252.642c-125.795,124.546 -286.741,208.437 -454.241,262.171c-137.454,43.321 -281.092,67.633 -425.271,69.904c-84.463,1.162 -169.458,-4.284 -251.988,-23.092c-65.425,-15.15 -130.279,-40.175 -181.629,-84.546l-16.708,-16.708c-43.013,-49.025 -67.667,-111.017 -83.271,-173.6c-21.504,-89.992 -27.15,-183.021 -24.992,-275.279c3.092,-121.738 22.213,-242.879 54.53,-360.25c39.658,-141.454 99.862,-278.2 186.191,-397.554c65.313,-88.629 144.521,-172.892 247.817,-216.325c82.675,-35.692 177.429,-37.792 263.225,-12.313c83.746,24 159.779,68.825 230.054,119.467c69.475,220.754 227.971,370.787 458.325,458.437Zm38.929,7.621l-1.637,-0.283l1.637,0.283Z" style="fill:#ff1d43;"/><path d="M6040.12,939.433c-230.354,-87.65 -388.85,-237.683 -458.325,-458.437c-8,-34.896 -13.617,-70.417 -15.658,-106.163c-5.079,-85.762 10.979,-176.604 64.087,-246.225c14.129,-17.079 27.917,-37.566 50.413,-43.891c21.987,-6.892 47.125,0.654 62.387,17.733c75.154,77.875 124.688,177.854 152.35,281.888c70.613,-43.776 156.917,-62.784 239.134,-49.28c10.583,1.73 20.341,6.384 29.25,12.171l9.25,9.25c6.837,9.675 11.716,20.796 13.333,32.625c12.596,81.425 -6.579,166.534 -49.733,236.413c104.008,27.8 204.07,77.196 281.945,152.462c17.025,15.321 24.542,40.484 17.563,62.442c-5.958,21.391 -25.138,34.841 -41.338,48.317c-60.654,47.379 -138.9,66.5 -214.82,66.841c-47.067,0.538 -93.963,-6.016 -139.838,-16.146Z" style="fill:#343434;"/><path d="M5187.46,774.183l145.434,417.696l-294.25,0l148.816,-417.696Zm353.434,926.709l182.637,-0l-475.191,-1198.98l-125.142,-0l-475.192,1198.98l184.325,-0c37.204,-98.079 96.392,-240.134 142.05,-348.363l424.463,0l142.05,348.363Z" style="fill:#fff;fill-rule:nonzero;"/><path d="M483.1,1195.26l473.5,-0l0,-172.492l-473.5,-0l0,-333.142l534.379,0l0,-170.8l-705.179,0l-0,1182.06l170.8,-0l-0,-505.629Z" style="fill:#343434;fill-rule:nonzero;"/><path d="M1311.73,1181.73l431.225,519.159l221.529,-0l-373.729,-444.754c202.929,-35.513 306.088,-194.471 306.088,-361.888c-0,-187.712 -128.525,-377.112 -385.567,-377.112l-431.225,-0l-0,1183.75l169.108,-0l0,-1011.26l262.117,0c143.742,0 214.767,103.154 214.767,204.621c-0,103.154 -71.025,206.308 -214.767,206.308l-199.546,0l0,81.175Z" style="fill:#343434;fill-rule:nonzero;"/><path d="M2160.65,1195.26l536.071,-0l-0,-172.492l-536.071,-0l0,-333.142l547.908,0l0,-170.8l-720.4,0l0,1182.06l722.092,-0l0,-170.796l-549.6,-0l0,-334.833Z" style="fill:#343434;fill-rule:nonzero;"/><path d="M3601.45,816.458c-30.442,-216.458 -219.842,-311.158 -402.479,-311.158c-136.975,0 -279.025,54.113 -358.509,157.271c-50.733,65.95 -71.025,145.433 -64.258,224.912l0,-1.691c18.6,246.9 235.058,287.483 419.388,306.087c118.375,11.838 240.133,27.059 260.425,116.684c3.383,15.22 5.07,28.75 5.07,40.587c0,121.758 -138.666,192.783 -265.495,192.783c-109.921,0 -243.517,-57.5 -255.355,-167.416l0,6.762l-1.691,-25.367l-172.492,3.384l1.692,32.129c21.983,211.388 243.516,319.617 426.154,319.617c213.075,-0 439.679,-131.904 439.679,-360.2c0,-23.675 -3.383,-52.425 -8.454,-77.792c-45.658,-189.4 -246.9,-231.679 -409.242,-251.971c-126.833,-11.837 -260.425,-27.058 -268.883,-148.817c-3.379,-40.583 5.075,-79.479 28.75,-109.916c47.35,-60.879 135.287,-87.938 214.767,-89.629c103.154,-1.692 218.15,43.966 241.825,150.508l169.108,-6.767Z" style="fill:#343434;fill-rule:nonzero;"/><path d="M3927.83,518.829l-170.8,0l0,1182.06l170.8,-0l0,-514.088l500.558,0l0,514.088l172.492,-0l0,-1182.06l-172.492,0l0,498.867l-500.558,-0l0,-498.867Z" style="fill:#343434;fill-rule:nonzero;"/></g></g></svg>