<?xml version="1.0" standalone="no"?>
<!DOCTYPE svg PUBLIC "-//W3C//DTD SVG 1.1//EN" "http://www.w3.org/Graphics/SVG/1.1/DTD/svg11.dtd">
<svg xmlns="http://www.w3.org/2000/svg" viewBox="778.16 702.11 443.68 393.66" width="443.67999267578125" height="393.6600036621094">
  <g>
    <path fill="#000000" d="M1192.07+988.957C1190.6+989.168+1189.21+989.141+1187.84+988.458C1179.7+984.405+1171.57+980.34+1163.4+976.357C1162.01+975.673+1161.55+974.872+1161.8+973.34C1162.84+966.906+1163.83+960.458+1164.71+954.001C1164.93+952.35+1165.71+951.88+1167.22+951.805C1174.69+951.419+1196.38+950.18+1199.83+949.99C1199.58+949.012+1199.06+948.956+1198.62+948.805C1185.3+944.258+1171.97+939.74+1158.66+935.156C1156.93+934.559+1156.19+935.23+1155.51+936.697C1152.65+942.82+1149.67+948.887+1146.84+955.02C1146.06+956.708+1145.43+956.546+1144.3+955.393C1142.37+953.434+1094.38+904.671+1092.34+902.609C1091.15+901.406+1090.43+901.309+1089.34+902.592C1088.77+903.264+1088.02+904.779+1087.06+903.869C1085.22+902.126+1082.62+901.018+1082+898.132C1077.59+877.688+1086.72+851.568+1078.01+832.556C1077.13+830.653+1077.41+829.328+1079.23+828.245C1082.86+826.077+1088.31+820.375+1091.71+817.85C1092.75+817.076+1093.86+817.133+1095.07+817.307C1099.88+817.995+1104.73+818.535+1109.53+819.33C1113.74+820.027+1118.04+820.074+1121.91+822.631C1133.04+829.979+1144.51+836.815+1155.54+844.31C1159.49+847.005+1163.19+847.665+1167.63+846.736C1169.39+846.365+1170.3+845.846+1170.65+843.991C1171.76+837.87+1179.79+796.945+1180.25+794.701C1180.62+792.876+1181.34+792.117+1183.27+792.096C1189.22+792.039+1195.16+791.772+1201.11+791.676C1203.21+791.646+1203.93+791.08+1202.97+788.943C1199.09+780.31+1195.32+771.633+1191.47+762.993C1190.56+760.954+1189.69+758.906+1187.58+757.635C1183.17+754.99+1170.15+747.521+1170.15+747.521C1170.15+747.521+1175.21+745.974+1175.29+745.933C1176.04+745.547+1177.35+745.943+1177.53+744.83C1177.69+743.849+1176.59+743.395+1175.96+742.793C1166.6+733.937+1157.11+725.206+1147.93+716.175C1145.14+713.427+1115.81+708.82+1109.07+709.14C1101.57+709.312+1070.01+714.149+1068.38+730.921C1061.97+728.225+1016.33+705.217+1008.96+702.112C1022.49+719.967+1027.46+741.459+1044.8+754.641L1044.76+754.624C1046.04+755.594+1055.17+763.935+1058.25+766.038C1058.8+766.727+1058.57+767.317+1056.95+768.237C1045.58+774.681+1039.01+776.639+1026.27+779.583C1024.53+779.984+1023.2+779.697+1021.73+778.761C1012.36+772.834+1002.92+767.004+993.543+761.088C991.929+760.071+990.511+759.876+988.774+760.861C973.407+769.584+910.75+804.888+894.765+813.771C890.138+816.341+885.975+819.036+884.217+824.563C882.707+829.299+882.311+829.266+878.003+826.662C876.168+825.56+875.21+825.603+874.42+827.788C869.597+841.186+850.799+892.475+846.382+904.773C845.635+906.857+844.672+907.236+842.588+906.587C831.654+903.182+820.656+899.99+809.727+896.583C807.628+895.93+806.258+896.232+804.71+897.807C796.175+906.49+787.536+915.068+778.951+923.697C778.561+924.085+777.803+924.41+778.355+925.314C778.686+925.229+779.032+925.173+779.346+925.049C788.06+921.579+796.775+918.137+805.463+914.609C806.983+913.99+808.352+913.889+809.895+914.479C812.082+915.307+826.528+920.178+831.952+922.061C831.151+922.412+804.807+931.647+791.903+935.977C789.712+936.714+788.969+937.721+788.98+939.993C789.062+955.143+789.013+970.299+789.029+985.454C789.035+986.212+788.72+987.056+789.489+987.896C791.205+985.888+791.714+983.398+792.586+981.103C796.601+970.477+800.548+959.826+804.569+949.201C805.159+947.647+805.619+946.033+807.643+945.417C816.786+942.634+825.879+939.706+835.005+936.882C835.714+936.658+836.618+936.005+837.283+936.714C837.949+937.411+837.251+938.268+837.012+938.988C833.105+950.699+829.202+962.419+825.191+974.099C824.504+976.096+824.823+977.492+826.328+978.915C832.872+985.112+839.335+991.404+845.889+997.595C848.054+999.635+849.976+1001.98+853.099+1004.14C852.644+1002.4+846.53+981.332+843.714+971.82C843.243+970.217+843.037+968.669+843.562+967.046C846.696+957.352+849.846+947.663+852.899+937.947C853.424+936.281+854.236+935.647+855.978+935.663C863.286+935.74+870.593+935.76+877.894+935.663C879.761+935.643+880.412+936.432+880.747+938.083C882.42+946.294+884.163+954.49+885.873+962.689C886.652+966.406+887.41+970.126+888.195+973.914C889.239+973.482+889.213+972.887+889.304+972.378C892.125+956.859+894.912+941.331+897.775+925.818C898.143+923.809+897.277+923.096+895.534+922.581C888.276+920.438+881.055+918.143+873.786+916.027C871.784+915.443+871.859+914.727+872.953+913.277C878.414+906.001+907.48+866.74+916.719+854.512C918.333+852.378+918.625+851.048+915.968+849.82C915.215+849.466+914.165+848.99+914.858+847.788C915.621+846.479+916.341+845.223+918.008+844.66C929.884+840.66+941.72+836.557+953.58+832.52C954.295+832.276+955.182+831.556+955.832+832.255C956.481+832.952+955.685+833.782+955.404+834.484C947.344+854.462+939.296+874.447+931.144+894.387C929.25+899.031+927.832+903.669+928.027+908.779C928.2+913.184+927.794+917.607+927.67+922.018C927.134+940.492+926.895+958.971+926.305+977.444C926.148+982.379+926.684+987.445+925.418+992.247C923.893+998.026+922.235+1003.77+920.547+1009.5C915.996+1017.92+912.075+1025.22+912.05+1025.25C911.98+1025.36+911.935+1025.43+911.914+1025.47C910.826+1028.06+910.008+1030.73+908.686+1033.23C908.766+1033.3+896.506+1051.17+890.498+1059.79C890.122+1060.54+888.842+1062.16+888.842+1062.16C882.732+1068.15+877.441+1074.65+875.559+1083.2C884.8+1092.41+890.134+1086.23+894.738+1077.07C895.048+1077.61+895.356+1078.14+895.665+1078.67C894.946+1081.91+894.227+1085.16+893.478+1088.54C899.553+1091.05+905.278+1092.03+909.855+1088.13L912.62+1080.48C914.046+1092.21+921.959+1094.74+933.191+1089.38L933.616+1082.66L937.674+1091.22C945.888+1090.29+954.384+1089.33+962.745+1088.38C962.745+1086.3+962.88+1085.84+962.718+1085.53C962.275+1084.69+961.624+1083.96+961.202+1083.11C956.397+1073.43+946.6+1066.55+945.587+1054.68C945.18+1049.92+944.085+1045.16+942.72+1040.57C939.617+1030.13+946.209+1022.9+950.285+1014.55C950.501+1014.11+955.146+1006.55+956.308+1003.19C958.603+996.561+961.677+990.18+962.798+983.164C963.507+978.715+964.367+974.293+965.158+969.861C965.401+981.893+965.395+993.888+965.401+1005.88C965.401+1006.79+965.38+1007.69+965.433+1008.59C965.504+1009.78+966.002+1010.1+966.906+1009.17C967.468+1008.59+967.977+1007.95+968.475+1007.31C973.044+1001.38+977.525+995.392+982.197+989.547C988.752+981.336+988.811+981.384+988.811+970.764C988.811+968.421+988.784+966.076+988.822+963.729C988.833+963.062+988.54+962.272+989.482+961.59C990.943+962.971+992.454+964.35+993.91+965.785C996.918+968.77+1000.29+971.366+1003.94+973.514C1013.19+978.96+1022.28+984.659+1031.45+990.217C1032.76+991.013+1033.14+991.879+1032.54+993.336C1029.83+999.898+1027.15+1006.47+1024.46+1013.05L1018.49+1013.05C1013.85+1034.21+1009.31+1054.9+1004.64+1076.16C1004.62+1076.28+1004.8+1076.68+1005.4+1076.8C1015.17+1078.81+1064.21+1088.48+1078.82+1091.95C1088.31+1094.21+1097.51+1098.13+1107.75+1093.87C1108.01+1092.3+1115.56+1089.04+1114.07+1079.15C1108.54+1072.42+1103.28+1066+1097.81+1059.34C1081.31+1058.11+1065.11+1055.29+1050.94+1045.21C1053.95+1039.72+1057.35+1033.4+1058.65+1031.64C1059.87+1029.99+1060.11+1028.95+1057.51+1028.88C1055.06+1028.82+1055.06+1027.67+1056.01+1025.72C1062.13+1013.26+1068.12+1000.73+1074.26+988.285C1075.22+986.342+1075.1+985.091+1073.48+983.592C1067.08+977.638+997.514+910.158+991.593+904.481C990.24+903.182+989.759+902.245+991.604+900.887C993.628+899.404+1017.99+878.512+1028.23+869.688C1030.35+867.865+1030.78+868.693+1031.49+870.792C1036.74+886.333+1042.13+901.828+1047.38+917.374C1048.26+919.999+1049.67+921.943+1052.1+923.318C1054.92+924.913+1057.61+926.738+1060.32+928.507C1061.13+929.027+1062.24+929.602+1061.01+930.77C1059.29+932.4+1060.21+933.32+1061.82+934.191C1063.01+934.829+1130.04+975.966+1133.27+977.708C1135.01+978.646+1135.21+979.539+1134.36+981.297C1129.91+990.487+1125.63+999.766+1121.18+1008.96C1120.32+1010.73+1120.41+1011.98+1121.59+1013.55C1128.12+1022.23+1134.54+1031+1141.02+1039.72C1141.3+1040.11+1141.49+1040.82+1142.36+1040.46C1142.33+1040.15+1138.47+1023.25+1136.51+1015.12C1136.17+1013.69+1136.26+1012.47+1136.98+1011.19C1138.01+1009.37+1144.23+997.271+1146.61+992.734C1146.81+993.487+1151.46+1017.95+1153.57+1029.92C1153.93+1031.95+1154.72+1032.74+1156.72+1033.03C1170.1+1034.97+1183.47+1037.03+1196.84+1039.02C1197.51+1039.12+1198.22+1039.51+1199.06+1038.94C1197.51+1037.16+1195.39+1036.38+1193.48+1035.31C1184.64+1030.35+1175.76+1025.45+1166.92+1020.5C1165.62+1019.77+1164.26+1019.15+1163.99+1017.28C1162.75+1008.85+1161.37+1000.43+1160.09+992.004C1159.99+991.349+1159.53+990.473+1160.24+989.974C1160.95+989.482+1161.61+990.207+1162.21+990.516C1172.03+995.517+1181.85+1000.52+1191.63+1005.61C1193.29+1006.48+1194.57+1006.39+1196.03+1005.24C1202.36+1000.29+1208.77+995.424+1215.1+990.466C1217.19+988.827+1219.52+987.435+1221.84+984.973C1220.24+985.141+1219.31+985.216+1218.37+985.34"/>
  </g>
</svg>