<svg xmlns="http://www.w3.org/2000/svg" width="1024" height="768">
  <path fill="#013D27" d="M787.569 432.799c-.384-1.193-2.032-4.959-7.501-3.254-.754.256-8.752 7.246-10.939 6.564-2.188-.682-2.401-3.723-3.809-7.814.156-.397 8.027-19.833 8.027-26.795 0-8.262-5.114-13.582-13.027-13.582-7.09 0-10.826 3.552-12.73 6.543-4.574 7.338-5.256 12.949-5.924 31.206-9.292 21.041-25.844 29.21-31.924 26.411-5.029-2.316-2.458-23.044-2.104-29.381 41.713-51.316 61.148-87.886 61.148-115.064 0-15.998-9.362-28.066-21.809-28.066-19.748 0-35.191 18.541-50.023 60.09-12.53 34.758-19.463 69.033-19.549 96.566-12.573 11.494-18.583 14.037-21.367 14.25-.541-.696-1.592-3.14-1.592-7.43 0-7.189 3.311-24.735 7.529-39.951l10.812-38.083c.299-1.087.1-2.266-.611-3.168-.682-.909-1.747-1.435-2.884-1.435h-23.03c-1.562 0-2.983 1.016-3.452 2.522-7.345 23.172-10.102 34.879-13.938 50.791-15.4 34.367-29.054 36.001-35.76 30.659-6.706-5.327 3.723-42.28 16.637-80.726.37-1.116.199-2.337-.483-3.275-.682-.952-1.789-1.513-2.955-1.513h-22.73c-1.521 0-2.871.938-3.396 2.358-12.161 32.599-16.978 51.359-17.744 70.198-11.082 9.121-20.402 15.4-27.32 18.327-1.563.525-2.473.625-2.984.625-2.23 0-4.958-1.363-11.65-10.854l-12.203-16.396 45.377-31.17c.881-.59 1.463-1.556 1.562-2.607.114-1.065-.256-2.117-.98-2.891l-11.948-14.548c-1.222-1.279-3.182-1.492-4.66-.504l-44.922 30.269c17.532-23.669 32.975-47.758 39.055-61.013 5.98-13.497 8.553-23.371 8.553-33.025 0-16.687-9.306-28.351-22.66-28.351-12.105 0-24.962 9.817-34.424 26.284-19.648 34.602-34.183 85.108-35.589 122.701-13.298 13.128-21.794 18.696-25.104 19.436-.085-.369-.156-.909-.156-1.704 0-2.898 2.146-15.543 4.433-24.977l14.491-58.257c.284-1.08.029-2.23-.653-3.111s-1.748-1.399-2.855-1.399h-23.03c-1.62 0-3.069 1.101-3.495 2.671l-2.842 10.386c-7.558-9.064-16.068-13.341-26.34-13.341-13.752 0-28.954 8.112-40.661 21.688-11.707 13.596-18.583 30.879-19.648 49.122-10.13 8.339-21.297 13.753-39.312 19.436 4.077-12.829 6.976-23.356 11.195-40.647 4.347-.127 13.468-1.705 13.568-1.747 2.913-1.052 5.228-5.37 6.848-10.911 1.009-3.51 1.634-7.466 1.634-9.264 0-1.243-.455-5.327-6.195-5.327-.938 0-5.498 1.719-8.78 2.01-.37.028-.767.064-1.165.092 3.608-18.313 4.816-29.161 4.816-42.671 0-17.738-3.865-32.734-11.153-43.325-7.601-11.032-18.455-16.857-31.412-16.857-14.278 0-28.656 7.771-39.468 21.332-10.642 13.327-16.75 30.908-16.75 48.227 0 17.589 7.274 32.826 20.473 42.963 10.229 7.807 20.061 11.43 37.664 13.604-2.941 10.84-6.365 23.343-15.017 51.559-27.406 7.089-45.961 14.576-58.35 23.555-13.07 9.477-19.436 20.984-19.436 35.149 0 18.242 13.127 31.483 31.199 31.483 18.526 0 35.433-10.599 50.266-31.512 10.712-15.117 17.588-31.995 20.643-39.823 21.581-5.456 38.26-12.062 53.263-21.212 6.081 12.674 17.361 21.297 29.92 22.307 11.849.979 25.161-2.359 34.495-15.785-.37 15.217 14.037 16.098 18.924 16.098 10.641 0 23.186-5.925 38.814-18.413.327 5.427.781 10.769 1.364 15.003.228 1.805 1.776 3.154 3.581 3.154H475.892c2.003 0 3.623-1.635 3.623-3.638 0-.198-.014-.397-.042-.567-.796-9.704-1.663-22.746-1.663-38.09 0-1.891 0-3.51.014-5.044l18.726 25.402 1.548 2.074c10.726 14.406 15.613 20.984 26.667 20.984 9.973 0 21.282-4.901 39.737-17.83 2.315 9.49 7.118 17.83 17.091 17.83 14.15 0 28.074-9.562 44.299-27.917.482 8.752 1.549 14.889 3.296 19.321 2.657 6.734 7.345 10.144 13.952 10.144 10.754 0 23.783-5.54 37.791-15.854.256.653.512 1.292.781 1.875 10.215 22.22 57.824 8.126 71.008-11.622 2.416 3.254 2.955 6.195 9.42 7.729 6.464 1.534 26.624-10.485 26.624-19.933-.001-3.655-.668-7.619-1.195-9.324zm-49.995-121.28c2.983-4.88 4.617-5.626 5.924-5.654.312.255 1.279 1.69 1.279 5.186 0 14.499-11.381 39.46-29.722 66.063 8.668-37.451 20.416-62.186 22.519-65.595zM203.282 523.143c-4.234 0-7.161-2.955-7.161-7.188 0-11.991 13.81-22.135 40.093-29.494-14.761 30.09-25.943 36.682-32.932 36.682zm65.808-142.428c-23.172-2.955-34.893-14.243-34.893-33.579 0-20.771 12.46-40.413 25.644-40.413 9.675 0 15.699 11.018 15.699 28.77 0 13.235-2.33 29.551-6.45 45.222zm126.231 42.75c-8.539 29.125-24.408 28.67-31.696 27.448-5.356-.909-10.314-8.724-10.314-22.817 0-11.166 3.68-22.788 10.073-31.859 6.124-8.688 13.767-13.667 20.984-13.667 5.228-.001 22.504 1.576 10.953 40.895zM508.809 311.81c3.281-5.377 4.901-5.377 5.441-5.377.597 0 1.762 1.527 1.762 4.333 0 12.467-10.939 34.978-30.417 62.988 5.199-20.296 13.099-45.719 23.214-61.944zM805.328 341.318c10.656 0 19.379 8.716 19.379 19.378 0 10.67-8.723 19.393-19.379 19.393-10.67 0-19.336-8.723-19.336-19.393 0-10.661 8.666-19.378 19.336-19.378zm0 34.091c8.127 0 14.634-6.635 14.634-14.712 0-8.133-6.507-14.647-14.634-14.647-8.098 0-14.662 6.514-14.662 14.647 0 8.077 6.564 14.712 14.662 14.712zm-7.444-23.592c0-.547.427-1.023 1.022-1.023h8.724c3.339 0 6.62 2.692 6.62 6.99 0 3.346-1.818 5.015-3.607 6.045l2.174 5.214c.326.703-.172 1.463-.924 1.463h-3.666c-.426 0-.852-.376-.966-.76l-2.003-5.711h-2.089v5.449c0 .533-.44 1.023-1.022 1.023h-3.24c-.596 0-1.022-.49-1.022-1.023v-17.667zm8.837 7.857c.909 0 1.719-.81 1.719-1.776 0-1.03-.81-1.769-1.719-1.769h-3.708v3.545h3.708z"/>
  <g fill="#013D27">
    <path d="M403.904 590.354h9.092c7.98 0 13.099 5.205 13.099 12.665 0 7.426-4.806 12.578-12.995 12.578h-9.194l-.002-25.243zm8.762 19.241c3.834 0 6.35-2.949 6.35-6.575 0-3.765-2.567-6.645-5.881-6.645h-2.672v13.22h2.203zM436.106 590.354h16.776v6.021h-10.236v3.8h8.016v5.863h-8.016v3.557h10.982v6.003h-17.522v-25.244zM462.079 611.92l3.816-4.701c1.995 2.029 4.216 2.792 5.761 2.792 1.578 0 2.168-.832 2.168-1.63 0-1.007-.485-1.527-3.192-2.43-3.834-1.283-7.668-3.157-7.668-8.311 0-4.285 3.574-7.529 8.414-7.633 3.47-.069 6.558 1.283 8.936 3.366l-3.748 4.822c-2.186-1.7-3.557-2.272-4.806-2.272-1.197 0-1.77.59-1.77 1.492 0 .85.538 1.526 3.105 2.516 4.459 1.718 7.824 2.811 7.824 7.668 0 6.315-5.273 8.362-9.507 8.362-3.279.001-6.627-1.3-9.333-4.041zM490.775 590.354h6.854v25.243h-6.854v-25.243zM521.012 615.909c-7.304 0-13.167-4.562-13.167-12.872 0-7.287 4.685-13.047 12.89-13.047 3.695 0 7.859 1.613 10.409 4.667l-4.788 4.042c-1.162-1.11-3.001-2.359-5.639-2.359-3.07 0-5.829 2.377-5.829 6.697 0 3.591 2.203 6.696 6.124 6.696 1.336 0 2.43-.208 3.782-.832v-2.325h-4.302v-5.447h10.635v11.745c-2.256 1.7-6.193 3.036-10.115 3.035zM563.624 590.354v25.243h-7.009l-8.275-13.81h-.087v13.81h-6.714v-25.243h6.801l8.432 14.227h.087v-14.227h6.765zM572.908 611.92l3.816-4.701c1.995 2.029 4.216 2.792 5.761 2.792 1.578 0 2.168-.832 2.168-1.63 0-1.007-.485-1.527-3.192-2.43-3.834-1.283-7.668-3.157-7.668-8.311 0-4.285 3.574-7.529 8.414-7.633 3.47-.069 6.558 1.283 8.936 3.366l-3.748 4.822c-2.186-1.7-3.557-2.272-4.806-2.272-1.197 0-1.77.59-1.77 1.492 0 .85.538 1.526 3.105 2.516 4.459 1.718 7.824 2.811 7.824 7.668 0 6.315-5.273 8.362-9.507 8.362-3.278.001-6.627-1.3-9.333-4.041z"/>
  </g>
  <g fill="#013D27">
    <path d="M436.774 128.819h39.307v13.64h-24.449v10.77h20.007v13.561h-20.007v19.22h-14.858v-57.191zM516.172 186.01l-10.769-17.452h-3.538v17.452h-14.858v-57.19h22.916c14.347 0 20.831 8.608 20.831 20.322 0 8.372-3.577 14.032-9.669 16.98l-.04.118 12.934 19.771h-17.807zm-14.307-30.698h4.638c4.874 0 8.372-2.24 8.372-6.526 0-3.498-2.791-6.524-8.372-6.524h-4.638v13.05zM543.195 179.093c0-4.167 3.537-7.666 7.861-7.666 4.285 0 7.822 3.499 7.822 7.666 0 4.284-3.537 7.742-7.822 7.742-4.324 0-7.861-3.459-7.861-7.742z"/>
  </g>
  <g fill="#013D27">
    <path d="M441.87 626.855h6.518v1.2h-5.207v3.567h4.277v1.201h-4.277v3.486h5.522v1.201h-6.833v-10.655zM453.146 635.959l.828-1.004c.776.952 1.919 1.414 2.959 1.414 1.304 0 2.183-.608 2.183-1.626 0-1.201-.967-1.523-2.388-2.059-1.575-.586-3.179-1.267-3.179-3.105 0-1.597 1.428-2.812 3.252-2.819 1.179-.008 2.358.439 3.369 1.245l-.784 1.011c-.85-.696-1.794-1.04-2.593-1.04-.988 0-1.882.542-1.89 1.538-.007 1.025.945 1.385 2.278 1.904 1.787.696 3.296 1.187 3.296 3.179 0 1.963-1.722 3.01-3.56 3.01-1.332-.001-2.709-.513-3.771-1.648zM467.688 628.056h-3.186v-1.2h7.713v1.2h-3.224v9.456h-1.304v-9.456zM475.34 636.758c0-.477.381-.857.871-.857.477 0 .864.381.864.857 0 .469-.388.849-.864.849-.49-.001-.871-.38-.871-.849zM481.679 635.959l.828-1.004c.776.952 1.919 1.414 2.959 1.414 1.304 0 2.183-.608 2.183-1.626 0-1.201-.967-1.523-2.388-2.059-1.575-.586-3.179-1.267-3.179-3.105 0-1.597 1.428-2.812 3.252-2.819 1.179-.008 2.358.439 3.369 1.245l-.784 1.011c-.85-.696-1.794-1.04-2.593-1.04-.988 0-1.882.542-1.89 1.538-.007 1.025.945 1.385 2.278 1.904 1.787.696 3.296 1.187 3.296 3.179 0 1.963-1.722 3.01-3.56 3.01-1.332-.001-2.709-.513-3.771-1.648zM494.136 626.855h6.518v1.2h-5.207v3.567h4.277v1.201h-4.277v3.486h5.522v1.201h-6.833v-10.655zM506.101 626.855h3.728c2.49 0 3.522 1.413 3.522 3.303 0 2.256-1.523 3.289-3.75 3.289h-2.197v4.064h-1.303v-10.656zm3.382 5.391c1.78 0 2.513-.901 2.513-2.117 0-1.348-.879-2.072-2.308-2.072h-2.285v4.189h2.08zM520.615 628.056h-3.188v-1.2h7.713v1.2h-3.223v9.456h-1.303v-9.456zM528.266 636.758c0-.477.381-.857.871-.857.477 0 .863.381.863.857 0 .469-.387.849-.863.849-.491-.001-.871-.38-.871-.849zM537.791 627.119c2.037 0 3.625 1.597 3.617 4.043-.006 3.757-2.701 6.218-5.375 6.709l-.373-1.077c1.859-.469 3.676-1.691 4.299-3.97l-.021-.015c-.652.571-1.568.916-2.578.916-1.766 0-3.129-1.23-3.129-3.238-.001-1.918 1.531-3.369 3.56-3.368zm2.387 4.021v-.08c0-1.678-1.002-2.769-2.365-2.769-1.391 0-2.314 1.011-2.314 2.204 0 1.23.857 2.073 2.139 2.073 1.032 0 2.012-.579 2.54-1.428zM549.916 637.607c-2.24 0-3.867-1.875-3.867-5.237 0-3.054 1.414-5.251 3.867-5.251 2.242 0 3.867 1.867 3.867 5.251 0 3.04-1.406 5.236-3.867 5.237zm2.594-5.237c0-2.637-1.07-4.079-2.586-4.079-1.648 0-2.6 1.597-2.6 4.079 0 2.601 1.076 4.065 2.6 4.065 1.648.001 2.586-1.604 2.586-4.065z"/>
  </g>
</svg>