<?xml version="1.0" encoding="utf-8"?>
<!-- Generator: Adobe Illustrator 16.0.0, SVG Export Plug-In . SVG Version: 6.00 Build 0)  -->
<!DOCTYPE svg PUBLIC "-//W3C//DTD SVG 1.1//EN" "http://www.w3.org/Graphics/SVG/1.1/DTD/svg11.dtd">
<svg version="1.1" id="Layer_1" xmlns="http://www.w3.org/2000/svg" xmlns:xlink="http://www.w3.org/1999/xlink" x="0px" y="0px"
	 width="236px" height="144.25px" viewBox="0 0 236 144.25" enable-background="new 0 0 236 144.25" xml:space="preserve">
<g>
	<path fill="#013D27" d="M221.933,102.129c-0.138-0.429-0.729-1.78-2.692-1.169c-0.27,0.093-3.139,2.6-3.924,2.356
		c-0.785-0.244-0.859-1.336-1.365-2.804c0.055-0.142,2.879-7.115,2.879-9.612c0-2.963-1.834-4.872-4.674-4.872
		c-2.543,0-3.882,1.273-4.564,2.347c-1.642,2.633-1.887,4.646-2.125,11.195c-3.334,7.547-9.271,10.478-11.452,9.473
		c-1.804-0.829-0.882-8.266-0.754-10.538c14.962-18.407,21.934-31.525,21.934-41.274c0-5.739-3.358-10.069-7.821-10.069
		c-7.085,0-12.624,6.652-17.945,21.556c-4.494,12.468-6.981,24.762-7.012,34.639c-4.511,4.123-6.666,5.034-7.665,5.112
		c-0.194-0.252-0.571-1.129-0.571-2.666c0-2.579,1.188-8.873,2.701-14.331l3.878-13.66c0.108-0.39,0.036-0.813-0.219-1.136
		c-0.243-0.327-0.627-0.516-1.035-0.516h-8.26c-0.56,0-1.071,0.366-1.238,0.905c-2.634,8.312-3.623,12.512-4.999,18.219
		c-5.525,12.326-10.422,12.912-12.827,10.996c-2.406-1.91,1.334-15.166,5.966-28.955c0.135-0.4,0.072-0.839-0.172-1.176
		c-0.245-0.34-0.643-0.542-1.061-0.542h-8.153c-0.545,0-1.03,0.337-1.218,0.846c-4.363,11.693-6.09,18.423-6.365,25.18
		c-3.976,3.272-7.318,5.524-9.8,6.575c-0.562,0.188-0.886,0.224-1.071,0.224c-0.8,0-1.778-0.488-4.178-3.893l-4.378-5.882
		l16.276-11.181c0.316-0.212,0.526-0.558,0.562-0.935c0.042-0.383-0.093-0.76-0.353-1.037l-4.285-5.219
		c-0.438-0.458-1.143-0.535-1.671-0.182l-16.113,10.858c6.287-8.492,11.827-17.131,14.008-21.885
		c2.146-4.843,3.068-8.385,3.068-11.848c0-5.986-3.339-10.17-8.129-10.17c-4.342,0-8.954,3.522-12.347,9.429
		C105.719,68.9,100.505,87.018,100,100.502c-4.771,4.709-7.816,6.708-9.005,6.972c-0.03-0.134-0.056-0.324-0.056-0.612
		c0-1.038,0.77-5.573,1.591-8.957l5.198-20.896c0.102-0.389,0.01-0.801-0.235-1.117s-0.628-0.503-1.024-0.503h-8.261
		c-0.582,0-1.102,0.395-1.253,0.959l-1.021,3.725c-2.709-3.251-5.765-4.784-9.449-4.784c-4.933,0-10.385,2.91-14.584,7.779
		c-4.198,4.877-6.666,11.076-7.048,17.619c-3.635,2.992-7.641,4.935-14.103,6.971c1.463-4.602,2.503-8.376,4.017-14.58
		c1.56-0.045,4.831-0.61,4.867-0.626c1.045-0.378,1.876-1.926,2.456-3.914c0.363-1.259,0.586-2.678,0.586-3.323
		c0-0.445-0.161-1.909-2.222-1.909c-0.335,0-1.972,0.615-3.148,0.72c-0.134,0.012-0.276,0.023-0.418,0.033
		c1.294-6.567,1.727-10.46,1.727-15.307c0-6.362-1.386-11.74-4-15.541c-2.727-3.957-6.619-6.047-11.269-6.047
		c-5.121,0-10.278,2.789-14.156,7.653c-3.817,4.781-6.009,11.086-6.009,17.298c0,6.31,2.609,11.776,7.344,15.412
		c3.668,2.8,7.195,4.1,13.51,4.879c-1.055,3.889-2.283,8.373-5.386,18.493c-9.831,2.545-16.486,5.229-20.933,8.449
		c-4.687,3.4-6.97,7.529-6.97,12.61c0,6.543,4.709,11.293,11.191,11.293c6.646,0,12.709-3.801,18.03-11.305
		c3.842-5.423,6.309-11.476,7.404-14.284c7.741-1.955,13.725-4.326,19.105-7.607c2.182,4.547,6.228,7.64,10.732,7.999
		c4.25,0.352,9.025-0.845,12.373-5.66c-0.131,5.457,5.037,5.773,6.789,5.773c3.816,0,8.317-2.124,13.923-6.604
		c0.118,1.946,0.28,3.861,0.489,5.379c0.081,0.649,0.637,1.132,1.285,1.132h8.057h0.004c0.72,0,1.3-0.586,1.3-1.304
		c0-0.071-0.005-0.142-0.015-0.203c-0.286-3.481-0.596-8.158-0.596-13.663c0-0.679,0-1.259,0.004-1.81l6.718,9.11l0.555,0.746
		c3.848,5.168,5.601,7.526,9.565,7.526c3.578,0,7.634-1.758,14.254-6.396c0.831,3.403,2.555,6.396,6.131,6.396
		c5.076,0,10.07-3.43,15.891-10.014c0.173,3.14,0.556,5.339,1.183,6.93c0.952,2.417,2.634,3.639,5.004,3.639
		c3.857,0,8.531-1.985,13.556-5.688c0.091,0.234,0.184,0.464,0.279,0.673c3.665,7.971,20.742,2.916,25.473-4.17
		c0.865,1.17,1.059,2.224,3.378,2.774s9.551-3.761,9.551-7.149C222.36,104.161,222.121,102.74,221.933,102.129z M203.998,58.625
		c1.07-1.751,1.656-2.018,2.125-2.028c0.112,0.091,0.459,0.606,0.459,1.859c0,5.201-4.083,14.155-10.66,23.697
		C199.029,68.721,203.243,59.848,203.998,58.625z M12.346,134.533c-1.518,0-2.568-1.059-2.568-2.576
		c0-4.304,4.953-7.941,14.381-10.582C18.864,132.169,14.853,134.533,12.346,134.533z M35.951,83.445
		c-8.312-1.06-12.516-5.109-12.516-12.044c0-7.451,4.47-14.496,9.197-14.496c3.471,0,5.632,3.952,5.632,10.318
		C38.265,71.971,37.43,77.824,35.951,83.445z M81.231,98.781c-3.062,10.445-8.756,10.282-11.37,9.844
		c-1.921-0.324-3.699-3.128-3.699-8.185c0-4.004,1.319-8.174,3.612-11.428c2.196-3.114,4.939-4.902,7.528-4.902
		C79.178,84.11,85.375,84.677,81.231,98.781z M121.938,58.729c1.179-1.928,1.759-1.928,1.952-1.928c0.215,0,0.632,0.546,0.632,1.552
		c0,4.473-3.923,12.548-10.91,22.594C115.479,73.668,118.311,64.548,121.938,58.729z"/>
	<g>
		<path fill="#013D27" d="M228.303,69.313c3.82,0,6.95,3.127,6.95,6.951c0,3.827-3.13,6.956-6.95,6.956
			c-3.829,0-6.937-3.129-6.937-6.956C221.366,72.44,224.474,69.313,228.303,69.313z M228.303,81.543
			c2.914,0,5.249-2.381,5.249-5.278c0-2.918-2.335-5.254-5.249-5.254c-2.905,0-5.261,2.336-5.261,5.254
			C223.042,79.162,225.397,81.543,228.303,81.543z M225.632,73.079c0-0.194,0.152-0.366,0.367-0.366h3.13
			c1.196,0,2.373,0.966,2.373,2.507c0,1.201-0.651,1.8-1.293,2.167l0.779,1.872c0.117,0.253-0.062,0.525-0.332,0.525h-1.314
			c-0.152,0-0.305-0.136-0.348-0.272l-0.718-2.049h-0.749v1.954c0,0.19-0.158,0.367-0.366,0.367h-1.162
			c-0.215,0-0.367-0.177-0.367-0.367V73.079z M228.802,75.898c0.327,0,0.616-0.291,0.616-0.638c0-0.369-0.289-0.634-0.616-0.634
			h-1.33v1.271H228.802z"/>
	</g>
</g>
<g>
	<path fill="#013D27" d="M87.307,17.978c-1.71,0-3.243-0.519-4.522-1.655l1.831-2.493c0.96,0.838,1.931,1.257,2.769,1.257
		c0.552,0,0.816-0.166,0.816-0.452c0-0.276-0.143-0.463-1.511-0.861c-1.876-0.541-3.509-1.5-3.509-3.607
		c0-2.427,1.942-3.718,4.248-3.718c1.809,0,3.012,0.485,4.324,1.401l-1.864,2.681c-0.717-0.728-1.633-1.136-2.328-1.136
		c-0.353,0-0.694,0.132-0.694,0.452c0,0.221,0.265,0.419,1.367,0.772c2.516,0.805,3.74,1.533,3.74,3.696
		C91.974,16.478,90.44,17.978,87.307,17.978L87.307,17.978z"/>
	<path fill="#013D27" d="M95.002,14.271V9.88H93.8v-3.2h1.202V3.206l4.027-0.419v3.895h2.405V9.88h-2.405v3.519
		c0,0.519,0.066,1.125,0.728,1.125c0.155,0,0.53-0.044,0.816-0.177l0.982,2.813c-0.816,0.463-1.633,0.816-3.232,0.816
		C96.437,17.978,95.002,16.809,95.002,14.271z"/>
	<path fill="#013D27" d="M115.098,6.681v11.065h-4.049v-1.18h-0.044c-0.762,0.938-1.831,1.412-3.012,1.412
		c-2.262,0-3.917-1.224-3.917-4.821V6.681h4.027v5.505c0,1.578,0.419,2.229,1.445,2.229c0.85,0,1.5-0.662,1.5-2.173v-5.56H115.098z"
		/>
	<path fill="#013D27" d="M129.611,1.11v16.636h-3.828v-1.037h-0.044c-0.685,0.85-1.666,1.269-2.935,1.269
		c-3.034,0-5.142-2.35-5.142-5.77c0-3.397,2.13-5.759,4.898-5.759c1.147,0,2.185,0.452,2.968,1.335h0.033V1.11H129.611z
		 M125.739,12.219c0-1.313-0.86-2.218-2.041-2.218c-1.137,0-1.964,0.905-1.964,2.218c0,1.357,0.827,2.229,1.964,2.229
		C124.879,14.448,125.739,13.576,125.739,12.219z"/>
	<path fill="#013D27" d="M132.529,3.239c0-1.203,0.96-2.151,2.316-2.151c1.357,0,2.317,0.927,2.317,2.151
		c0,1.257-0.96,2.184-2.317,2.184C133.489,5.423,132.529,4.475,132.529,3.239z M132.827,6.681h4.027v11.065h-4.027V6.681z"/>
	<path fill="#013D27" d="M139.606,12.219c0-3.409,2.493-5.77,6.067-5.77c3.563,0,6.067,2.361,6.067,5.77s-2.504,5.758-6.067,5.758
		C142.1,17.978,139.606,15.628,139.606,12.219z M147.682,12.219c0-1.291-0.827-2.195-2.008-2.195c-1.169,0-2.008,0.905-2.008,2.195
		c0,1.269,0.872,2.195,2.008,2.195C146.811,14.415,147.682,13.488,147.682,12.219z"/>
</g>
</svg>
