<?xml version="1.0" encoding="utf-8"?>
<!-- Generator: Adobe Illustrator 16.0.0, SVG Export Plug-In . SVG Version: 6.00 Build 0)  -->
<!DOCTYPE svg PUBLIC "-//W3C//DTD SVG 1.1//EN" "http://www.w3.org/Graphics/SVG/1.1/DTD/svg11.dtd">
<svg version="1.1" id="Ebene_1" xmlns="http://www.w3.org/2000/svg" xmlns:xlink="http://www.w3.org/1999/xlink" x="0px" y="0px"
	 width="1771.411px" height="355.482px" viewBox="0 0 1771.411 355.482" enable-background="new 0 0 1771.411 355.482"
	 xml:space="preserve">
<path fill="#FFFFFF" d="M1746.667,206.056c6.588-1.988,12.512-4.968,17.781-8.938l-12.379-19.455
	c-0.785-1.234-1.557-2.143-2.305-2.718c-0.748-0.57-1.732-0.861-2.969-0.861c-0.871,0-1.643,0.154-2.301,0.463
	c-0.654,0.308-1.359,0.665-2.102,1.057c-0.748,0.403-1.627,0.753-2.635,1.068c-1.018,0.309-2.262,0.457-3.758,0.457
	c-2.9,0-5.115-1.039-6.645-3.11c-1.539-2.071-2.311-4.694-2.311-7.875V97.972h33.188V69.914h-33.188V29.806h-21.33
	c-4.92,0-7.904,2.119-8.961,6.356l-8.035,33.483L1667,73.883v16.018c0,2.641,0.734,4.653,2.23,6.023
	c1.494,1.366,3.299,2.048,5.4,2.048h11.598v70.95c0,6.089,0.869,11.608,2.629,16.546c1.756,4.949,4.326,9.162,7.709,12.641
	c3.369,3.49,7.541,6.185,12.51,8.078c4.961,1.898,10.684,2.842,17.188,2.842C1733.278,209.028,1740.086,208.043,1746.667,206.056
	 M1572.579,179.028c-2.551-1.917-3.822-5.234-3.822-9.946c0-2.41,0.594-4.635,1.779-6.683c1.188-2.047,3.312-3.869,6.387-5.472
	c3.074-1.602,7.24-2.937,12.51-4.006c5.266-1.062,11.988-1.602,20.148-1.602v18.795c-4.035,4.148-8.035,7.151-11.982,9.003
	c-3.951,1.856-8.557,2.778-13.826,2.778C1578.856,181.896,1575.118,180.944,1572.579,179.028 M1649.356,206.915v-85.78
	c0-7.852-1.234-15.086-3.686-21.704c-2.469-6.623-5.996-12.332-10.613-17.145c-4.604-4.807-10.225-8.558-16.848-11.252
	c-6.629-2.688-14.072-4.029-22.32-4.029c-11.502,0-22.277,1.787-32.338,5.359c-10.049,3.572-19.205,9.021-27.461,16.344
	l7.383,12.843c1.135,2.03,2.693,3.727,4.672,5.092c1.977,1.364,4.373,2.053,7.176,2.053c3.162,0,5.887-0.528,8.172-1.59
	c2.279-1.057,4.623-2.249,7.043-3.573c2.41-1.317,5.15-2.516,8.227-3.573c3.074-1.057,7.025-1.59,11.857-1.59
	c6.059,0,10.729,1.811,14.029,5.413c3.287,3.608,4.932,9.466,4.932,17.566v5.875c-15.625,0-28.574,1.419-38.854,4.256
	c-10.268,2.83-18.434,6.35-24.486,10.558c-6.064,4.202-10.32,8.873-12.777,14.006c-2.463,5.133-3.686,10.136-3.686,15.009
	c0,6.196,0.961,11.668,2.896,16.398c1.924,4.739,4.678,8.705,8.227,11.887c3.561,3.193,7.881,5.597,12.979,7.24
	c5.088,1.632,10.748,2.45,16.984,2.45c4.66,0,8.891-0.373,12.707-1.12c3.822-0.749,7.418-1.894,10.803-3.442
	c3.377-1.544,6.652-3.419,9.814-5.626c3.156-2.208,6.451-4.767,9.875-7.674l2.896,7.543c1.312,3.353,2.955,5.562,4.938,6.617
	c1.971,1.062,4.896,1.59,8.754,1.59L1649.356,206.915L1649.356,206.915z M1468.081,195.063c1.188,2.783,2.807,5.187,4.871,7.217
	c2.061,2.035,4.498,3.619,7.307,4.767c2.807,1.146,5.887,1.722,9.223,1.722c3.252,0,6.277-0.576,9.08-1.722
	c2.812-1.146,5.271-2.729,7.385-4.767c2.105-2.03,3.748-4.434,4.936-7.217c1.188-2.776,1.775-5.75,1.775-8.932
	s-0.588-6.131-1.775-8.867c-1.188-2.736-2.83-5.116-4.936-7.151c-2.113-2.024-4.57-3.644-7.385-4.831
	c-2.803-1.193-5.828-1.786-9.08-1.786c-3.334,0-6.416,0.593-9.223,1.786c-2.809,1.187-5.246,2.807-7.307,4.831
	c-2.064,2.035-3.686,4.415-4.871,7.151c-1.188,2.735-1.781,5.685-1.781,8.867S1466.895,192.287,1468.081,195.063 M1451.024,85.266
	c-2.541-2.558-5.484-4.919-8.818-7.08c-3.336-2.16-7.027-4.035-11.062-5.632c-4.041-1.584-8.363-2.819-12.975-3.697
	c-4.604-0.884-9.371-1.324-14.289-1.324c-9.047,0-16.938,1.163-23.705,3.501c-6.76,2.345-12.379,5.496-16.854,9.466
	c-4.475,3.977-7.832,8.588-10.076,13.834c-2.244,5.252-3.359,10.789-3.359,16.612c0,6.267,0.926,11.608,2.766,16.018
	c1.854,4.415,4.262,8.137,7.24,11.181c2.992,3.05,6.393,5.561,10.215,7.548c3.814,1.983,7.695,3.686,11.648,5.092
	c3.951,1.418,7.84,2.677,11.656,3.774c3.822,1.109,7.217,2.297,10.207,3.573c2.984,1.282,5.402,2.801,7.246,4.57
	c1.846,1.763,2.766,4.018,2.766,6.754c0,1.501-0.312,2.955-0.92,4.362c-0.617,1.419-1.584,2.694-2.9,3.846
	c-1.312,1.146-3.08,2.053-5.271,2.712c-2.189,0.658-4.867,0.991-8.029,0.991c-4.475,0-8.189-0.528-11.135-1.591
	c-2.941-1.058-5.506-2.202-7.695-3.442c-2.201-1.235-4.238-2.38-6.125-3.437c-1.895-1.057-4.018-1.596-6.393-1.596
	c-2.539,0-4.604,0.51-6.184,1.525c-1.586,1.014-2.943,2.41-4.084,4.172l-9.482,15.092c2.635,2.38,5.791,4.612,9.482,6.683
	c3.691,2.078,7.703,3.863,12.049,5.358c4.344,1.502,8.842,2.694,13.502,3.573c4.645,0.884,9.299,1.322,13.957,1.322
	c9.301,0,17.531-1.146,24.693-3.436c7.152-2.297,13.164-5.514,18.043-9.662c4.871-4.154,8.533-9.092,10.99-14.83
	c2.463-5.733,3.691-11.995,3.691-18.796c0-5.561-0.902-10.326-2.701-14.297c-1.797-3.971-4.195-7.347-7.174-10.125
	c-2.986-2.783-6.375-5.116-10.148-7.015c-3.768-1.899-7.633-3.549-11.586-4.968c-3.951-1.406-7.812-2.682-11.59-3.834
	c-3.773-1.151-7.15-2.362-10.137-3.638c-2.984-1.282-5.377-2.759-7.176-4.439c-1.803-1.68-2.705-3.792-2.705-6.351
	c0-3.531,1.389-6.291,4.154-8.279s6.736-2.973,11.916-2.973c3.598,0,6.801,0.416,9.615,1.258c2.799,0.837,5.328,1.739,7.572,2.712
	c2.229,0.974,4.318,1.875,6.25,2.712c1.934,0.837,3.861,1.258,5.797,1.258c1.84,0,3.357-0.35,4.547-1.057
	c1.186-0.706,2.301-1.899,3.352-3.572L1451.024,85.266z M1202.922,69.646v87.098c0,7.596,1.01,14.558,3.027,20.92
	c2.012,6.351,5.002,11.864,8.955,16.546c3.953,4.676,8.801,8.32,14.553,10.919c5.744,2.601,12.355,3.899,19.822,3.899
	c4.385,0,8.426-0.416,12.105-1.258c3.691-0.838,7.139-1.977,10.338-3.437c3.211-1.46,6.215-3.224,9.027-5.294
	c2.807-2.071,5.531-4.387,8.158-6.95l2.506,7.941c1.578,4.587,4.914,6.883,10.012,6.883h25.287V69.646h-40.83v97.822
	c-3.686,3.358-7.482,5.958-11.383,7.81c-3.91,1.852-8.107,2.777-12.582,2.777c-5.977,0-10.492-1.851-13.566-5.555
	c-3.074-3.703-4.604-8.956-4.604-15.756V69.646H1202.922z M1099.807,179.028c-2.553-1.917-3.82-5.234-3.82-9.946
	c0-2.41,0.6-4.635,1.779-6.683c1.188-2.047,3.312-3.869,6.393-5.472c3.066-1.602,7.232-2.937,12.504-4.006
	c5.27-1.062,11.988-1.602,20.154-1.602v18.795c-4.041,4.148-8.035,7.151-11.986,9.003c-3.947,1.856-8.559,2.778-13.83,2.778
	C1106.086,181.896,1102.348,180.944,1099.807,179.028 M1176.584,206.915v-85.78c0-7.852-1.229-15.086-3.686-21.704
	c-2.457-6.623-5.994-12.332-10.6-17.145c-4.611-4.807-10.232-8.558-16.859-11.252c-6.631-2.688-14.072-4.029-22.322-4.029
	c-11.506,0-22.279,1.787-32.33,5.359c-10.055,3.572-19.205,9.021-27.455,16.344l7.371,12.843c1.139,2.03,2.705,3.727,4.676,5.092
	c1.979,1.364,4.369,2.053,7.182,2.053c3.156,0,5.875-0.528,8.154-1.59c2.291-1.057,4.635-2.249,7.051-3.573
	c2.414-1.317,5.156-2.516,8.23-3.573c3.076-1.057,7.025-1.59,11.852-1.59c6.061,0,10.73,1.811,14.023,5.413
	c3.295,3.608,4.943,9.466,4.943,17.566v5.875c-15.631,0-28.582,1.419-38.848,4.256c-10.279,2.83-18.447,6.35-24.498,10.558
	c-6.053,4.202-10.314,8.873-12.777,14.006c-2.451,5.133-3.686,10.136-3.686,15.009c0,6.196,0.961,11.668,2.895,16.398
	c1.936,4.739,4.68,8.705,8.236,11.887c3.551,3.193,7.871,5.597,12.963,7.24c5.098,1.632,10.76,2.45,16.998,2.45
	c4.646,0,8.889-0.373,12.705-1.12c3.816-0.749,7.424-1.894,10.795-3.442c3.383-1.544,6.654-3.419,9.816-5.626
	c3.156-2.208,6.451-4.767,9.875-7.674l2.896,7.543c1.318,3.353,2.967,5.562,4.938,6.617c1.977,1.062,4.891,1.59,8.76,1.59
	L1176.584,206.915L1176.584,206.915z M877.642,206.915V107.64c2.902-2.825,5.994-5.074,9.287-6.754
	c3.289-1.673,6.779-2.516,10.471-2.516c5.971,0,10.492,1.59,13.566,4.766c3.068,3.181,4.605,8.694,4.605,16.552v87.228h40.822
	v-87.228c0-6.891,1.824-12.154,5.469-15.822c3.637-3.662,8.234-5.496,13.762-5.496c12.113,0,18.172,7.104,18.172,21.318v87.228
	h40.824v-87.228c0-8.214-1.051-15.561-3.156-22.042c-2.113-6.486-5.205-11.958-9.289-16.415c-4.082-4.457-9.148-7.852-15.211-10.196
	c-6.057-2.338-12.996-3.501-20.807-3.501c-4.213,0-8.451,0.439-12.711,1.324c-4.262,0.877-8.291,2.249-12.119,4.1
	c-3.811,1.852-7.371,4.279-10.658,7.282c-3.301,3.003-6.078,6.617-8.367,10.854c-2.803-7.151-6.91-12.86-12.309-17.145
	c-5.402-4.279-12.229-6.415-20.482-6.415c-3.945,0-7.572,0.415-10.865,1.258c-3.289,0.837-6.361,1.976-9.223,3.436
	c-2.85,1.46-5.501,3.181-7.965,5.163c-2.456,1.982-4.823,4.172-7.108,6.552l-2.231-7.413c-0.712-2.296-1.911-4.018-3.625-5.163
	c-1.717-1.146-3.843-1.721-6.388-1.721h-25.288v137.269H877.642z M813.646,85.266c-2.551-2.558-5.488-4.919-8.829-7.08
	c-3.337-2.16-7.021-4.035-11.058-5.632c-4.042-1.584-8.368-2.819-12.979-3.697c-4.605-0.884-9.365-1.324-14.279-1.324
	c-9.045,0-16.949,1.163-23.715,3.501c-6.759,2.345-12.373,5.496-16.854,9.466c-4.475,3.977-7.834,8.588-10.064,13.834
	c-2.243,5.252-3.365,10.789-3.365,16.612c0,6.267,0.92,11.608,2.766,16.018c1.841,4.415,4.262,8.137,7.245,11.181
	c2.98,3.05,6.388,5.561,10.204,7.548c3.82,1.983,7.708,3.686,11.655,5.092c3.946,1.418,7.84,2.677,11.656,3.774
	c3.813,1.109,7.222,2.297,10.2,3.573c2.985,1.282,5.399,2.801,7.245,4.57c1.848,1.763,2.762,4.018,2.762,6.754
	c0,1.501-0.299,2.955-0.914,4.362c-0.617,1.419-1.579,2.694-2.896,3.846c-1.315,1.146-3.074,2.053-5.271,2.712
	c-2.195,0.658-4.878,0.991-8.035,0.991c-4.475,0-8.185-0.528-11.128-1.591c-2.938-1.058-5.514-2.202-7.703-3.442
	c-2.195-1.235-4.237-2.38-6.117-3.437c-1.894-1.057-4.023-1.596-6.387-1.596c-2.553,0-4.617,0.51-6.196,1.525
	c-1.577,1.014-2.943,2.41-4.082,4.172l-9.485,15.092c2.643,2.38,5.801,4.612,9.485,6.683c3.69,2.078,7.703,3.863,12.047,5.358
	c4.345,1.502,8.855,2.694,13.496,3.573c4.658,0.884,9.316,1.322,13.97,1.322c9.306,0,17.531-1.146,24.688-3.436
	c7.157-2.297,13.175-5.514,18.041-9.662c4.873-4.154,8.534-9.092,10.997-14.83c2.451-5.733,3.687-11.995,3.687-18.796
	c0-5.561-0.901-10.326-2.694-14.297c-1.806-3.971-4.201-7.347-7.182-10.125c-2.983-2.783-6.361-5.116-10.136-7.015
	c-3.775-1.899-7.646-3.549-11.591-4.968c-3.952-1.406-7.816-2.682-11.59-3.834c-3.776-1.151-7.158-2.362-10.145-3.638
	c-2.984-1.282-5.383-2.759-7.175-4.439c-1.805-1.68-2.701-3.792-2.701-6.351c0-3.531,1.383-6.291,4.148-8.279
	c2.765-1.988,6.734-2.973,11.918-2.973c3.596,0,6.802,0.416,9.612,1.258c2.814,0.837,5.329,1.739,7.572,2.712
	c2.238,0.974,4.322,1.875,6.256,2.712c1.936,0.837,3.863,1.258,5.799,1.258c1.84,0,3.354-0.35,4.539-1.057
	c1.188-0.706,2.305-1.899,3.36-3.572L813.646,85.266z M608.995,206.915v-97.821c3.597-3.264,7.37-5.863,11.323-7.81
	c3.951-1.94,8.166-2.914,12.646-2.914c5.965,0,10.486,1.882,13.562,5.632c3.073,3.745,4.604,8.973,4.604,15.686v87.228h40.83
	v-87.228c0-7.501-1.009-14.451-3.026-20.855c-2.022-6.397-5.009-11.911-8.962-16.546c-3.945-4.629-8.801-8.249-14.551-10.854
	c-5.745-2.6-12.355-3.899-19.815-3.899c-4.397,0-8.457,0.415-12.185,1.258c-3.734,0.837-7.193,1.976-10.397,3.436
	c-3.21,1.46-6.22,3.246-9.027,5.358c-2.806,2.125-5.53,4.416-8.159,6.891l-2.374-7.947c-0.701-2.296-1.911-4.018-3.621-5.163
	c-1.708-1.146-3.845-1.721-6.385-1.721h-25.287v137.269H608.995z M538.016,22.655c-1.315-2.908-3.121-5.466-5.399-7.679
	c-2.279-2.202-4.938-3.917-7.972-5.158c-3.025-1.234-6.25-1.857-9.673-1.857c-3.341,0-6.452,0.623-9.354,1.857
	c-2.901,1.24-5.466,2.956-7.71,5.158c-2.23,2.213-3.987,4.771-5.265,7.679c-1.27,2.914-1.909,6.047-1.909,9.401
	c0,3.264,0.641,6.332,1.909,9.199c1.276,2.866,3.033,5.382,5.265,7.549c2.244,2.16,4.809,3.881,7.71,5.157
	c2.9,1.282,6.013,1.923,9.354,1.923c3.423,0,6.646-0.642,9.673-1.923c3.033-1.276,5.691-2.997,7.972-5.157
	c2.278-2.167,4.084-4.683,5.399-7.549c1.317-2.867,1.977-5.935,1.977-9.199C539.991,28.702,539.333,25.569,538.016,22.655
	 M494.426,206.915h40.825V69.652h-40.825V206.915L494.426,206.915z M329.28,14.05v34.415h86.92l-90.339,129.727
	c-1.233,1.674-2.196,3.502-2.896,5.491c-0.706,1.987-1.057,3.993-1.057,6.023v17.21h148.022V172.5h-91.395l90.077-129.329
	c1.316-1.935,2.35-4.012,3.092-6.22c0.748-2.208,1.121-4.458,1.121-6.753V14.05H329.28z"/>
<path fill="#FFFFFF" d="M1752.151,330.532c0.326,0.771,0.777,1.44,1.352,2.002s1.26,1.007,2.045,1.327
	c0.789,0.326,1.627,0.487,2.531,0.487c0.867,0,1.701-0.161,2.484-0.487c0.785-0.32,1.473-0.767,2.025-1.327
	c0.566-0.562,1.014-1.229,1.354-2.002c0.336-0.776,0.506-1.609,0.506-2.508c0-0.875-0.17-1.7-0.506-2.491
	c-0.34-0.784-0.785-1.465-1.354-2.026c-0.555-0.561-1.24-1.012-2.025-1.344c-0.783-0.338-1.617-0.507-2.484-0.507
	c-0.904,0-1.742,0.169-2.531,0.507c-0.785,0.332-1.471,0.783-2.045,1.344c-0.572,0.562-1.025,1.242-1.352,2.026
	c-0.32,0.791-0.482,1.616-0.482,2.491C1751.668,328.923,1751.831,329.756,1752.151,330.532 M1743.655,295.165
	c-1.629-1.598-3.668-2.895-6.115-3.877c-2.447-0.984-5.162-1.479-8.141-1.479c-2.672,0-5.023,0.362-7.066,1.073
	c-2.039,0.72-3.74,1.677-5.102,2.877c-1.363,1.188-2.395,2.593-3.102,4.191c-0.699,1.604-1.057,3.292-1.057,5.059
	c0,1.912,0.303,3.546,0.912,4.892c0.604,1.355,1.404,2.489,2.398,3.418c1.002,0.93,2.137,1.694,3.42,2.305
	c1.277,0.604,2.588,1.128,3.926,1.58c1.326,0.452,2.641,0.861,3.92,1.242c1.277,0.38,2.418,0.808,3.414,1.29
	c1,0.477,1.803,1.038,2.412,1.683c0.602,0.65,0.902,1.479,0.902,2.49c0,0.676-0.131,1.327-0.404,1.959
	c-0.271,0.634-0.691,1.188-1.26,1.665c-0.584,0.481-1.312,0.863-2.193,1.164c-0.895,0.296-1.953,0.439-3.186,0.439
	c-1.58,0-2.883-0.181-3.906-0.549c-1.025-0.362-1.92-0.76-2.68-1.176c-0.758-0.428-1.422-0.82-2-1.188
	c-0.58-0.361-1.195-0.544-1.834-0.544c-0.65,0-1.182,0.121-1.604,0.375c-0.424,0.253-0.785,0.62-1.1,1.104l-2.404,3.962
	c0.85,0.761,1.818,1.466,2.938,2.104c1.109,0.651,2.312,1.214,3.617,1.689c1.312,0.481,2.678,0.85,4.102,1.114
	c1.416,0.271,2.869,0.404,4.365,0.404c2.785,0,5.246-0.36,7.398-1.08c2.15-0.71,3.949-1.706,5.422-2.989
	c1.459-1.278,2.568-2.799,3.328-4.554c0.76-1.761,1.135-3.68,1.135-5.76c0-1.742-0.305-3.231-0.904-4.475
	c-0.605-1.23-1.4-2.297-2.4-3.177c-1.002-0.889-2.135-1.616-3.4-2.202c-1.268-0.573-2.559-1.086-3.873-1.537
	c-1.326-0.446-2.615-0.863-3.883-1.236c-1.266-0.386-2.4-0.813-3.396-1.289c-0.994-0.477-1.803-1.032-2.404-1.672
	c-0.602-0.628-0.904-1.403-0.904-2.34c0-1.397,0.59-2.545,1.766-3.413c1.189-0.876,2.799-1.311,4.855-1.311
	c1.32,0,2.459,0.142,3.438,0.425c0.969,0.276,1.832,0.596,2.592,0.946c0.76,0.349,1.43,0.676,2.002,0.951
	c0.58,0.285,1.123,0.416,1.629,0.416c0.471,0,0.869-0.084,1.178-0.271c0.307-0.181,0.607-0.5,0.887-0.947L1743.655,295.165z
	 M1665.081,290.485v27.505c0,2.411,0.314,4.631,0.947,6.632c0.633,2.015,1.564,3.752,2.805,5.218
	c1.24,1.459,2.768,2.593,4.576,3.396c1.814,0.794,3.902,1.198,6.266,1.198c1.436,0,2.773-0.15,4.027-0.439
	c1.242-0.296,2.412-0.706,3.498-1.225c1.084-0.523,2.1-1.151,3.061-1.899c0.955-0.741,1.883-1.568,2.781-2.466l0.719,3.461
	c0.422,1.266,1.309,1.894,2.652,1.894h6.373v-43.272h-10.414v31.291c-1.412,1.411-2.906,2.515-4.473,3.311
	c-1.58,0.803-3.271,1.206-5.066,1.206c-2.441,0-4.275-0.723-5.5-2.171c-1.229-1.446-1.838-3.491-1.838-6.132v-27.505h-10.414
	V290.485z M1629.551,326.076c-1.094-0.797-1.629-2.109-1.629-3.95c0-0.94,0.258-1.795,0.777-2.592
	c0.52-0.791,1.404-1.489,2.635-2.081c1.236-0.597,2.883-1.085,4.922-1.466c2.037-0.387,4.57-0.572,7.609-0.572v7.242
	c-0.76,0.771-1.514,1.44-2.262,2.014c-0.742,0.567-1.516,1.044-2.316,1.429c-0.801,0.394-1.65,0.684-2.549,0.874
	c-0.898,0.194-1.889,0.29-2.955,0.29C1632.042,327.264,1630.624,326.867,1629.551,326.076 M1654.034,306.43
	c0-2.448-0.363-4.69-1.074-6.747c-0.725-2.051-1.773-3.817-3.146-5.295c-1.377-1.478-3.059-2.629-5.041-3.455
	c-1.979-0.832-4.24-1.248-6.773-1.248c-7.023,0-13.029,2.279-18.006,6.832l1.9,3.328c0.307,0.536,0.709,0.99,1.217,1.352
	c0.508,0.367,1.109,0.555,1.822,0.555c0.832,0,1.613-0.199,2.314-0.598c0.699-0.385,1.467-0.832,2.305-1.326
	c0.818-0.495,1.795-0.934,2.918-1.327c1.135-0.396,2.533-0.591,4.227-0.591c2.328,0,4.107,0.701,5.338,2.105
	c1.217,1.398,1.832,3.563,1.832,6.481v2.552c-4.92,0-9.037,0.422-12.361,1.267c-3.316,0.845-5.969,1.909-7.973,3.194
	c-1.996,1.278-3.424,2.722-4.279,4.317c-0.855,1.593-1.279,3.209-1.279,4.843c0,1.947,0.303,3.655,0.924,5.121
	c0.619,1.465,1.477,2.694,2.592,3.684s2.443,1.73,3.986,2.226c1.545,0.488,3.23,0.735,5.059,0.735c1.551,0,2.949-0.127,4.217-0.38
	s2.467-0.634,3.594-1.14c1.121-0.501,2.215-1.135,3.264-1.876c1.055-0.742,2.127-1.609,3.23-2.6l0.924,3.081
	c0.289,0.904,0.705,1.503,1.266,1.792c0.566,0.295,1.338,0.445,2.328,0.445h4.68V306.43H1654.034z M1580.891,333.759v-31.297
	c1.406-1.404,2.9-2.509,4.471-3.336c1.58-0.812,3.268-1.218,5.062-1.218c2.449,0,4.283,0.724,5.502,2.172
	c1.23,1.452,1.838,3.498,1.838,6.14v27.539h10.414V306.22c0-2.42-0.312-4.633-0.939-6.646c-0.641-2.009-1.568-3.732-2.787-5.187
	c-1.223-1.447-2.748-2.574-4.576-3.371c-1.828-0.803-3.926-1.207-6.291-1.207c-2.725,0-5.1,0.494-7.121,1.479
	c-2.023,0.981-3.883,2.278-5.572,3.877v-24.084h-10.412v62.678L1580.891,333.759L1580.891,333.759z M1559.973,295.165
	c-1.629-1.598-3.666-2.895-6.113-3.877c-2.449-0.984-5.162-1.479-8.143-1.479c-2.67,0-5.023,0.362-7.062,1.073
	c-2.043,0.72-3.744,1.677-5.107,2.877c-1.363,1.188-2.393,2.593-3.1,4.191c-0.699,1.604-1.055,3.292-1.055,5.059
	c0,1.912,0.307,3.546,0.91,4.892c0.604,1.355,1.404,2.489,2.398,3.418c1.002,0.93,2.135,1.694,3.42,2.305
	c1.279,0.604,2.586,1.128,3.926,1.58c1.328,0.452,2.643,0.861,3.92,1.242c1.277,0.38,2.418,0.808,3.412,1.29
	c1.002,0.477,1.805,1.038,2.414,1.683c0.604,0.65,0.902,1.479,0.902,2.49c0,0.676-0.133,1.327-0.396,1.959
	c-0.277,0.634-0.699,1.188-1.268,1.665c-0.584,0.481-1.314,0.863-2.193,1.164c-0.893,0.296-1.955,0.439-3.186,0.439
	c-1.578,0-2.883-0.181-3.906-0.549c-1.025-0.362-1.918-0.76-2.678-1.176c-0.762-0.428-1.424-0.82-2.002-1.188
	c-0.574-0.361-1.184-0.544-1.834-0.544s-1.182,0.121-1.604,0.375c-0.424,0.253-0.785,0.62-1.098,1.104l-2.408,3.962
	c0.85,0.761,1.822,1.466,2.939,2.104c1.107,0.651,2.314,1.214,3.617,1.689c1.314,0.481,2.678,0.85,4.1,1.114
	c1.418,0.271,2.879,0.404,4.367,0.404c2.785,0,5.246-0.36,7.404-1.08c2.146-0.71,3.957-1.706,5.416-2.989
	c1.459-1.278,2.568-2.799,3.328-4.554c0.76-1.761,1.133-3.68,1.133-5.76c0-1.742-0.301-3.231-0.896-4.475
	c-0.604-1.23-1.406-2.297-2.406-3.177c-0.996-0.889-2.135-1.616-3.4-2.202c-1.262-0.573-2.559-1.086-3.871-1.537
	c-1.328-0.446-2.617-0.863-3.885-1.236c-1.268-0.386-2.4-0.813-3.389-1.289c-1-0.477-1.811-1.032-2.412-1.672
	c-0.604-0.628-0.906-1.403-0.906-2.34c0-1.397,0.594-2.545,1.775-3.413c1.182-0.876,2.791-1.311,4.848-1.311
	c1.326,0,2.473,0.142,3.438,0.425c0.977,0.276,1.834,0.596,2.592,0.946c0.762,0.349,1.432,0.676,2.004,0.951
	c0.578,0.285,1.121,0.416,1.627,0.416c0.473,0,0.869-0.084,1.184-0.271c0.301-0.181,0.604-0.5,0.887-0.947L1559.973,295.165z
	 M1492.7,333.759v-31.297c1.412-1.404,2.895-2.509,4.475-3.336c1.574-0.812,3.256-1.218,5.064-1.218c2.441,0,4.275,0.724,5.5,2.172
	c1.217,1.452,1.832,3.498,1.832,6.14v27.539h10.422V306.22c0-2.42-0.314-4.633-0.953-6.646c-0.627-2.009-1.557-3.732-2.779-5.187
	c-1.225-1.447-2.746-2.574-4.578-3.371c-1.828-0.803-3.926-1.207-6.283-1.207c-1.467,0-2.816,0.146-4.053,0.422
	c-1.23,0.285-2.395,0.688-3.473,1.226c-1.086,0.537-2.111,1.164-3.088,1.899c-0.965,0.729-1.887,1.545-2.756,2.441l-0.719-3.413
	c-0.422-1.267-1.309-1.899-2.664-1.899h-6.361v43.273H1492.7L1492.7,333.759z M1469.844,275.259
	c-0.367-0.82-0.854-1.513-1.459-2.109c-0.604-0.592-1.314-1.062-2.137-1.412c-0.807-0.35-1.682-0.524-2.604-0.524
	c-0.904,0-1.76,0.177-2.557,0.524c-0.797,0.35-1.496,0.82-2.086,1.412c-0.592,0.598-1.062,1.289-1.412,2.109
	s-0.531,1.689-0.531,2.617c0,0.9,0.182,1.743,0.531,2.533c0.35,0.783,0.82,1.472,1.412,2.062c0.59,0.592,1.289,1.061,2.086,1.409
	c0.797,0.356,1.652,0.532,2.557,0.532c0.924,0,1.799-0.176,2.604-0.532c0.822-0.35,1.533-0.817,2.137-1.409s1.092-1.279,1.459-2.062
	c0.361-0.79,0.549-1.633,0.549-2.533C1470.393,276.948,1470.206,276.079,1469.844,275.259 M1458.411,333.759h10.42v-43.273h-10.42
	V333.759z M1403.036,272.771v9.025h30.447l-31.371,44.413c-0.32,0.446-0.572,0.935-0.76,1.454c-0.205,0.518-0.301,1.061-0.301,1.627
	v4.469h46.348v-9.062h-31.623l31.291-44.21c0.73-1.066,1.094-2.25,1.094-3.538v-4.179H1403.036L1403.036,272.771z M1375.536,295.165
	c-1.633-1.598-3.672-2.895-6.119-3.877c-2.443-0.984-5.15-1.479-8.143-1.479c-2.664,0-5.021,0.362-7.061,1.073
	c-2.033,0.72-3.744,1.677-5.107,2.877c-1.357,1.188-2.395,2.593-3.102,4.191c-0.697,1.604-1.047,3.292-1.047,5.059
	c0,1.912,0.301,3.546,0.91,4.892c0.596,1.355,1.398,2.489,2.4,3.418c0.994,0.93,2.141,1.694,3.418,2.305
	c1.277,0.604,2.58,1.128,3.92,1.58s2.641,0.861,3.926,1.242c1.277,0.38,2.418,0.808,3.412,1.29c0.996,0.477,1.797,1.038,2.406,1.683
	c0.604,0.65,0.904,1.479,0.904,2.49c0,0.676-0.133,1.327-0.396,1.959c-0.268,0.634-0.695,1.188-1.268,1.665
	c-0.578,0.481-1.314,0.863-2.193,1.164c-0.881,0.296-1.943,0.439-3.186,0.439c-1.58,0-2.871-0.181-3.896-0.549
	c-1.037-0.362-1.924-0.76-2.684-1.176c-0.762-0.428-1.43-0.82-2.01-1.188c-0.57-0.361-1.182-0.544-1.832-0.544
	s-1.182,0.121-1.598,0.375c-0.43,0.253-0.791,0.62-1.104,1.104l-2.4,3.962c0.844,0.761,1.82,1.466,2.93,2.104
	c1.109,0.651,2.316,1.214,3.631,1.689c1.311,0.481,2.666,0.85,4.088,1.114c1.418,0.271,2.877,0.404,4.367,0.404
	c2.785,0,5.252-0.36,7.404-1.08c2.146-0.71,3.957-1.706,5.416-2.989c1.459-1.278,2.568-2.799,3.328-4.554
	c0.76-1.761,1.146-3.68,1.146-5.76c0-1.742-0.301-3.231-0.904-4.475c-0.609-1.23-1.41-2.297-2.406-3.177
	c-1-0.889-2.129-1.616-3.396-2.202c-1.266-0.573-2.561-1.086-3.883-1.537c-1.326-0.446-2.615-0.863-3.883-1.236
	c-1.262-0.386-2.389-0.813-3.391-1.289c-1-0.477-1.797-1.032-2.404-1.672c-0.604-0.628-0.912-1.403-0.912-2.34
	c0-1.397,0.598-2.545,1.773-3.413c1.182-0.876,2.797-1.311,4.85-1.311c1.324,0,2.471,0.142,3.436,0.425
	c0.979,0.276,1.84,0.596,2.602,0.946c0.754,0.349,1.43,0.676,1.994,0.951c0.584,0.285,1.121,0.416,1.627,0.416
	c0.484,0,0.883-0.084,1.184-0.271c0.314-0.181,0.609-0.5,0.887-0.947L1375.536,295.165z M1322.862,298.054
	c1.146,0.524,2.1,1.23,2.857,2.129c0.762,0.904,1.328,1.953,1.689,3.147c0.373,1.194,0.549,2.468,0.549,3.817h-19.568
	c0.477-3.154,1.574-5.584,3.291-7.304c1.715-1.706,4.092-2.567,7.129-2.567C1320.354,297.276,1321.704,297.536,1322.862,298.054
	 M1309.885,291.499c-2.568,1.121-4.752,2.646-6.537,4.576c-1.783,1.924-3.146,4.191-4.111,6.791c-0.953,2.6-1.43,5.379-1.43,8.328
	c0,3.798,0.543,7.133,1.646,10.016c1.096,2.883,2.592,5.301,4.51,7.255c1.906,1.953,4.162,3.431,6.748,4.432
	c2.586,1.002,5.385,1.496,8.395,1.496c1.514,0,3.088-0.114,4.697-0.338c1.615-0.229,3.209-0.607,4.764-1.158
	c1.568-0.555,3.064-1.277,4.5-2.194c1.434-0.91,2.727-2.044,3.877-3.396l-3.033-3.8c-0.229-0.308-0.494-0.543-0.801-0.717
	c-0.314-0.163-0.684-0.254-1.1-0.254c-0.645,0-1.312,0.2-2.008,0.597c-0.688,0.394-1.482,0.827-2.398,1.31
	c-0.916,0.477-1.984,0.909-3.209,1.304c-1.219,0.392-2.68,0.59-4.365,0.59c-3.426,0-6.189-1.036-8.27-3.115
	c-2.078-2.082-3.273-5.351-3.574-9.789h26.73c0.482,0,0.875-0.061,1.184-0.192c0.312-0.121,0.555-0.337,0.74-0.627
	c0.182-0.295,0.309-0.705,0.375-1.226c0.072-0.522,0.107-1.176,0.107-1.965c0-3.118-0.463-5.897-1.393-8.328
	c-0.924-2.43-2.229-4.479-3.879-6.155c-1.664-1.672-3.635-2.943-5.928-3.818c-2.291-0.867-4.793-1.309-7.525-1.309
	C1315.36,289.81,1312.459,290.37,1309.885,291.499 M1263.85,325.384c-1.092-0.481-2.025-1.291-2.785-2.399
	c-0.76-1.109-1.34-2.546-1.75-4.307c-0.402-1.749-0.607-3.902-0.607-6.429c0-2.503,0.24-4.674,0.717-6.52
	c0.471-1.838,1.158-3.357,2.045-4.553c0.887-1.193,1.973-2.087,3.25-2.679c1.279-0.591,2.701-0.892,4.283-0.892
	c1.596,0,3.1,0.301,4.484,0.892c1.395,0.592,2.684,1.601,3.859,3.04v19.4c-1.352,1.655-2.785,2.939-4.301,3.835
	c-1.52,0.903-3.357,1.351-5.529,1.351C1266.172,326.125,1264.948,325.878,1263.85,325.384 M1287.766,333.759v-62.678h-10.42v22.859
	c-1.352-1.289-2.883-2.321-4.596-3.1c-1.711-0.771-3.781-1.156-6.199-1.156c-2.846,0-5.4,0.571-7.682,1.705
	c-2.275,1.141-4.229,2.727-5.855,4.745c-1.635,2.026-2.889,4.415-3.758,7.179c-0.867,2.748-1.309,5.733-1.309,8.936
	c0,3.54,0.391,6.688,1.164,9.449c0.771,2.756,1.869,5.063,3.293,6.935c1.418,1.87,3.111,3.299,5.078,4.282
	c1.973,0.988,4.137,1.478,6.5,1.478c1.52,0,2.924-0.164,4.232-0.481c1.309-0.325,2.533-0.779,3.666-1.376
	c1.146-0.591,2.207-1.289,3.186-2.109c0.986-0.813,1.928-1.73,2.834-2.738l0.838,4.18c0.43,1.266,1.309,1.894,2.66,1.894h6.367
	V333.759z M1226.313,298.054c1.15,0.524,2.113,1.23,2.877,2.129c0.752,0.904,1.312,1.953,1.682,3.147
	c0.361,1.194,0.549,2.468,0.549,3.817h-19.568c0.477-3.154,1.572-5.584,3.287-7.304c1.711-1.706,4.086-2.567,7.127-2.567
	C1223.811,297.276,1225.161,297.536,1226.313,298.054 M1213.34,291.499c-2.566,1.121-4.738,2.646-6.537,4.576
	c-1.785,1.924-3.152,4.191-4.111,6.791c-0.953,2.6-1.43,5.379-1.43,8.328c0,3.798,0.549,7.133,1.646,10.016
	c1.096,2.883,2.604,5.301,4.51,7.255c1.91,1.953,4.162,3.431,6.748,4.432c2.588,1.002,5.385,1.496,8.4,1.496
	c1.508,0,3.074-0.114,4.695-0.338c1.617-0.229,3.203-0.607,4.771-1.158c1.557-0.555,3.051-1.277,4.488-2.194
	c1.436-0.91,2.725-2.044,3.883-3.396l-3.039-3.8c-0.223-0.308-0.494-0.543-0.803-0.717c-0.309-0.163-0.67-0.254-1.09-0.254
	c-0.652,0-1.316,0.2-2.012,0.597c-0.686,0.394-1.488,0.827-2.404,1.31c-0.91,0.477-1.979,0.909-3.201,1.304
	c-1.225,0.392-2.686,0.59-4.365,0.59c-3.434,0-6.188-1.036-8.268-3.115c-2.082-2.082-3.271-5.351-3.582-9.789h26.736
	c0.479,0,0.867-0.061,1.184-0.192c0.307-0.121,0.555-0.337,0.734-0.627c0.182-0.295,0.312-0.705,0.381-1.226
	c0.064-0.522,0.104-1.176,0.104-1.965c0-3.118-0.461-5.897-1.389-8.328c-0.93-2.43-2.221-4.479-3.885-6.155
	c-1.65-1.672-3.629-2.943-5.92-3.818c-2.293-0.867-4.809-1.309-7.525-1.309C1218.821,289.81,1215.92,290.37,1213.34,291.499
	 M1191.897,275.259c-0.361-0.82-0.852-1.513-1.459-2.109c-0.604-0.592-1.314-1.062-2.123-1.412c-0.82-0.35-1.689-0.524-2.617-0.524
	c-0.898,0-1.748,0.177-2.545,0.524c-0.809,0.351-1.508,0.82-2.092,1.412c-0.594,0.598-1.062,1.289-1.412,2.109
	c-0.355,0.82-0.535,1.689-0.535,2.617c0,0.9,0.18,1.743,0.535,2.533c0.35,0.783,0.818,1.472,1.412,2.062
	c0.584,0.592,1.283,1.061,2.092,1.409c0.797,0.356,1.646,0.532,2.545,0.532c0.93,0,1.797-0.176,2.617-0.532
	c0.809-0.35,1.52-0.817,2.123-1.409c0.607-0.592,1.098-1.279,1.459-2.062c0.367-0.79,0.555-1.633,0.555-2.533
	C1192.452,276.948,1192.266,276.079,1191.897,275.259 M1180.469,290.485v44.751c0,1.121-0.09,2.067-0.271,2.826
	c-0.186,0.762-0.494,1.371-0.928,1.835c-0.436,0.465-1.016,0.802-1.736,1.015c-0.713,0.21-1.592,0.312-2.629,0.312
	c-1.039,0-1.75,0.078-2.111,0.236c-0.361,0.156-0.592,0.512-0.676,1.073l-0.338,5.606c0.867,0.283,1.73,0.488,2.576,0.609
	c0.836,0.133,1.752,0.193,2.74,0.193c2.521,0,4.676-0.355,6.432-1.073c1.76-0.719,3.178-1.707,4.258-2.955
	c1.084-1.255,1.867-2.707,2.361-4.366c0.496-1.658,0.736-3.431,0.736-5.312v-44.751H1180.469L1180.469,290.485z M1137.198,298.054
	c1.148,0.524,2.107,1.23,2.869,2.129c0.76,0.904,1.318,1.953,1.684,3.147c0.367,1.194,0.553,2.468,0.553,3.817h-19.572
	c0.48-3.154,1.566-5.584,3.291-7.304c1.713-1.706,4.09-2.567,7.129-2.567C1134.694,297.276,1136.043,297.536,1137.198,298.054
	 M1124.225,291.499c-2.568,1.121-4.752,2.646-6.537,4.576c-1.783,1.924-3.158,4.191-4.109,6.791c-0.961,2.6-1.438,5.379-1.438,8.328
	c0,3.798,0.555,7.133,1.652,10.016c1.092,2.883,2.6,5.301,4.51,7.255c1.912,1.953,4.162,3.431,6.742,4.432
	c2.594,1.002,5.393,1.496,8.395,1.496c1.521,0,3.088-0.114,4.703-0.338c1.617-0.229,3.209-0.607,4.771-1.158
	c1.561-0.555,3.057-1.277,4.492-2.194c1.428-0.91,2.725-2.044,3.883-3.396l-3.041-3.8c-0.229-0.308-0.494-0.543-0.807-0.717
	c-0.303-0.163-0.672-0.254-1.088-0.254c-0.648,0-1.318,0.2-2.012,0.597c-0.688,0.394-1.482,0.827-2.398,1.31
	c-0.918,0.477-1.98,0.909-3.203,1.304c-1.227,0.392-2.686,0.59-4.367,0.59c-3.432,0-6.191-1.036-8.268-3.115
	c-2.086-2.082-3.279-5.351-3.594-9.789h26.75c0.471,0,0.867-0.061,1.178-0.192c0.307-0.121,0.561-0.337,0.74-0.627
	c0.182-0.295,0.312-0.705,0.373-1.226c0.072-0.522,0.109-1.176,0.109-1.965c0-3.118-0.465-5.897-1.389-8.328
	c-0.934-2.43-2.225-4.479-3.883-6.155c-1.658-1.672-3.631-2.943-5.922-3.818c-2.305-0.867-4.807-1.309-7.537-1.309
	C1129.702,289.81,1126.807,290.37,1124.225,291.499 M1075.827,333.759v-31.297c1.412-1.404,2.895-2.509,4.475-3.336
	c1.568-0.812,3.256-1.218,5.064-1.218c2.441,0,4.275,0.724,5.5,2.172c1.219,1.452,1.834,3.498,1.834,6.14v27.539h10.42V306.22
	c0-2.42-0.32-4.633-0.955-6.646c-0.631-2.009-1.555-3.732-2.777-5.187c-1.225-1.447-2.75-2.574-4.576-3.371
	c-1.828-0.803-3.92-1.207-6.285-1.207c-1.465,0-2.809,0.146-4.053,0.422c-1.234,0.285-2.398,0.688-3.473,1.226
	c-1.086,0.537-2.117,1.164-3.088,1.899c-0.965,0.729-1.887,1.545-2.762,2.441l-0.713-3.413c-0.422-1.267-1.309-1.899-2.65-1.899
	h-6.375v43.273H1075.827L1075.827,333.759z M1026.186,333.759v-31.297c1.41-1.404,2.895-2.509,4.475-3.336
	c1.574-0.812,3.258-1.218,5.066-1.218c2.441,0,4.273,0.724,5.498,2.172c1.219,1.452,1.832,3.498,1.832,6.14v27.539h10.422V306.22
	c0-2.42-0.32-4.633-0.953-6.646c-0.633-2.009-1.557-3.732-2.779-5.187c-1.225-1.447-2.75-2.574-4.578-3.371
	c-1.826-0.803-3.924-1.207-6.281-1.207c-1.467,0-2.811,0.146-4.053,0.422c-1.236,0.285-2.398,0.688-3.475,1.226
	c-1.09,0.537-2.117,1.164-3.088,1.899c-0.963,0.729-1.887,1.545-2.762,2.441l-0.713-3.413c-0.428-1.267-1.307-1.899-2.664-1.899
	h-6.361v43.273H1026.186L1026.186,333.759z M991.137,298.054c1.158,0.524,2.111,1.23,2.871,2.129
	c0.762,0.904,1.326,1.953,1.688,3.147s0.551,2.468,0.551,3.817H976.67c0.479-3.154,1.574-5.584,3.287-7.304
	c1.725-1.706,4.1-2.567,7.127-2.567C988.643,297.276,989.979,297.536,991.137,298.054 M978.172,291.499
	c-2.58,1.121-4.76,2.646-6.537,4.576c-1.785,1.924-3.158,4.191-4.111,6.791c-0.967,2.6-1.438,5.379-1.438,8.328
	c0,3.798,0.549,7.133,1.643,10.016c1.098,2.883,2.604,5.301,4.51,7.255c1.918,1.953,4.168,3.431,6.754,4.432
	c2.588,1.002,5.385,1.496,8.395,1.496c1.521,0,3.09-0.114,4.703-0.338c1.617-0.229,3.201-0.607,4.766-1.158
	c1.557-0.555,3.057-1.277,4.492-2.194c1.43-0.91,2.732-2.044,3.883-3.396l-3.037-3.8c-0.23-0.308-0.494-0.543-0.803-0.717
	c-0.314-0.163-0.678-0.254-1.1-0.254c-0.645,0-1.312,0.2-2.002,0.597c-0.691,0.394-1.488,0.827-2.398,1.31
	c-0.916,0.477-1.984,0.909-3.207,1.304c-1.23,0.392-2.68,0.59-4.367,0.59c-3.432,0-6.188-1.036-8.268-3.115
	c-2.08-2.082-3.279-5.351-3.59-9.789h26.746c0.477,0,0.875-0.061,1.176-0.192c0.312-0.121,0.557-0.337,0.734-0.627
	c0.188-0.295,0.314-0.705,0.387-1.226c0.066-0.522,0.109-1.176,0.109-1.965c0-3.118-0.471-5.897-1.395-8.328
	c-0.936-2.43-2.227-4.479-3.885-6.155c-1.658-1.672-3.637-2.943-5.92-3.818c-2.299-0.867-4.807-1.309-7.533-1.309
	C983.647,289.81,980.741,290.37,978.172,291.499 M923.448,271.081v62.678h10.414v-19.821h2.363c0.846,0,1.473,0.098,1.895,0.297
	c0.422,0.197,0.844,0.613,1.266,1.266l11.014,16.41c0.443,0.668,0.951,1.144,1.518,1.428c0.562,0.276,1.254,0.422,2.062,0.422h9.408
	l-14.424-21.003c-0.447-0.646-0.904-1.255-1.352-1.814c-0.453-0.562-0.973-1.057-1.559-1.472c0.586-0.367,1.135-0.803,1.643-1.291
	c0.506-0.487,1-1.03,1.477-1.622l13.453-16.07h-9.531c-0.869,0-1.574,0.156-2.105,0.488c-0.535,0.319-1.045,0.768-1.52,1.326
	l-10.76,13.278c-0.443,0.543-0.867,0.905-1.266,1.104c-0.393,0.199-0.936,0.297-1.641,0.297h-1.941v-35.897h-10.414V271.081z
	 M866.123,333.759v-31.297c1.405-1.404,2.9-2.509,4.47-3.336c1.579-0.812,3.263-1.218,5.064-1.218c2.448,0,4.28,0.724,5.5,2.172
	c1.229,1.452,1.839,3.498,1.839,6.14v27.539h10.415V306.22c0-2.42-0.314-4.633-0.939-6.646c-0.641-2.009-1.568-3.732-2.787-5.187
	c-1.225-1.447-2.75-2.574-4.577-3.371c-1.826-0.803-3.926-1.207-6.289-1.207c-2.727,0-5.102,0.494-7.122,1.479
	c-2.025,0.981-3.885,2.278-5.572,3.877v-24.084H855.71v62.678L866.123,333.759L866.123,333.759z M846.941,295.847
	c-1.948-1.947-4.138-3.438-6.566-4.475c-2.431-1.043-5.265-1.562-8.496-1.562c-3.402,0-6.41,0.562-9.028,1.689
	c-2.609,1.121-4.807,2.678-6.578,4.66c-1.773,1.984-3.111,4.33-4.022,7.044c-0.916,2.714-1.368,5.657-1.368,8.834
	c0,3.54,0.506,6.7,1.532,9.469c1.024,2.769,2.423,5.113,4.172,7.025c1.762,1.911,3.823,3.363,6.188,4.364
	c2.355,1.001,4.87,1.496,7.543,1.496c1.519,0,3.052-0.114,4.601-0.338c1.544-0.229,3.039-0.607,4.487-1.158
	c1.452-0.555,2.846-1.277,4.197-2.194c1.355-0.91,2.604-2.044,3.762-3.396l-3.002-3.8c-0.417-0.639-1.05-0.971-1.896-0.971
	c-0.649,0-1.229,0.205-1.749,0.617c-0.518,0.402-1.133,0.854-1.834,1.349c-0.71,0.494-1.571,0.941-2.598,1.345
	c-1.024,0.411-2.37,0.616-4.022,0.616c-1.664,0-3.146-0.32-4.475-0.947c-1.32-0.64-2.447-1.562-3.377-2.784
	c-0.929-1.226-1.639-2.739-2.128-4.529c-0.488-1.811-0.735-3.854-0.735-6.164c0-2.22,0.224-4.208,0.669-5.968
	c0.457-1.756,1.134-3.252,2.052-4.488c0.909-1.242,2.062-2.189,3.437-2.852c1.374-0.658,2.979-0.989,4.812-0.989
	c1.429,0,2.635,0.163,3.604,0.487c0.965,0.319,1.798,0.688,2.509,1.092c0.7,0.41,1.304,0.772,1.809,1.1
	c0.508,0.323,1.026,0.48,1.558,0.48c0.566,0,1-0.109,1.291-0.332c0.301-0.229,0.597-0.535,0.909-0.935L846.941,295.847z
	 M798.983,272.771h-11.387v60.988h11.387V272.771z"/>
<path fill="#FFFFFF" d="M103.349,107.91c0.689,6.229-3.889,11.925-10.223,12.724c-6.336,0.799-12.029-3.603-12.717-9.832
	c-0.428-3.873,1.18-7.537,3.979-9.949c-5.269,1.899-9.241,5.068-11.834,7.667c-0.745,2.504-1.017,5.179-0.715,7.91
	c1.112,10.068,9.717,17.66,20.012,17.66c0.881,0,1.773-0.058,2.656-0.167c11.309-1.426,19.51-11.615,18.285-22.713
	c-0.345-3.116-1.407-5.993-3.012-8.479c-2.938-1.492-7.238-3.118-12.504-3.526C100.542,100.85,102.919,104.024,103.349,107.91z"/>
<path fill="#FFFFFF" d="M167.443,97.286c0.689,6.231-3.888,11.926-10.222,12.724c-6.336,0.799-12.029-3.601-12.717-9.832
	c-0.424-3.835,1.153-7.464,3.904-9.878c-5.329,1.781-9.372,4.87-12.065,7.491c-0.909,2.857-1.198,5.939-0.727,9.066
	c1.473,9.779,9.829,16.877,19.872,16.877c1.15,0,2.317-0.097,3.467-0.289c11.242-1.869,19.037-12.376,17.376-23.417
	c-0.408-2.714-1.362-5.209-2.721-7.414c-2.679-1.41-6.618-3.005-11.477-3.604C165.002,90.746,167.048,93.714,167.443,97.286z"/>
<g>
	<path fill="#56B7E6" d="M220.298,192.042l-12.543-57.408l-6.1-27.918c-3.184-19.525-11.953-35.994-24.52-47.712
		c-12.895-12.025-29.793-19.137-48.793-19.565c-0.607-0.013-1.212-0.059-1.822-0.059c-4.598,0-9.326,0.381-14.055,1.154
		c-5.498,0.896-10.729,2.243-15.668,4.027c-15.068,5.443-27.396,14.937-36.152,27.973c-1.242,1.849-2.395,3.757-3.463,5.714
		c-8.47,15.505-11.424,34.146-8.312,53.232l0.014,0.102l3.051,28.964l4.716,44.489h6.763h159.612L220.298,192.042z M131.952,81.66
		c2.42-4.413,5.928-7.72,10.312-9.796c2.124-1.006,4.45-1.729,6.966-2.138c1.725-0.28,3.445-0.424,5.114-0.424
		c4.206,0,8.063,0.865,11.465,2.482c7.729,3.678,13.094,11.268,14.772,21.57c0.127,0.772-0.241,1.542-0.922,1.929
		c-0.184,0.106-0.379,0.172-0.579,0.209c0.424,1.277,0.749,2.604,0.956,3.978c1.963,13.053-7.218,25.467-20.465,27.671
		c-1.354,0.223-2.727,0.337-4.082,0.337c-11.91,0-21.825-8.439-23.576-20.063c-0.217-1.445-0.291-2.881-0.244-4.298
		c-0.271,0.146-0.574,0.225-0.887,0.225c-0.123,0-0.248-0.011-0.373-0.036c-0.763-0.154-1.351-0.766-1.476-1.536
		C127.749,94.508,128.821,87.366,131.952,81.66z M68.544,91.997c1.102-2.008,2.428-3.786,3.959-5.324
		c3.463-3.484,7.971-5.739,13.318-6.611c1.726-0.28,3.446-0.423,5.115-0.423c1.225,0,2.418,0.077,3.582,0.221
		c11.91,1.467,20.453,10.315,22.654,23.832c0.127,0.772-0.241,1.54-0.922,1.928c-0.262,0.148-0.549,0.227-0.836,0.241
		c0.533,1.575,0.909,3.226,1.099,4.938c1.45,13.122-8.212,25.162-21.539,26.841c-1.036,0.13-2.087,0.199-3.124,0.199
		c-12.209,0-22.412-9.026-23.734-20.994c-0.121-1.105-0.159-2.2-0.127-3.283c-0.197,0.071-0.402,0.119-0.615,0.119
		c-0.124,0-0.25-0.013-0.375-0.038c-0.761-0.157-1.349-0.766-1.474-1.531C64.341,104.845,65.413,97.703,68.544,91.997z
		 M156.792,172.962c-7.207,6.573-18.318,10.221-28.928,10.221c-5.461,0-10.787-0.968-15.379-2.998
		c-0.947-0.418-1.375-1.523-0.957-2.469c0.418-0.949,1.524-1.375,2.471-0.958c12.283,5.431,30.348,2.484,40.269-6.564
		c0.765-0.695,1.95-0.642,2.646,0.122C157.61,171.08,157.556,172.265,156.792,172.962z M172.774,160.506
		c-2.895,0.263-5.85,0.393-8.801,0.393c-7.707,0-15.393-0.885-21.975-2.577c-0.455-0.115-0.82-0.393-1.068-0.752
		c-1.387,1.867-3.469,3.219-5.945,3.623l-5.55,0.904c-2.388,0.389-4.704-0.179-6.578-1.41c-0.14,0.346-0.38,0.655-0.716,0.874
		c-7.889,5.108-18.271,9.426-28.49,11.842c-2.158,0.512-4.576,0.995-7.129,1.372c-2.988,0.441-6.164,0.737-9.367,0.737
		c-4.328,0-8.691-0.532-12.659-1.937c-0.976-0.346-1.485-1.415-1.14-2.39c0.345-0.975,1.417-1.485,2.391-1.141
		c5.972,2.116,13.711,2.149,21.784,0.79c11.576-1.948,23.841-6.761,32.573-12.418c0.085-0.055,0.174-0.095,0.263-0.134
		c-0.147-0.212-0.288-0.426-0.421-0.649c-11.557,5.183-21.285,7.787-30.409,7.787c-0.712,0-1.42-0.02-2.125-0.053
		c-8.736-0.391-17.005-3.199-25.929-8.442c-0.892-0.522-1.19-1.67-0.666-2.562c0.523-0.894,1.671-1.189,2.563-0.666
		c7.964,4.677,15.261,7.308,22.901,7.89c9.605,0.732,19.759-1.779,32.463-7.52c-0.048-0.393-0.072-0.781-0.071-1.167
		c-7.833,1.518-14.993,2.467-21.679,2.467c-14.398,0-26.631-4.366-38.829-16.731c-0.726-0.735-0.718-1.922,0.018-2.648
		c0.737-0.726,1.922-0.717,2.649,0.018c15,15.205,30.289,18.598,58.427,12.967c0.106-0.022,0.21-0.029,0.315-0.031
		c1.267-2.648,3.76-4.653,6.875-5.161l5.549-0.904c3.139-0.512,6.162,0.618,8.203,2.753c0.166-0.075,0.342-0.135,0.531-0.159
		c28.47-3.597,41.889-11.667,51.285-30.85c0.455-0.929,1.575-1.313,2.506-0.856c0.928,0.455,1.312,1.576,0.856,2.504
		c-11.228,22.922-28.019,29.489-53.114,32.779c0.116,0.344,0.213,0.699,0.289,1.063c14.048,1.454,24.572,0.615,33.522-3.18
		c7.03-2.981,13.095-7.784,19.142-14.728c0.68-0.779,1.861-0.86,2.643-0.181c0.779,0.677,0.861,1.862,0.182,2.641
		c-6.777,7.784-13.708,13.068-21.84,16.217c-6.403,2.48-13.551,3.634-21.959,3.634c-3.636,0-7.52-0.225-11.667-0.642
		c-0.054,0.263-0.118,0.521-0.192,0.774c0.18-0.009,0.362,0,0.545,0.046c10.098,2.597,23.287,3.263,34.898,1.421
		c8.061-1.28,15.362-3.764,20.339-7.656c0.815-0.638,1.991-0.494,2.629,0.32c0.638,0.816,0.493,1.993-0.321,2.63
		c-5.75,4.497-13.463,6.871-20.439,8.122C177.472,159.99,175.005,160.304,172.774,160.506z"/>
	<path fill="#56B7E6" d="M136.694,92.482c1.457-1.154,3.128-2.292,5.008-3.323c2.979-1.635,6.479-2.99,10.516-3.649
		c1.984-0.322,3.995-0.485,5.977-0.485c3.285,0,6.271,0.441,8.91,1.103c1.88,0.472,3.581,1.055,5.087,1.673
		c1.395,0.574,2.626,1.176,3.665,1.745c-0.07-0.227-0.155-0.441-0.23-0.667c-2.555-7.607-7.773-12.875-14.678-14.897
		c-2.062-0.603-4.268-0.934-6.604-0.934c-1.468,0-2.986,0.126-4.512,0.375c-0.946,0.155-1.846,0.362-2.71,0.609
		c-10.707,3.058-15.062,12.92-14.898,22.604c0.272-0.298,0.569-0.606,0.878-0.922C134.105,94.687,135.304,93.582,136.694,92.482z"/>
	<path fill="#56B7E6" d="M72.819,103.195c1.439-1.176,3.093-2.356,4.973-3.427c3.082-1.758,6.756-3.226,11.018-3.92
		c1.984-0.325,3.996-0.488,5.978-0.488c3.012,0,5.772,0.371,8.244,0.942c1.923,0.446,3.673,1.011,5.224,1.62
		c1.565,0.616,2.928,1.275,4.076,1.897c0.038,0.02,0.08,0.042,0.117,0.064c-3.184-10.286-11.121-16.497-21.512-16.497
		c-0.186,0-0.375,0.006-0.562,0.011c-1.293,0.029-2.617,0.146-3.95,0.364c-3.462,0.565-6.355,1.771-8.734,3.44
		c-6.34,4.443-9.003,12.164-8.874,19.774c0.148-0.161,0.311-0.331,0.47-0.499C70.259,105.448,71.437,104.325,72.819,103.195z"/>
</g>
<g>
	<path d="M198.168,148.459c-4.977,3.892-12.278,6.376-20.339,7.656c-11.611,1.842-24.801,1.176-34.898-1.421
		c-0.183-0.046-0.365-0.055-0.545-0.046c0.074-0.254,0.139-0.512,0.192-0.774c4.147,0.417,8.031,0.642,11.667,0.642
		c8.408,0,15.556-1.154,21.959-3.634c8.132-3.149,15.062-8.433,21.84-16.217c0.68-0.779,0.598-1.964-0.182-2.641
		c-0.781-0.68-1.963-0.598-2.643,0.181c-6.047,6.944-12.111,11.747-19.142,14.728c-8.95,3.795-19.475,4.633-33.522,3.18
		c-0.076-0.364-0.173-0.72-0.289-1.063c25.096-3.29,41.887-9.856,53.114-32.779c0.456-0.929,0.071-2.05-0.856-2.504
		c-0.931-0.457-2.051-0.073-2.506,0.856c-9.396,19.183-22.815,27.253-51.285,30.85c-0.189,0.024-0.365,0.083-0.531,0.159
		c-2.041-2.136-5.064-3.266-8.203-2.753l-5.549,0.904c-3.115,0.508-5.608,2.513-6.875,5.161c-0.105,0.002-0.209,0.009-0.315,0.031
		c-28.138,5.631-43.427,2.237-58.427-12.967c-0.728-0.735-1.912-0.744-2.649-0.018c-0.735,0.726-0.743,1.913-0.018,2.648
		c12.198,12.365,24.431,16.731,38.829,16.731c6.686,0,13.846-0.949,21.679-2.467c-0.001,0.386,0.023,0.774,0.071,1.167
		c-12.704,5.741-22.857,8.252-32.463,7.52c-7.641-0.583-14.938-3.213-22.901-7.89c-0.893-0.523-2.04-0.228-2.563,0.666
		c-0.524,0.892-0.226,2.039,0.666,2.562c8.924,5.243,17.192,8.051,25.929,8.442c0.705,0.033,1.413,0.053,2.125,0.053
		c9.124,0,18.853-2.604,30.409-7.787c0.133,0.223,0.273,0.437,0.421,0.649c-0.089,0.04-0.178,0.079-0.263,0.134
		c-8.732,5.657-20.997,10.47-32.573,12.418c-8.073,1.359-15.812,1.326-21.784-0.79c-0.974-0.344-2.045,0.166-2.391,1.141
		s0.164,2.043,1.14,2.39c3.968,1.405,8.331,1.937,12.659,1.937c3.203,0,6.379-0.295,9.367-0.737c2.553-0.377,4.971-0.86,7.129-1.372
		c10.219-2.417,20.602-6.734,28.49-11.842c0.092-0.06,0.588-0.461,0.929-0.748c1.835,1.138,4.066,1.657,6.365,1.284l5.55-0.904
		c2.342-0.382,4.322-1.617,5.704-3.328c0.403,0.177,1.104,0.404,1.31,0.457c6.582,1.692,14.268,2.577,21.975,2.577
		c2.951,0,5.906-0.13,8.801-0.393c2.23-0.203,4.697-0.516,7.262-0.975c6.977-1.251,14.689-3.625,20.439-8.122
		c0.814-0.638,0.959-1.814,0.321-2.63C200.159,147.965,198.983,147.822,198.168,148.459z"/>
	<path d="M154.268,170.195c-9.921,9.049-27.985,11.994-40.269,6.564c-0.946-0.417-2.053,0.009-2.471,0.958
		c-0.418,0.944,0.01,2.05,0.957,2.47c4.592,2.029,9.918,2.996,15.379,2.996c10.609,0,21.721-3.646,28.928-10.22
		c0.764-0.697,0.818-1.882,0.121-2.646C156.218,169.553,155.032,169.5,154.268,170.195z"/>
	<path d="M130.409,103.307c0.125,0.024,0.25,0.036,0.373,0.036c0.312,0,0.616-0.08,0.887-0.225
		c-0.047,1.417,0.027,2.853,0.244,4.298c1.751,11.624,11.666,20.063,23.576,20.063c1.355,0,2.729-0.115,4.082-0.337
		c13.247-2.204,22.428-14.618,20.465-27.671c-0.207-1.375-0.532-2.701-0.956-3.978c0.2-0.038,0.396-0.104,0.579-0.209
		c0.681-0.386,1.049-1.156,0.922-1.929c-1.679-10.302-7.043-17.892-14.772-21.57c-3.401-1.617-7.259-2.482-11.465-2.482
		c-1.669,0-3.39,0.145-5.114,0.424c-2.516,0.411-4.842,1.132-6.966,2.138c-4.384,2.076-7.892,5.383-10.312,9.796
		c-3.131,5.706-4.203,12.848-3.019,20.111C129.059,102.542,129.646,103.153,130.409,103.307z M158.956,123.445
		c-1.149,0.192-2.316,0.289-3.467,0.289c-10.043,0-18.399-7.098-19.872-16.877c-0.472-3.126-0.183-6.209,0.727-9.066
		c2.693-2.622,6.736-5.71,12.065-7.491c-2.751,2.414-4.328,6.043-3.904,9.878c0.688,6.231,6.381,10.63,12.717,9.832
		c6.334-0.798,10.911-6.493,10.222-12.724c-0.396-3.572-2.441-6.54-5.309-8.274c4.858,0.598,8.798,2.193,11.477,3.604
		c1.358,2.204,2.312,4.699,2.721,7.414C177.993,111.069,170.198,121.577,158.956,123.445z M147.122,74.033
		c0.864-0.247,1.764-0.455,2.71-0.609c1.525-0.249,3.044-0.375,4.512-0.375c2.337,0,4.542,0.331,6.604,0.934
		c6.904,2.023,12.123,7.29,14.678,14.897c0.075,0.225,0.16,0.439,0.23,0.667c-1.039-0.569-2.271-1.171-3.665-1.745
		c-1.506-0.618-3.207-1.201-5.087-1.673c-2.64-0.662-5.625-1.103-8.91-1.103c-1.981,0-3.992,0.163-5.977,0.485
		c-4.036,0.66-7.537,2.015-10.516,3.649c-1.88,1.03-3.551,2.169-5.008,3.323c-1.391,1.099-2.589,2.205-3.593,3.232
		c-0.309,0.316-0.605,0.625-0.878,0.922C132.06,86.953,136.415,77.091,147.122,74.033z"/>
	<path d="M66.999,113.642c0.125,0.024,0.251,0.038,0.375,0.038c0.213,0,0.418-0.048,0.615-0.119
		c-0.032,1.083,0.006,2.178,0.127,3.283c1.322,11.968,11.525,20.994,23.734,20.994c1.037,0,2.088-0.068,3.124-0.199
		c13.327-1.679,22.989-13.719,21.539-26.841c-0.189-1.712-0.565-3.363-1.099-4.938c0.287-0.014,0.574-0.093,0.836-0.241
		c0.681-0.388,1.049-1.156,0.922-1.928c-2.201-13.517-10.744-22.364-22.654-23.832c-1.164-0.144-2.357-0.221-3.582-0.221
		c-1.669,0-3.39,0.143-5.115,0.423c-5.348,0.872-9.855,3.126-13.318,6.611c-1.531,1.538-2.857,3.316-3.959,5.324
		c-3.131,5.706-4.203,12.848-3.019,20.114C65.65,112.876,66.238,113.485,66.999,113.642z M94.507,133.924
		c-0.883,0.11-1.775,0.167-2.656,0.167c-10.295,0-18.899-7.592-20.012-17.66c-0.302-2.731-0.03-5.406,0.715-7.91
		c2.593-2.599,6.565-5.768,11.834-7.667c-2.799,2.412-4.406,6.076-3.979,9.949c0.688,6.229,6.381,10.63,12.717,9.832
		c6.334-0.799,10.912-6.496,10.223-12.724c-0.43-3.886-2.807-7.061-6.072-8.705c5.266,0.408,9.565,2.034,12.504,3.526
		c1.604,2.487,2.667,5.364,3.012,8.479C114.017,122.309,105.815,132.498,94.507,133.924z M77.689,87.201
		c2.379-1.668,5.272-2.875,8.734-3.44c1.333-0.219,2.657-0.335,3.95-0.364c0.188-0.004,0.377-0.011,0.562-0.011
		c10.391,0,18.328,6.211,21.512,16.497c-0.037-0.022-0.079-0.044-0.117-0.064c-1.148-0.622-2.511-1.282-4.076-1.897
		c-1.551-0.609-3.301-1.174-5.224-1.62c-2.472-0.571-5.232-0.942-8.244-0.942c-1.981,0-3.993,0.163-5.978,0.488
		c-4.262,0.695-7.936,2.162-11.018,3.92c-1.88,1.07-3.533,2.25-4.973,3.427c-1.383,1.13-2.561,2.253-3.534,3.281
		c-0.159,0.168-0.321,0.338-0.47,0.499C68.687,99.364,71.35,91.644,77.689,87.201z"/>
	<path d="M278.534,203.034h-14.593c-1.985-6.312-4.378-12.516-7.346-18.299c-11.204-21.833-27.654-39.484-44.638-48.122
		l-6.646-30.554c-3.306-20.204-12.406-37.682-26.352-50.411c-0.125-0.115-0.248-0.254-0.373-0.369
		c1.044-3.175,1.662-6.62,1.751-10.205c0.415-16.941-10.971-30.967-25.434-31.324c-12.062-0.294-22.445,9.005-25.806,21.925
		c-0.858-0.025-1.716-0.058-2.58-0.058c-4.8,0-9.729,0.407-14.655,1.21c-5.963,0.973-11.675,2.498-17.078,4.534
		C86.116,29.093,71.036,24.2,59.405,30.501c-12.723,6.89-16.493,24.554-8.423,39.452c1.044,1.929,2.237,3.714,3.548,5.349
		c-9.352,16.447-12.676,36.362-9.367,56.729l3.353,31.787c-9.343,9.622-17.186,21.361-22.222,39.217h-15.76c-1.104,0-2,0.896-2,2
		s0.896,2,2,2h15h27.752h1.883h1.884h4.769h162.027h1.916h1.915h1.108h35.746h14c1.104,0,2-0.896,2-2
		S279.639,203.034,278.534,203.034z M51.935,160.545l-3.051-28.679l-0.014-0.244c-3.111-19.086-0.157-37.799,8.312-53.304
		c1.068-1.957,2.221-3.901,3.463-5.75c8.757-13.038,21.084-22.55,36.152-27.995c4.938-1.785,10.17-3.143,15.668-4.039
		c4.729-0.772,9.457-1.167,14.055-1.167c0.61,0,1.215,0.023,1.822,0.038c19,0.425,35.898,7.502,48.793,19.527
		c12.566,11.718,21.336,28.116,24.521,47.641l6.1,27.774l12.543,57.695l2.308,10.992H56.438L51.935,160.545z"/>
</g>
</svg>
