<svg xmlns="http://www.w3.org/2000/svg" width="161.184" height="34.008">
  <defs>
    <clipPath id="a">
      <path fill="none" d="M0 0h161.184v34.009H0z"/>
    </clipPath>
  </defs>
  <g data-name="Gruppe 181" clip-path="url(#a)">
    <g data-name="Group 180">
      <g data-name="Group 178">
        <path data-name="Path 268" d="M31.841 10.449a6.424 6.424 0 00-5.9 3.3v-3.036H10.613V8.995a2.725 2.725 0 012.957-3.038 8.39 8.39 0 012.07.221V.54a8.136 8.136 0 00-3.353-.532C6.738.008 3.61 3.575 3.61 8.775v1.982H0v5.813h3.612l.044 16.824h6.958L10.57 16.57h8.587l.043 16.824h6.959v-9.91c0-4.492 2.51-6.168 5.285-6.168a9.822 9.822 0 012.2.221v-6.824a5.39 5.39 0 00-1.805-.265" fill="#fff"/>
      </g>
      <path data-name="Rectangle 296" fill="#fff" d="M37.236 10.676l6.9589867-.01360323.04425008 22.63695675-6.9589867.01360323z"/>
      <g data-name="Group 179" fill="#fff">
        <path data-name="Path 269" d="M75.748 16.612c-2.467 0-5.725 1.761-5.725 3.743l.044 13.08h-6.871l-.044-13.124a3.446 3.446 0 00-3.656-3.838 3.7 3.7 0 00-3.743 3.92l.044 13.035h-6.959l-.042-22.632h6.65v2.6a7.872 7.872 0 016.561-3.3c3.259 0 5.592 1.321 6.738 3.523 1.761-2.555 3.964-2.951 7.047-2.951z"/>
        <path data-name="Path 270" d="M78.346 33.436L78.302 10.8h6.65v2.6a7.872 7.872 0 016.561-3.3c3.259 0 5.594 1.321 6.738 3.523a7.769 7.769 0 017.051-3.564c4.316 0 8.412 2.51 8.456 8.635l.044 14.666h-6.738l-.044-13.124a3.435 3.435 0 00-3.618-3.837 3.7 3.7 0 00-3.787 3.875l.044 13.08h-6.87l-.088-13.08a3.446 3.446 0 00-3.656-3.838 3.7 3.7 0 00-3.743 3.92l.044 13.035z"/>
        <path data-name="Path 271" d="M128.327 27.623a5.155 5.155 0 01-5.152-5.638 5.124 5.124 0 015.108-5.638c2.643 0 5.152 1.761 5.152 5.592.044 3.838-2.422 5.681-5.108 5.681m11.8-8.456a11.989 11.989 0 10-.127 6.211h11.934v2.555h9.248v-8.764z"/>
      </g>
    </g>
  </g>
</svg>