<svg xmlns="http://www.w3.org/2000/svg" width="113" height="64" viewBox="0 0 113 64"><g><g><g><path fill="#a32136" d="M12.056 12.116c.571-.402 1.2-.833 1.815-1.279 3.266-2.361 6.979-4.04 10.724-5.679C28 3.67 31.62 2.808 35.285 2 39.052 1.25 42.847.662 46.718.478 49.183.36 51.641 0 54.104 0 57.556 0 61 0 64.46.21c5.172.335 10.317.92 15.359 2.097 4.181.987 8.38 2.177 12.265 3.969 2.298 1.06 4.537 2.283 6.6 3.724 1.919 1.244 3.631 2.785 5.234 4.43 2.447 2.514 4.41 5.292 6.082 8.22 1.138 1.86 1.72 3.89 2 5.98.164 1.195.482 2.37.428 3.586a20.48 20.48 0 0 1-.719 4.471c-1.054 3.822-3.42 7.046-6.045 10.128-.867 1.018-1.664 2.097-2.73 2.955-1.232 1.016-2.68 1.822-4.031 2.722-1.102.733-2.16 1.508-3.31 2.194-1.593.896-3.136 1.74-4.755 2.527-2.297 1.117-4.664 2.09-7.167 2.787-2.084.637-4.17 1.24-6.308 1.633-2.882.527-5.787 1.004-8.707 1.302-3.097.316-6.12.808-9.232 1.007-2.221.142-4.543-.088-6.764.058-.512 0-1.036-.054-1.552-.108-2.706-.283-5.16-.233-8.285-.617-3.254-.4-6.287-.831-9.373-1.603-4.035-1.01-7.95-2.416-11.886-3.725-2.668-.887-4.564-2.68-6.933-4.119-2.126-1.305-4.147-2.698-5.982-4.32-1.893-1.673-2.954-2.742-4.51-4.831-1.637-2.195-2.894-4.122-3.516-7.428-.734-3.906-.954-6.473.09-9.713 1.162-3.61 2.986-6.897 5.655-9.798 1.224-1.33 2.993-3.292 5.688-5.622"/></g><g><path fill="#d18330" d="M32.141 5.254c.274.011.79-.137 1.162-.254.382 0 .697-.164 1.043-.132.228.02.324-.034.404-.143.055-.077.15-.072.313-.038.11.022.298-.111.467-.131.416-.048.687-.246 1.078-.303.392-.054.772-.048 1.137-.11a6.8 6.8 0 0 0 1.106-.272c.249-.054.564-.013.739-.17.014-.014.083-.013.128-.013.866.006.866.007 1.507-.16.134-.034.264-.083.408-.001a.37.37 0 0 0 .159-.053c.208-.156.279-.203.577-.216.556-.026 1.087-.157 1.631-.123.271.015.263-.135.297-.186.084-.137.257-.163.42-.121.283.062.531.039.672-.02.29-.124.611-.015.928-.133.213-.085.575-.097.857-.08.227.016.378-.176.633-.035.193.122.41-.083.64-.053.086.01.242.008.251.028.111.231.302-.001.524.04.104.024.04-.06-.013-.095.097-.044.23-.136.283-.124.508.107.922-.068 1.38-.006.267-.106.59-.045.869-.088.259-.04.51.016.76.01.141-.004.294.015.422-.007.077-.02.226-.124.244.037 0 .01.056.017.088.025.052-.16.277-.124.474-.137.176-.013.345-.06.52-.074.316-.025.397.005.842.242.041.02.101.032.152.048.014-.036.008-.088.05-.105.147-.062-.293-.12.015-.195.222-.047.329-.04.404.071.089.13.143.132.288.017.099-.068.293-.111.45-.124.093-.006.212.067.306.111.108.051.244.108.302.167.126.08.241.107.414.027.043-.02.202.05.286.036.1-.015.17-.082.242-.113.05-.009.128.022.176.04.118.043.033.077-.01.12-.027.025-.002.067.002.102.05-.014.119-.02.147-.043.08-.06.13-.134.218-.189a.876.876 0 0 1 .221-.05c.146.18.373-.04.535.041.221.112.384-.056.568-.043.303.02.587-.073.902-.011.241.053.614-.058.87.085.75-.054 1.371.249 2.174.158.067-.008.197-.014.197.006.198.107.405.202.685.146.222-.044.398.115.63.018.06-.024.238.056.364.06.145.005.07.262.321.095.098-.03.318.056.469.064.18.008.353-.02.531-.05.21-.033.475.033.712.063.13.015.288.09.382.09.124 0 .24-.159.277 0 .031.209.093.204.464.155a.546.546 0 0 1 .228.037c.043.017.052.06.077.093.025-.034.033-.085.077-.099.153-.047.34-.128.478-.11.23.027.436.119.645.192.064.021.085.081.149.102.157.05.511-.078.511.063 0 .212.258.03.322.12.025.036.235.07.304.05.374-.123.66.009.973.105.249.076.526.135.834.14.333.004.662.03.832.236.06.07.18.1.35.039.123-.043.385-.073.456-.035.457.224 1.079.16 1.587.297.2.054.289.059.144.175-.039.03-.009.086-.01.13.08-.01.208-.007.208-.03.317-.106.329-.11.436.09.039.07.053.114.204.117.452.01.45.014.662.133.085 0 .195.104.27.096.428-.096.672.124.978.237.278.102.637.138.753.35.015.027.163.052.24.045.362-.035.57.072.738.272h.09c.025 0 .033-.057.079-.07.06-.018.148-.006.224-.007-.02.243.58.077.627.325.095-.015.186-.038.282-.044.226-.015.304.034.19.146-.124.121-.097.166.15.167.077.001.166-.016.209.003.14.062.262.138.39.208.168-.088.316-.054.478-.001.243.062.423.11.411.273-.006.086.114.057.167 0 .117-.096.24 0 .422 0 .067 0 .122 0 0 .077 0 .055-.09.124-.15.187.15.014.214.028.321.044.022.003.038.015.056.023l.41.19c.253-.141.634.025.858-.093.191-.101.315.033.505-.003 0-.014.142.038.226.066.114.04.247.074.328.13.068.049.043.14.115.185.083.055.331.072.331.12 0 .074.079.197.344.169.048-.005.134.048.174.083.072.063.103.142.186.198.09.061.089.254.378.106.192.08.43.142.566.245.252.192.503.374.914.467a.495.495 0 0 1 .16.077c.135.086.033.299.278.28a.53.53 0 0 1 .399.096c.16.102.448.163.393.353h.08c.558.09.643.461 1.128.544-.077.165.28.16.34.265.081.14.32.191.506.191.036 0-.025.127.014.143.064.026.14.011.266.022.04.006.069.043.11.047.352.032.074.32.45.338.314.017.314.228.51.317.022.01.002.05.002.077-.048.056-.107.056-.14.056-.058 0 .024.053.037.076.036-.018.082-.076.1-.076.016 0 .003 0 .003-.056.114.056.218.15.346.215.115.058.258.1.385.151.071.015.071.04.071.058 0 .232.237.327.58.388.065.01.42.304.42.37.103.054.214.096.246.153.076.137.458.166.393.355-.012.03.105.085.183.113.178.058.398.083.484.163.083.09.017.203.017.308 0 .013 0 .035.009.036.413.08.542.285.668.478 0 .013.112.027.132.02.095-.032.188-.103.29-.021.105.084.267.193.236.269-.044.117.102.149.177.172.467.14.777.345.966.616.032.045.132.075.199.117.297.235.456.504.595.78.06.118.15.244.295.315.27.18.386.382.562.57.199.213.3.43.43.66.053.096.257.171.416.239.304.127.495.332.484.531 0 0-.005.063-.008.082.357.005.226.202.332.29.148.086.137.236.206.35.08.133.074.278.327.406.236.1.074.355.464.414-.336.24.228.401.186.62-.01.053.064.117.122.168.076.07.144.016.21-.015.019.038.06.078.051.114a.278.278 0 0 0 .109.28c.027.019.076.053.066.06-.223.154.036.231.153.298.195.09.068.086-.057.104-.043.006-.095.063-.086.091.008.025.092.051.143.06.135.02.326.005.388.048.101.075.216.215.156.272-.168.157.063.282.038.425-.021.124.146.256.228.384.014.023.03.048.034.072.02.13-.102.294.27.338-.012.139.044.327.405.387.027.005.057.08.03.104-.175.144-.034.256.127.353.123.074.155.147.171.242.017.113-.154.104-.23.154-.056.036.103.149-.143.154-.015 0-.058.072-.035.092.027.024.113.042.17.039.329-.016.483.043.513.21.05.275.091.55.146.825.012.06.076.117.102.176.081.184.136.403.201.553.132.361.07.729.207 1.086.038.1.085.21.042.302-.045.1.18.153.063.275-.086.118.117.286.117.433 0 .143.063.274.094.407.025.107.375.222.036.347.043.1.1.207.125.316.07.28-.099.565.102.846.06.085-.064.21-.112.317-.01.019-.07.045-.104.044-.506-.012-.253.102-.065.153.12.033.198.05.182.126-.027.125.08.26-.098.376-.033.021-.04.08-.01.1.2.13.13.232-.074.336-.076.027-.076.086-.076.13.063-.01.13-.024.2-.024.019 0 .055.04.058.063.012.217-.038.345-.125.514-.048.092-.133.196-.133.28.14.21-.118.423 0 .606 0 .02 0 .051-.073.067-.074.04-.219.07-.224.11-.013.08.07.163.074.246.015.225.055.455-.004.675-.054.205-.034.414-.2.618-.158.192.123.438-.163.637-.021.014.039.068.07.1.065.068-.121.159.07.212-.075.063-.21.152-.213.152-.007.203-.392.336-.117.531.06.042-.023.157-.068.233-.152.236-.266.446-.326.685-.045.18-.206.352-.316.551-.098.128-.214.274-.255.44-.022.091-.056.204-.255.273-.2.052-.388.17-.202.345.077.073-.034.26-.168.334-.172.095-.27.345-.69.195 0 0-.093.051-.084.072.022.059.046.145.144.166.192.062 0 .175.09.245.112.087.092.196-.174.22-.069.169-.159.336-.202.508-.05.202-.04.202-.41.15-.119-.02-.164-.03-.162.052.004.062.047.136.054.211.007.074-.063.17-.002.22.175.142-.112.143-.194.204-.062.075-.138.11-.086.228.086.137-.056.31-.327.415-.12.046-.147-.002-.215-.027-.061-.023-.133-.037-.2-.054-.009.05-.053.11-.019.149.06.066.22.112.244.179.024.062-.085.137-.105.21-.026.094.057.21-.222.265-.07 0-.07.064-.07.106.107.217-.345.323-.316.523-.052-.011-.125-.041-.15-.032-.08.03-.203.107-.203.107.2.121-.155.197-.07.296.027.055-.067.142-.148.178-.234.102-.267.232-.252.382.004.039-.062.107-.118.115-.237.038-.484.057-.743.083v-.076c0-.023-.053-.038-.087-.057-.013.023-.052.055-.036.067.031.027.123.044.123.066v.111c.094.042.189.067.268.131-.268 0 .02.173-.085.294-.183.17-.416.275-.573.43-.076.076-.272.124-.08.276H101.056a.29.29 0 0 0 .096.128c.175.132.173.13-.152.204 0 .018-.096.06-.116.098-.062.12-.132.243-.14.365-.011.205-.216.269-.494.323-.064.012-.12.036-.179.055.061.013.127.024.182.042.013.004.01.047-.007.052-.095.032-.192.078-.246.083-.318.01-.25.064-.11.121.184.075.11.131-.04.168-.096.029-.236.014-.323.045-.088.032-.292.066-.11.169.02.012-.044.096-.104.147-.313.102-.482.314-.71.491-.064.05-.171.085-.269.12-.082.028-.42-.073-.182.12.027.023-.256.035-.276.17-.024.15-.16.296-.498.37-.265.057-.47.199-.7.304-.02.008-.053.02-.05.026.18.314-.462.245-.628.399-.079.097-.466.107-.232.286-.185.096-.15.315-.553.294-.215-.01-.159.068-.16.135-.002.109-.055.091-.2.041-.015-.006-.207.072-.216.118-.043.203-.246.334-.542.437-.097.02-.148.06-.097.082.056.34-.6.4-.798.607h-.128C93 53 93 53 93 52.919c0 .022-.078.081-.073.081.073.214-.137.304-.526.337-.11.01-.401.051-.184.206-.149.106-.217.275-.45.3-.275.037-.303.157-.548.23-.107.192-.11.039-.154-.014C91.056 54 91 54 91 54c-.057.23-.404.242-.593.343a4.5 4.5 0 0 1-.602.251c-.145.046-.293.16-.518.06-.034-.016-.168.022-.236.049-.207.083-.447.156-.586.297-.065 0 .045.147-.163.188-.17.033-.302.049-.512.088-.103.025-.187.075-.27.12-.117.066-.221.128-.418.115-.343-.022-.47.19-.765.228-.027.004-.065.05-.056.055.184.113.166.206-.13.206-.151 0-.218.132-.32.13-.267-.006-.38.094-.517.177-.254.152-.513.22-.85.077-.017-.008-.103.034-.157.053.138.067.133.143-.015.191-.183.06-.116.254-.481.228-.19-.013-.404.092-.607.144-.204 0 .065.23-.204.239-.2.005-.372-.015-.529.005-.122.016-.303.071-.318.122-.045.148-.267.157-.427.222a.943.943 0 0 1-.726.016c-.05-.025-.146-.024-.228-.036.028.04.073.077.077.118.003.034-.028.075-.07.102-.091.06-.2.111-.297.212-.19.068-.308.052-.369-.1-.009-.021-.056-.04-.113-.058 0-.016 0-.027-.08-.04-.017.033-.066.089-.045.098.226.1-.019.233-.07.247-.449.118-.697.416-1.257.43-.17.004-.228.231-.486.078-.177.053-.375.09-.523.162-.166.08-.342.066-.539.076-.142.008-.33.01-.443.107-.458.148-1.022.203-1.557.321a5.296 5.296 0 0 1-.9.116c-.277.017-.1.059-.1.132.066.074.107.19-.17.188a.514.514 0 0 0-.193.029c-.124.064-.213.16-.355.214h-.47a.67.67 0 0 1-.605 0c-.092-.1-.146-.055-.207 0-.102 0-.08.058 0 .07.159.012.23.039.08.078a2.031 2.031 0 0 1-.659.083c-.226-.013-.477-.033-.634.104-.08.067-.14-.002-.217-.01-.272-.027-.57-.066-.775.08-.06.04-.203.051-.312.057-.393.02-.761.061-1.05.23-.199.116-.433.2-.74.158-.247-.038-.454.15-.693.012-.227.138-.537.032-.797.077-.203.061-.43.061-.647.061h-.773c-.258 0-.551.188-.783.149-.216-.055-.455-.041-.704-.056-.043-.003-.11-.001-.13.013-.323.23-.78.14-1.166.137-.425-.004-.855.081-1.253-.06-.072-.025-.277-.011-.316.022-.198.168-.431.103-.652.043-.103-.026-.847.013-1.087.04-.225.025-.459.04-.692.038-.26-.002-.258-.156-.384-.24-.037-.024-.1-.035-.151-.086-.007.069-.033.105-.019.137.026.06.091.115.109.175.009.029-.057.063-.088.096-.28-.098-.467.157-.845.02-.16-.064-.512-.032-.735.016-.3.065-.481.077-.675-.094a.41.41 0 0 0-.494.01c-.099.077-.287.123-.445.17-.065.019-.163.01-.273.002-.08-.01-.225-.064-.288-.041-.372.131-.778.05-1.165.073-.069.004-.142 0-.212 0-.246.004-.335-.2-.718-.089-.194.062-.51-.002-.769.013-.333.02-.637-.033-.943-.084-.189-.03-.346-.125-.551-.001-.053.033-.232.017-.354.002-.163-.024-.364-.044-.485-.106-.177-.09-.296.098-.515-.003-.075-.056-.323-.023-.499-.05-.103-.015-.188-.067-.281-.102.053-.038.11-.074.153-.144.025 0 .024 0 .036-.053-.045-.003-.116-.016-.128-.007-.281.195-.618.151-.964.152-.068 0-.16.005-.2-.016-.379-.209-.893-.163-1.35-.21a.948.948 0 0 1-.458-.155c-.195-.128-.418-.192-.732-.172-.227.014-.47.026-.637-.105-.043-.032-.162-.04-.248-.048-.143-.012-.4.043-.222-.131-.088-.01-.212-.044-.259-.024-.211.084-.342.052-.552.004-.266-.06-.576-.061-.868-.086-.067-.006-.156.007-.202-.013-.223-.136-.406-.235-.654-.292-.243-.056-.547-.029-.823-.044a7.328 7.328 0 0 1-.468-.046 2.087 2.087 0 0 1-.374-.08c-.098-.035-.152-.115-.27-.138-.058-.017-.18.047-.274.04A6.542 6.542 0 0 1 37 59.49c-.233-.044-.419-.144-.701-.137-.128.003-.299-.145-.385-.129-.156.027-.19.06-.25-.054-.056-.107-.253-.171-.463-.171-.201.06-.318 0-.446 0-.12-.107-.234-.24-.485-.114a.505.505 0 0 1-.216-.079c-.2-.16-.683-.062-.816-.277-.318-.026-.494-.177-.746-.261-.234-.077-.576-.047-.71-.269h-.192c-.495.094-.718-.096-.859-.29-.105-.145-.256-.1-.43-.121-.15-.018-.224-.19-.46-.068-.02.01-.117-.008-.15-.028-.378-.214-.858-.328-1.362-.408-.329-.085-.636-.237-1.055-.25-.118-.003-.2-.19-.338-.211-.25-.038-.262-.168-.412-.228-.134-.053-.36-.03-.524-.075-.207-.066-.382-.218-.6-.234-.314-.023-.4-.161-.54-.243-.018-.008-.046-.019-.046-.028-.002-.1.07-.227-.013-.292-.105-.082-.257.14-.478.03-.204-.103-.513-.118-.667-.284-.093-.102-.334-.168-.527-.27-.434-.115-.82-.285-1.129-.54-.118-.159-.406-.242-.733-.29-.267-.033-.51-.04-.5-.239.001-.023-.123-.058-.197-.071-.105-.02-.219-.024-.33-.035.043-.124-.24-.218-.118-.346.062-.059.077-.088-.056-.092-.14-.004-.292.012-.29-.108 0-.01-.058-.02-.088-.031-.072.203-.27.069-.416.043-.17-.028-.352-.057-.491-.114-.076-.032-.05-.177-.115-.177-.075-.062-.259-.089-.295-.147-.066-.107-.123-.105-.292-.065-.145.034-.079-.023-.32-.135-.139-.071-.108-.185-.225-.203-.147-.022-.293-.175-.48-.034-.054-.017-.054-.03-.112-.051-.139-.145-.493-.271-.143-.462l-.168-.088c-.249.185-.41.049-.575-.057-.118-.077-.304-.132-.252-.26.047 0 .097.008.137-.001.059-.01.059-.035.059-.054 0-.008-.054-.03-.078-.021-.048.018-.079.05-.118.076-.04-.01-.086-.015-.123-.028-.219-.084-.109-.301-.447-.338.094-.132-.145-.27-.234-.404-.093-.147-.108-.228-.378-.3-.267-.07-.273-.21-.416-.31-.145-.118-.29-.196-.206-.342 0-.174-.228-.29-.458-.31-.284-.026-.39-.099-.483-.225-.059-.068-.155-.124-.238-.185-.068-.056-.16-.056-.201-.152-.032-.041.04-.112 0-.143a3.46 3.46 0 0 0-.62-.384c0-.016-.16.012-.165.029-.046.179-.186.063-.228.014-.131-.156-.292-.316-.332-.481-.035-.155-.066-.244-.388-.216-.147.013-.205-.038-.197-.116.024-.23-.018-.434-.414-.607-.124 0-.156-.19-.144-.297.024-.22-.348-.294-.48-.452-.054.014-.105.038-.16.042a.607.607 0 0 1-.174-.014c-.007-.151-.246-.279-.318-.363-.091-.141.072-.268.193-.39.018-.018.027-.038.04-.057-.06-.004-.15-.025-.18-.01-.15.075-.277.084-.411-.008a.88.88 0 0 0-.2-.11c-.259-.094-.128-.192-.023-.341.224.067.353 0 .425-.107-.162-.066-.286-.073-.334.107H8.42C8.24 45 8 45.114 8 44.905c0-.206-.248-.406-.278-.612-.025-.185-.094-.293-.276-.495-.1-.087-.022-.204-.29-.087A.398.398 0 0 1 7 43.658c.06-.136-.168-.257-.122-.362.053-.125-.292-.227-.029-.347.016-.007-.055-.091-.113-.125-.248-.139-.47-.282-.448-.494 0-.013.011-.032 0-.038C5.9 42.1 6 41.845 6 41.606v-.076c-.4-.213-.337-.53-.587-.78-.096-.097-.18-.2-.241-.304-.017-.03.048-.093.107-.11.074-.023.212-.032.064-.076-.343-.088-.517-.177-.343-.389 0-.02 0-.076-.08-.096-.162-.073-.182-.164-.21-.272-.025-.096-.169-.186-.28-.27-.066-.049-.26-.102-.248-.117.06-.116.168-.116.26-.2 0 .026-.014.084.003.084h.136c-.033 0-.092-.062-.14-.084-.004-.038.02-.09-.015-.113-.426-.256-.606-.554-.7-.884-.01-.038-.082-.083-.147-.101-.278-.078-.094-.146.02-.197.053-.023.169-.002.255-.002-.04-.055-.103-.11-.111-.166a.193.193 0 0 1 .06-.18c.075-.066.048-.104.004-.171-.072-.102-.391-.223-.077-.366.014-.007-.005-.052-.032-.07-.072-.05-.21-.094-.22-.145-.006-.044.111-.083.008-.152-.121-.083-.188-.178-.05-.296.066-.073.028-.154.009-.23-.033-.12-.34-.184-.167-.361.082-.084-.074-.236-.112-.358-.045-.124.095-.289-.166-.408.343-.107-.085-.233.057-.328.162-.108.05-.228.114-.334.059-.054.159-.18-.07-.247-.026-.008-.049-.04-.042-.057.026-.072.118-.15.087-.212-.08-.156-.035-.335-.146-.468-.151-.161-.145-.258.09-.367.114-.052.086-.108-.012-.165-.166-.1-.295-.229-.492-.3-.23-.082-.089-.182-.13-.238h.266c.033 0 .114 0 .096-.07-.125-.184-.162-.365-.089-.561.043-.113.018-.236.004-.369-.017-.131.15-.577.267-.68 0-.077.11-.172-.13-.212-.042-.007-.078-.024-.117-.035.033-.015.065-.073.101-.073h.694c-.106 0-.218 0-.313-.06-.081-.026-.14-.07-.235-.105-.124-.067-.148-.115.085-.126-.022-.037-.022-.085-.085-.109-.12-.074-.198-.147 0-.222.216-.084.095-.221.177-.314.1-.064.2-.197.035-.314-.035-.026.007-.089.02-.133.022-.074.043-.149.076-.222.039-.089-.308-.129-.097-.24C3.392 28 3.06 28 3.051 28c-.051-.088.034-.162.076-.167.323-.04.07-.098.011-.133-.138-.064-.138-.113.058-.105.252.01.278-.069.249-.168-.046-.152-.197-.301.123-.427.112-.052-.23-.176.022-.258-.18-.122-.048-.226.07-.326.097-.082.114-.125-.092-.164-.183-.035-.177-.112.01-.151.166-.036.282-.101.296-.187C3.92 25.608 4 25.303 4 25h.217c.258-.176.365-.506.106-.64-.227-.116-.054-.186-.007-.254.052-.106.209-.106.326-.201.102-.056.112-.107.017-.169-.02-.012 0-.06.029-.075.101-.047.312-.08.312-.132.059-.176.143-.05.238-.02.06.019.154.037.204.024.131-.035.098-.08.024-.146-.07-.062-.062-.16-.235-.05A1.6 1.6 0 0 0 5 23.236c.34-.135-.065-.323.149-.468.067-.046.07-.145.143-.16.447-.095.311-.275.211-.436-.048-.078-.005-.088.095-.083.292.015.308-.17.516-.212-.305-.148.085-.278.034-.422-.064-.18.08-.292.399-.342.086-.013.173-.033.238-.113h.06c-.408-.068-.069-.25-.203-.345-.124-.089.057-.266.29-.29.196-.022.261-.082.2-.152C7 20.063 7 20 7.344 20c.068-.054.112-.13.167-.176-.511-.114-.078-.26.023-.326.55-.362.555-.355.604-.705.03-.214.273-.364.577-.476.112-.04.094-.046.041-.1-.143-.145-.03-.217.244-.297 0 .026.065.08.1.08.103 0 .206 0 .307-.053.01-.002-.01-.043-.015-.067-.088.013-.177.029-.268.04a.88.88 0 0 1-.124 0v-.076c.076-.05.22-.083.26-.14.049-.068-.003-.156.016-.232a.21.21 0 0 1 .121-.13c.603-.248.832-.63 1.138-.976.21-.238.465-.425.865-.569.042-.292.17-.553.66-.728a.651.651 0 0 0 .36-.31c.132-.228.458-.414.81-.573.182-.083.368-.186.545-.257.15-.07.138-.07.06-.148-.027-.028.067-.12.165-.152.626-.253.794-.431 1.57-.96.31-.209.588-.43.931-.669.279-.12.611-.297.73-.543.062-.125.42-.258.77-.328 0-.01.05-.026.074-.048.227-.204.504-.381.863-.52.062-.03.139-.071.2-.11.33-.211.328-.211.862-.115 0 .005.063-.03.06-.037-.113-.223.304-.362.298-.573-.003-.084.104-.028.18-.007.03.008.11-.026.15-.05.186-.105.312-.231.55-.316.196-.077.446-.11.674-.162h-.001c.09-.116.19-.191.48-.261.36-.072.61-.282.941-.432.146-.072.283-.15.438-.213.056-.022.23-.028.23-.008.176.063.268.085.346-.057.029-.05.25-.097.378-.095.096.003.186.073.276.007-.064-.04-.137-.132-.234-.132-.174 0-.19 0 .002-.07A.611.611 0 0 0 25 7.839c.082-.117.151-.225.46-.227.185-.002.24-.21.54-.152 0 .007.098-.001.117-.016.231-.183.574-.137.883-.14.053 0 .094-.018.134-.028-.034-.028-.063-.058-.134-.084 0-.044-.115-.063 0-.191.258-.233.297-.253.878-.21a.508.508 0 0 0 .203-.037c.214-.134.41-.277.62-.414a.316.316 0 0 1 .149-.023c.242.193.29-.01.425-.057.167-.059.35-.109.538-.142.322-.057.54-.182.784-.3.23-.111.55-.165.829-.243 0 .05-.004.101.002.15.003.023.032.045.047.066.033-.022.084-.041.092-.065.013-.05.002-.1 0-.151.043-.188.125-.339.574-.32zM9 44.891c0-.028.087-.066.125-.104a.57.57 0 0 0-.125-.05c0 .021-.103.047-.152.08-.023.015-.004.05-.003.076.047 0 .155.01.155-.002zm2.417-28.986c.052.024.146.02.221.028-.023-.027-.033-.06-.07-.08-.045-.025-.11-.038-.166-.056.003.038-.02.091.015.108zm10.495-6.559c.005.023.035.044.088.066v-.078c.056-.06.088-.134-.088-.143-.001.052-.007.104 0 .155zm17.61 50.095h.001zm.003.114c.007.035.031.069.048.103.048-.017.1-.032.147-.051.112-.046.04-.082-.03-.111-.05-.022-.111-.037-.167-.055 0 .038-.007.076.002.114zm-.003-.114c-.038-.027-.07-.06-.12-.076-.022-.009-.078.012-.12.02.034.019.061.045.103.054.039.01.09.002.137.002zM53 2.428zm.066.065c.073.026.113.129.247.044.04-.024.063-.054.094-.081-.086-.01-.169-.02-.255-.027-.044-.004-.091 0-.152 0 0 .022 0 .053.066.064zm-.164-.14c-.051-.003-.14.022-.16.047-.016.025.033.065.053.098.05-.022.1-.045.154-.064.05-.006.051-.004.051-.006 0-.026-.055-.072-.098-.074zm44.22 47.404c.066.001.135-.002.2.005.067.007.185.041.191.035.075-.074-.016-.086-.124-.122-.22-.077-.303-.072-.267.082zm0 0zm-.424 0zM97 49.39c.056-.011.074-.085.12-.126.461-.405.955-.793 1.651-1.094.153-.067.54-.17.229-.328.19-.144.409-.289.628-.433.372.017.372-.066.193-.219-.084-.09.02-.19.112-.324.067-.118.144-.035.224-.015.039.009.087.005.13.007 0-.027.022-.069-.003-.08-.284-.106-.207-.196.008-.308.145-.076.237-.183.351-.277.047-.038.1-.111.135-.108.355.027.3-.085.3-.22 0-.163 0-.322.317-.415.06-.017.07-.083.108-.124.09-.1.159-.207.278-.326.12-.056.27-.177.494 0 .026-.055.077-.09.07-.12-.01-.045-.051-.122-.096-.125-.172-.015-.158-.03-.086-.113.066-.074 0-.181.055-.262.055-.079.19-.141.283-.213a.451.451 0 0 0 .132-.167c.144-.13.284-.299.428-.465.039-.044.133-.086.13-.127-.012-.194.156-.336.374-.473.082-.052.196-.158.16-.187-.284-.228.106-.339.275-.499.066-.134.067-.249.202-.419.16-.142.434-.247.133-.43-.018-.011.063-.093.125-.123.196-.095.118-.277.437-.34-.078-.307.297-.542.413-.818.034-.119.041-.119.218-.119-.013-.056-.016-.096-.039-.1-.079-.013-.196 0-.101-.08.072-.062.206-.126.2-.188-.011-.153.14-.262.256-.383.156-.135.213-.249.156-.433 0-.094 0-.1.332-.22.208-.079-.053-.122-.025-.185.167-.12.37-.237.082-.411-.022 0 0-.053.01-.054.285-.024.179-.087.108-.185-.037-.048.124-.203.183-.2.478.02.31-.172.31-.29 0-.159-.247-.362.243-.453.041-.008.05-.091.05-.14.007-.143.006-.286.003-.43-.001-.086.031-.163-.2-.248h.096c.336 0 .183-.083.104-.155-.008-.006.003-.22.001-.234a1.03 1.03 0 0 0-.038-.149.421.421 0 0 0-.057-.084c.308-.087.066-.215.095-.321.04-.137-.113-.295.091-.411.247-.14-.27-.273-.014-.375.267-.106.153-.271.251-.381.045-.057.098-.12.089-.177-.04-.248-.01-.515-.18-.713-.134-.194-.025-.2.172-.26.157-.047.294-.14.046-.213-.189-.069-.133-.182-.22-.266-.036-.036-.147-.048-.225-.07.084-.013.17-.024.255-.04.15-.024.298-.05.438-.078 0-.007.086-.022.126-.073H108c-.61-.102-.612-.102-.417-.425.014-.023.065-.039.083-.062.076-.098.153-.196-.14-.228-.01 0-.025-.066-.002-.076.088-.037.19-.063.287-.094-.064-.04-.127-.115-.187-.115h.044l.235-.319c.097-.047.005-.147-.113-.167-.225-.038-.364-.096-.315-.132.128-.097.12-.17.035-.281-.045-.101.117-.166.185-.251.068-.084-.013-.104-.146-.127-.311-.053-.332-.11-.114-.232.034-.018.065-.038.097-.057-.041-.007-.087-.01-.124-.021-.035-.01-.062-.03-.094-.044.255-.094.033-.173-.013-.263-.055-.106-.068-.221-.096-.333-.003-.017.01-.05.021-.052.19-.014.18-.036.103-.136-.069-.09-.124-.177-.22-.266-.109-.138-.335-.319-.29-.46.064-.195.008-.384.056-.573.023-.094-.061-.123-.209-.159-.141-.033-.098-.127.038-.127.16 0 .166-.073.172-.143.007-.059.033-.163.124-.169.189-.028.17-.096 0-.127-.353-.067-.323-.28-.539-.397.286-.164-.002-.164-.084-.281-.144-.165-.254-.342-.377-.52 0-.04.142-.102.207-.153a.22.22 0 0 1 .091.025c.033.03.05.067.075.1.025-.03.087-.07.07-.093-.162-.242-.338-.454-.51-.68-.305-.027-.198-.13-.137-.225.018-.027.035-.076.012-.086-.177-.078-.248-.148-.013-.251.023 0 .024 0 .001-.058-.4-.163-.501-.393-.477-.65.01-.106-.024-.19-.17-.292-.435-.25-.535-.46-.54-.915 0-.035-.034-.085-.068-.085-.103-.11-.127-.23-.386-.26-.155-.02-.262-.106-.155-.212-.202-.08.13-.13 0-.187-.055-.063-.2-.103-.313-.16-.018-.01.029-.055.036-.083.025-.098.188-.254-.17-.304-.015-.002-.033-.044-.02-.05.225-.125-.025-.175-.122-.252-.075-.059-.222-.162-.194-.18.219-.145.006-.192-.165-.204-.24-.018-.39-.029-.188-.177.026-.019.062-.058.049-.065-.174-.103-.078-.25-.187-.353-.049-.047-.281-.029-.356-.075-.153-.096-.37-.113-.542-.144-.062-.01-.139-.068-.14-.105-.001-.118.005-.115-.063-.189-.122 0-.273-.093-.275-.221-.004-.105-.104-.215-.2-.31-.047-.047-.23-.054-.266-.1-.04-.048.116-.145.028-.18-.259-.189-.238-.468-.64-.613-.085-.03-.123-.102-.181-.154-.091-.085-.177-.177-.29-.254-.127-.084-.227-.168-.198-.283.034-.13-.197-.13-.332-.178-.005-.002 0-.022.01-.026.16-.064.014-.104-.04-.15-.07-.063-.142-.126-.241-.187-.177-.163-.418-.344-.512-.514-.058-.128-.167-.301-.56-.272-.108.009-.394-.346-.326-.36.467-.096.004-.124-.042-.13-.232-.068-.285-.145-.403-.23-.094-.069.084-.222-.256-.217-.458.007.158-.156-.087-.194-.063-.01-.122-.025-.183-.037-.062-.011-.18-.03-.178-.034.061-.155-.254-.177-.325-.286-.075-.07-.188-.22-.278-.332-.109-.137-.107-.133-.444-.163-.09-.008-.17-.055-.255-.084.24-.078-.089-.166-.002-.219.262-.16-.149-.177-.149-.272-.061 0-.128 0-.135.054-.023.061-.058.1-.157.037-.223-.145-.435-.295-.652-.443a3.945 3.945 0 0 0-.469-.176c-.036-.003-.074-.017-.107-.013-.081.01-.16.029-.24.044-.024-.059-.103-.137-.064-.174.251-.224.135-.329-.176-.539-.253-.1-.378-.26-.54-.393a.546.546 0 0 0-.382-.14 2.55 2.55 0 0 1-.514-.077c-.163-.04-.304-.18-.46-.18-.328 0-.001-.123-.175-.159-.26-.054-.447-.15-.566-.302-.068-.085-.226-.168-.457-.14-.032.003-.078-.023-.115-.035.06-.047.209-.098.008-.143-.098-.028-.215-.033-.315-.057-.055-.013-.091-.048-.135-.072-.402-.224-.618-.555-1.232-.66-.037-.227-.452-.17-.663-.268-.103-.047-.293-.07-.32-.164-.134-.128-.302-.153-.557-.188a1.989 1.989 0 0 1-.577-.17c-.151-.059-.317-.163-.307-.24.034-.24-.218-.128-.381-.113a1.678 1.678 0 0 1-.77-.124c-.354-.165-.748-.23-1.09-.361-.238-.093-.555-.12-.737-.263-.264-.21-.27-.206-.837-.272a.444.444 0 0 1-.176-.051c-.099-.067-.162-.152-.274-.218-.21-.104-.325-.29-.7-.278-.268.009-.512.001-.585-.188-.009-.024-.143-.03-.237-.046-.123-.027-.272-.042-.362-.09-.11-.057-.136-.19-.359-.07a.496.496 0 0 1-.185-.05c-.113-.094-.276-.116-.479-.104-.329.019-.095-.174-.26-.174-.057-.058-.131-.056-.198-.06-.255-.01-.552.06-.693-.15-.02-.025-.307-.012-.37-.098-.148-.095-.32 0-.482-.052-.154-.049-.343-.022-.317-.174.012-.077-.087-.072-.201-.02-.123.114-.302.147-.453.006-.112-.105-.224.044-.324-.017a2.809 2.809 0 0 0-.303-.162c-.22-.063-.489-.165-.686-.138-.234.032-.305-.02-.391-.135-.047 0-.003-.057-.042-.098-.076-.08-.111-.035-.142.023-.01.02-.078.075-.11.075-.549-.084-1.004-.149-1.44-.312C72.06 4.662 72 4.636 72 4.61c-.142-.09-.189-.225-.493-.112-.099.035-.367-.133-.42.074-.004.015-.155.038-.166.029-.223-.17-.615-.15-.921-.25C69.277 4.088 68.864 4 68 4h-.132c-.155-.111-.383 0-.579-.051-.137-.012-.38-.06-.377-.087.018-.216-.208-.121-.393-.117-.127.003-.263-.057-.386-.049-.302.021-.57-.184-.887-.035-.03.013-.15 0-.177-.022-.257-.193-.597-.164-.95-.126-.119.01-.191.009-.282 0-.146-.015-.353-.084-.424-.053-.205.09-.315-.052-.494-.034-.123.013-.277-.068-.417-.106-.061-.016-.165-.048-.181-.038-.235.139-.494-.013-.676.014-.293.044-.447-.014-.645-.089a.483.483 0 0 0-.206-.004c-.425.074-.845.024-1.272.004C59 3.183 58.44 3.204 57.9 3.2c-.271-.002-.57.049-.772-.112-.015-.013-.128-.001-.128.002-.23.01-.438.038-.64.028-.19-.01-.36.184-.546.023-.301.17-.814-.141-1.07.136a.764.764 0 0 1-.307-.046c-.172-.091-.38.114-.524-.031-.095.033-.184.075-.285.098a1.96 1.96 0 0 1-.384.056 1.912 1.912 0 0 1-.472-.03c-.247-.06-.256.115-.431.113-.072-.001-.173.015-.205-.005-.136-.075-.226-.005-.336-.004-.631.006-1.24.098-1.862.133-.426.025-.858-.054-1.287.028-.208.04-.351-.04-.423-.147-.023-.034.002-.077-.011-.114-.004-.012-.056-.022-.088-.025-.012-.001-.043.017-.045.028-.01.076.011.158-.084.227 0 .036-.109.074-.192.073-.391-.006-.808.043-1.155-.055-.384-.121-.736.048-1.077-.057-.101-.031-.166.006-.103.067.128.123.078.164-.163.163-.211 0-.478.045-.622-.01-.227-.086-.393-.004-.548.018-.367.052-.704.167-1.14.15a.423.423 0 0 0-.146.043c-.143.11-.343.114-.56.115-.104 0-.238.017-.294.055-.3.149-.588.133-.9.035-.1-.044-.224 0-.22.08.003.092-.032.137-.225.144a3.957 3.957 0 0 0-.655.089c-.274.062-.389-.003-.534-.088-.078-.045-.135-.1-.2-.15-.028.067-.058.135-.085.204-.07.184-.379.19-.61.256-.24.067-.571.022-.734.163-.21.147-.533-.15-.708.063a9.325 9.325 0 0 1-.204-.15c-.106-.16-.194.046-.287 0 .048.056.163.139.131.162-.17.132-.31.281-.66.311-.42.036-.83.097-1.166.265-.18.09-.373.092-.463-.075-.013-.024-.159-.025-.244-.037-.005.038.014.098-.019.11-.281.099-.561.206-.867.277-.407.095-.87.128-1.249.221-.3.122-.66.204-.839.401-.098.107-.613.32-.783.316-.212-.005-.33.076-.479.11-.17.032-.356.017-.472.112-.038.061-.104.061-.15.061-.138 0-.278-.14-.378.06-.062.087-.319.138-.48.206-.229.096-.52.153-.619.33-.022.04-.236.055-.366.062-.13.007-.236.016-.223.103.013.097-.045.15-.233.134-.507-.042-.836.105-1.079.33 0 .046-.068.101-.144.114-.35.06-.59.193-.856.338-.188.135-.524.154-.794.239-.063.02-.098.084-.146.084.224.11.048.167-.06.221-.228.108-.431.114-.802.04-.033-.006-.122.02-.122.03 0 .18-.166.316-.4.422-.093.04-.136.202-.356.078-.054.071-.082.158-.171.209-.084 0-.237.082-.36.082-.216 0-.273.037-.28.156-.01.138-.18.006-.194.015-.315.186-.686.359-.914.575-.303.287-.61.368-1.073.172-.072 0-.116-.067-.171-.108-.016.108-.047.108-.038.186.008.047.082.088.108.135.118.23-.057.379-.51.403-.069.005-.135-.02-.212.017-.097.048-.064.076 0 .123.03.02.027.09.006.095-.183.043-.26.149-.267.223-.005.07-.244.086-.397.02-.106-.094-.163-.015-.194.019-.05.054-.058.118-.095.176-.088.139-.112.325-.29.4-.186.08-.268.186-.434.311-.302.11-.554.3-.97.373-.127.134-.307.26-.15.43.023.023-.054.102-.112.114-.246.083-.4.22-.74.166-.129-.021-.103.043-.038.092.033.024.026.096.025.096-.28.022-.226.16-.305.254-.06.07-.141.083-.316.044-.128-.028-.353.07-.526.121-.119.035-.07.077.011.115.164.075.235.135.048.252-.178.112-.32.227-.592.274-.169.033-.306.112-.273.234.03.115-.044.17-.268.157-.106-.007-.155.013-.08.084.16.194.09.194-.256.194-.146.056-.292.211-.39.3-.096.063-.2.124.098.13 0 .024 0 .065-.054.071-.283.079-.315.218-.324.371-.013.183-.065.205-.355.128-.088 0-.125-.059-.267.056-.052.112-.099.216-.08.329.03.183.006.22-.268.26-.045.007-.098 0-.149-.002.024.232-.251.426-.281.648-.018.137-.083.17-.323.175a.685.685 0 0 0-.38.134c-.045.041.131.149.092.201-.052.071.013.199-.009.199-.195.1-.417.21-.452.387-.575.164-.585.474-.628.769-.014.096-.024.186-.18.234-.2.063-.228.197-.433.27-.24.086-.05.265-.1.4-.012.037-.005.08-.037.11a.891.891 0 0 0-.266.42c-.043.136-.355.235-.266.41.007 0-.058.056-.09.056-.216 0-.205.085-.15.16 0 .18-.265.305-.303.456-.045.185-.12.328-.357.477-.047.028-.081.108-.049.129.187.117.084.15-.114.218-.12.042-.177.174-.177.264 0 .135-.1.24-.174.363-.075.116-.295.238-.254.334.058.147.01.248-.12.362-.043.04-.03.099-.046.181-.093.222-.244.477-.262.734-.01.159-.333.2-.296.33.056.193-.217.368-.027.578.109.12.08.358-.321.358-.099 0-.18.078-.258.126-.032.02-.032.054-.046.082.063-.003.145.006.182-.013.088-.044.139-.04.219.007.194.113.118.25.078.367-.028.081-.19.143-.39.125-.032-.003-.076.035-.113.055.05.027.092.067.151.08.078.015.241-.12.236.043-.001.013-.006.027 0 .04.131.268-.212.535-.011.808.02.028-.077.16-.257.108-.131-.037-.16-.015-.154.046.005.048.013.126.067.126.437.26.111.562.215.831-.24.09-.245.169-.155.347.054.087-.264.195.002.297-.043.12-.095.24-.13.362-.07.25.143.516-.136.756v.07a.66.66 0 0 1 .132.337c.054.325.096.694.143 1.063.006.025.003.056.029.072.215.137.106.301.097.448-.005.063-.048.107-.005.187.072.131.002.284.026.426.026.149.105.294.132.442.022.13-.068.28.022.362.123.17-.031.281-.028.407.005.169.06.32.177.477.12.116.2.328.275.498 0 .077-.192.185-.143.241.086.097.143.186.143.29-.057.24.222.445.19.696-.024.184.182.391.285.566.034.065-.137.202.194.16.097-.012.19.015.083.08-.104.064-.036.107.02.168.113.121.228.24.228.417v.113c.24.084.232.193.267.309.03.103.176.195.27.293.04.045.096.088.11.134.01.037-.056.08-.05.151.027.137.017.312.279.446.067.034.022.136.124.172.126.086-.07.171 0 .22 0 .08.253.162.348.162.046.074-.05.159-.04.221.018.098.03.209.118.288.098.086.164.155.187.264.03.128.245.227.195.39.289.09.31.303.595.394.131.042.16.098.047.15-.208.095-.208.136.048.221.164.072.207.215.347.307.07.047.24.048.364.069-.042.07-.098.138-.124.21-.022.062-.003.11.143.144.297.071.465.196.429.395-.012.063.075.143.157.198.186.125.488.212.406.421-.007.018.119.07.186.074.13.006.237.012.23.1-.012.154.103.154.307.219.141.023.16.086.057.146-.099.056-.108.107 0 .167.114.075.295.149.326.236.04.115.1.189.293.233.056.011.147.048.14.063-.08.187.15.283.341.398.152.09.117.225-.042.368-.058.016-.003.049.015.07.01.009.066.014.093.008.063-.013.15-.056.177-.046.298.12.657.231.863.38.115.069.088.213.112.324.03.154.21-.05.268.037.062.094-.008.168-.1.243-.006.005.053.042.092.055.422.135.27.476.733.59.087.264.464.423.741.663.084 0 .226.074.235.137.018.14.184.172.347.246.256.117.525.27.366.497 0 .03-.069.059-.095.12h.24c.187-.091.222 0 .24 0 .01.078-.101.117-.092.145.044.131.517.313.782.3.07-.004.111-.072.219-.018.149.077.33.133.478.21.04.02.031.087.01.126-.077.148-.009.237.218.16.21-.063.267-.03.328.077.066.119.182.231.21.351.025.102.082.13.256.132.06 0 .206.049.206.083 0 .155.632.185.278.434h.093c.141.082.287.11.432.14-.104.07-.174.148-.103.24.035.046.076.09.12.134.02.018.055.032.08.048.023-.022.1-.045.1-.065-.09-.193.084-.09.248-.086.376.008.6.169.67.296.082.142.135.18.38.195.129.007.24.098.36.098-.13.054-.365.054-.375.078-.039.106-.015.218-.003.328.001.011.084.033.112.027.081-.02.153-.052.23-.078.051-.016.104-.029.157-.043-.062-.012-.123-.032-.186-.032-.206-.001-.252-.029-.087-.116.063-.033.102-.08.153-.164.42.116.623.325.83.504.168.146.024.405.511.422V54c0 .098.159.167.238.13.146-.067.286.015.389-.029.219-.101.234 0 .373.078 0 .072.205-.127.325.004.03.03.013.075.017.112.352-.021.446.164.658.255 0 .01 0 .073-.054.111.112.008.223.024.335.024.215 0 .194.08.193.158.234.038.468.077.701.157.236 0 .472 0 .702.08.249.051.408.128.123.279 0 .014.071.065.09.1.034-.015.07-.028.102-.043a.144.144 0 0 0 .05-.027c.04-.044.076-.089.115-.133.083.035.2.06.244.105.13.13.262.236.579.193.017-.003.08.097.12.15-.3-.025-.3.059-.3.177 0 .043.07.119.097.119.064-.057.139-.118.19-.185.025-.032.01-.074.013-.111.521-.037.646.296 1.093.355.082.009.096.154.176.225.08.071.243-.064.374.044.119.098.351.228.52.222.343-.012.284.126.383.208a.172.172 0 0 0 .1.017c.362-.148.324.007.32.13-.006.223.148.095.245.03.078-.045.125-.054.213-.003.105.068.276.068.352.16.138-.092.253.009.332.03.122.031.188.125.287.19.026.018.075.03.117.034.487.046.836.2 1.126.415.062.084.333.115.433-.021.11-.15.322-.05.475-.081.006.027.036.06.017.08-.032.032-.128.054-.134.084-.01.036.045.078.086.113.005.004.115-.01.123-.026.062-.133.166-.14.288-.015.03.03.073.105.124.105.26 0 .577 0 .778.068.254.1.599.001.814.176.155.127.504.03.778.096.28.07.64.07.96.155.247.066.191.088.05.16-.035.02-.04.055-.059.083.063-.001.144.011.182-.006.147-.078.314-.216.57-.057.031.02.137.006.207.002.571-.026.755.035.963.323.053.069.132.096.256 0H41c.075-.058.162-.06.24-.071.001.071.034.071-.003.128-.127.088.053.1.097.144.036-.018.071-.038.109-.056.034-.017.07-.032.105-.049.056.054.095.117.17.158.05.026.153.02.232.03-.001-.044.05-.098-.01-.128-.08-.07-.03-.089.06-.086.108.002.199.016.28.034.286.064.65.092.833.208.249.157.605.113.887.226.064.046.228.083.258.14.053.104.089.087.202.03.107-.053.298-.148.343-.132.248.088.662.015.776.238.011.023.159.025.245.036 0 .038-.007.076 0 .15.009 0 .032 0 .049.066C45.923 60 46 60 46 60c.13 0 .058-.065 0-.095-.061-.022-.12-.036-.176-.054.018-.022.041-.063.057-.062.119.006.233.03.348.028.132-.003.262-.035.394-.042.056-.003.166.024.169.041.029.132.102.082.208.047.178-.034.39-.042.518-.006.196.055.482.027.573.082.211.12.403.01.6.061.309 0 .69.135 1.057.081.41-.081.771-.004 1.11.105a.639.639 0 0 0 .504.008c.044-.02.155-.033.179-.019.279.16.705-.025.978.132.236-.16.48.07.67.01.215-.06.405-.13.614-.005.197-.11.402-.078.613.005a.496.496 0 0 0 .26-.02c.13-.051.22-.073.324-.01.115.032.32.044.353.019.212-.157.38.04.551.01.212-.035.406-.102.61-.15a.26.26 0 0 1 .13.013c.091.04.174.087.261.13.095-.044.095-.089.166-.134.215.122.498.03.73.073.126.023.199.106.314.17.036.024.017.073.044.105.014.017.088.036.11.03.052-.016.133-.053.126-.071-.022-.047-.112-.086-.126-.132-.02-.066-.004-.14.167-.056a.232.232 0 0 0 .12.025c.182-.048.322-.104.571-.046.162.038.38.022.559.087.087.03.263.055.314.03.142-.068.23-.044.342.008.035.015.384-.044.517-.056.14-.015.339-.031.459.006.165.05.184.033.197-.053 0-.006.113-.021.135-.01.157.082.298.186.51.038.371.025.719-.062 1.077-.072.28-.009.583-.127.763-.074.376.094.55-.063.804-.096.265-.081.519-.081.799-.081.397 0 .714 0 1.07-.084.13-.013.255-.045.383-.064.088-.013.149-.117.272-.028.078-.044.142-.103.235-.127.217-.059.437-.152.678-.006.039.024.122.03.185.037.047.005.1-.004.15-.006-.008-.024-.006-.053-.028-.072-.056-.05-.168-.08.045-.12.168-.03.264-.055.407.03 0 .03.151.053.207.039.076-.02.12-.078.177-.12.182.109.216-.021.301-.058.075-.033.134-.08.204-.117.11-.052.245-.155.31-.142.44.085.8-.162 1.202-.094-.015.022-.034.044-.046.067-.013.025-.017.052-.026.079.043.003.102.017.124.006.127-.062.156-.12-.052-.152.02-.068.049-.068.058-.068.1 0 .218.072.293.056.123-.056.248-.11.326-.142.158-.04.337-.07.512-.078.65-.029 1.276-.093 1.834-.296.07-.025.187-.002.268-.021.412-.099.91-.038 1.308-.214.373.026.59-.191.947-.231.237-.074.517-.074.56-.218.004-.016.14-.043.165-.032.096.042.202.176.252.176.27-.084-.2-.164.009-.235.067-.02.067-.062.15-.08.324-.106.8-.023 1.027-.253.149.076.305.133.48.023.054-.033.093-.102.143-.103.267-.007.472-.048.56-.162.135-.19.462.006.6-.124C80.91 57 81 57 81 57c.363-.073.729-.17 1.066-.29.268-.096.505-.219.755-.33-.172-.19.072-.172.296-.214.316-.058.603-.166.954-.166.202-.178.524-.137.822-.14.107-.001.107-.001-.008-.099-.028-.028-.058-.078-.033-.097.24-.186.46-.391.947-.399l.15.002c.05-.169.28-.201.471-.267.267 0 .336-.197.525-.224.433-.062.682-.251.995-.384.33-.14.76-.172 1.06-.392.169-.103.513-.299.917-.096.083-.035.083-.073.083-.108 0-.155 0-.155.34-.205.016.046.034.093.052.14.033-.01.073-.016.098-.03.04-.024.068-.054.102-.08l-.253-.03-.117-.125c.064-.01.126-.03.19-.029.065 0 .127.022.192.028.049.006.1.002.15.003-.002-.024.01-.054-.01-.072-.069-.062-.227-.119-.038-.191.423-.205.839-.324 1.15-.561.092-.07.257-.12.5-.107.232.013-.025-.208.176-.26.142-.037.252-.045.09-.136-.023-.012.003-.08.042-.141.221 0 .442-.127.685-.185.35-.084.384-.074.375-.206-.01-.15.086-.268.276-.365.414-.244.861-.429 1.262-.66.232-.134.44-.293.571-.462.078-.122.167-.122.328-.212.187-.037.358-.1.537-.153-.02-.151-.053-.302.302-.367zM36.638 4.766zm-.102-.093c-.075-.04-.154-.108-.277-.035-.029.016-.048.062-.044.063.092.024.188.047.285.064.043.007.092.001.137 0-.032-.03-.055-.067-.1-.092zm-2.3.72v-.001h-.001.001zm-.002-.155c-.004-.022-.036-.044-.055-.065-.028.026-.077.05-.081.078-.01.059-.038.132.137.14.002-.05.006-.102-.001-.153zm-18.387 8.028c-.05-.024-.144-.02-.218-.028.022.027.034.06.069.08.045.024.11.037.166.055-.003-.038.018-.091-.017-.107zm.017.107zm8.478 40.922zm-.136.002c-.04.01-.069.035-.101.053.04.008.097.03.12.021.048-.017.08-.05.117-.075-.045 0-.097-.009-.136 0zm1.268.546h-.001.001zm-.136.002a.498.498 0 0 0-.143.103c-.006.052.077.052.088.052.07 0 .138 0 .187-.082.022-.015.004-.05.003-.075-.047 0-.108-.011-.135.002zm71.588-4.994c.312.149.155-.046.196-.094a.463.463 0 0 0-.424 0l.228.094zM48.718 60.45c-.035.039-.053.087-.108.114a.806.806 0 0 1-.232.056c-.087.012-.181.01-.27.018-.005 0-.007.045 0 .046.16.023.36.085.477.053.136-.036.2-.155.294-.237l-.161-.05zm-21.333-4.852c-.063.059-.161.115-.18.177-.008.032.123.077.19.115.063-.035.185-.08.174-.105-.03-.067-.118-.124-.184-.187zm-16.957-9.873l-.234-.275c-.015.009-.033.018-.045.029-.149.11.052.185.115.273.008.011-.005.03.006.036.024.013.058.02.089.03l.069-.093zM26.756 7.566c-.07-.03-.154-.09-.207-.083-.08.011-.14.069-.21.107.065.033.134.095.193.092.069-.004.129-.063.224-.116zm-16.09 37.982c-.028.003-.073 0-.09.01-.076.044-.025.18.076.199a.226.226 0 0 0 .121-.02c.155-.09-.026-.13-.106-.189zm-2.104-2.095c-.097.063-.195.123-.284.188-.009.009.04.041.061.062l.34-.18-.117-.07zm99.346-7.15c.092.052.175.1.197.094.099-.026.186-.069.277-.104-.048-.018-.1-.05-.144-.047-.095.006-.185.03-.33.058zM50.842 2.403c-.04.056-.089.094-.089.133 0 .018.13.055.145.048.102-.027.102-.066.102-.105 0-.013-.07-.04-.158-.076zM22.38 9.374c.041-.054.091-.092.092-.13 0-.018-.128-.057-.144-.05a.259.259 0 0 0-.126.104c-.005.012.089.04.178.076zm64.107 46.001c.099.023.168.051.237.052.031 0 .102-.071.089-.08a.467.467 0 0 0-.188-.07c-.022-.003-.072.05-.138.098zM4 27.41c-.068.055-.12.093-.12.132 0 .016.12.056.12.05.083-.027.13-.066.15-.106.006-.011-.09-.039-.15-.076zm90 24.507c.115.022.185.084.255.084.031 0 .099-.107.086-.115a.496.496 0 0 0-.19-.067c-.024-.003-.07.05-.151.098zM7.803 44H8c.071 0 .141 0 .128-.056a.555.555 0 0 0-.187-.069c-.023-.003-.072.05-.138.125zm12.613-33.882l-.2.056c.065.036.123.096.196.1.056.006.13-.058.196-.09l-.192-.066zM50.457 60.69h.004c0 .038-.008.078.004.116.004.013.056.023.089.029.009.001.043-.018.043-.028.005-.066.011-.13.003-.196-.003-.022-.046-.043-.07-.064-.024.021-.058.041-.07.064-.012.024-.003.052-.003.079zM18.691 10.894a.777.777 0 0 0-.18.106c.019 0 .065 0 .122.076.015.007.143-.076.144-.076.003 0-.046 0-.086-.106zm29.963 49.517c.043-.055.093-.093.093-.131 0-.018-.128-.057-.145-.05a.266.266 0 0 0-.125.104c-.006.012.09.04.177.076zm.003-57.253c-.065-.048-.116-.1-.137-.096a.47.47 0 0 0-.186.069c-.013.01.058.08.088.08.07-.002.138-.03.235-.053zM9.76 45.441c-.033.044-.074.076-.061.087.061.051.138.098.21.146.024-.033.09-.078.09-.098-.072-.049-.157-.086-.239-.135zM6.333 22.11c-.065-.048-.116-.11-.137-.11-.07 0-.142.05-.196.083 0 .009.067.08.097.08.07-.002.14-.03.236-.053zM47 60.674c0 .055-.081.094-.082.133 0 .017.082.054.144.047a.258.258 0 0 0 .121-.105c.005-.013-.09-.04-.183-.075zm1.16-57.87c.143.007.25.016.359.016.022 0 .044-.032.066-.049-.083-.024-.163-.058-.251-.066-.038-.003-.091.05-.175.099zm47.563 47.882c-.042.054-.09.093-.092.132 0 .016.128.056.144.049a.25.25 0 0 0 .124-.105c.008-.011-.089-.04-.176-.076zM43.687 59.73c-.09.037-.185.064-.178.076.017.04.064.079.12.105.017.007.145-.03.146-.048.001-.038-.046-.077-.088-.133zm58.23-13.792c-.065-.047-.116-.1-.135-.097a.484.484 0 0 0-.188.07c-.013.01.059.09.089.09.07 0 .138 0 .234-.063zm-44.17 14.706c-.066-.048-.116-.1-.136-.097a.475.475 0 0 0-.187.07c-.014.01.059.08.087.08.07-.002.14-.03.236-.053zm45.163-15.724c.09-.055.09-.092.09-.131 0-.018-.127-.057-.142-.05a.253.253 0 0 0-.125.105c-.007.012.09.04.177.076zm.764-1.497c.097.023.166.051.235.051.032 0 .091-.07.091-.08 0-.031-.118-.058-.19-.069-.02-.003-.071.05-.136.098zM36.497 58.393c-.042.055-.087.094-.089.133 0 .017.13.055.145.047.056-.026.103-.065.12-.105.005-.013-.089-.039-.176-.075zm13.06 2.45c-.098.058-.212.095-.211.157.001 0 .116 0 .181.083.026-.03.073-.083.076-.083a1.3 1.3 0 0 0-.046-.157zM105.606 40.7c-.087.037-.181.065-.175.076a.264.264 0 0 0 .127.104c.016.007.144-.033.143-.05-.003-.038-.053-.076-.095-.13zm2.332-4.798c-.043.098-.091.098-.093.098 0 .05.155.09.155.082 0-.025.094-.082.115-.082.007 0-.115-.061-.177-.098zM19 52.46c.129-.03.165-.044.203-.057-.065-.036-.131-.073-.203-.11 0 .018-.076.042-.068.054.068.039.068.075.068.113zm4.818-43.912l-.178.06c.058.011.12.034.176.03.068-.004.134-.028.184-.043 0-.014-.096-.028-.182-.047zM3.521 30.11c-.064.037-.126.07-.178.107-.007.005.036.032.057.05.064-.027.132-.051.187-.083.01-.005-.036-.041-.066-.074zM51.341 61h.499c-.04 0-.076-.061-.116-.062-.086-.003-.175.009-.383.062zm.659.158a.401.401 0 0 0-.118.12.55.55 0 0 0 .118.033c0-.034.084-.071.138-.108a1.25 1.25 0 0 1-.138-.045zM8 43.266c0 .02.11.04.183.052.012.002.067-.044.063-.047-.062-.034-.13-.064-.196-.095-.05.022-.05.044-.05.09zm10.477 9.203l.097.126c.023-.032.069-.064.066-.095-.004-.044-.043-.088-.066-.131l-.097.1zm36.398 8.267a.719.719 0 0 0 .125.04c0-.026.096-.057.143-.091.008-.006-.045-.039-.07-.059-.073.037-.132.073-.198.11zm-37.062-9.637c-.01.075-.02.133-.018.19 0 .013.052.026.08.039.021-.057.046-.113.057-.17.002-.012-.052-.027-.12-.059zM17 12h-.056c.056 0 .056.074.164.099.012.005.07-.025.106-.038C17.147 12 17.082 12 17 12zm83.5 35.07c-.063.052-.118.09-.16.134-.007.008.063.048.067.047.065-.025.132-.05.185-.082.01-.006-.037-.04-.092-.098zM57.11 60.726l.095.126c.024-.031.068-.063.067-.094-.004-.044-.043-.088-.067-.131l-.095.1zm23.118-3.103a3.593 3.593 0 0 1-.228.041v.026c.148.002.256.005.367.005.016 0 .031-.015.048-.024l-.187-.048zm-29.167 2.99c-.061-.025-.13-.054-.2-.068-.024-.005-.071.024-.108.038.067.037.132.073.247.11 0-.019 0-.038.06-.08zM88.304 8.257l-.199.108c.038.014.098.043.11.038a.737.737 0 0 0 .163-.095c.006-.005-.049-.034-.074-.051zM37.367 59c-.066.051-.151.066-.236.081.01.009.016.023.028.024.09.01.18.02.27.02.027 0 .055-.029.083-.044a.306.306 0 0 1-.145-.081zm-.558.23l-.208-.092c-.02.022-.068.057-.059.063.054.031.12.057.188.081l.08-.052zm10.733 1.242l-.198.109c.037.014.096.043.11.038a.713.713 0 0 0 .16-.095l-.072-.052zM4.432 26.054C4.363 26 4.297 26 4.23 25.946 4.204 26 4.15 26 4.16 26c.047 0 .107.071.17.097.01.004.063-.027.101-.043zM12 47.436a1.784 1.784 0 0 0-.229-.089c-.013-.004-.084.035-.084.035a.842.842 0 0 0 .148.104c.012.005.074-.02.165-.05zm16.136 9.2l.096.127c.022-.032.068-.064.066-.095-.004-.044-.044-.087-.067-.132-.027.03-.057.06-.095.1zM27 55.742c-.063.034-.115.045-.115.056 0 .05.015.1.029.15 0 .002.086 0 .086 0v-.206zM51 2.7c.075.014.128.044.139.04a.734.734 0 0 0 .17-.091c.007-.007-.046-.039-.07-.059a1.378 1.378 0 0 1-.239.11zM9.458 44.59c.032-.04.07-.078.093-.118.004-.007-.08-.037-.08-.037-.066.036-.12.074-.175.11.04.011.077.023.162.046zm6.96 6.911c-.017.038-.044.07-.044.102 0 .013.051.027.08.04.02-.031.05-.062.056-.094.003-.012-.05-.027-.092-.048zM49 60.772c0 .015 0 .033-.083.051.083.012.083.035.083.032.07-.006.114-.028.158-.044-.035-.011-.069-.022-.158-.039zM49 3c.055.071.075.093.094.114.03-.023.076-.044.083-.114H49zm-3.22-.126c.066.01.124.024.22.024v-.043c0-.012-.077-.028-.135-.032-.021 0-.048.028-.085.051zm31.454 1.842c-.024.02-.064.038-.07.058-.003.023.026.046.042.07.031-.022.084-.04.091-.065.007-.018-.04-.042-.063-.063zM53.582 2.737l-.12.05c.036.012.076.036.104.033.05-.005.093-.029.138-.044l-.122-.039zM41.935 60H42.076c.004 0-.076-.06-.076-.08 0 .02 0 .08-.065.08zM13.578 14.15c-.02.037-.044.069-.044.1 0 .014.05.027.078.04.022-.03.051-.06.06-.093 0-.012-.052-.027-.094-.048zm41.586-11.4l.116-.047c-.055-.013-.11-.033-.167-.037-.03-.002-.113.024-.113.037.066.017.118.033.164.047zM55.302 61h-.117c.041.06.08.087.127.09.031.003.07-.024.107-.039C55.38 61 55.341 61 55.302 61zM83.55 7.375l.056.064c.03-.023.077-.045.084-.07.005-.017-.045-.039-.07-.058l-.07.064zm.982 48.853l.085.063c.025-.03.06-.06.068-.092.002-.016-.043-.037-.068-.055-.03.028-.059.057-.085.084zM56.543 2.198c-.063.024-.12.039-.117.046.016.034.047.066.072.099.015-.01.041-.02.044-.03.005-.032.001-.066.001-.115zM9.317 18.238c-.017.038-.043.07-.043.102 0 .013.05.027.078.04.02-.03.05-.062.057-.094.003-.011-.05-.027-.092-.048zm29.227-14.08l-.118.03c.042.017.081.042.127.047.031.003.07-.025.106-.038l-.115-.04zM8.132 19.483c.02.022.038.044.056.066.032-.023.077-.045.084-.07.005-.017-.044-.04-.07-.06l-.07.064zm78.4-11.87c-.036.014-.076.032-.118.05.035.011.074.034.104.031.05-.006.091-.028.137-.044l-.122-.038zM38.102 4.228l.056.065c.03-.024.077-.045.083-.07.005-.017-.044-.04-.069-.06l-.07.065zm65.523 39.646c-.017.037-.043.069-.043.125h.078c.02 0 .051 0 .058-.078 0-.012-.051-.027-.093-.047zM7.121 20.822c-.047.02-.121.033-.121.047.062.013.116.034.172.038.031.002.068-.025.102-.038l-.153-.047zm-.247 21.792c.039-.014.126-.027.126-.04 0-.014-.093-.04-.125-.038-.047.005-.084.033-.125.05l.124.028zm29.831 16.12l-.125.024c.04.018.073.046.117.052.033.003.076-.023.115-.036a6.307 6.307 0 0 1-.107-.04zM4.745 24.847l.113-.047c-.054-.014-.108-.034-.165-.038-.03-.002-.067.024-.1.038l.152.047zm83.918 29.71c.02.021.038.043.056.064.031-.023.077-.044.085-.07.003-.017-.046-.039-.071-.058l-.07.063zm-57.026 2.91c.025-.02.065-.038.069-.059.005-.022-.025-.046-.04-.07-.033.022-.084.041-.092.065-.007.018.04.042.063.064zm73.217-15.411l-.12.05c.035.012.075.035.104.032.05-.005.093-.029.162-.044-.057-.01-.093-.022-.146-.038zM29.599 56.61l.113-.04c-.037-.013-.08-.04-.113-.037-.045.005-.083.032-.124.05l.124.027zM28.443 6.748a6.098 6.098 0 0 0-.12.05c.036.012.075.036.104.032.05-.005.093-.028.137-.044l-.12-.038zm-.836 49.389l-.117.032c.041.016.08.042.125.046.032.002.071-.025.106-.039a24.946 24.946 0 0 0-.114-.039zM3.587 28.531a8.642 8.642 0 0 1-.118.05c.034.012.074.035.105.032.048-.005.09-.028.136-.044l-.122-.038zm101.85 12.782c.035.014.069.036.106.039.04.003.082-.014.124-.023-.038-.017-.072-.046-.116-.051-.032-.004-.077.023-.114.035zm-12.96 11.449c-.065.025-.12.04-.117.046.015.034.046.067.07.099.016-.01.042-.02.045-.03.005-.032.002-.066.002-.115zM26.3 56.07l.085.063c.025-.03.061-.06.068-.133h-.068c-.029 0-.059 0-.085.07zM108.685 29h-.103a.529.529 0 0 0 0 .133c0 .002.074.004.075 0a.463.463 0 0 0 .028-.133z"/></g><g><path fill="#fffffe" d="M34.257 37.079c.264.455.839 1.126 1.15 1.318.312.215.887.503 1.39.603.455.115 1.203.307 1.581.307.504-.024 1.199-.24 1.462-.36a3.5 3.5 0 0 0 .84-.479c.167-.144.407-.468.646-.468.144 0 .335.157.335.397 0 .12-.047.215-.143.335-.192.191-.384.407-.767.647-.336.24-.383.311-1.03.621-.6.313-1.486.53-2.157.577-.336.024-.564.048-.839.048-.24 0-.48-.024-.725-.048-.401-.048-.832-.12-1.168-.12-.287 0-.407-.191-.832-.383-.462-.192-1.133-.432-1.684-1.007-.551-.55-.887-1.725-.982-2.156-.12-.456-.096-.911-.12-1.222-.024-.144-.024-.312-.024-.456 0-.233.024-.479.096-.718.12-.384.215-.887.407-1.39.192-.48.791-1.125 1.078-1.462.288-.264.671-.551 1.031-.91.407-.36.982-.648 1.797-.863.401-.096.839-.12 1.246-.12.407 0 .767.024 1.007.024.455 0 .91.12 1.221.287.264.168.72.456.927.671.176.192.44.647.63 1.007.12.241.217.67.217.935 0 .071 0 .12-.024.167-.048.192-.144.91-.384 1.139-.215.18-.191.083-.439.323-.28.215-1.597.311-2 .335h-1.898c-.599 0-.455.048-1.102.096-.168.024-.431.024-.671.024h-.455c-.024.312-.024.575-.024.743v.12c.047.191.15.958.407 1.438zm4.577-4.601c0-.695-.24-1.15-.48-1.478-.24-.248-.354-.271-.646-.391-.12-.048-.24-.048-.384-.048-.191 0-.407.024-.55.048-.312.047-.552.168-1.031.311-.503.168-.743.671-1.222 1.39-.408.69-.521 1.054-.575 1.557.814 0 1.51-.023 1.917-.023.311 0 .599.072.862.072.072 0 .144 0 .216-.025.264-.12.815-.071 1.15-.167.719-.192.743-.791.743-1.246z"/></g><g><path fill="#fffffe" d="M43.37 30.415c.527-.144 1.557-.575 1.868-.575.456 0 .408.16.552.575.12.503.287 1.007.431 1.486.144.479.096.91.24 1.342.215.479.36 1.078.479 1.533.168.647.407 1.224.479 1.893.048.408.192.815.383 1.198.336-.263.264-.695.504-1.078.43-.789.814-1.677 1.245-2.54.216-.48.336-1.03.504-1.533 0-.024.024-.049.024-.072.096-.312.167-.644.191-.96 0-.119-.024-.262-.024-.406 0-.096 0-.192.048-.278.144-.346.552-.561.84-.705.335-.167.866-.575 1.317-.575.36 0 .408.456.431.743.024.537.24 1.102.384 1.537l.479 1.674a7.31 7.31 0 0 0 .79 1.773c.168.336.097.553.312.935.312.527.36.886.695 1.557.312-.599.551-1.27.79-1.939l.073-.17c.263-.695.595-1.389.719-2.132.048-.312.263-.575.335-.863.168-.383.216-1.102.216-1.246 0-.335-.072-.589-.12-.91 0-.192.168-.288.288-.312.623-.191.862-.216 1.509-.527.096-.048.264-.096.408-.096a.31.31 0 0 1 .24.096v.264c0 .24-.073.503-.217.718-.215.336-.311.84-.479 1.178-.304.572-.407 1.123-.695 1.65-.191.35-.503.623-.609 1.03-.086.432-.35.815-.565 1.246-.216.456-.36.911-.647 1.39-.192.288-.168.684-.383 1.03-.288.48-.527 1.127-.815 1.558-.215.312-.719.743-1.102.743-.336 0-.551-.216-.671-.48-.24-.455-.336-.766-.623-1.167-.264-.366-.48-1-.551-1.492-.048-.288-.408-.767-.503-1.055l-.48-.934c-.192-.36-.24-.67-.407-1.03-.096-.264-.312-.552-.407-.815-.24.503-.384 1.054-.671 1.534-.175.43-.24.886-.503 1.245-.288.24-.456.624-.6.96-.287.742-.694 1.413-1.072 2.156-.198.335-.461.623-.749.91a.999.999 0 0 1-.551.168c-.311 0-.647-.12-.767-.36-.311-.526-.335-1.15-.575-1.677A8.234 8.234 0 0 1 45 37.34c-.097-.34-.073-.67-.24-.958-.168-.216-.12-.48-.193-.72-.12-.502-.24-.934-.431-1.437-.136-.455-.24-.935-.36-1.438-.071-.335-.287-.599-.359-.787-.335-.722-.527-.746-.527-1.058 0-.455.311-.455.48-.527"/></g><g><path fill="#fffffe" d="M68.605 40.625c-.311 0-.605-.312-.766-.625-.144-.262-.168-.453-.384-.717a.219.219 0 0 0-.192-.096c-.263 0-.718.36-1.054.551-.527.36-.79.384-1.126.527-.36.12-.48.096-.79.192-.293.12-.6.072-1.055.096-.431 0-1.238-.144-1.725-.623-.513-.551-.623-.863-.815-1.102-.12-.144-.12-.264-.12-.408 0-.072 0-.168-.024-.264-.024-.071-.024-.156-.024-.335 0-.359.072-.821.312-1.246.311-.503.575-.79.839-1.03.319-.24.646-.24.982-.431.337-.192.958-.288 1.337-.456.34-.192.868-.192 1.227-.335.407-.168.773-.168 1.102-.323.407-.18.815-.276 1.03-.54.096-.12.072-.67.072-.958 0-.36-.168-.815-.263-1.15-.168-.352-.408-.576-.671-.696-.288-.12-.497-.191-.671-.191-.24 0-.48.12-.826.359-.372.176-.78.312-1 .623-.259.312-.403.36-.498.695-.048.288-.096.743-.216 1.102-.048.12-.12.168-.192.168-.094 0-.335-.12-.431-.215-.336-.197-.79-.456-.863-.791-.024-.072-.024-.144-.024-.192 0-.144.048-.214.224-.503.136-.312.687-.767 1-.91.19-.168.477-.217.765-.432.235-.24.455-.192 1.103-.48.31-.143 1.27-.239 1.964-.239.743 0 1.63.216 1.965.503.36.264.623.695.839.767.168.08.12.455.24.695.124.264.191.79.215 1.126 0 .623-.024 1.259-.024 1.87 0 .79-.168 1.389-.168 1.868 0 .384-.047.6-.047.791 0 .072 0 .144.024.73 0 .061 0 .133.023.229.101.311.101.55.216.771.072.307.6.666.6.834 0 .312-.336.36-.715.48-.22.095-1 .31-1.395.31zm-1.294-5.8c-.071-.047-.742.097-.982.175-.24.137-.695.065-1.102.137-.36.073-.839.12-1.227.24-.714.24-.858.79-.858 1.414 0 .209.024.335.024.48.024.31.048.31.192.814.144.503.287.647.575.862.287.24.479.336.815.384.167.024.252.024.383.024.12 0 .215 0 .36-.048.239-.096.509-.24.91-.48.407-.215.839-.55.862-.694.025-.133.144-.264.144-.527v-1.534c0-.336.096-.384.096-.551-.048-.264-.024-.575-.192-.695z"/></g><g><path fill="#fffffe" d="M75.267 40.294c-.408.143-1.055.706-1.414.706-.336 0-.336-.443-.336-.658v-.623c-.023-.144-.023-.312-.023-.48 0-.503.047-1.078.047-1.533-.024-.576-.191-1.15-.191-1.706.024-.595.048-.81.048-1.17 0-1.15.071-2.348.071-2.971 0-.216.048-.264.048-.503 0-.144-.023-.356-.072-.911a6.427 6.427 0 0 1-.047-.599c0-.479.047-.846.071-.982.048-.288.096-.504.096-.743 0-.121 0-.264-.048-.432a1.445 1.445 0 0 1-.095-.527c0-.215.047-.431.047-.719 0-.443 0-1.443-.047-1.725-.048-.311-.312-.863-.312-1.126 0-.384.431-.592.671-.743.408-.215.863-.192 1.27-.431.192-.096.383-.168.527-.168.144 0 .24.072.312.24.047.191.11.36.11.51 0 .28-.063.52-.063 1.479 0 .191 0 .407-.047.766-.096.755-.12.755-.12 1.27 0 .432.144.767.144 1.485 0 .217 0 .408-.024.624-.048.575-.048 1.03-.048 1.462 0 .431 0 .838-.024 1.342a31.382 31.382 0 0 0-.072 2.324c0 .48.072.647.072.886 0 .288-.048.576-.048.84 0 .43.024 1.006.072 1.437.024.479.048.982.048 1.677 0 .312.36.72.36 1.079 0 .407-.48.431-.984.623"/></g><g><path fill="#fffffe" d="M80.851 22.276c.149-.072.311-.096.431-.096.24 0 .36.143.432.407.071.216.095.413.095.623 0 .695-.143 1.318-.143 1.941 0 .455.12.743.12 1.03 0 .12-.072.264-.072.504 0 .168.024.143.024.315 0 .548-.048.907-.048 1.29 0 .91.072 1.797.072 2.468 0 .551-.12 1.821-.12 2.828 0 1.94-.024 2.228-.072 2.612-.024.12-.024.192-.024.263 0 .216.048.288.048.671-.024.72-.024 1.03-.024 1.702 0 .166.024.335.024.479 0 .24-.048.431-.24.623-.354.311-.815.383-1.078.479-.276.096-.767.384-1.078.456-.198 0-.288-.144-.288-.336 0-.168.09-.383.144-.647a2.09 2.09 0 0 0 .12-.743c0-.551 0-.67.024-.815.047-.383.096-.886.096-1.33 0-.131 0-.299-.025-.419-.024-.072-.024-.216-.024-.383 0-.6.072-1.63.072-2.198 0-.39-.048-1.109-.048-1.828 0-1.51-.071-2.036-.071-2.923 0-.249.12-.503.12-.743 0-.288-.049-.506-.049-.79 0-.935.025-1.247.025-1.582 0-.815.023-.815.023-1.134 0-.064 0-.448-.023-.544-.096-.456-.36-.838-.36-1.03 0-.575.168-.36.623-.527.527-.192.719-.384 1.294-.623zM89 39.648c0 .144 0 .288-.17.408-.263.216-.695.383-.83.48-.176.119-.584.287-.823.287-.24 0-.647-.144-1.006-.456-.384-.311-1.055-.79-1.294-1.078-.24-.289-.877-.863-1.127-1.174-.263-.311-.215-.6-.55-.791-.336-.216-.36-.48-.624-.743-.24-.24-.503-.503-.503-.839 0-.12.024-.24.096-.359.335-.551.527-.671 1.294-1.294.79-.623 1.03-.91 1.294-1.27.243-.407.407-.819.623-1.222.216-.383.263-.743.263-.91 0-.144-.12-.288-.12-.504 0-.311.767-.096 1.319-.263.599-.144 1.03-.336 1.39-.336.167 0 .287.12.287.312 0 .104-.048.287-.144.455-.24.431-.431.649-.839 1.102-.383.432-.694.91-.982 1.007-.311.12-.12.311-.623.718-.264.216-.48.504-.931.96-.387.479-.579.502-.579.957 0 .24.264.504.579.905.26.437.667.845.931 1.204.264.312.551.623.839.887.311.263.55.503.862.719.647.479 1.15.407 1.368.623v.215z"/></g><g><path fill="#fffffe" d="M99.094 41.677c-.312 0-.6-.312-.767-.6-.144-.287-.676-1.53-.892-1.794a.218.218 0 0 0-.192-.096c-.243 0-.719.36-1.054.551-.527.36-.79.384-1.126.527-.36.12-.48.096-.791.192-.336.12-.6.072-1.055.096-.43 0-1.217-.144-1.725-.623-.55-.551-.623-.863-.814-1.102-.12-.144-.12-.264-.12-.408 0-.072 0-.168-.024-.264-.024-.071-.024-.156-.024-.335 0-.359.072-.821.311-1.246a4.5 4.5 0 0 1 .839-1.03c.34-.24.647-.24.982-.431.358-.192.959-.288 1.294-.456.384-.192.91-.192 1.27-.335.408-.168.743-.168 1.102-.323.408-.18.815-.276 1.03-.54.097-.12.073-.67.073-.958 0-.36-.168-.815-.263-1.15a1.316 1.316 0 0 0-.672-.696c-.287-.12-.476-.191-.67-.191-.24 0-.48.12-.863.359-.336.176-.743.312-1.007.623-.215.312-.359.36-.455.695-.048.288-.096.743-.215 1.102-.049.12-.12.168-.192.168-.144 0-.336-.12-.432-.215-.335-.197-.79-.456-.862-.791-.024-.072-.024-.144-.024-.192 0-.144.048-.214.192-.503.167-.312.718-.767.982-.91.24-.168.527-.217.815-.432.255-.24.455-.192 1.102-.48.311-.143 1.27-.239 1.965-.239.743 0 1.63.216 1.965.503.36.264.623.695.839.767.167.08.12.455.239.695.145.264.145.79.216 1.126 0 .623-.071 1.259-.071 1.87 0 .79-.12 1.389-.12 1.868 0 .384-.049.6-.049.791 0 .072 0 .144.024.73 0 .061 0 .133.024.229.121.311.121.55.215.771.073.307 1.108 1.718 1.108 1.886 0 .312-.335.36-.67.48-.264.095-1.055.31-1.438.31zm-1.803-6.851c-.072-.048-.743.096-.983.174-.239.137-.694.065-1.102.137-.359.073-.838.12-1.206.24-.734.24-.878.79-.878 1.414 0 .209.024.335.024.48.024.31.047.31.191.814.144.503.288.647.575.862.288.24.48.336.815.384.168.024.273.024.384.024.12 0 .215 0 .359-.048.24-.096.53-.24.91-.48.408-.215.84-.55.863-.694.024-.133.144-.264.144-.527v-1.534c0-.336.096-.384.096-.551-.048-.264-.024-.575-.192-.695z"/></g><g><path fill="#fffffe" d="M9.26 24.711c0-.36.384-.432.74-.576.39-.135.461-.135.87-.384.384-.24.793-.289 1.13-.433 0-.024.07-.048.119-.048.24 0 .408.288.528.73.169.567.553 1.36.697 2.105.096.745.24.895.384 1.321.097.457.337 1.153.385 1.345.168.65.625 2.451.72 2.667.167.48.265.817.313 1.25.048.504.072.984.24 1.225.192.24.36.576.529 1.297.085.312.336 1.08.504 1.08.192 0 .581-.912.89-1.705.263-.793.36-.913.504-1.249.12-.336.384-.889.432-1.336.072-.37.48-1.234.649-1.643.168-.408.384-1.13.576-1.633.144-.505.384-1.274.53-1.778.095-.505 0-1.153.095-1.49.096-.456-.095-.576.24-.96.24-.385 1.081-.553 1.442-.89a.645.645 0 0 1 .432-.192c.24 0 .48.168.576.586.215.567.12 1 .313 1.6.192.553.216 1.754.432 2.042.24.289.313.65.47 1.082.107.432.54 2.017.707 2.69.145.649.529 1.25.529 1.49 0 .216 0 .24.12.528 0 .072.12.216.12.264.168.304.072.72.409 1.105.312.385.72 1.85.768 1.85.12 0 .528-1.37.84-2.066.29-.696.193-1.225.507-1.777.263-.553.43-1.418.623-1.808.168-.33.457-1.484.577-2 .024-.205.048-.349.048-.493v-.336c0-.171.024-.408.12-.649.168-.36.192-.697.192-1.057 0-.865.024-1.009.024-1.105 0-.216-.048-.36-.24-.577-.12-.144-.192-.264-.192-.36 0-.144.168-.264.552-.423.6-.274.84-.297 1.201-.49.095-.072.385-.192.577-.192.24 0 .456.168.456.682v.183c-.048 1.177-.528 2.619-.744 2.883-.194.264-.312 1.2-.505 1.826-.24.624-.48 1.177-.689 1.777-.128.6-.152 1.13-.368 1.273-.24.145-.456.914-.696 1.85-.217.841-.625 1.514-.77 1.874-.166.334-.288 1.274-.528 1.754-.312.649-.216 1.225-.288 1.826 0 .6-.793.754-1.297 1.177-.24.192-.505.312-.697.312-.217 0-.356-.144-.356-.408-.052-.553-.365-.889-.46-1.441-.121-.553-.457-1.346-.602-1.97-.24-.625-.696-1.49-.744-1.994-.12-.505-.529-1.634-.84-2.45-.29-.818-.505-1.634-.554-1.947 0-.312-.192-.84-.36-1.105-.192-.264-.384-1.42-.384-1.42s-.553.94-.841 2c-.312 1.15-.6 2.087-.817 2.279-.24.192-.264.36-.312.721-.086.264-.289.744-.649 1.777-.216.65-.769 2.114-.865 2.475-.072.36-.12.865-.24 1.345-.144.48-.332.697-.72.96-.409.265-.697.842-1.178 1.082a.387.387 0 0 1-.216.072c-.288 0-.432-.432-.553-1.105-.144-.817-.665-1.922-.72-2.186-.096-.264-.289-1.42-.385-1.754-.096-.336-.336-.666-.456-1.225-.168-.528-.24-1.177-.577-1.922-.312-.745-.84-3.003-.984-3.519-.145-.445-.543-1.358-.601-1.742-.072-.384-.36-1.009-.553-1.258-.192-.28-.312-.424-.624-.64-.265-.216-.48-.12-.505-.552v-.097"/></g><g><path fill="#d18330" d="M57.1 18.152a1.056 1.056 0 0 0-.1-.466v-.132l-.346-.64c-.02-.01-.039-.014-.057-.028a.436.436 0 0 1-.085-.095c-.06.02-.12.04-.194.04-.078 0-.14-.02-.203-.041l-.058.135c-.005.075-.057.135-.057.183v.038c0 .375-.195.696-.456.963l-.344.794h.446c.083-.096.226-.124.354-.079.122-.053.258-.096.403-.102a.996.996 0 0 1 .532.118c.065.018.065.04.065.063h.555a.252.252 0 0 0 .007-.043l-.2-.427c-.139-.01-.269-.1-.261-.281"/></g><g><path fill="#d18330" d="M49.485 18.188c.07.177.104.356.135.51l.005.037c-.22.165-.18.116-.471.265-.154.111-.319.168-.502.265-.153.08-.321.156-.5.237-.152.073-.312.2-.492.265-.17.062-.357.09-.538.14-.177.093-.361.093-.545.093-.182 0-.363.07-.577.078-.155.009-.336-.078-.521-.078h-.55c-.023 0-.116-.194-.307-.48-.084-.126-.145-.309-.284-.52a2.012 2.012 0 0 1-.338-.363c-.155-.119-.289-.249-.44-.377-.132-.111-.284-.26-.441-.336-.119-.103-.305-.19-.467-.296-.147-.096-.33-.15-.496-.246-.156-.09-.276-.244-.446-.382-.157 0-.347-.064-.52-.146-.19-.077-.308-.198-.483-.274-.098-.042-.145-.193-.12-.444.014-.136.07-.305.123-.488.043-.15.117-.301.186-.467.104-.181.104-.336.104-.49.12-.145.226-.281.322-.423.093-.139.205-.268.315-.396.11-.127.21-.27.363-.38.101-.111.236-.222.38-.309.145-.086.305-.183.465-.183.155-.084.331-.112.503-.127.165-.014.342.025.524.059.128.068.335.068.508.135.157.059.31.147.473.23.147.077.327.125.481.22.145.09.267.225.413.33.14.1.253.217.41.328.135.108.267.223.4.34.131.114.303.186.443.308.115.12.199.286.321.411.122.126.281.219.398.348.118.131.192.3.281.418.136.15.247.285.351.422.11.142.21.285.308.425.102.153.253.26.341.404.097.155.147.33.225.478.086.164.2.271.26.46zM43.058 13.5a.638.638 0 0 0-.686.007c-.187.134-.182.348.009.494a.727.727 0 0 0 .685 0c.187-.155.183-.37-.008-.5zm1.692.423a.373.373 0 0 0-.399.003c-.108.075-.106.204.005.28.111.075.29.074.398-.004.11-.077.108-.201-.004-.279z"/></g><g><path fill="#d18330" d="M62.686 10.788c-.102.541-.29 1.212-.568 1.9-.322.836-.791 1.866-1.408 3.09-.391.757-.78 1.514-1.167 2.222-.026.069-.052.089-.076.111a.35.35 0 0 0-.102.291c-.062.13-.122.267-.177.416l-.046.123C59.072 19 59 19 58.926 19h-.089c-.06-.119-.156-.317-.286-.593-.174-.407-.38-.816-.62-1.352-.08-.34-.197-.663-.418-.952-.016-.038-.032-.103-.05-.103h-.016a2.163 2.163 0 0 0-.104-.529.69.69 0 0 0-.252-.346c-.275-.641-.506-1.19-.691-1.644-.215.46-.4.92-.653 1.38a.79.79 0 0 0-.15.23c-.04.09-.065.186-.093.279l-.145.3-.006.009a.36.36 0 0 0-.099.207.434.434 0 0 0-.039.114c-.114 0-.215.16-.266.32a4.033 4.033 0 0 0-.126.459l-.06.124c-.033.097-.064.097-.094.198a1.49 1.49 0 0 0-.143.303c-.083.182-.16.353-.234.512-.176.084-.292.266-.205.436l-.007.016c-.026.054-.08.105-.08.154 0 .063-.053.17-.107.323a3 3 0 0 1-.025.07c-.105.085-.239.085-.37.013a13.93 13.93 0 0 1-.055-.148 4.45 4.45 0 0 0-.233-.533c-.21-.33-.34-.66-.509-.99a.345.345 0 0 0 .006-.075c-.007-.182-.091-.276-.216-.334l-.26-.505a2.536 2.536 0 0 0-.045-.277.614.614 0 0 0-.186-.24c0-.03-.064-.058-.079-.087-.617-1.224-1.086-2.254-1.408-3.09-.15-.395-.274-.76-.373-1.1a3.114 3.114 0 0 0-.14-1.023c0-.59 0-1.186.189-1.69.053-.116.097-.236.13-.358.094-.204.214-.385.373-.532.124-.099.308-.177.404-.235a.676.676 0 0 0 .189-.048c.028-.016.059-.027.088-.04.132-.029.27-.043.416-.043.028 0 .053.004.08.005.131.094.38.136.586.113.076.029.15.062.22.101.197.11.325.201.383.342a.396.396 0 0 0 0 .544c-.058.262-.156.797-.213.858-.107.094-.174.069-.24-.01a.45.45 0 0 0-.104-.158c-.116-.105-.3-.375-.553-.375-.364 0-.649.154-.854.517-.18.312-.27.685-.27 1.118 0 .436.076.714.176 1.15.055.072.074.146.102.215a.793.793 0 0 0 .015.217c.054.243.16.45.3.634.262.747.583 1.56 1.017 2.45.342.699.984 1.956 1.284 2.485l.141-.317.141-.414.67-1.4L56 12.67c-.054-.14-.108-.274-.157-.403a1.03 1.03 0 0 0-.113-.59.943.943 0 0 0-.172-.228l-.06-.197a6.414 6.414 0 0 1-.15-.709l-.005-.029a4.77 4.77 0 0 1-.05-.674c0-.544.12-.97.36-1.277.24-.307.578-.461 1.016-.461.396 0 .708.137.937.412.23.274.394.64.394 1.099 0 .151-.08.387-.135.568-.14.073-.198.235-.177.384a.346.346 0 0 0-.075.224c0 .061 0 .123.002.211-.18.462-.374.897-.615 1.272l2.234 4.941a29.652 29.652 0 0 0 1.695-3.57c.311-.508.54-1.06.608-1.643.165-.504.269-.865.269-1.327 0-.127-.01-.248-.027-.364l.044-.101a.302.302 0 0 0-.034-.275c.012-.152-.087-.263-.22-.31-.01-.022-.02-.046-.032-.068C61.332 9.192 61 9 60.683 9c-.253 0-.438.308-.553.414a.357.357 0 0 0-.05.057c-.007.004-.022.02-.03.024-.05.002-.135.022-.162-.002-.033-.039-.068-.376-.102-.493a.386.386 0 0 0-.099-.348c-.039-.147-.073-.282-.1-.349-.014-.089.078-.189.107-.303.071 0 .157-.104.306-.163.098-.078.25-.134.41-.17.379.066.75.081 1.125.082.277.113.519.251.724.557.133.17.24.358.322.561.111.422.128.878.093 1.277-.02.228-.016.445.012.644zm-5.957.783c.181-.37.271-.686.416-.948.15-.405.225-.736.225-.993a1.98 1.98 0 0 0-.008-.166c.073-.172.037-.373-.126-.464h-.003c-.113-.246-.233-.357-.493-.357a.51.51 0 0 0-.472.278 1.29 1.29 0 0 0-.157.647c0 .35.062.709.187 1.078.103.298.247.607.431.925z"/></g><g><path fill="#d18330" d="M51.76 18.726c.025.054.059.065.081.117-.168-.002-.343.065-.535.054-.176-.01-.362-.013-.546-.034-.18-.02-.346-.11-.523-.144-.055-.163-.085-.33-.149-.492-.088-.16-.173-.303-.243-.463-.07-.157-.177-.297-.253-.454-.076-.155-.093-.31-.175-.494-.082-.152-.198-.286-.287-.436-.13-.148-.18-.294-.275-.44-.093-.145-.21-.275-.31-.417-.099-.142-.2-.281-.305-.42-.105-.103-.166-.31-.24-.443-.147-.133-.248-.277-.365-.406-.115-.129-.297-.195-.418-.32-.121-.124-.217-.242-.372-.361-.125-.12-.242-.246-.373-.36a3.818 3.818 0 0 1-.372-.365c-.1-.108-.294-.185-.434-.288-.043-.032-.083-.07-.123-.105a.233.233 0 0 0 .076-.191.389.389 0 0 0 .182-.061c.125-.09.123-.203-.005-.321a.429.429 0 0 0-.457.004c-.045.032-.068.114-.08.114H45c-.065 0-.116 0-.168-.064-.148-.09-.333-.114-.486-.197-.152-.083-.19.02-.346-.057-.156-.076-1.057.046-.522-.448.101-.144.124-.308.243-.447.115-.133.279-.208.43-.336.125-.124.231-.273.369-.391.135-.116.307-.186.48-.296.114-.107.222-.265.372-.365.148-.1.297-.204.452-.295.176-.104.302-.2.461-.282.16-.084.355-.095.518-.17.197-.074.32-.167.485-.232.169-.066.348-.098.517-.153.195-.056.348-.086.52-.13.114-.03.215-.07.318-.137h.061c.005.051.008.051.01.052v.096a3.12 3.12 0 0 0-.226.454c-.005.014.011.02.006.033-.004.014.003.015 0 .03-.044.163-.055.335-.074.483-.022.172-.086.332-.088.486-.001.077-.009.152-.015.224-.14.142-.137.287.006.402.024.146.057.284.038.414-.005.039-.053.037-.052.077 0 .039.064.033.072.071.03.178.008.349.053.528.042.163.143.317.196.491.05.159.094.334.154.506.056.162.075.344.14.514.076.139.076.304.189.466.061.148.2.27.268.429.065.148.101.315.172.472.068.148.144.297.217.453.07.147.124.319.23.46 0 .148.145.283.22.437.074.148.09.327.168.48.08.155.18.3.26.455.079.155.196.29.275.487.077.113.174.26.254.415.08.154.077.35.156.505.08.155.172.302.25.456.025.048.018.058.052.1.03.037.025.026.047.07.018.033.037.012.047.049.016.064.001.071.03.131zm-6.012-8.351a.482.482 0 0 0-.513.004c-.14.1-.137.262.007.36a.479.479 0 0 0 .512-.005c.14-.101.138-.262-.006-.36zm2.2-.622a.364.364 0 0 0-.392.003c-.107.076-.105.244.004.244.11.106.285.104.44 0 .06 0 .058-.172-.053-.247z"/></g><g><path fill="#d18330" d="M44.228 19.787c-.104-.107-.228-.246-.36-.378a9.233 9.233 0 0 0-.395-.345c-.13-.064-.27-.213-.416-.319-.139-.099-.289-.19-.44-.284-.146-.09-.3-.175-.457-.256-.16-.079-.304-.205-.467-.205-.162-.098-.336-.13-.504-.177a4.637 4.637 0 0 0-.503-.093c-.091.129-.185.27-.28.404-.088.14-.174.285-.252.435-.078.152-.154.3-.219.431-.057.188-.114.353-.13.514-.016.172.009.345.056.486.074.199.19.34.295.476.116.15.23.288.377.388.15.136.31.198.467.255.187.055.372.085.557.101.177.016.362.011.548-.005.178-.016.353-.077.534-.119.175-.04.361-.096.524-.146.17-.062.333-.141.497-.222.164-.08.34-.165.476-.262.156-.099.316-.188.456-.301l.003-.007c-.165-.158-.141-.158-.367-.37"/></g><g><path fill="#d18330" d="M68.903 10.79c.097.138.687.69.352.741-.382.059-.491-.022-.647.054-.156.076-.2.018-.351.101-.152.083-.257.207-.428.314-.15.073-.332.11-.476.206l-.03.024c.015-.043.002-.089-.047-.121-.07-.048-.184-.047-.276.002v.178a.314.314 0 0 0 .22.027c-.086.08-.166.168-.22.236a.916.916 0 0 0-.184.099c.037-.088.01-.186-.09-.254a.479.479 0 0 0-.512.005c-.14.1-.138.261.006.359a.476.476 0 0 0 .358.057l-.044.031c-.135.151-.258.233-.388.346-.146.115-.25.24-.375.359-.126.12-.27.22-.39.344-.122.102-.218.271-.381.4-.069.129-.19.252-.301.385-.11.134-.246.247-.351.385-.106.138-.229.264-.348.405a8.56 8.56 0 0 1-.264.438c-.095.146-.178.3-.266.448-.089.15-.152.314-.234.465-.083.176-.183.298-.236.452-.1.157-.166.318-.235.476-.07.16-.17.307-.233.467-.064.163-.074.344-.13.507-.176.033-.402.066-.537.087-.184.02-.366.04-.542.05-.192.012-.375 0-.543.002.023-.051.034-.103.06-.157.029-.06 0-.064.016-.129.01-.036.012-.036.03-.07.022-.043.037-.033.114-.07v-.067c.124-.154.226-.297.306-.451.079-.155.107-.335.186-.49.08-.155.2-.288.28-.431.08-.167.132-.335.228-.49.064-.155.176-.294.256-.449.077-.152.105-.327.177-.474.077-.154.207-.278.278-.425.075-.162.105-.326.174-.473.115-.156.115-.313.2-.461.072-.157.192-.287.256-.436.07-.158.121-.318.182-.467.067-.161.124-.325.181-.468.065-.17.102-.346.158-.507.06-.173.138-.35.198-.494.053-.175.082-.35.123-.513.046-.179.052-.343.082-.521.008-.039-.01-.037-.01-.076.001-.04.04-.04.035-.079-.01-.069-.025-.141-.038-.216a.562.562 0 0 0 .53-.038c.164-.118.16-.307-.008-.413a.439.439 0 0 0-.51 0c.025-.146.055-.253.053-.37-.002-.154-.001-.324-.023-.497-.02-.133-.103-.311-.146-.475-.004-.014.036-.027.03-.04-.004-.015-.01-.013-.016-.027-.072-.179-.162-.337-.237-.49v-.04C63.945 8 64 8 64 8c.09 0 .192.06.316.092.171.044.362.04.534.096.15.056.328.15.497.217.166.065.304.195.468.27.185.074.368.065.527.148.16.083.295.177.449.304.155.092.277.233.425.332.15.1.328.158.47.266.145.109.314.19.446.275.138.148.224.321.35.446.129.128.305.21.42.343zM65 11h-.268c-.066.055-.064.13.003.177.068.046.176.045.265-.002V11zm.913-1.092a.366.366 0 0 0-.391.003c-.107.089-.105.2.005.274.11.075.284.074.392-.003.081-.077.081-.182-.006-.274zm2.261 1.224a.225.225 0 0 0-.241.002c-.067.048-.065.124.003.17a.228.228 0 0 0 .241-.002c.066-.047.065-.124-.003-.17z"/></g><g><path fill="#d18330" d="M68.71 18.692c-.145.142-.326.225-.432.308-.139.207-.278.367-.278.494-.234.285-.28.506-.304.506h-.55c-.146.056-.365.072-.549.063-.185-.008-.376.024-.597-.007-.143-.056-.322-.056-.498-.14a4.044 4.044 0 0 1-.502-.179c-.203-.065-.39-.102-.552-.175-.18-.08-.333-.194-.448-.275-.22-.097-.403-.158-.539-.287-.29-.13-.23-.11-.461-.276v-.013c.08-.155.141-.314.212-.49.06-.153.093-.33.179-.494.077-.148.2-.279.296-.434.089-.144.167-.293.313-.45.054-.14.161-.278.27-.42.105-.137.233-.257.347-.423.11-.104.2-.258.317-.389.117-.13.198-.295.32-.421.123-.126.305-.19.431-.313.091-.087.168-.188.25-.283a.36.36 0 0 0 .233-.05c.08-.057.095-.14.049-.207l.23-.185c.139-.152.263-.241.403-.34.15-.105.334-.14.479-.23.154-.096.284-.22.435-.296.163-.083.33-.14.487-.198.173-.088.337-.088.5-.163.182-.034.358-.028.522-.014.172.015.342.03.5.089.16 0 .29.161.435.248.144.086.293.163.42.274.127.11.273.206.372.334.12.144.216.272.31.41.095.142.146.31.224.455.081.154.141.279.203.46.068.166.16.312.204.463.059.183.059.356.059.496.06.25 0 .455-.059.497-.175.076-.353.128-.514.205-.172.082-.345.158-.501.232-.17.089-.346.152-.498.24-.167.098-.308.22-.428.317a1.98 1.98 0 0 0-.47.369 2.156 2.156 0 0 0-.457.272c-.151.129-.243.3-.364.42zm1.212-4.215c.078.08.302.077.416-.004.112-.081.11-.211-.006-.291-.116-.079-.332-.078-.415.004-.113.081-.11.211.005.29zm-1.122-.64c.068.047.2.046.2-.001.107-.048.106-.124 0-.17 0-.046-.138-.045-.203.002-.067.048-.064.124.003.17z"/></g><g><path fill="#d18330" d="M72.802 19.516a2.802 2.802 0 0 0-.12-.516c-.055-.128-.12-.284-.198-.435-.078-.15-.177-.289-.266-.428C72.124 18 72 17.829 72 17.7c-.218.025-.389.08-.557.127-.168.047-.329.112-.443.173-.21.069-.382.112-.537.192-.157.08-.315.158-.463.249-.15.094-.281.213-.42.313-.146.105-.274.246-.403.333-.177.118-.283.224-.403.333-.145.133-.283.244-.388.35-.225.23-.17.23-.335.4l-.051.006c.17.112.326.21.481.31.153.096.308.198.519.278.117.08.294.133.464.236.173 0 .35.068.536.109.17.042.35.066.528.082.185.017.367.027.544.011.186-.016.36-.065.529-.12.175-.082.337-.082.486-.233.147-.1.293-.208.409-.357.105-.136.187-.298.26-.492.048-.146.062-.313.046-.484"/></g></g></g></svg>