<svg xmlns="http://www.w3.org/2000/svg" width="2336" height="1036">
  <g fill="#FFF">
    <path d="M326.314 416.351c-11.508-11.77-26.688-22.982-46.41-34.282-18.227-10.443-40.543-21.158-70.248-33.727-20.375-8.392-54.556-28.797-54.556-71.178 0-9.954 1.667-18.958 4.952-26.763 2.964-7.037 7.237-13.1 12.701-18.017 9.529-8.576 22.783-13.494 36.363-13.494 25.539 0 44.271 8.721 60.738 28.276 15.905 18.889 30.494 48.506 48.781 98.803.204.562.736 1.03 1.332 1.03h12.795c.783 0 1.418-.729 1.418-1.514 0-.074-.006-.191-.016-.264l-8.515-118.448c-.037-.511-.344-.97-.806-1.19-16.47-7.823-37.926-14.539-62.045-19.406-22.905-4.625-46.513-7.173-66.476-7.173-26.964 0-51.358 3.292-72.505 9.788-19.99 6.139-37.147 15.151-50.997 26.783-13.205 11.091-23.332 24.488-30.099 39.82-6.535 14.801-9.848 31.175-9.848 48.673 0 18.521 2.202 34.39 6.731 48.508 4.584 14.29 11.559 26.827 21.323 38.326 18.308 21.561 46.741 39.894 92.193 59.442 14.3 6.155 26.941 13.541 37.575 21.95 9.269 7.331 17.082 15.489 23.223 24.246 13.621 19.423 15.091 35.869 15.091 42.039 0 11.13-1.715 21.202-5.099 29.933-3.147 8.123-7.739 15.099-13.646 20.737-5.573 5.321-12.263 9.409-19.886 12.15-7.343 2.641-15.387 3.979-23.906 3.979-12.886 0-24.236-2.419-34.7-7.392-10.782-5.125-20.343-12.824-29.228-23.542-17.972-21.674-32.873-55.811-45.554-104.42-.16-.62-.724-1.024-1.369-1.024H42.83c-.393 0-.769.131-1.037.418-.268.289-.405.658-.378 1.051l8.522 123.645c.035.501.331.941.78 1.166 34.196 17.102 93.129 29.997 137.083 29.997 24.295 0 47.323-3.362 68.442-9.992 20.732-6.509 39.063-15.982 54.482-28.156 15.556-12.281 27.678-26.945 36.029-43.582 8.631-17.195 13.008-36.082 13.008-56.133 0-19.737-2.556-36.39-7.813-50.913-5.386-14.886-13.771-28.018-25.634-40.15zM1277.573 262.854c-19.831-20.108-43.211-35.839-69.489-46.753-27.315-11.347-56.9-17.099-87.938-17.099-31.397 0-61.49 5.882-89.442 17.482-26.894 11.162-50.934 27.225-71.452 47.742-20.342 20.343-36.369 44.2-47.632 70.911-11.537 27.354-17.6 56.618-18.022 86.973-.64 30.711 4.479 60.264 15.213 87.833 10.503 26.975 25.948 50.985 45.904 71.362 19.734 20.148 43.084 35.908 69.401 46.839 27.366 11.367 57.094 17.131 88.36 17.131 31.196 0 61.172-5.882 89.099-17.483 26.876-11.166 50.959-27.227 71.58-47.739 20.461-20.354 36.639-44.21 48.083-70.905 11.734-27.37 18.004-56.634 18.634-86.988.43-30.726-4.906-60.304-15.86-87.909-10.706-26.986-26.331-51.007-46.439-71.397zm-218.022 9.456c6.223-17.55 14.13-30.946 23.502-39.817 9.537-9.027 20.867-13.602 33.68-13.602 12.816 0 24.15 4.575 33.687 13.602 9.374 8.872 17.281 22.268 23.504 39.817 12.038 33.959 18.142 84.369 18.142 149.829 0 65.457-6.104 115.865-18.142 149.823-6.223 17.548-14.13 30.945-23.504 39.817-9.536 9.025-20.87 13.602-33.687 13.602-12.812 0-24.143-4.576-33.68-13.602-9.372-8.873-17.279-22.27-23.502-39.817-12.041-33.963-18.146-84.369-18.146-149.823 0-65.457 6.105-115.865 18.146-149.829zM1846.832 626.558c-21.139 0-32.782 0-38.992-4.224-6.063-4.123-7.259-13-7.531-30.124.004-5.9.411-12.085.346-18.067-.064-5.889.346-11.979.346-17.797V25.587c0-.782-1.587-2.587-2.37-2.587h-4.411c-.098 0-.194.596-.291.615L1634.116 57.35c-.658.137-1.116 1.009-1.116 1.679v11.938c0 .782.622 1.417 1.407 1.417 18.656 0 27.942 0 32.294 4.537 4.375 4.562 4.299 14.344 4.299 33.833V246.1c-12-6.116-25.124-10.688-38.456-13.597-11.59-2.529-23.427-3.812-35.253-3.812-25.998 0-51.498 4.886-75.824 14.522-24.46 9.689-46.418 23.676-65.282 41.567-19.64 18.63-35.032 40.707-45.762 65.618-11.442 26.568-17.242 55.704-17.242 86.598 0 29.717 3.916 57.672 11.638 83.087 7.671 25.254 18.931 47.455 33.465 65.984 14.789 18.854 32.656 33.502 53.111 43.538 21.211 10.408 44.896 15.688 70.391 15.688 28.277 0 44.062-6.953 54.656-13.009 8.729-4.991 17.62-13.518 17.994-13.88.006-.005.012-.012.018-.017l13.008-12.995c.266-.268.414-.628.414-1.003 0-.377-.148-.737-.414-1.003l-11.264-11.264c-.554-.555-1.449-.555-2.004 0l-1.662 1.66c-5.341 5.342-11.746 8.05-19.038 8.05-11.693.002-22.929-6.887-27.725-9.826-16.772-10.287-30.299-28.383-40.203-53.787-10.427-26.744-16.504-60.823-18.061-101.286-2.862-77.221 12.648-141.192 41.492-171.125 11.748-12.19 25.298-18.374 40.272-18.374 10.84 0 26.661 1.554 39.501 14.982 14.799 15.479 22.229 43.427 22.229 83.071V643.27c0 .783.78 1.73 1.563 1.73h174.269c.782 0 3.168-.947 3.168-1.73v-15.293c0-.377-1.024-.737-1.291-1.003-.263-.266-1.501-.416-1.876-.416zM2311.774 626.558c-19.373 0-31.472 0-37.737-4.227-5.674-3.828-7.895-11.432-8.193-30.121.004-5.794.35-11.89.578-17.781.231-5.979.578-12.16.578-18.083V25.587c0-.782-1.054-2.587-1.837-2.587h-5.917c-.097 0-.195.596-.289.615L2098.184 57.35c-.656.137-1.184 1.009-1.184 1.679v11.938c0 .782.69 1.417 1.473 1.417 17.773 0 26.953 0 31.086 4.513 4.18 4.568 4.441 14.356 4.441 33.857V245.96c-11-5.99-23.194-10.513-36.796-13.457-14.555-3.152-27.692-3.812-36.054-3.812-25.992 0-51.532 4.886-75.794 14.523-24.392 9.685-46.311 23.67-65.097 41.569-19.545 18.622-34.881 40.698-45.553 65.617-11.373 26.559-17.146 55.691-17.146 86.596 0 29.708 3.929 57.663 11.686 83.089 7.699 25.248 18.995 47.447 33.575 65.982 14.826 18.852 32.737 33.5 53.224 43.538 21.242 10.408 44.94 15.688 70.438 15.688 28.425 0 44.229-6.954 54.824-13.011 8.725-4.989 17.691-13.513 18.069-13.873.007-.007.013-.015.021-.021l13.044-12.995c.268-.266.418-.628.418-1.003 0-.377-.148-.74-.414-1.008l-11.238-11.229c-.268-.268-.629-.388-1.005-.388h-.001c-.377 0-.739.122-1.005.389l-1.648 1.648c-5.343 5.342-11.747 8.042-19.036 8.042-11.691.001-22.925-6.892-27.722-9.834-16.772-10.286-30.297-28.385-40.199-53.788-10.428-26.742-16.502-60.821-18.06-101.287-1.413-38.087 1.528-73.869 8.508-103.476 3.497-14.833 7.991-28.125 13.357-39.497 5.456-11.561 11.821-21.156 18.92-28.523 11.51-11.947 24.855-18.003 39.661-18.003 10.715 0 26.637 1.551 39.135 14.967 14.369 15.426 21.888 43.38 21.888 83.084V643.27c0 .783.17 1.73.953 1.73h176.013c.783 0 3.034-.947 3.034-1.73v-15.293c0-.784-1.442-1.419-2.226-1.419zM798.792 262.096c-14.735-20.084-32.555-35.688-52.965-46.379-21.181-11.093-44.854-16.719-70.359-16.719-28.265 0-44.054 7.409-54.651 13.866-8.732 5.319-17.602 14.398-17.975 14.784-.006.005-.011.008-.017.013L589.829 241.5c-.511.546-.511 1.381 0 1.928l11.263 11.976c.268.286.642.397 1.033.397.391 0 .764-.11 1.032-.396l1.668-1.721c5.339-5.688 11.734-8.572 19.006-8.572 11.678 0 22.9 7.334 27.692 10.466 16.78 10.963 30.314 30.254 40.227 57.338 10.435 28.511 16.514 64.837 18.072 107.965 1.424 40.913-1.854 79.478-9.478 111.524-7.633 32.079-19.512 57.156-34.353 72.523-11.497 11.903-24.584 17.939-38.901 17.939-10.92 0-26.574-1.655-39.659-15.967C572.298 590.351 565 560.544 565 518.312V200.39c0-.378-.527-1.224-.794-1.491-.265-.264-1.002-.899-1.377-.899h-.007l-5.061.514c-.099 0-.198.277-.295.299l-175.442 38.486c-.651.142-1.024.826-1.024 1.494v12.792c0 .783.544 1.417 1.327 1.417 21.398 0 32.373 0 37.412 4.927 5.026 4.912 5.261 15.399 5.261 36.292V784.56c0 27.354-.28 41.082-5.429 47.625-5.026 6.388-15.779 6.388-37.104 6.388-.783 0-1.467.635-1.467 1.417v17.681c0 .782.453 1.33 1.236 1.33h232.721c.784 0 2.043-.548 2.043-1.33V839.99c0-.782-.947-1.417-1.73-1.417-25.622 0-38.263 0-44.359-6.482-6.131-6.52-5.911-20.225-5.911-47.53V624.264c10 6.34 22.958 11.155 37.325 14.327 15.198 3.356 28.368 4.06 36.9 4.06 26.011 0 51.469-5.206 75.849-15.476 24.516-10.325 46.492-25.226 65.412-44.284 19.702-19.846 35.125-43.354 45.891-69.874 11.484-28.292 17.297-59.312 17.297-92.195 0-31.654-3.897-61.421-11.571-88.47-7.631-26.896-18.843-50.534-33.311-70.256z"/>
  </g>
  <g fill="#FFF">
    <path d="M943.103 1020.499h-5.192l-34.81-79.296h17.936l19.47 47.318 19.47-47.318h17.936l-34.81 79.296zM1028.062 1019.083h-15.93v-77.88h15.93v77.88zM1121.871 955.599h-36.461v15.812h26.904v13.57h-26.904v19.705h37.877v14.396h-53.808v-77.88h52.392v14.397zM1211.079 987.695v-46.492h15.931v79.296h-5.193l-45.193-48.144v46.728h-15.93v-79.296h5.31l45.075 47.908zM1318.812 987.695v-46.492h15.931v79.296h-5.192l-45.193-48.144v46.728h-15.931v-79.296h5.31l45.075 47.908zM1443.539 1019.083h-17.11l-4.366-10.148h-31.859l-4.366 10.148h-17.11l34.811-79.296h5.191l34.809 79.296zm-47.79-23.246h20.649l-10.266-26.313-10.383 26.313z"/>
  </g>
</svg>