<svg xmlns="http://www.w3.org/2000/svg" viewBox="0 0 1000 500">
  <style>
    .st2{fill:#002635}
  </style>
  <g id="Ebene_1">
    <path d="M244.25 229.96s-36.86-.54-43.9 0c-7.04.54-6.93 8.09-6.93 8.09s-.43 25.44-1.13 30.46c-.37 2.65-2.83 27.71-24.28 44.63-17.94 14.15-41.59 25.41-68.16 18.48-41.59-17.33-42.74-54.3-42.74-54.3s24.14 18.21 38.12-1.16c15.02-20.79 6.93-54.35 6.93-90.11 0-15.02 1.16-65.85 58.36-67.23 34.65-.84 52.26 24.31 59.21 34.58 29.14 43.06 24.52 76.56 24.52 76.56z" fill="#e6fa00"/>
    <path class="st2" d="M359.11 402.98c-4.49 0-17.77-.18-25.67-.18-9.34 0-21.18.18-25.67.18V394l2.33-.36c6.1-.9 8.26-2.15 8.26-21V340.5c0-12.21-3.77-15.62-13.11-15.62h-15.44v47.75c0 18.85 2.15 20.11 8.26 21l2.33.36v8.98c-4.49 0-17.95-.18-25.85-.18-8.08 0-22.98.18-26.93.18V394l4.13-.72c6.46-1.08 7.9-4.31 7.9-24.24V325.6h-12.57v-10.59l12.57-4.13v-.54c0-27.11 22.8-45.78 50.81-45.78 24.24 0 34.29 7.54 34.29 17.59 0 8.62-5.74 14-13.28 14-8.26 0-14.54-5.21-21.36-17.59-1.08-.36-2.15-.72-5.39-.72-10.23 0-14.9 9.87-14.9 26.57v6.64h43.62l8.8-1.8 6.28 3.95v59.42c0 18.85 2.15 20.11 8.26 21l2.33.36v9zM448.33 322.01c0 11.67-4.13 17.95-8.98 17.95-4.85 0-8.8-.54-21.54-2.51-3.95 2.69-6.1 4.31-8.8 6.82v24.42c0 21.72 1.08 22.98 13.64 24.77l3.95.54v8.98c-4.31 0-24.95-.18-32.85-.18-8.08 0-23.7.18-27.65.18V394l4.13-.72c6.46-1.08 7.9-4.31 7.9-24.24V344.1c0-11.67-1.44-13.82-7.36-17.23l-4.67-2.69v-7.36l36.62-7.54 6.28 3.95-2.87 22.08c14.18-22.08 20.47-26.39 28.19-26.39 9.52-.01 14.01 4.66 14.01 13.09zM526.26 376.05c0 19.03-15.8 28.36-40.21 28.36-10.59 0-24.95-1.97-33.57-5.92v-22.26h15.62c2.69 12.03 8.62 18.49 19.21 18.49 8.44 0 14.18-3.77 14.18-11.49 0-7.9-3.05-10.95-19.57-16.16-21.18-6.64-28.9-14.72-28.9-30.88 0-15.98 12.93-27.47 37.7-27.47 12.03 0 25.67 3.05 30.16 5.39v22.26h-15.62c-2.87-13.29-8.08-17.95-16.16-17.95-6.64 0-11.31 3.95-11.31 10.59 0 7.9 2.87 10.77 19.75 16.34 21.72 7.18 28.72 15.8 28.72 30.7zM601.3 394.18c-8.44 5.92-17.05 9.87-30.34 9.87-16.16 0-26.75-8.26-26.75-26.39V325.6H532v-10.59l12.93-4.31 12.75-26.75h17.41v27.11h23.7v14.54h-23.7v49.73c0 9.16 3.41 12.57 9.87 12.57 5.03 0 8.26-.9 12.57-2.69l3.77 8.97zM708.06 353.61c0 31.96-19.57 50.09-48.83 50.09-9.52 0-22.62-3.23-30.16-6.46l-7 7.9h-9.51V300.29c0-11.67-1.44-13.82-7.36-17.23l-4.67-2.69V273l36.62-7.54 6.28 3.95v50.81c8.08-6.64 15.62-11.13 24.42-11.13 22.44 0 40.21 17.95 40.21 44.52zm-30.52 12.75c0-26.93-11.13-37.88-26.93-37.88-3.05 0-4.85 0-7.18.54v38.24c0 15.62 5.74 23.52 16.87 23.52 11.32-.01 17.24-7.91 17.24-24.42zM769.3 402.98c-4.49 0-17.95-.18-25.85-.18-8.08 0-23.7.18-27.65.18V394l4.13-.72c6.46-1.08 7.9-4.31 7.9-24.24V344.1c0-11.67-1.44-13.82-7.36-17.23l-4.67-2.69v-7.36l36.62-7.54 6.28 3.95v59.42c0 18.85 2.15 20.11 8.26 21l2.33.36v8.97zm-8.98-121.18c0 10.59-9.16 17.77-19.39 17.77s-19.57-7.18-19.57-17.77c0-10.23 9.34-17.41 19.57-17.41 10.42 0 19.39 7 19.39 17.41zM858.52 322.01c0 11.67-4.13 17.95-8.98 17.95s-8.8-.54-21.54-2.51c-3.95 2.69-6.1 4.31-8.8 6.82v24.42c0 21.72 1.08 22.98 13.64 24.77l3.95.54v8.98c-4.31 0-24.95-.18-32.85-.18-8.08 0-23.7.18-27.65.18V394l4.13-.72c6.46-1.08 7.9-4.31 7.9-24.24V344.1c0-11.67-1.44-13.82-7.36-17.23l-4.67-2.69v-7.36l36.62-7.54 6.28 3.95-2.87 22.08c14.18-22.08 20.47-26.39 28.19-26.39 9.52-.01 14.01 4.66 14.01 13.09zM965.11 402.8c-11.49 0-26.93 0-37.88.36l-2.87-10.95c-8.26 7-16.16 11.85-25.13 11.85-22.44 0-40.21-17.95-40.21-44.52 0-31.96 19.57-50.09 48.83-50.09 6.64 0 11.49.72 15.8 1.8V301.2c0-10.59-1.62-13.82-9.16-18.13l-4.67-2.69V273l38.42-7.54 6.28 3.95v99.46c0 20.47 1.44 23.34 7.54 24.42l3.05.54v8.97zm-41.47-18.67v-38.24c0-15.62-5.74-23.52-16.88-23.52-11.31 0-17.23 7.9-17.23 24.42 0 26.93 11.13 37.88 26.93 37.88 3.05 0 4.84 0 7.18-.54zM243.53 227.73c-.35.55.11.76.69.87.38-1.86-.13.53-.69-.87zM240.52 172.5c0-.11-.08-.26-.3-.48.05.23.17.37.3.48zM104.48 141.35c-.02.04-.04.07-.06.12.01-.01.03-.01.05-.02 0-.03 0-.06.01-.1zM204.26 123.04c.19.3.38.58.57.83.3-.08-.28-.34-.57-.83zM130.51 131.79h-.02c-.1.15-.21.29-.28.47.18-.05.22-.19.3-.47zM246.14 224.22l-.34-.27c.07.1.18.2.34.27zM96.64 168.64zM96.34 161.02c0-.07-.01-.14-.01-.22-.28-.08-.19.04.01.22zM96.64 168.64c.12.2.24.4.42.54.55-.64-.29-.28-.42-.54zM245.11 195.76c-.11.05-.23.1-.34.15.09.01.21-.04.34-.15zM186.84 129.05c.06-.04.11-.11.17-.17-.2-.06-.4-.12-.63-.18l.46.35z"/>
    <path class="st2" d="M242.94 194.9c-.16-1.99-.62-4.16-1.53-6.05.3.63 1.46.48 1.84-.24-1.35-.61-2.45-2.02-2.68-3.78-1.12.39-.94.92-2.1 1.1-.26-.19-.88-.43-.93-.86 1.1-.61 2.9-1.11 2.46-2.62 1.97-.2.59 2.61 2.19 1.35 1.68.2 2.61 2.91 1.89 3.8 1.98.87-.14-1.11 1.48-1.33-.49-1.19-1.47-1.51-2.31-3.32-.79.23-.7.9-1.61.24-2.17-1.12.47-2.45.39-2.9.27.18.43.5.69.68.17-1.29-1.03-1.32-1.34-2.51 1.97-1.04.87 1.79 2.3 1.79l1.2-1.35c-.43-1.89-1.86.09-1.98-1.97l.83-.04-.88-1c-.78.26-1.85.92-1.34 1.86-2.23.06-.6-.81-1.56-2.24-1.32-.09.36.62-.76 1.06-.96.52-1.39-.53-1.87-1.23-.47-1.27.98-1.11 1.53-1.91.28.17.8 1.1.11 1.24 1.75 1.15 2.09-1.57 3.3-.76.21-1.49-1.11-.94-1.74-1.43.02.43-1.19.26-1.49.69-3.86-.91 1.71-2.2.36-4.02-1.76 1.19-3.8-1.55-5.32.77-.54-.33-1.24-.72-1.24-1.3 1.53-.04.65-1.31 2.29-.91l-.29-.73 2.01.42c.57-1.19.85-2.91 1.28-3.62-1.04-.8-1.1.88-1.96-.19.86.12 1.09-.88.82-1.42 0 1.31-1.82.85-2.45.33-.5-1.04.28-2.46.66-2.45l1.59.51c-1.31-.34.33-.58-.46-1.19-.82.11-2.15.15-3.18.34-.63-.51.05-1.44-.23-1.59l1.3.67c-.99-1.26 1.8-1.27.57-2.48l-1.17.13c.01-.36.38-.73.89-.65-.81.14-1.11-.75-1.54-.97l.59-.44c-.74-.38-2.56-.34-1.71-1.75-1.23 1.42.39.72.24 2.12-.82 1.24-1.6-.43-1.9-.55 1.68-.84-.68-1.6-1.07-2.3.35-.74.4-1.25.6-1.71l-1.24.36c1.93-1.5-1.31-1.11-1.15-2.27.88.01 1.67-.55 1.62-1.3-1.07 1.7-2.66-.03-3.56.86-.36-1.72 2.14-.92 2.94-2-1.63.06-.26-2.08-2.08-1.54.22 1.31-1.06.48-1.86.72-.73-1.32.8-.24.73-1.49-.57-.39-2.16-.26-2.05.83-.17-.95-2.16-.72-1.83-2.17.68-1 1.49 1.18 1.81.25-1.13-1.77-2.85.78-4.3-.5.01 1.01-2.06 1.59-3.12 1.31-.86-1.9 1.08.28 1.74-1.21l-.68-.52c.83-2.16 4.08-.03 4.67-1.89l-1.09-.34c.56-.18 1.54-.56 1.73-1.2-1.23.65-1.66-1.52-2.02-1.45-1.01.58.74.38-.06.84-.87-.59-2.65.31-3.08-1.31 1.16.11.97-1.28 1.69-1.45-.14-.89-1.23.72-1.47-.51l.51-.37c-2.51-3.18-6.6-6.77-11.1-6.75.2-1.08-.68-1.91-1.66-3.24-.21.07-.89.05-2.49-.03v-1.67c0-1.32-1.84-1.17-3.17-1.09-.03-.32.86-.67 1-1-.45-1.32-1.33.05-1.83.11l-.12-1.16-.59.73c-1.18-.07-2.29-.93-1.47-2.2-.51.06-1.01.13-.74.76-.52-1.28-3.19-2.61-5.18-2.84.69.7.43 1.1.13 2-.88 1.38-.27-.44-1.32.14.21-.56-.35-1.46.67-1.51-1.6-2.9-5.61-2.55-8.57-3.7-.69.08-.56.39-.96.73-1.6-2.06-4.38-.88-6.39-1.86.38.73-.57 2.51-1.71 2.38-1.41 1.17-.28-1.9-1.38-2.81-.65.56-1.75.61-2.21.51l.06-.23c-.77.67-1.89 1-2.71.35l.14-.09c-.68-.14-1.47-.99-2.21-.89-.35 1.22-2.08.47-2.48 1.59-.09-.14.04-.23-.15-.5l-.04 1.05-1.41-.56c.29-.42.35-.89.74-1.19-1.53-.68-.48.99-1.25 1.59-1.01.8-.99-.25-1.52-.67.41-.55.78.22 1.03.01.57-.86-.65-.32-.7-.91-.23-.03-.26 1.26-1.04 1.06-.68-.09-2.21.36-2.12-.8-.53.66-1.21.59-1.59 1.15.57.16 1.58.37 1.75 1.09-.48.19-1.4.57-1.6.09l.36-.32c-.36.32-1.82.12-.97 1.1l-1.17-1.36c-.28.91-1.3.99-2.1 1.31-.21-1.16.3-2.56-1.34-2.59l-1.17 1.4c-.69.22-.93.01-.94-.7-2.61-.17-1.83 3.66-3.92 3.08.47-1.55-.22-1.51-1.17-1.67.02.23.06.7-.28.84.4.56.26-1.06 1.14-.32.4.79-.64.75-.95 1.12-2.48-2.48-5.76.89-8.9.67.81 1.48-1.01.94-1.3 1.75-.55-1.67-1.35.93-2.5.33l1.13 1.36c-2.03-.12-1.27 3.56-3.18 2.26-1.09.03-.34-1.27-.1-1.71-2.16-.97-2.35 3.12-4.35 1.98.29.64 1.23 1.38.62 2.53-1.18-.11-3.24.27-3.29-.07-.42.75-.25 1.3-1.3 1.36-.23-.4.03-.69.12-1.01-1.37.51-1.74 1.82-2.21 3.08-1.43-.48-2.76 1.66-4.34 2.33.58 1.74-2.22 1.48-.7 2.96-.14-.17-.48-.2-.64-.21.08.84.82 2.05.46 2.68l-.93-1.04c-1.27-1.24-1.57 1.44-2.38 1.1 1.33.18-.52.67.31 1.33l-.14.96c-.48 1.33.47.52-.3 2.01-.45.83-1.52-.59-1.19-.78-1.05.3-1.14 1.21-1.3 2.08.14-.25.28-.28.4.11-.17-.08-.3-.06-.42-.01-.06.33-.14.64-.29.92-.02-.02-.03-.02-.05-.04.09-.34.19-.65.29-.86-.22.12-.38.4-.55.68-.11-.03-.15.07-.15.23-.16.23-.34.42-.59.47l-.83-.73c-.36.51-.03 2.56.41 2.72-1.92 1.63-2.71 5.46-2.71 7.12-.13-.35-.42-.5-.19-.09-.09.82.48 1.95-.2 1.79.16.86-.95.41-1.42 1.5-.17-.04.48.27.78.27-1.97 1.48-.21 4.61-1.83 6.58.31-.1-.42-.66-.78-.99.07 1.9.14 3.68 1.12 5.49-.45-.26-.91-.3-1.1-.77-.18.98-.18 2.1.28 2.89-.02-.04-.02-.09 0-.16 1.09-.7 1.8 1.01 1.43 1.75l-.23-.01c-.15 1.21.42 1.34.28 2.54-.7.64-.22-.67-.93-.47-1.75.06-1.42 2.65-1.64 2.88.35.33.59.78 1.05.77.37.99-1.05.34-1.02 1.01.98.97 1.98 1.91 2.98 2.83-.45-.15-1.52.75-2.06-.09.1 2 2.07 3.2 3.11 4.4-.31.57.37 2.45.43 3.1-.91.3.06-.55-.66-.7l-1.07.97c-.14-1.3-1.63.15-2.29-.56.58 1.04-.09 3.51-.39 5.07 1.99-1.07.94 2.09 2.7 2.03.32 1.82-1.42.91-1.82 1.6.69 1.9.2 3.7.4 5.43 0 0-.24.02-.36-.07.54 1.58.02 4.15 1.62 5.73-.36-.07-.7.07-.98-.34-.62 1.7 2.26.31 1.21 2.28l-.88-.46c.85 1.22-.77 2.37.56 3.76-.47.05-.62-.26-.88-.46.38 1.27.19 2.71 1.36 3.8-.56.16-1.05-.01-1.45-.52-.69 1.25 1.55 1.38.96 2.53-.08.33-.83.94-.86.73.77.59.71 2.33 1 2.97-.57.15-.77.6-1.39 1.3-.12 6.31-.76 12.75.51 19.11-1.8.99-1.05-1.51-2.28-.89 1.51.01.39 1.09.85 3.02l-.23.07c.3.82-.68 1.25-.24 2.14l.4-.02c.95.97-2.03 1.99-.11 2.55l-1.11.66c1.68.99-.61 1.41.76 2.6l-.3-.15c-.84 1.44 1.64 3.27.21 3.74.14 1.3.29 2.81 1.58 3.23-.54.22-1.32-.08-1.75-.32.01 4.92-1.45 9.86-2.32 14.6-.37.03-.4-.33-.58-.59-.08 1.6-1.38 2.55-2.5 3.27-1.14.77-2.1 1.28-2.39 3.15-.06.49-.14.99-.24 1.5-.9-.12-1.17-1.02-1.81-1.25-.33 1.05-2.48.89-2.63 2.02-.4-.45.02-.67-.06-1.04-1.3-.03-2.71 1.94-4.07 1.54l.4-.56c-6.75-1.95-12.82-6.18-18.58-6.25-.2-.42-.44-.8-.69-1.18.16-.35.31-.66.05-.73-.25-.02-.48-.07-.72-.12-.24-.27-.46-.55-.74-.78-.71-.9 1.5-.83 1.24-1.23-3.16-3.34-.35-8.5-4.28-11.59-1.21-2.69-5.23-3.4-5.24-3.4 1.18 4.31 1.43 8.33 1.42 12.49-1.89-1.47-3.82-2.73-6.4-2.9-3.47-1.75-7.13.18-7.24.09 4.26 3.09 7.57 5.78 11.07 8.88.8.69 1.59 1.4 2.4 2.11 0 .08 0 .16-.01.24.93 2.26 2.42 5.08 2.54 7.37 3.35 8.57 4.68 18.65 11.41 26.24.12-.71 1.06-.68 1.53-.4l-.28.35 1.25.06c.5.54-.71 1.02-1.2.61 2.26 3.21 4.78 5.7 7.19 8.75 1.25-.81 1.45 1.42 2.65.44-.08.33-.25.26-.54.39 2.45 1.37 2.55 1.4 3.15 4.49 7.24 8.08 18.06 12.65 29.28 14.34 1.43.13 2.9.19 4.28.17 1.3-.05 2.59-.07 3.87-.19 2.57-.21 5.13-.53 7.65-1.01 5.06-.93 10-2.29 14.92-3.91.87-2.67 3.23-2.27 4.29-4.79l.13.72c1.11-1.52 1.9-.44 4.07-.38-.29-.78.62-.49-.15-1.65.18-1.33 1.89 1.34 2.56.36.22.41-.35-.74.01-.43 1.66-2.56-.15.93 3.4.74 3.99-2.46 7.29-6 11.4-7.73-.19.2-.91-.64-.56-.89 1.61 1.59.86-1.35 1.99-1.07.22.41 0 .74-.05 1.02.68-.13 1.2-.44 1.65-.8.06.11 0 .24-.37.43.28.14.8.25 1.44.28.04.17-1.38.32-.73.35-.47.09-.96.24-1.41.36.54-.11.01.35 1.16-.08-.19.32-.24.63.08.83-.1-.07-.95.11-1.35.29.85-.08 1.37.02 1.2.3.86-.22.83-.29 1.68-.48.15 0 .54-.04.49.03-.88.26-2.25.59-2.23.8-1.42.3.09-.38-1.27.06-1.14.19-1.3-.16-.63-.42-1.24.12-.1.18-1.28.44.13.14.76.07 1.01.27.6-.15.67-.26 1.18-.26 1.3-.09-.8.5-.84.57l-.35-.03c-.38.25.45.1.43.27-1.58.45-.24-.2-1.24-.01l-1.11.41c-.09.28 1.32-.27.98.09l-.59.12.4.06c.6-.15 1.48-.42 1.33-.52 1.56-.31.25.07.61.2.9-.16-.11-.07.76-.3.78-.23.85-.09 1.02-.02.04.17-.92.33-1.48.56-.15.01-.31-.1.2-.22-.96.02-1.79.57-2.45.59-.47.3.56.02.88.03.09-.08.88-.21 1.18-.33 2.44-.35-1.68.64-1.19.8 1.5-.46 2.22-.2 3.82-.85.29-.01.66-.02.52.09-1.05.21-.77.34-1.79.48l.02.1-1.27.18-1.79.87c.49.02.98-.32 1.27-.22-.55.09-.97.31-.93.38.36-.26 1.46-.4 1.73-.38.06.14-.88.52-1.12.57l-.92.1c.78-.1-.38.16-.03.18l2.21-.46c.27.02-.46.29-.31.29l-.66.03c.29.13-1.56.48-1.11.57l.81-.17c-.12.07-.47.19-.78.24.58-.13.49.02.71.01l-.52.16c.37-.01 1.57-.24.56.15 1.25-.44-.02-.1.51-.41.92-.35.92-.11 1.07-.11-1.36.37-.07.25-.05.35l-.96.42.91-.22c-1.74.53.46.09-.05.35-.56.1-1.24.3-1.48.45 1.27-.48 1.67-.29 2.54-.57-.4.33-1.67.43-2.56.75 1.03-.19-.59.41.73.1.36-.26.83-.21 1.41-.35-.05.21-.58.14-1.01.4.2.03 1.23-.16 1.57-.39-.25.19 1.03-.05.26.3-.8.29-.44-.12-1 .12-.01.28 2.04-.45 2.38-.3.41-.23 1.87-.55 2.39-.58-.28.36-.52.03-1.53.43l.18.06c-1.38.56-2.42.38-3.54.85l.51-.03c-.41.09-1.15.27-1.52.43 1-.26.32.19.56.14.84-.22-.27-.02.39-.19.26.06 1.66-.3 1.19.04-.61.07-1.13.37-1.62.47-.32.19 1-.26.57 0l-.5.13c-.01.52.25 1.09 2.42.89-.82.32-.84.5-1.36.91.25-.19.86-.26.99-.23l-.94.4c-.52.31.46.21 1.03.18l-.7.25c-.6.32.58-.03.81-.05l-.66.29.67-.18c.42.01.3.22-.79.53.22-.01.44-.03.74-.19-.6.32-.5.65-.07.76.24-.19.58-.28 1.26-.49 1.17-.32-.2.12.5 0-.43.13-.84.36-1.19.35-1.4.74-.08.79-.27 1.25.2.02.38-.07.7-.13-1.1.58.21.49-.22.89.47-.2 1.85-.55 1.92-.42 1-.13-1.31.42-1.84.73.26-.04.41-.05.5-.04l-.09-.06c.11-.01.2-.03.29-.04-.04.04-.08.08-.13.14v.01h-.01c-.18.21-.38.5-.31.54.91-.23.41.47 1.23.28l-.35.12.76-.22-.38.3c-.31.05-.64.14-.86.16-.47.33.72-.15 1.16-.17.58-.04-.17.18-.47.33-.39.06.15-.15 0-.14-.62.11-.22.15-.65.28-.02.04.91-.23.75-.08-.06.1.23.22-.61.44.46-.06.4.04.78-.01.13-.11.31-.29.83-.46.12.03.38.08.03.2l-.22.01c.22-.01.01.23.76-.09l-1.03.44c.65-.14.64-.01.82.05-.85.25-1.81.45-1.95.69l.9-.09c.1.06-.08.14-.58.27-.39.43 2.42-.38 1.74.06-1.03.2-1.1.3-1.34.48.17-.04.5-.13.55-.1.45-.16-.72.14-.06-.13.61-.2.44-.03.66-.04-2.11.83-.33.82-1.26 1.45 1.2-.37.39.05.86-.01-1.27.34.27.12-.47.43l1.23-.4c-.67.4 1.97-.21.51.34-.35.22-.92.22-1.14.23-1.32.54 1.22.1-.24.65.51-.13 1.31-.4 1.8-.39-.51.26-1.11.66-1.35.7.27.02.68-.07.26.16-.33.08-.38.05-.53.06-.29.25.3.22.8.23-.93.34-.37.48-.85.8 1.2-.22-.39.41 1.13.02-.16.04-.36.12-.45.15.46-.05 1.45-.26 1.55-.19l-1 .24c-1.27.32-.19.3-.81.49.83-.3.01.1.78-.1l.35.01c.3.09.5-.11.69.05.08.1-1.15.34-1.03.27-.5.23-.17.24.08.28-.01-.03.05-.07.27-.09-.13.04-.2.07-.26.09.09.01.17.03.19.07-.03.01-.03.01-.05.01-.07-.02-.13-.05-.15-.07-.09.05-.08.09-.07.13-.06.02-.05.03 0 .03-.01.04-.04.08-.19.14l-.79.17c-.02.08.92.03 1.26-.06-.59.43.07.73.55.8-.19.01-.44.07-.16.04.18.06.87 0 .37.13.34.01-.53.22-.57.37-.13.03.43-.09.62-.15-.96.48.88.34.25.78-.08-.01-.52.07-.77.1.44.12.82.26 1.82.24-.36.06-.69.15-.91.14.05.16.3.29 1.05.19.34-.19-.43.1-.41.01.67-.28 1.44-.25 1.28-.11l-.17.04c.06.15.49.05.54.2-.42.2-.24-.03-.73.13-1.25.35-.7.55-.84.62.28-.03.5-.03.84-.12.36.04-.72.24-.64.31l2.53-.27c-.24-.02-1.1.39-1.63.41.22.21 1.72-.03 2.54-.09-.19.13.38.23.45.29-.64.22.02-.08-.5.04l-.73.33c-.15-.13-1.17.35-1.68.39.46.02.08.47-.07.74 1.39-.55.76.07 2.02-.31.3.16-.99.42-1.24.59.57.09.29.44.5.61l-.26.07c.45.08.19.55 1.38.35-.25.08-.49.19-.7.2-.36.38 1.61-.54.95-.02l-.64.17c.65-.07-.43.51.57.32-.33.14-.45.15-.64.19.33.05.28.3 1.14.06-.38.19-.72.33-1.02.38-.39.38 1.14-.32.81 0-.03.06-.49.39-.53.38.55-.19.64.02.88-.02-.36.23-.45.35-.79.68.65.91.48 1.03 1.79 1.83-1.29.33-.85-.05-1.73.17 1.12-.18.34.08.75.26l-.17.04c.25.07-.46.25-.1.32l.3.03c.75.04-1.43.56.02.46l-.8.44c1.15-.01-.03.62.43.77.15-.04.57-.1.7-.11 0 0 0 .01.01.01-.05.01-.13.02-.25.04.07.05.17.03.28 0 .4.56.35 1.2 1.63 1.64-.21.04-.39.02-.61.01 1.19.28-1.21.8 1.07.93l.96.04c-.36.11-1.02.14-1.35.23.63.03.19.31 1.03.3-.38.06-.5.01-.77.03-.18.17 1.21.29.92.46l-.42-.03c-1.57.91-2.75 2.01-.63 2.58.37.17-1.23.13-1.11.2 1.74.69-.97 1.42 1.65 2.23.65.58 3.61 1.17 3.61 1.17-.91-1.67.34-2.99 1.81-4.4-.26-.49-.74-.91-.27-1.31-.38-1.51 1.87-3.22.73-4.85-.36.12-.94.07-1.12 0l.32-.05-.75-.07c-.09-.12.87-.14 1-.04-.06-.69-.43-1.27-.32-2.11-1.1.11-.12-.44-1.27-.3.21-.07.26-.04.49-.06-.68-.57-.69-.49.47-1.72-.02-.54-.19-1.32-.53-2.11-.33-.77-.74-1.39-.61-1.27.03-.07.01-.09-.01-.11-.06-.02-.42-.65-.43-1.26-.58-1.18-1.87-2.37-2.57-3.91-1.77.14-1.07-.4-2.62-.35l.53-.11c-.82-.07.06-.36.63-.85-.61.15-.2-.09-1.18.21-.88.1 1.36-.56.86-.61.33-.09-.6.16-.29.04-1.31-.12.57-.06 1.4-.85-.56-.67-1.8-1.15-1.37-2.03.06.03-.73.27-.76.2 1.59-.51-.51-.12.1-.42.34-.08.46-.05.61-.06.58-.51-.49-.51.13-1.01-.75-.1.55-.83-.34-.79.65-.13.44-.26.74-.42-1.97.34.5-.76-.85-.65l.34-.09c-.38-.74-.18-1.73-1.3-2.27-.35-.39 1.21-1.42.21-1.66-.28-.01-.68.18-.87.16.01-.14.59-.17.8-.29-.84-.01-.02-.61-.13-.91-.31.06-.43 0-.87.16 1.18-.73-.69-.67.17-1.3-1.62.62-.96.07-1.38.06.05-.09.48-.23.81-.3-.27-.2-.37-.32 0-.77-.23-.09-1.14.14-.93-.1 1.11-.45-.06-.37.31-.67-.97.34-1.82.36-1.45.06l1.4-.36c-1.05-.27.3-1.5-1.61-1.61l.8-.28c-1.14-.37-.31-1.28-2.06-1.45.39-.29.59-.63.54-.79-.76-.03-.7-.13-1.87.03-.1-.06.54-.29.81-.41.13-.34 1.2-.92-.16-.79l.69-.2c-.77-.03-1.71-.13-.99-.59-.64.09-.94-.1-1.72.23-.17-.06 1.16-.38.39-.28l1.04-.17c.11-.64-.55-.98-1.22-1.4 1.16-.46-.27-.49.33-.97-.71-.02.15-.57-1.37-.35l.69-.17c.03-.26-.04-.6.23-1 .15-.23-.89 0-1.28-.07l.7-.17c-.47-.07-1.57.13-2.29.23.45-.23-.06-.14.39-.37.12.01.29.01.47.01 0 .01-.01.02-.01.03.01-.01.01-.02.02-.03.43-.01 1.01-.07 1.69-.16.25-.26-1.58-.07-.51-.44.22-.21-.07-.28-.91-.13 0 0 0-.01.01-.02.25-.06.46-.19.83-.18-.05-.12-.15-.18-.53-.18 1.11-1.22 3.28-1.37 3.39-2.85.39.85 1.05-.08 1.64-.03-.9-2.81 3.23-1.91 3.1-4.39l.3.35c3.24-3.82 7.14-8.07 8.64-13.49 1.17-2.86 4.63-4.94 4.65-8.41-.13-.67-.83-.43-.9-.96.33-.72.77.29 1.17.1-.48-1.82 1.36-3.35 1.89-5.24-.34-.34-.3-.89-.96-.89 2.32-1.58.71-5.01 2.47-6.8-2.41.22-.94-1.51-1.31-2.35.19-.39.78-.31 1.18-.09.05-1.64.14-2.47 1.13-4.24-.1-.92-1.29-1.36-.77-2.34 1.67-.4.4-2.17 1.13-3.1-1.39.06-2.3-1.39-1.58-2.32l1.85.57c-.78-3.39 1.85-7.89-.27-11.89l1.08-.2c-.49-1.94-.52-3.8-.52-5.66v-.7c0-.19.12-.22.1-.35-.03-.21.06-.43-.01-.66-.15-.46-.4-.98-.84-1.68l-.23-.36c.6-.29.99-.77.98-1.24-.39-.6-.61-1.02-.83-1.42-.21-.49-.19-.7-.65-1.64.27-.12 1.22.75 1.63 1.13.76.15 1.7.75 2.2.83.35.05.54-.13.61-.86l.36.95c.39-.99 1.23-2.2 3.06-1.18.39-.87 1.88-1.25 1.16-2.34.59-.22.44 1.61 1.01.56l-.52 1.41c3.4.23 6.22-.59 9.46-1.43 1.01 1.62 3.11-.29 4.99.57 1.06-.95 2.98.28 3.72-1.79l.09.96c1.46.07 3.41.01 5.33.42 1.12.23 1.07-1.19 1.93-1.7l.08.96c.94-.62 1.15-2.11 1.48-3.09.76.64.82-.06 1.58.58-.7.55-1.28 1.61-1.72 2.92 1.19.37 2.3-2.09 3.06-.63 1.02.33 1.79-.08 1.82-1.37-.2.42.67.73.13 1.32.73-.05 1.19-.18 1.62-.71-.14-.01-.34-.15-.49-.11.33-.98 1.06-.94.87-2.4-.36.39-.38.62-.86.51.18-1.01 1.42-1.33 1.75-.43.39 1.02-.81 1.7-.21 2.31l1.8-2.31c-.41.32-.9-.26-.75-1.1l-.79.65.01-1.05c-1.35.41-2.31-.63-3.69.25l.55 1.06c-.81.07-1.6 1.54-2.39.32.36-.4.08-.93.05-1.51-.18.2-.38.62-.61.46l.32-1.82c-.29 2.41-2.2.94-2.56 1.34l.11-.34c-1.24-.73.24 1-.58 1.06-.71-.27-.32-1.95-.99-2.68-1.23.09-3.31 1.54-4.74.18-1.09.35-2.29 1.04-3.25 1.9-.98.03-.01-1.89-.97-1.02.09-.64-.08-1.31-.18-1.93-.08.73-1.85-.04-1 1.55-1.44-.3-3.06-.41-4.56-.01.5-.13.59-1.28.15-1.84-.66 1.15-1.86 1.83-3.14 1.56.07 1.19.48 1.16.38 2.32-.18.2-.47.73-.79.65-.22-1.22-.23-3.1-1.37-3.1.24-1.94 1.94.18 1.36-1.71.45-1.55 2.5-1.71 2.99-.79.95-1.68-.8-.16-.67-1.78-.91.16-1.3 1.01-2.71 1.31.01.82.49.93-.13 1.61-1.2 1.75-1.62-1.15-1.93-1.22.17-.2.43-.26.61-.46-.85-.54-1.11.59-1.99.53-.32-2.19 1.4-.3 1.68-1.66l-.69-1.55c-1.37-.17-.31 1.81-1.73 1.29l.14-.8-.86.53c.01.82.25 2.04.99 1.85-.42 2.13-.68.32-1.86.78-.34 1.22.5-.13.57 1.06.16 1.08-.66 1.15-1.25 1.37-.98.03-.55-1.28-.97-2.07.18-.2.93-.4.87.3 1.16-1.28-.61-2.48.19-3.37-.95-.68-.87.75-1.34 1.17.29.13-.09 1.21.14 1.63-1.51 3.32-1.05-2.34-2.69-1.72.32 1.03-.53 1.8-1.07 2.57-.57.78-.8 1.57.09 2.68-.44.39-.9.89-1.41.68.21-1.44-1.21-1.06-.53-2.45l-.82.01c.25-.57.54-1.15.88-1.72-1.18-.94-3.32-1.82-4.22-2.46-1.21.67.97 1.33-.49 1.73.23-.72-.95-1.27-1.73-1.27l-.06.06.08-.02c1.08.34 1.09 1.07.85 1.63-.05.45-.17.86-.31 1.11-.92.64-2.3.07-2.36-.25l.2-1.74c-.12 1.48-.6-.16-1.01.81.24.78.52 1.97.87 2.78-.33.54-1.22.1-1.29.33l.31-1.09c-.84.97-1.4-1.19-2.08.02l.33.81c-.28.05-.62-.12-.66-.49.15.3.01.48-.06.73-.08.21-.19.41-.19.6l-.46-.31c-.08.64.64 2.04-.73 1.86 1.49.48.43-.56 1.41-.88 1.01.21.31 1.36.34 1.65-1.22-1.04-.85 1.1-1.19 1.74-.77.01-1.29.2-1.82.23l.96.89c-1.07-.41-1.3-.14-1.31.35.33.78 1.06 1.8.64 2.23-.75-.82-1.7-1.15-2.05-.43 1.81-.39 2.21 2.45 3.43 2.43-.67 1.64-2.27-1.01-3.54-.83 1.37 1.32-.95 2.21.81 3.15.6-1.37 1.13.38 1.92.69-.2 1.63-.78-.25-1.47.75.23.43 1.6 1.05 2.14.41-.41.57 1.28 1.33.14 1.94-1.15.21-.45-1.27-1.28-.93-.19 1.4 2.74.85 3.05 2.2.64-.53 2.6.13 3.23.82-.59 1.46-.63-.69-2.11-.21l.18.6c-2.02.68-3.13-1.93-4.78-1.25l.63.67c-.54-.17-1.54-.43-2.1-.22 1.36.25.24 1.47.56 1.61 1.14.21-.3-.53.6-.36.27.68 2.17 1.12 1.36 2.09-.76-.62-1.6.09-2.23-.19-.52.46 1.36.27.66.92l-.68-.14c-.42 2.63-.65 5.87 1.87 8.51-1.21.27-1.42 1.11-2.41 2.3.47-.52 1.19.15 1.29.5l-1.43.43c-.88.65.22 1.82.85 2.66-.28.08-.64.06-1 .03-.99.52.62.83.87 1.14l-1.01.27.9.26c.4.77.01 1.63-1.47 1.26.23.32.46.63.96.38-1 .51-1.37 2.32-1.14 3.62.5-.48.94-.33 1.88-.18 1.54.52-.36.21.45.9-.59-.11-1.31.3-1.61-.39-2.37 1.13-1.28 3.71-2.24 5.57.13.46.42.41.77.72-1.92.78-.73 2.76-1.85 3.85.74-.08 2.39.94 2.17 1.69.96 1.25-1.86-.29-2.86.15.45.56.37 1.28.18 1.52l-.2-.1c.5.68.61 1.51-.17 1.78l-.05-.12c-.28.37-1.25.51-1.33.97 1.06.68-.1 1.41.79 2.1-.15-.01-.2-.12-.49-.13l.93.48-.94.54c-.28-.36-.68-.6-.83-.95-1.06.51.74.71 1.03 1.42.38.95-.55.43-1.09.5-.33-.49.46-.31.36-.55-.57-.72-.48.2-1.03-.08-.1.1 1 .77.54 1.07-.3.32-.51 1.35-1.45.65.34.62.01.92.31 1.42.36-.18.95-.58 1.61-.27-.04.35-.11 1.06-.59.89l-.11-.38c.11.37-.68.99.48 1.14l-1.61-.24c.6.69.17 1.22.02 1.8-.99-.66-1.8-1.74-2.61-1.1l.45 1.4c-.18.44-.46.38-.98-.1-1.46.8 1.55 3.28-.07 3.61-.72-1.3-1.11-1.04-1.76-.87.16.17.48.51.36.71.59.3-.52-.88.47-.59.75.45.1.76.14 1.14-2.95-1.12-3.04 2.26-5.34 2.53 1.26 1.13-.25.9-.09 1.61-1.12-1.37-.53.93-1.62.46l1.36 1.1c-1.5-.03.31 3.19-1.57 2.07-.83 0-.63-1.09-.63-1.49-1.85-.9-.82 2.66-2.66 1.45.36.6 1.27 1.33 1.04 2.3-.96-.22-2.45-.22-2.55-.55-.21.56 0 1.09-.8.9-.22-.4-.06-.59-.04-.84-.97.12-1.08 1.15-1.38 2.09-1.12-.84-2.02.57-3.25.44.37 1.68-1.69.28-.7 2.11-.09-.2-.34-.38-.46-.46-.02.71.38 2.03.01 2.36l-.54-1.27c-.76-1.58-1.34.36-1.88-.35.91.85-.48.23-.02 1.18l-.29.65c-.63.74.23.67-.68 1.34-.54.34-.9-1.34-.63-1.27-.79-.42-1.09.18-1.45.7.19-.1.3-.04.25.31-.09-.16-.18-.23-.28-.27-.13.19-.28.36-.46.46-.01-.03-.02-.05-.02-.08.17-.17.33-.31.46-.4-.18-.06-.37.03-.57.12-.06-.08-.12-.04-.17.06-.17.05-.35.06-.53-.08l-.31-1.04c-.36.1-.82 1.65-.61 2.07-1.73-.22-3.75 1.38-4.5 2.29.11-.3.01-.65-.05-.23-.41.38-.67 1.45-.95.81-.34.58-.69-.56-1.46-.42-.06-.16.1.52.25.78-1.64-.89-2.52 1.9-4.29 1.39.1-.11.12-.76.15-1.12-1.03.81-2.03 1.55-2.82 3.05.01-.5-.13-.94.09-1.28-.65.15-1.34.5-1.7 1.17.02-.03.05-.05.1-.05.8.8-.09 2.02-.71 1.87l-.06-.22c-.85.17-.78.76-1.65.93-.62-.51.4-.38.08-1.01-.49-1.65-2.1-.76-2.31-.94-.15.4-.4.72-.3 1.18-.61.55-.44-.96-.88-.81-.47 1.14-.98 2.23-1.51 3.35.03-.47-.75-1.39-.23-2.03-1.37.38-2.03 2.4-2.87 3.54-.45-.25-1.84.52-2.34.58-.26-.9.42.05.51-.67l-.77-1.04c.95-.17-.17-1.62.33-2.3-.73.62-2.54 0-3.64-.33.75 2-1.53.94-1.55 2.68-1.38.25-.6-1.45-1.07-1.87-1.41.58-2.66-.05-3.9-.07 0 0 .02-.24.11-.35-1.23.36-2.87-.57-4.42.64.15-.32.14-.68.5-.87-1-.96-.86 2.12-1.95.67l.59-.73c-1.13.53-1.38-1.27-2.8-.39.14-.46.41-.52.63-.71-1.01.03-1.89-.55-3.11.19.12-.57.44-.96.94-1.17-.54-.99-1.57 1-2.09.1-.19-.18-.26-1.04-.1-1-.72.49-1.86-.14-2.41-.13.18-.56-.02-.88-.15-1.67-3.95-2.38-7.33-5.55-11.66-7.79.73-1.78 1.54 0 2.06-1.2-1.05 1.09-.85-.24-2.16-.9l.13-.19c-.64-.22-.15-1.11-.91-1.27l-.29.28c-1.2.13.51-2.4-1.2-1.43l.5-1.09c-1.76.58-.23-1.15-1.87-.9l.3-.11c-.07-1.32-2.9-.72-2.04-1.88-.77-.62-1.68-1.32-2.88-.72.3-.46 1.05-.81 1.5-.95-2.59-2.57-4.31-6.16-7.43-8.18.18-.28.48-.2.78-.25-2.34-1.1-.33-4.39-3.69-4.46l-1.38.03c.25-.64 1.07-.97 1.32-1.48-.93-.03-.94-1.61-2.06-1.4.38-.39.64-.17.98-.32-.12-.96-2.24-1.28-2.18-2.26l.62.06c.03-.62.06-1.24.08-1.87 3.11.96 6.84 1.8 9.66 2.85 3.63.61 7.53.97 11.63.61 2.03-.2 4.04-.48 6.64-1.4 2.44-.88 4.81-2.28 6.72-3.95 3.87-3.38 6.15-7.4 7.56-11.07 1.42-3.72 2.06-7.29 2.22-10.73-.6.65-1.23-.23-1.37-.93l.45-.11-.85-1.15c0-.98 1.23-.44 1.29.42.61-5.28.31-9.8.74-14.42-1.47-.36-.01-2.37-1.55-2.57.3-.19.36 0 .66.13-.65-3.01-.66-3.36 1.37-6.18 1.92-12.54.83-25.12 1.22-37.2-.09-6.12-.61-12.45-.67-17.97-.04-5.7.37-11.44 1.65-17.05-1.8-2.34-.04-4.37-1.22-7.05l.63.38c-.33-2.07.99-2.1 2.71-3.79-.75-.36.16-.88-1.22-1.16-.72-1.24 2.36-.46 2.31-1.72.43.18-.74-.35-.25-.37-.08-3.33.4.77 3.32-1.67 2.03-4.43 4.3-9.42 8.52-11.89-.18.24-1.01-.49-.65-.82 1.78 1.39.86-1.52 2.1-1.36.23.41 0 .76-.05 1.06 2.22-.59 2.93-2.75 5.22-2.95 1.19-1.8 4.1-1.1 4.78-2.64.08.93 1.05.24 1.61.5.33-3.03 3.82-.5 4.96-2.67l.07.46c5.09-1.73 11.03-2.04 16.8-3.5 3.4-.45 6.93 1.95 10.4 1.12.67-.29.22-.91.77-1.1.87.15-.1.81.2 1.16 1.84-.86 3.89.74 5.92 1.19.33-.36.94-.34.89-1 1.83 2.26 5.61.93 7.42 3.1.06-2.45 1.82-.63 2.81-.73.41.3.19.86-.13 1.2 1.77.52 2.69.9 4.24 2.55 1 .26 1.87-.62 2.74.33-.23 1.74 2.1 1.46 2.73 2.68.56-1.3 2.5-1.23 3.1.02l-1.5 1.27c3.89 1.44 6.31 6.88 11.06 8.87l-.65.98c4.08 2.9 5.63 7.61 9.9 10.53.14 1.41.81 3.38 1.41 4.48 1.67 1.07 1.86 1.67 3.78 2.04.4.54-.23 1.3-.48 1.7.71 2.12.15 4.66 2.5 5.55l-.85.45c1.6 1.19 3.67 3.12 3.39 5.37.99.2 2.03 1.95 2.74.71.47.67-1.34 1.05-.1 1.45l-1.57-.22c1.23 4.3 3.12 7.63 5.09 11.59-1.21 1.68 1.37 3.93 1.13 6.56 1.26 1.16.65 3.91 2.89 4.46l-.91.3c.36 1.91.96 4.45 1.06 7.04.07 1.5 1.44 1.2 2.17 2.24l-.92.27c.84 1.14 2.37 1.17 3.42 1.45-.44 1.11.25 1.08-.19 2.19-.71-.84-1.89-1.44-3.29-1.8-.08 1.61 2.62 2.69 1.35 3.94-.09 1.33.43 2.24 1.58 2.21-.32.13-.5.89-1.08.36.21.95.44 1.56 1.05 2.05-.02-.19.07-.47 0-.67 1.04.3 1.16 1.28 2.56.81-.46-.43-.69-.42-.69-1.07 1.04.09 1.62 1.71.8 2.28-.93.66-1.85-.83-2.33.04l2.67 2.07c-.4-.49.06-1.23.93-1.16l-.81-.96 1.04-.13c-.69-1.74.13-3.18-1.05-4.89l-.92.9c-.25-1.08-1.88-1.9-.86-3.13.48.42.93-.04 1.51-.16-.24-.21-.7-.41-.6-.75l1.87.15c-2.45-.02-1.45-2.79-1.94-3.2l.36.09c.41-1.78-.92.49-1.19-.59.09-.99 1.84-.76 2.39-1.78-.41-1.65-2.39-4.15-1.46-6.31-.66-1.39-1.69-2.85-2.82-3.95-.33-1.3 1.84-.4.7-1.5.65-.01 1.25-.37 1.81-.64-.62-.06-.45-2.55-1.73-1.08zm-68.79 149.15c-.04-.01-.08-.02-.13-.04.1.01.16.02.13.04zm7.22 13.51c.11-.02.21-.04.35-.05-.1.02-.22.04-.35.05zm-12.73-39.3c.05-.05.11-.1.16-.15.12-.03.22-.04.24 0-.06.05-.21.1-.4.15zm2.5-1.85l.01-.01s-.01 0-.01.01zm.07-.09zm-24.54 1.97c-.08.19-.18.32-.29.32.08-.09.18-.2.29-.32zm-43.01-174.12c.04-.17.1-.37.15-.59 0 .26-.03.48-.15.59z"/>
    <path class="st2" d="M243.01 220.69c-.09-.06-.15-.13-.23-.19.02.11.06.2.23.19zM247.4 193.65c-.97-.35-2.03.89-2.17 2.02-.04.04-.08.06-.12.09.36-.15.71-.19 1.04-.05.12-.49.95-1.12.13-1.49.31-.38 1.17.11 1.12-.57zM246.8 196.3c-.21-.33-.43-.5-.65-.59-.06.25.05.46.65.59zM243.09 226c.7-.01 1.41-.67 2.11-.89-1.16-.64-1.4.45-2.11.89zM245.53 196.53c-.1.12-.54.61-.31.59.36.07.69-.07.84.26.33-.37-.39-.53-.53-.85zM243.77 190.01l1.97 2.13c-.33-.87-1.27-2.22-1.97-2.13zM244.51 182.66c.37.06.62.25.95.08-.23-.77-.59-.83-.95-.08zM243.12 181.54c.04-.06.09-.12.13-.18-.1.04-.12.11-.13.18zM242.86 182.68c.95-.14.25-.79.27-1.13-.24.33-.43.68-.27 1.13zM239.15 166.51c-.57.61.26 1.11.45 1.43 1.05-.13-.79-.87-.45-1.43zM235.56 161.4c.29.16.21.3.26.52l.7-.56c-.21-.29-.85-.47-.96.04zM127.78 118.52l-.56.65.76.01zM95.17 164.78c-.09.91-.8-.2-.87.5.13-.11 1.14.33.87-.5zM96.37 194.11l.01.22 1.4-.14zM245.52 231.88c.35.44.55.01.69-.54-1.27-.67.38.22-.69.54zM130.23 324.84c-.09.17-.18.35-.22.57.58.32.09-.38.22-.57zM147.77 317.23l-.06.03c.01 0 .02.01.03.01.01-.01.02-.02.03-.04zM222.51 224.56c.01.08.03.17.04.25.01-.06-.01-.16-.04-.25zM240.32 231.3c-.05.08-.11.13-.16.2.08 0 .15-.03.16-.2z"/>
    <path class="st2" d="M222.62 223.45c-.33-.23-.65-1.18-1.03-.47-.21-.4.26-1.12-.23-1.22-.39.86.31 2.18 1.09 2.58.04.1.04.16.06.23-.06-.43-.05-.81.11-1.12z"/>
    <path class="st2" d="M223.14 222.95c-.27.13-.41.3-.52.5.17.11.34.05.52-.5zM243.24 228.77l-.23.3c.08-.07.16-.16.23-.3zM196.7 271.37c-.06-.05-.13-.08-.21-.12-.01.19-.01.37-.02.58l.23-.46zM205.11 222.48c.17.03.29-.03.39-.12-.08-.03-.19-.01-.39.12zM134.66 321.89l.12-.09c-.07-.29-.1-.16-.12.09zM244.22 232.05c.07-.69-.34-1.5-.43-2.23-.59 1.06.19 1.46.43 2.23zM223.11 224.24c.07.13.35.66.37.43.11-.33.06-.69.31-.76-.21-.4-.43.26-.68.33zM220.04 223c-.66.1-1.77.69-1.82 1.38l1.82-1.38zM213.23 221.7c.11-.34.29-.53.23-.89-.57 0-.67.33-.23.89zM212.2 222.71c.18.32.39.6.73.58.08-.95-.49-.48-.73-.58zM212.2 222.71c-.03-.06-.07-.12-.1-.18.01.11.05.15.1.18zM199.63 221.6c.59.75 1.46.14 1.94.07.24-1.02-1.37.45-1.94-.07zM193 223.95c.1-.34.25-.3.46-.41l-.63-.64c-.27.34-.31 1.03.17 1.05zM165.15 305.65l-.4-.56-.15.58zM131.5 321.59c.1.08.2 1.17.59.63-.56.24-.17-.79-.59-.63zM112.32 328.96l.11-1.4-.15.01zM166.62 320.53c-.05.01-.11.03-.17.05.05-.02.11-.03.17-.05zM165.27 324.16c.02-.04-.02-.05-.09-.05-.02.02-.01.04.09.05zM174.08 346.35c-.02 0-.03-.01-.05-.01-.22.05-.13.04.05.01zM165.24 320.74c.1.03.24.01.38 0 .05-.04-.01-.06-.38 0zM181.46 338.14c.06.01.11.03.2.03.03-.04-.04-.04-.2-.03zM179.83 357.86h.23c-.13 0-.21-.01-.27-.03-.07.02-.09.03.04.03zM178.95 329.8c-.05.01-.11.02-.16.04.03.02.06.05.1.07l.06-.11zM170.49 335.2l.07.05v-.01c.01-.01-.01-.03-.07-.04zM173.59 343.85v.01s.01-.01.02-.01h-.02zM165.62 320.74c-.11.09-.88.33-.33.28-.29.11-.82.14-.89.25.64-.07 1.59-.43 1.86-.64.07-.03.12-.04.18-.05-.31.08-.58.14-.82.16zM166.18 320.53c.09-.03.48-.18.31-.14-.24.04-.51.1-.56.07-.29.1.2.03.25.07zM166.38 321.4l-1.04-.1c.09.11.54.21 1.04.1zM163.88 322.92c.01.1.25.07.65-.12-.25.04-.39.04-.65.12zM165.69 322.57c-.69.15-.33.18-.4.24.22-.09.42-.18.4-.24zM165.28 322.81c-.04.02-.08.03-.13.05.09-.02.12-.04.13-.05zM164.73 324.85c-.74.16.32.06-.05.22.54-.2.1-.18.05-.22zM165.73 325.52l-.62.2c.06.03.44-.01.65-.13-.15 0-.06-.03-.03-.07zM172.45 340.15l-.49.13.26.02zM173.44 347.09c.07-.03.87-.19.53-.21.1.1-.6.14-.53.21zM177.43 349.97l.02.03 1-.32zM160.8 376.72c-.32.1 0 .07.41.02.47-.25-.15.07-.41-.02zM162.39 351.42v-.01c-.01 0-.01 0-.02.01h.02z"/>
    <path class="st2" d="M167.72 369.64l.59-.1-.39-.03c-.6.12-1.5.33-1.36.4-1.57.26-.24-.04-.58-.13-.9.13.1.05-.78.23-.8.18-.85.07-1.01.02-.03-.13.94-.25 1.52-.42.15 0 .3.07-.22.16.95-.02 1.82-.43 2.48-.45.5-.22-.56-.01-.87-.01-.1.06-.9.15-1.21.24-2.45.24 1.71-.47 1.25-.59-1.53.33-2.26.11-3.92.57-.28-.01-.74-.01-.59-.1 1.07-.12 1.65-.24 1.65-.31v-.08l1.44-.1 2.06-.59c-.48-.03-1.01.2-1.28.12.55-.05 1-.2.98-.25-.39.18-1.49.25-1.76.22-.04-.11.94-.36 1.19-.38l.92-.04c-.78.04.4-.1.06-.13l-2.25.25c-.27-.03.49-.2.35-.2l.66.01c-.26-.11 1.61-.28 1.18-.36l-.83.09c.12-.05.49-.12.8-.13-.59.06-.48-.04-.7-.05l.54-.09c-.37-.01-1.58.07-.52-.15-1.3.25 0 .08-.58.27-.96.21-.92.02-1.07.01 1.4-.19.11-.19.11-.27l1.01-.25-.93.09c1.79-.26-.43-.1.11-.27.56-.02 1.27-.12 1.53-.22-1.33.26-1.69.07-2.6.22.45-.22 1.72-.18 2.65-.34-1.05.05.65-.26-.7-.15-.4.17-.85.09-1.45.13.09-.16.59-.04 1.06-.21-.19-.04-1.24 0-1.61.14.28-.12-1.02-.07-.2-.27.84-.14.41.14 1 .01.06-.22-2.09.13-2.39-.04-.44.14-1.94.22-2.45.18.34-.27.52.04 1.58-.16l-.17-.07c1.46-.28 2.45-.01 3.63-.26l-.51-.04c.42-.03 1.17-.08 1.57-.16-1.03.09-.28-.19-.52-.18-.86.07.26.05-.42.1-.25-.07-1.69.03-1.16-.18.61.02 1.18-.16 1.67-.17.35-.11-1.03.09-.56-.07l.52-.04c.11-.41-.02-.9-2.18-1.06.86-.15.93-.29 1.52-.54-.28.12-.9.09-1.01.04l1-.19c.57-.17-.4-.25-.97-.31l.73-.09c.65-.16-.57-.07-.8-.09l.7-.13-.7.04c-.41-.07-.25-.23.89-.31-.22-.03-.44-.05-.76.03.65-.16.63-.46.23-.63-.28.12-.63.14-1.34.2-1.21.07.22-.06-.49-.09.45-.04.9-.17 1.23-.1 1.53-.39.25-.65.54-1.02-.19-.05-.39-.01-.71-.02 1.2-.31-.1-.46.41-.74-.5.1-1.92.14-1.96.01-1-.06 1.38-.17 1.96-.35-.47-.03-.6-.13-.54-.19l.17-.01c-.54-.03-.85-.13-.4-.26l.07.01c.08-.09.7-.23.61-.3-.93.04-.38-.2-1.21-.17l.37-.05-.78.06.43-.2c.31 0 .66-.02.88.01.53-.22-.73.01-1.17-.04-.58-.06.2-.13.53-.22.4.01-.18.1-.03.12.63.01.25-.1.69-.14.03-.03-.93.05-.75-.05.08-.09-.18-.23.68-.3-.46-.02-.38-.1-.77-.12-.15.07-.36.21-.9.28-.12-.04-.36-.13.01-.19l.22.03c-.22-.03.03-.21-.76-.05l1.09-.22c-.66.02-.63-.1-.79-.18.88-.09 1.86-.12 2.05-.32l-.9-.06c-.09-.07.11-.12.62-.16.46-.33-2.45-.02-1.7-.32 1.05-.03 1.13-.12 1.41-.25-.17.02-.52.05-.56.01-.47.09.73-.03.04.13-.64.1-.44-.04-.65-.06 2.22-.46.47-.72 1.48-1.16-1.24.18-.38-.09-.85-.09 1.31-.15-.25-.15.53-.33l-1.27.22c.72-.29-1.98-.04-.45-.36.38-.16.94-.09 1.16-.07 1.38-.33-1.19-.23.34-.56-.52.06-1.35.22-1.84.16.54-.18 1.2-.47 1.43-.49-.26-.05-.68-.01-.23-.17.34-.04.39 0 .54 0 .32-.19-.26-.23-.75-.29.96-.22.43-.41.95-.65-1.22.09.44-.35-1.12-.13.17-.02.37-.07.46-.1-.46.01-1.47.11-1.56.04l1.02-.13c1.3-.18.22-.27.86-.39-.86.21 0-.09-.78.02l-.34-.04c-.29-.11-.51.06-.68-.1-.07-.1 1.17-.23 1.05-.17.52-.18.2-.22-.05-.28.01.03-.05.06-.28.06.13-.02.21-.05.26-.07-.09-.02-.16-.04-.18-.08.02 0 .03 0 .05-.01.07.03.13.05.15.08.09-.04.09-.08.09-.12.06-.01.05-.02.01-.03.01-.03.05-.07.2-.12l.8-.11c.03-.07-.92-.1-1.26-.04.64-.37-.05-.76-.53-.87.19 0 .47-.05.18-.03-.18-.07-.88-.03-.37-.16-.35-.03.52-.23.56-.43.13-.04-.44.1-.62.17.95-.58-.89-.41-.31-.95.08 0 .51-.11.76-.17-.46-.14-.86-.27-1.85-.08.34-.12.66-.27.88-.29-.06-.13-.27-.22-.7-.13.02 0 .03 0 .03.01-.6.4-1.36.53-1.23.37l.15-.08c-.1-.13-.49.07-.59-.05.35-.29.24-.04.67-.31 1.13-.64.5-.72.61-.82-.27.11-.48.17-.78.36-.37.07.62-.44.51-.48-.8.32-1.51.76-2.32 1.04.23-.05.99-.62 1.48-.78-.21-.03-1.62.48-2.43.64.17-.15-.41-.19-.49-.26.62-.27-.02.08.49-.09l.71-.38c.15.1 1.14-.43 1.64-.53-.45.06-.07-.34.09-.56-1.39.55-.75 0-2.01.38-.29-.14.99-.4 1.26-.55-.56-.06-.25-.35-.44-.5l.26-.06c-.43-.07-.12-.44-1.32-.34.26-.06.51-.13.72-.13.41-.3-1.66.36-.94-.04l.65-.1c-.65.01.51-.39-.51-.32.35-.09.46-.07.66-.1-.31-.08-.21-.27-1.1-.2.41-.11.77-.17 1.08-.17.47-.25-1.18.1-.78-.13.05-.05.58-.23.61-.22-.58.06-.6-.14-.84-.17.41-.11.54-.19.97-.36-.09-.4-.12-.81-.34-1.19.04-.04.08-.08.11-.12.29-.43.24-.59.27-.69v-.11c.09-.01.18-.03.32-.07-.13.03-.24.04-.32.06 0-.27-.03-.09-.11-.2l-.2.03c-.01-.02-.04-.04-.08-.07-.05.01-.1.02-.16.03.01-.01 0-.02.02-.03.08-.02.15-.05.23-.07h-.01l-.11.02c.31-.13.94-.29-.02-.19l.79-.21c-1.3.09.38-.23-.71-.2l.23-.02c.53-.27-1.45-.15-.44-.38-.22-.12-.5-.25-1.49-.11.37-.09.98-.17 1.31-.2-.59-.47-.44-1.13-1.89-1.39.21-.06.38-.06.6-.09-1.21-.1 1.12-.85-1.15-.67l-.95.09c.35-.14 1-.25 1.31-.36-.62.05-.22-.25-1.05-.13.37-.1.49-.07.76-.13.16-.18-1.23-.08-.96-.27l.42-.04c1.46-.98 2.5-2.17.33-2.29-.38-.07 1.19-.33 1.07-.38-1.79-.15.65-1.65-2.08-1.29-.78-.14-3.59 1.04-3.58 1.04 1.16-.18.15 1.07-1.18 2.26.3.25.82.58.4.96.52 1.19-1.55 2.87-.35 3.97.36-.13.94-.15 1.12-.11l-.31.07.76-.02c.09.08-.84.2-.97.13.05.25.2.48.28.69.04.11.16.21.16.3v.04c.16-.02.51-.07 1.23-.17 1.1-.17 2.15-.31 3.26-.43l1.13-.12v.02c-2.35.43-5.34.96-5.58 1 .08.06.33.24 1.14.1-.21.06-.34.05-.57.08.64.27.68.29-.65.9-.62 1.68.44 2.96.57 4.76.38.91.82 1.69 2 3.31.43.59.46.46.54.45.09-.01.18-.01.26-.01.16.01.31.05.41.12 1.7-.47.94-.13 2.45-.34l-.53.11c.79-.02-.11.19-.72.53.61-.11.19.06 1.19-.16.88-.07-1.4.42-.92.46-.34.07.61-.11.29-.03 1.28.12-.57.04-1.48.62.47.5 1.62.99 1.06 1.67-.05-.03.76-.16.78-.1-1.65.29.48.14-.16.34-.34.04-.46 0-.61 0-.64.37.41.46-.29.82.72.15-.68.63.2.69-.67.04-.47.17-.8.27 2-.07-.62.57.72.61l-.34.04c.23.61-.16 1.35.81 1.95.26.37-1.48.97-.56 1.33.27.06.7-.04.88.01-.04.12-.61.05-.84.11.81.15-.12.51-.08.79.32.01.41.08.88.01-1.31.41.52.69-.45 1.09 1.71-.25.95.11 1.35.19-.07.07-.52.11-.85.12.23.22.29.35-.17.68.21.12 1.14.07.89.26-1.17.2-.02.34-.44.54 1.01-.13 1.85 0 1.43.2l-1.44.08c.96.42-.59 1.32 1.26 1.73l-.84.13c1.05.52.08 1.26 1.78 1.65-.42.22-.68.52-.65.68.75.12.68.21 1.85.19.09.07-.57.22-.86.3-.17.3-1.31.77.07.77l-.71.13c.76.1 1.69.26.93.65.64-.05.93.14 1.73-.12.17.06-1.18.29-.41.24l-1.05.11c-.14.61.48.97 1.15 1.37-1.16.45.25.47-.33.94.71 0-.14.57 1.38.27l-.69.2c-.03.26.07.58-.15 1.03-.12.26.88-.09 1.28-.07l-.67.26c.46-.01 1.53-.36 2.23-.55-.43.28.07.11-.36.38-.41.03-1.18.2-2.12.47-.23.26 1.55-.18.54.29-.2.22.09.19 1.01-.08-.31.07-.52.25-.94.31.05.08.15.1.54.05 0-.02.1-.07.07-.08.71-.16.7-.04 1.75-.35-.29.02-.46.06-.4-.03.74-.18 1-.02.36.19-.74.24-1.26.2-1.68.39.65-.08 1.28-.12 1.93-.15-.63.07-.17-.15.57-.3l-.49-.02.77-.19c-.34-.15.37-.55-.31-.6l-.74.33c-.08-.13-1.14.11-.3-.3.29-.04.66-.21 1.08-.36-.15.02-.45.09-.35.01l1.3-.39c-1.72.54-.74-.12-1.04-.08l.24-.07c.47-.38-.7.29-.76.17.17-.17 1.36-.55 1.86-.82-.08-.12-1.16-.06-.21-.54-.27-.07-.78-.1-1.42-.07-.04-.14 1.36-.38.72-.34.47-.12.96-.27 1.4-.41-.55.14 0-.26-1.15.16.19-.26.26-.51-.04-.65.1.05.94-.14 1.34-.3-.84.11-1.35.06-1.17-.17-.87.2-.84.26-1.69.43-.15.01-.53.05-.48-.01.89-.23 2.26-.53 2.26-.7 1.42-.27-.12.3 1.26-.09 1.14-.19 1.26.04.59.27 1.23-.17.12-.13 1.29-.39-.12-.09-.75 0-.97-.13-.6.13-.67.22-1.18.24-1.29.11.84-.4.89-.46l.34.01c.4-.2-.43-.06-.39-.19 1.61-.37.22.14 1.22-.03l1.13-.33c.16-.19-1.29.24-.91-.02zm-5.87-18.45c.03.01.07.03.12.04-.09 0-.15-.02-.12-.04zm-6.17-10.51c.17.01.21.09.21.13l-.59.11c.02-.02.04-.03.07-.06.04-.04.12-.16.31-.18z"/>
    <path class="st2" d="M156.63 340.7c.02.01.03.02.05.02.54-.1.87-.16.82-.15-.18 0-.36.01-.53.03-.07.01-.13.04-.19.05h.02l-.17.05zM149.06 341.79h-.01zM149.05 341.79c-.01-.01-.24.03 0 0zM149.06 342.1s.03-.01.04-.01c-.03-.01-.04-.02-.04.01zM149.06 342.11v-.01.01zM161.9 348.54c.02.01.04.01.05.02.22-.08.13-.06-.05-.02zM160.22 348.04c-.11.02-.22.05-.37.1-.25.23.24-.07.37-.1zM167.01 369.26c-.03.03.02.04.08.04.03-.02.02-.03-.08-.04zM160.22 348.04s.01 0 0 0c.01 0 0 0 0 0zM166.72 371.5c.29-.1.81-.18.88-.26-.63.12-1.58.45-1.86.64-.1.04-.17.06-.25.08.34-.1.63-.18.88-.22.13-.08.89-.33.35-.24zM165.41 371.98c.03-.01.07-.02.1-.03-.03.01-.07.02-.1.03zM161.17 375.97c-.06.01-.1.01-.15.02.01.01.03.01.15-.02zM154.62 362.92h.16l-.08-.08-.08.08zM153.84 355.72c.01 0 .01 0 0 0-.05-.02-.1-.03-.19-.04-.03.03.04.04.19.04z"/>
    <path class="st2" d="M166.76 371.69c-.09-.01-.23.02-.37.04-.05.03.01.04.37-.04zM162.29 376.2c-.77.07-1.07.25-1.63.38.51-.08 1.1-.25 1.63-.38zM165.52 372.08c.24-.05.5-.13.55-.11.28-.11-.2 0-.25-.02-.08.03-.47.17-.3.13zM166.69 371.31c-.08-.07-.51-.11-1.02.01l1.02-.01zM168.25 370.09c0-.07-.24-.03-.65.12.25-.04.39-.05.65-.12zM166.86 370.24c.04-.01.09-.03.13-.04-.08.01-.11.02-.13.04z"/>
    <path class="st2" d="M166.44 370.42c.69-.14.35-.14.42-.19-.23.08-.44.15-.42.19zM167.64 368.77c.75-.11-.31-.05.08-.15-.56.13-.12.12-.08.15zM167.4 368.13c-.05-.03-.43-.01-.66.07.15 0 .05.03.02.05l.64-.12zM163.04 354.94l.51-.05-.26-.05zM162.4 347.56c-.06.05-.83.33-.48.32-.13-.11.56-.24.48-.32zM158.17 346.04l-1 .31 1.02-.29zM157.2 199.09c.11.16.22.24.33.28.02-.12-.04-.23-.33-.28zM162.66 206.07c-.05-.06-.11-.07-.18-.06.02.04.07.06.18.06z"/>
    <path class="st2" d="M157.53 199.37c-.03.25-.42.58.02.73-.13.21-.58.03-.51.37.5.07.91-.61.95-1.11.03-.03.05-.03.07-.05-.18.09-.35.12-.53.06zM181.95 206.63c-.12-.19-.25-.38-.48-.36.46-.02.52-.82.21-1.48-.2.15-.43.01-.93-.21-.85-.48.15-.04-.36-.47.32.15.61.06.87.42 1.03-.2-.01-1.57-.09-2.3-.2-.21-.34-.21-.62-.36.79-.27-.49-1.15-.36-1.61-.35.05-1.62-.31-1.82-.57-1.02-.4 1.1.03 1.42-.22-.49-.19-.78-.47-.8-.58l.15.02c-.57-.21-1-.47-.8-.68l.09.03c-.06-.17.3-.39.08-.58-.83-.03-.72-.51-1.51-.53.06-.03.15-.01.27-.07l-.65.07.04-.38c.32.03.61 0 .88.07.08-.46-.71-.03-1.23-.15-.69-.15-.05-.26.07-.44.43.03.05.22.22.25.64.04.05-.2.4-.28-.04-.07-.81.09-.87-.12-.11-.17-.71-.47-.03-.65-.49-.02-.6-.2-1.01-.18.06.16.14.45-.22.61-.2-.08-.61-.2-.4-.34l.26.01c-.27-.02-.48-.38-.82.02.16-.18.32-.36.46-.56-.55.15-.79-.06-1.13-.16.51-.37 1.37-.59.92-1.02l-.97.11c-.28-.1-.24-.23.06-.45-.69-.77-2.01.81-2.29.11.66-.46.48-.61.24-.93-.07.09-.22.28-.37.26-.06.3.44-.36.44.16-.17.4-.42.11-.64.2.04-.75-.55-1.04-1.2-1.21-.68-.07-1.38-.13-2.02-.47.15.83-.51.25-.69.56-.11-.84-.62.13-1.06-.29l.44.8c-.85-.34-.4 1.34-1.23.48-.46-.13-.24-.6-.13-.75-1.06-.69-.82 1.02-1.82.35.21.28.71.67.61 1.06-.54-.18-1.42-.12-1.5-.25-.07.28.1.47-.37.48-.17-.15-.11-.26-.11-.37-.29.1-.4.3-.44.53-.11-.16-.23-.32-.42-.38-.88.41-1.28 1.84-2.09 2.52-.05.8.34 1.54.84 1.9.12.45-.91.21-.38.59-.32.02-.61.22-.88.38.36-.05.35.98.91.25.14.72.53 1.42 1.09 1.81-.18-.13-.67.17-.76.51.65-.1 1.22.06 1.51.54.39-.44.27-.55.7-.92.12-.02.38-.12.43-.01-.35.5-.99 1.17-.64 1.5-.72.64-.54-.63-1 .22-.67.42-1.44-.28-1.24-.78-.95.15.19.36-.46.83.38.32.82.16 1.39.52.27-.3.16-.48.59-.54.96-.29.14.9.23 1.02-.12.03-.23-.02-.35-.01.12.46.56.09.84.36-.57.94-.57-.29-1.1.14l-.25.77c.45.47.69-.63 1.02-.03l-.28.21h.42c.24 0 .54-.79.25-.9.77-.74.3.11.8.2.46-.41-.19-.06.14-.55.28-.46.53-.3.77-.26.3.21-.21.64-.3 1.06-.14.03-.41-.06-.19-.33-.73.25-.54 1.13-1.05 1.3.09.49.49-.1.79-.13-.07-.13.38-.46.42-.69 1.46-.97-.32 1.21.66 1.51.36-.99 1.58-.71 1.54-2.08.22-.08.47-.2.58-.01-.41.58.1.71-.43 1.17l.24.16c-.21.2-.43.39-.67.57.12.65.53 1.45.64 1.9.52-.06.03-.77.56-.66-.25.27-.01.78.23.9-.4-.54.18-1.05.45-1.1.39.21.67 1.12.61 1.27-.15.15-.32.29-.49.42.39-.38.13.38.5.33.12-.38.35-.95.46-1.46.25-.06.44.62.53.56l-.42.27c.57.11.14 1.31.76 1.3l.12-.57c.12.16.21.48.11.66.06-.41.41-.16.54-.26l.09.45c.23-.16.36-1.01.81-.02-.43-1.16-.3-.14-.79-.79-.35-.88.28-.55.34-.63.18 1.12.62.38.86.47.25.47.45.71.61 1l-.11-.72c.54 1.53.43-.15.86.41.01.41.22 1 .52 1.29-.67-1.2-.02-1.22-.39-2 .64.53.42 1.37.86 2.19-.07-.79.84.69.56-.36-.53-.43-.23-.68-.38-1.13.48.18.14.46.63.92.13-.12-.04-.89-.46-1.26.36.28.13-.65.72.04.46.68-.35.21.05.71.63.16-.55-1.57-.17-1.66-.4-.4-.83-1.48-.84-1.77.67.44 0 .3.66 1.17l.14-.06c.96 1.13.41 1.68 1.21 2.64l.04-.35c.13.3.37.87.65 1.17-.38-.76.49-.16.43-.35-.34-.61-.09.18-.36-.31.16-.17-.39-1.17.26-.77.06.41.63.81.77 1.14.36.22-.42-.7.08-.4l.21.34c1.08.01 2.28-.53 2.07-2.11.56.3.92.13 1.59-.11-.31.09-.46-.38-.43-.54l.67.18c.51-.05.18-.86-.07-1.36.13.03.29.12.44.21.47-.01-.23-.51-.34-.7l.46.1-.41-.31c-.13-.44.02-.74.73-.28zm-9.87-2.28zm-3.93-.54c.01 0 .01.01 0 0-.01.01-.01.01-.02.01l.02-.01zm-.62-7.33c.19-.1.55-.22.55-.11v.02l-.43.34c-.02-.02-.05-.04-.08-.07-.03-.05-.04-.11-.04-.18zm-.16 1.09v.02h-.02c.01 0 .02-.01.02-.02zm3.9 3.83l-.01.17c-.03-.04-.07-.08-.1-.12.03-.01.07-.02.11-.05zm.06-1.32l.1.01c.04.04.07.07.1.11-.06-.04-.14-.09-.2-.12zm-7.9.91c.01 0 .02.01.03.01v.02c-.02-.01-.02-.02-.03-.03zm4.74 2.83v-.01l.28-.11c.05.04.1.08.15.1-.13 0-.33.01-.43.02zm1.95.9c.02 0 .04-.01.06-.01-.01.12-.03.17-.06.01z"/>
    <path class="st2" d="M158.07 199.31c.05-.02.09-.05.14-.08-.05.01-.09.04-.14.08zM157.83 198.96c.05-.06.27-.29.15-.28-.17-.04-.35.03-.41-.14-.17.19.19.27.26.42zM157.98 200.95c.24.31.81.67 1.11.47-.37-.1-.74-.29-1.11-.47zM159.7 204.15c-.15.09-.28.09-.39.24.21.19.35.11.39-.24zM160.39 204.1c-.01.04-.01.07-.02.1.03-.04.03-.07.02-.1zM160.34 203.67c-.34.31-.01.32.05.43.04-.17.07-.33-.05-.43zM164.36 207.8c.01-.44-.39-.36-.55-.42-.31.4.51.08.55.42zM166.82 208.55c-.11.05-.14-.04-.22-.11l.02.51c.15.04.34-.14.2-.4zM165.51 191.99l-.24.22.32.11zM186.72 166.66c.05.19.13.3.22.37.05-.11.03-.23-.22-.37z"/>
    <path class="st2" d="M186.94 167.03c-.11.23-.58.42-.22.69-.19.16-.56-.16-.6.19.45.23 1.05-.28 1.26-.74.03-.02.05-.01.08-.02-.2.02-.38 0-.52-.12zM207.9 176.9c.83 0-.09-1.25.18-1.64-.35-.06-1.43-.82-1.54-1.14-.84-.71 1.03.39 1.41.25-.4-.34-.59-.7-.57-.81l.14.07c-.48-.38-.79-.77-.53-.9l.07.06c0-.18.41-.27.27-.52-.77-.3-.52-.72-1.26-.99.07-.01.14.04.28.02l-.64-.15.16-.35c.29.13.58.2.81.36.22-.41-.66-.26-1.11-.54-.6-.36.04-.26.21-.4.4.17-.03.22.13.31.59.25.11-.17.47-.14-.02-.07-.8-.18-.79-.39-.05-.2-.52-.67.19-.62-.46-.18-.5-.39-.9-.5.01.17-.01.47-.41.5-.17-.14-.51-.39-.27-.45l.25.1c-.25-.1-.33-.51-.78-.25.21-.12.42-.24.62-.38-.56-.04-.73-.32-1.01-.52.61-.18 1.49-.12 1.2-.67l-.96-.21c-.23-.19-.15-.3.21-.41-.4-.96-2.17.11-2.2-.64.78-.22.65-.42.53-.8-.1.06-.3.2-.43.13-.16.27.53-.19.37.29-.29.32-.43-.04-.68-.02.29-.69-.18-1.16-.74-1.53-.62-.28-1.26-.58-1.75-1.1-.13.83-.56.07-.84.31.17-.83-.63-.08-.9-.62l.15.89c-.69-.6-.82 1.14-1.32.05-.39-.27-.03-.65.12-.75-.77-1-1.11.7-1.84-.27.11.34.45.87.23 1.2-.45-.35-1.3-.57-1.34-.72-.16.24-.06.48-.5.34-.12-.2-.02-.28.01-.39-.31 0-.48.15-.59.37-.05-.19-.11-.38-.27-.5-.96.11-1.81 1.32-2.79 1.71-.31.74-.18 1.57.18 2.07-.03.47-.93-.1-.55.44-.31-.08-.65.01-.95.07.35.07.01 1.05.78.54-.1.73.05 1.51.44 2.07-.13-.18-.69-.06-.88.24.65.11 1.14.46 1.25 1 .52-.29.43-.43.97-.64.12.02.39.01.41.13-.5.36-1.32.79-1.1 1.21-.89.38-.31-.77-1.02-.12-.77.18-1.27-.73-.92-1.14-.95-.16.07.4-.7.63.25.43.72.41 1.14.95.36-.2.3-.4.73-.32 1 .03-.17.9-.11 1.04-.13-.01-.21-.09-.33-.12-.04.47.5.27.67.62-.84.7-.45-.45-1.09-.21l-.49.66c.27.59.84-.34.96.34l-.36.17.4.14c.33-.23.79-.64.55-.84.97-.44.28.13.71.38.57-.23-.16-.12.32-.48.41-.35.61-.11.82.01.21.29-.41.53-.63.9-.14-.02-.37-.19-.07-.37-.77-.01-.88.9-1.41.89-.07.5.49.07.79.13-.03-.15.51-.31.62-.52 1.7-.44-.69 1.04.13 1.64.66-.82 1.72-.16 2.13-1.46.23 0 .51-.04.55.18-.57.41-.14.7-.79.96l.18.23c-.26.12-.53.22-.82.32-.1.65.03 1.55-.01 2.01.51.11.28-.72.74-.44-.32.18-.26.73-.08.92-.2-.64.52-.93.78-.89.3.32.27 1.28.16 1.4-.19.09-.39.17-.6.24.49-.23-.01.4.36.47.24-.32.64-.78.91-1.23.26.02.21.73.32.71l-.48.12c.5.29-.29 1.29.3 1.47l.29-.5c.07.19.04.52-.11.66.19-.37.44-.02.59-.07l-.06.46c.27-.08.67-.84.77.24-.03-1.23-.24-.23-.49-1-.04-.95.45-.43.53-.49-.2 1.11.46.56.66.73.09.53.19.82.26 1.14l.14-.72c.01 1.62.46 0 .68.66-.13.39-.12 1.02.07 1.39-.24-1.35.38-1.16.28-2.02.44.71-.05 1.43.1 2.35.19-.77.57.92.65-.16-.36-.58 0-.72.01-1.2.39.33-.02.49.3 1.07.16-.07.25-.85-.02-1.34.25.38.33-.57.67.27.22.79-.4.08-.19.69.54.36-.01-1.67.38-1.63-.25-.51-.3-1.67-.21-1.95.49.63-.1.29.24 1.32l.15-.02c.54 1.38-.16 1.72.29 2.89l.15-.32c.02.33.07.94.24 1.32-.11-.85.52.01.52-.2-.12-.69-.14.14-.24-.41.21-.11.02-1.24.49-.65-.07.41.34.97.36 1.33.27.32-.17-.8.2-.35l.09.39c1.02.37 2.33.24 2.64-1.32.43.47.83.42 1.54.42-.33-.02-.31-.51-.23-.65l.57.39c.5.11.45-.75.38-1.31.11.07.23.21.35.35.45.14-.05-.56-.1-.78l.4.24-.29-.43c-.04-.47.19-.7.71-.04-.05-.22-.12-.44-.33-.5.45.13.76-.61.68-1.33-.23.08-.41-.13-.81-.5-.64-.73.15.01-.19-.56.25.24.55.26.69.68 1.04.14.51-1.49.67-2.2-.08-.23-.21-.27-.43-.5zm-8.14-4.7l.09.04c.02.05.04.09.06.13-.05-.06-.11-.12-.15-.17zm-6.04-5.56c-.03.01-.05.02-.06.02l-.02-.01v-.01c.02 0 .04-.01.06-.01l.02.01zm5.54 6.79l-.07.16c-.01-.05-.04-.1-.06-.15.05-.01.09 0 .13-.01zm-7.25-2.93c0 .01-.01.01-.01.02-.01-.01-.01-.02-.02-.04.01.01.02.01.03.02zm5.08 5.68c.02 0 .04.01.06.01-.05.11-.08.16-.06-.01zm1.98.3zM187.46 167.15c.05-.01.11-.02.16-.03-.04-.01-.1.01-.16.03z"/>
    <path class="st2" d="M189.61 175.04c-.03-.07-.09-.1-.15-.12.01.04.04.08.15.12zM187.59 166.53c-.15-.09-.34-.08-.35-.26-.22.12.09.31.11.48.07-.05.35-.19.24-.22zM187.74 169.48c-.31-.21-.6-.51-.89-.81.12.37.54.9.89.81zM187.43 172.26c-.17.03-.3 0-.45.1.14.25.3.21.45-.1zM188.19 172.02c-.42.18-.11.3-.09.42.09-.15.17-.3.09-.42zM188.1 172.44c-.02.03-.03.06-.05.09.05-.03.05-.06.05-.09zM190.65 177.23c.15-.41-.25-.46-.38-.58-.42.28.46.25.38.58zM192.73 178.74c-.12.01-.12-.08-.17-.17l-.15.48c.13.08.37-.03.32-.31zM196.89 162.66l-.3.12.26.21z"/>
  </g>
</svg>