<?xml version="1.0" encoding="utf-8"?>
<!-- Generator: Adobe Illustrator 22.0.1, SVG Export Plug-In . SVG Version: 6.00 Build 0)  -->
<svg version="1.1" id="Ebene_1" xmlns="http://www.w3.org/2000/svg" xmlns:xlink="http://www.w3.org/1999/xlink" x="0px" y="0px"
	 viewBox="0 0 200 46.7" style="enable-background:new 0 0 200 46.7;" xml:space="preserve">
<style type="text/css">
	.st0{fill:#DA202C;}
	.st1{fill:#FFFFFF;}
	.st2{fill:#7F2C33;}
	.st3{fill-rule:evenodd;clip-rule:evenodd;fill:#324D82;}
	.st4{fill:#324D82;}
</style>
<g>
	<g>
		<path class="st0" d="M68,8.8c-0.9,1.1-1.5,3.4-1.6,4.8c-0.1,2,0.7,4.3,1.9,5.8c2.1,2.6,6.1,3.2,9.3,2.8c4.4-0.6,8.4-4.8,8.4-9.3
			c0-2.1-0.9-4.3-2.4-5.8c-1.6-1.5-3.7-2-5.8-2.3c-1.9-0.3-3.6,0-5.4,0.6c-1.4,0.5-3,1.5-4.2,3L68,8.8"/>
		<path class="st1" d="M68.8,11.9c0.2-1.1,1.2-2.4,2-3.3c0.9-1,2.2-1.7,3.5-1.9c0.6-0.1,1.1-0.2,1.7-0.2c0.6,0,1.9,0.1,2.2,0.6
			c0.3,0.5,0,1.4-0.3,1.8C77.5,9.4,76.7,9,76.1,9c-1.2-0.1-2.3-0.2-3.4,0.3c-1.2,0.4-2.9,1.4-3.6,2.3L68.8,11.9L68.8,11.9z"/>
		<path class="st2" d="M76.2,21.6c0,0-0.1,0-0.1,0c-1.2,0-2.8-0.2-3.9-0.7c-0.8-0.3-1.4-0.7-2.3-1.4l1.3,0.3
			c0.9,0.1,1.6,0.2,2.3,0.2c0.6,0,1.2-0.1,1.9-0.3c1.6-0.5,3.3-1,4.6-2c1-0.7,1.7-1.1,2.7-2.3c0.3-0.3,0.6-0.8,0.8-1.1
			c0.2-0.3,0.3-0.6,0.4-0.6c0.1,0,0.1,0.1,0.2,0.2c0.8,1.2,0.6,3-0.3,4.1c-1.4,1.7-2.2,2.1-3.6,2.7C79.1,21.4,77.6,21.6,76.2,21.6"
			/>
	</g>
	<g>
		<path class="st3" d="M22.8,0.4c-0.4,0.1-0.7,0.3-1.1,0.4c-0.7,0.3-1.3,0.7-1.9,1C19.5,2,19.3,2.1,19,2.4c-0.4,0.4-1,0.7-1.4,1.1
			c-0.3,0.4-0.3,0.5-0.3,0.9c0.1,0.1,0.2,0.2,0.4,0.1c0-0.2,0.6-0.7,0.9-0.8c0.1-0.1,0.2-0.2,0.4-0.3c0.2-0.1,0.5-0.3,0.8-0.4
			c0.3-0.1,0.9-0.5,1.1-0.6c0.4-0.1,0.8-0.4,1.1-0.4c0.6,0,1.3,0.2,1.9,0.3c1-0.1,0.9-0.3,1.3-0.5c0.4-0.5,0.3-1.6-0.1-1.7
			C24.3-0.2,23.5,0.1,22.8,0.4L22.8,0.4z"/>
		<path class="st3" d="M26.1,7.1c-0.3-0.5-0.4-0.7-1-1c-0.3-0.2-0.7-0.3-0.9-0.3c-0.3-0.1-1-0.1-1.4-0.1c-0.5,0-1,0.2-1.4,0.4
			c-0.6,0.2-1.1,0.7-1.5,1c-0.4,0.3-0.8,0.6-1.2,1c-0.4,0.4-1,0.9-1.3,1.4c-0.2,0.4-0.5,0.9-0.8,1.3c-0.2,0.4-0.3,0.7-0.5,1
			c-0.2,0.4-0.4,0.8-0.6,1.2c-0.2,0.4-0.4,0.8-0.6,1.2c-0.2,0.4-0.4,0.7-0.3,1.1c0,0.3,1.2,0.7,1.7,0.1c0.4-2.5,1.4-4,2.5-6
			c0.8-1.2,1.7-1.6,2.5-2.2c0.7-0.3,1.4-0.6,2.2-0.6c0.6,0,1.4,0.3,1.6,0.8c0.1,0.1,0.3,0.5,0.3,0.6c0,0.1,0.1,0.5,0.2,0.6
			c0.1,0.4,0.1,0.8,0.1,1.2c0.1,1.1-0.1,2.8-0.4,3.6c-0.1,0.3-0.3,0.9-0.3,1.1c-0.1,0.2-0.3,0.5-0.3,0.8c0,0.3-0.3,0.8-0.4,1.1
			c0,0.1,0,0.2,0.1,0.4c0.1,0.3,0.6,0.4,0.9,0.2c0.2-0.3,0.2-0.7,0.3-1.1c0.2-0.4,0.5-0.8,0.7-1.2c0.2-0.5,0.5-0.9,0.7-1.4
			c0.2-0.3,0.3-0.6,0.5-0.9c0.2-0.3,0.3-0.5,0.4-0.8c0.1-0.1,0.2-0.3,0.2-0.4c0.1-0.2,0.6-0.8,0.7-0.8c0.1-0.1,1.8-1.2,2.9-0.9
			c0.5,0.1,1.3,0.8,1.5,1.1c0.3,0.4,0.5,1.1,0.6,1.5c0.1,1,0.1,2.2,0,3.3c-0.1,1-0.3,1.9-0.6,2.8c-0.3,1-1.8,3-0.8,3.5
			c0.4,0.3,0.5,0.3,0.6,0c0.1-0.3,0.5-1.5,0.6-1.7c0.4-1.1,0.6-1.9,0.8-3.2c0.1-0.6,0.2-1.1,0.2-1.7c0-0.4,0-0.9,0-1.3
			c0-0.7,0.1-1.5-0.1-2.1c-0.2-0.5-0.3-1-0.6-1.4c-0.1-0.2-0.4-0.5-0.5-0.6c-1-1.5-3.8-1.4-5.4-0.4c-0.5,0.4-0.9,1-1.3,1.4
			C27.3,9.4,26.3,7.6,26.1,7.1L26.1,7.1z"/>
		<path class="st3" d="M23.3,12.5c-0.5-0.4-0.9-0.8-1.6-1.1c-0.6-0.1-1.3,0.1-1.7,0.3c-0.8,0.4-1.2,0.4-2,1.8
			c-0.3,0.5-0.4,2.2-0.3,2.4c0.5,0,0.7-0.1,1.9-0.1c1,0.1,2.1,0.4,2.3,0.5c0.3,0.1,1.1,0.3,1.2,0.3c0.4,0,0.8-2-0.2-1.9
			c-0.1,0-0.2,0.2-0.4,0.3c-0.5,0.2-0.9-0.1-1.2-0.1c0.1-0.2,0.3-0.5,0.1-0.8c0.3-0.3,0.5-0.9,0.9-1.1c0.3,0.1,0.6,0.2,0.9,0
			C23.3,12.7,23.3,12.6,23.3,12.5L23.3,12.5z"/>
		<path class="st3" d="M30.9,15.1c-0.1-0.1-0.3-0.2-0.4-0.3c-0.5-0.2-0.8-0.1-1.2-0.1c-0.2,0-0.4,0.1-0.6,0.2
			c-0.5,0.1-1.3,0.6-1.7,1.1c-0.4,0.4-1,0.8-0.7,1.4c0.1,0.1,0.1,0.4,0.3,0.5c0.9,0.5,1.8,1,2.6,1.6c0.5,0.3,1.7,1.5,2,1.2
			c0.3-0.5,0.9-1.5,0.2-2c-0.3,0-0.5,0.1-0.7,0.2c-0.3-0.4-0.6-0.7-0.9-1.2c0.2-0.1,0.3-0.3,0.4-0.6c0.2-0.3,0.6-0.4,0.8-0.8
			c0.3,0.2,0.7,0.2,0.8-0.1C31.6,15.7,31.3,15.3,30.9,15.1L30.9,15.1z"/>
		<path class="st0" d="M15,21.6c-0.6,0.8-1.1,2.5-1.1,3.5c-0.1,1.4,0.5,3.1,1.4,4.2c1.6,1.9,4.4,2.3,6.7,2c3.2-0.5,6.1-3.5,6.1-6.8
			c0-1.5-0.6-3.1-1.7-4.2c-1.1-1.1-2.7-1.5-4.2-1.7c-1.4-0.2-2.6,0-3.9,0.4c-1,0.3-2.1,1.1-3,2.1L15,21.6"/>
		<path class="st1" d="M15.6,23.8c0.2-0.8,0.9-1.8,1.4-2.4c0.6-0.7,1.6-1.2,2.5-1.4c0.4-0.1,0.8-0.2,1.2-0.1c0.4,0,1.3,0,1.6,0.4
			c0.2,0.3,0,1-0.2,1.3c-0.3,0.5-0.9,0.2-1.3,0.2c-0.8,0-1.6-0.1-2.4,0.2c-0.8,0.3-2.1,1-2.6,1.7L15.6,23.8L15.6,23.8z"/>
		<path class="st2" d="M21,30.8c0,0-0.1,0-0.1,0c-0.9,0-2-0.1-2.8-0.5c-0.6-0.2-1-0.5-1.6-1l1,0.2c0.6,0,1.1,0.1,1.6,0.1
			c0.4,0,0.9-0.1,1.4-0.2c1.2-0.3,2.4-0.7,3.3-1.4c0.7-0.5,1.2-0.8,1.9-1.7c0.2-0.2,0.4-0.6,0.6-0.8c0.2-0.2,0.2-0.4,0.3-0.4
			c0,0,0.1,0,0.2,0.2c0.6,0.8,0.4,2.2-0.2,3c-1,1.2-1.6,1.5-2.6,2C23,30.7,22,30.8,21,30.8"/>
		<path class="st3" d="M9.3,21.7c-1.2,0.1-1.4,1.1-1.4,2.1C7.9,24.3,8,25,8,25.6c0.1,0.6,0.1,0.7,0.2,1.5c0,0.2,0.1,0.5,0.1,0.7
			c0.2,0.8,0.3,1.6,0.5,2.3c0.1,0.3,0.1,0.6,0.2,1c0.2,0.5,0.5,1,0.7,1.6c0.1,0.3,0.2,0.5,0.3,0.8c0.3,0.6,0.4,1.1,0.8,1.6
			c0.3,0.4,0.7,0.8,1.1,1.1c0.6,0.5,1.1,1.2,1.8,1.5c0.5,0.3,1,0.6,1.5,0.8c0.9,0.3,1.7,0.5,2.9,0.4c0.2,0,1.1-0.2,1.3-0.2
			c0.4-0.1,0.8-0.1,1.2-0.3c0.2-0.1,1-0.3,1.2-0.4c0.3-0.1,1.2-0.5,1.4-0.6c0.2-0.1,1.4-0.7,1.8-0.9c0.1-0.1,0.6-0.4,0.7-0.5
			c0.3-0.3,0.4-0.7,0.6-1.1c0.9-1.8-1.2-0.9-1.7-0.4c-0.1,0.1-0.9,0.7-1.2,0.9c-0.3,0.2-0.6,0.4-0.9,0.5c-0.4,0.2-0.8,0.3-1.2,0.4
			c-1.4,0.6-3.1,1.1-4.9,0.7c-0.7-0.2-1.1-0.2-1.6-0.5c-0.7-0.4-1.4-0.9-1.9-1.5c-1-1.1-1.8-2.4-2.1-4.1c-0.1-0.5-0.1-1-0.1-1.6
			c-0.1-0.8-0.2-1.7-0.2-2.5c0-0.7,0.2-1.5,0.1-2.2c0-0.4-0.2-0.8-0.2-1.1c0-0.5,0.1-0.9,0-1.4C10,21.9,9.7,21.7,9.3,21.7L9.3,21.7z
			 M42.9,16.2c1.8-0.2,3.2-0.6,3.1-2c-0.1-0.5-0.9-1.4-1-1.5c-0.5-0.6-1.2-0.9-2.1-1.3c-0.3-0.2-0.7-0.3-1-0.4
			c-0.6-0.3-1.8-0.1-1.9,0.5c0.1,1,1.2,0.7,1.9,1.1c0.2,0.1,1.2,0.5,1.6,0.8c1.1,0.8,0.1,0.9-0.3,1.1c-1.4,0.4-2.2,0.7-2.9,1.1
			c-0.3,0.2-0.5,0.4-0.6,0.5c-0.1,0.1-1.2,0.9-0.7,1.4c0.6,0.7,2.8,1,3.7,1.5c0.5,0.3,1.3,0.6,0.7,1.1c-0.5,0.4-1.2,0.4-1.8,0.4
			c-0.2,0-0.5,0-0.7,0c-1-0.1-2.4,0.1-3.3,0.6c-0.4,0.2-0.7,0.6-0.6,1.2c0.1,0.7,0.5,1,0.8,1.4c0.6,0.6,1.3,0.9,2.1,1.2
			c1.7,0.7,0.3,0.8-0.5,1c-1.1,0.2-2.2,0.8-3.3,1.5c-0.2,0.1-0.5,0.4-0.7,0.6c-0.5,0.5-1.2,1.2-1.3,1.9c-0.2,0.9,0,1.2,0.6,1.8
			c0.3,0.2,0.3,0.3,0.4,0.4c0.1,0.1,0.3,0.4,0.5,0.4c0.5,0,0-0.8-0.1-1.1c-0.1-0.2-1-1.5,0.7-2.6c0.2-0.1,0.8-0.4,1-0.5
			c0.6-0.2,3.6-1,3.8-1c0.3,0,0.7-0.3,1-0.4c0.4-0.1,0.8-0.2,1-0.5c0.2-0.4,0.5-1,0.2-1.5c-0.1-0.3-0.2-0.4-0.7-0.7
			c-1.4-0.5-4.5-2-3.5-2.2c0.8,0,1.5-0.2,2.2-0.3c0.3,0,1.3,0,1.5,0c0.3,0,1,0,1.2-0.1c0.4-0.1,0.9-0.3,1.1-0.4
			c0.5-0.3,0.7-1.3,0.3-2c-0.1-0.1-0.3-0.7-4.3-2.2C40.2,16.7,42.7,16.2,42.9,16.2L42.9,16.2z M12.1,0.6c-0.6-0.2-1.1-0.3-1.8-0.3
			c-0.8,0-1.7,0.2-2.3,0.3C6.4,0.8,5.6,1.8,5.5,2C5.2,2.3,5.2,2.5,5.3,3.1c0.1,0.4,0.3,0.4,0.5,0.7C6,4,6.6,4.2,7.1,4.4
			c0.5,0.2,1,0.4,1.4,0.5C8.7,5,9,5,9.2,5c0.4,0.1,0.8,0.3,1.1,0.5c0.2,0.1,0.6,0.1,0.1,0.5C10,6.1,9.6,6.4,9.1,6.5
			C9,6.5,8,6.6,7.8,6.6C6.7,6.6,6,6.8,4.3,7.1C3.5,7.2,3.2,7.7,3.1,8.1C2.9,8.8,3.2,9.3,3.9,9.6c0.6,0.2,1.9,0.5,2.6,0.9
			c0.3,0.1,0.1,0.3-0.4,0.7c-1.2,0.6-2.4,1.4-3.6,2.1c-0.7,0.4-1.5,0.9-2.1,1.4C0.3,14.8,0,15.2,0,15.4c0,0.3,0,0.7,0.3,1
			c0.6,0.7,2,0.8,3,0.7c1.2,0,1.1-0.2,1.6,0.5c0,0.6-0.8,0.9-1.1,1.2c-0.3,0.3-0.5,0.6-0.7,0.8c-0.5,0.5-1.2,0.9-1.1,1.8
			c0,0.3,0.2,0.5,0.3,0.6c0.5,0.3,1.1,0.7,1.7,0.8c0.8,0.2,1-0.4,0.4-0.6c-1-0.5-1.2-0.7-1.2-1.1c0-0.6,0.4-0.7,0.9-1
			c0.3-0.2,0.6-0.4,0.9-0.6c0.3-0.2,0.6-0.5,0.8-0.6c0.3-0.2,0.6-0.4,0.8-0.7c0.3-0.6,0.5-1.4-0.5-1.7c-0.2-0.1-0.7-0.3-1-0.4
			c-0.1,0-1.4-0.4-2.1-0.5c-0.4-0.1-1.2-0.1-1.2-0.4c-0.1-0.3,0.5-0.4,0.8-0.5c1-0.4,1.7-0.8,2.6-1.2c0.9-0.4,1.5-0.9,2.2-1.2
			c0.3-0.2,0.7-0.4,0.8-0.5c0.3-0.3,1.4-1.1,0.4-1.6C7.6,9.3,6.1,9.1,5,8.4C4.7,8.1,5.7,8.3,6.1,8.2c0.3,0,0.7,0,1.1-0.1
			c0.1,0,1.2,0,1.9-0.1C9.5,8,9.9,8,10.4,8c0.8-0.2,1.5-0.4,2-0.7c0.5-0.3,1.3-0.9,1-1.6c-0.1-0.1-0.5-0.8-0.8-0.9
			c-0.7-0.2-1.1-0.7-2-1C10,3.5,9.3,3.4,8.8,3.1c-0.2-0.1-1-0.3-1-0.7c0.1-1.2,3.6-0.3,4.8-0.5c0.1,0,0.6-0.2,0.7-0.3
			C13.7,1,12.6,0.7,12.1,0.6L12.1,0.6z"/>
	</g>
	<path class="st0" d="M60,33.4c-0.7,0.3-1.4,0.5-2.2,0.5c-1.7,0-3-1.1-3-2.8c0-1.7,1.1-2.9,2.8-2.9c0.8,0,1.6,0.2,2.3,0.6l0.2-1.9
		c-0.9-0.3-1.7-0.5-2.7-0.5c-2.9,0-5.1,1.5-5.1,4.7c0,3.4,2.8,4.6,5.1,4.6c1.2,0,2-0.2,2.7-0.4L60,33.4L60,33.4z M64.8,35.5h6.1
		v-1.8h-3.7v-7.2h-2.4V35.5L64.8,35.5z M74.9,31c0,2.8,1.6,4.6,4.5,4.6c2.9,0,4.5-1.8,4.5-4.6c0-2.9-1.5-4.6-4.5-4.6
		C76.5,26.3,74.9,28.1,74.9,31L74.9,31z M77.4,31c0-1.6,0.6-2.9,2-2.9c1.5,0,2,1.3,2,2.9c0,1.5-0.6,2.9-2,2.9
		C78,33.8,77.4,32.5,77.4,31L77.4,31z M89.9,35.5h3.1l1.2-6.9h0l1.3,6.9h3.1l2-9h-2.3L97,33.4h0l-1.3-6.9h-3l-1.2,6.9h0l-1.2-6.9
		h-2.4L89.9,35.5L89.9,35.5z M104.9,35.5h2.2l-0.1-6.1h0l3.1,6.1h3v-9H111l0,6.1h0l-3-6.1h-3V35.5L104.9,35.5z M118.4,35.5h3.3
		c3.1,0,5.3-1.2,5.3-4.5c0-3.5-2.2-4.4-5.3-4.4h-3.3V35.5L118.4,35.5z M120.8,28.3h0.9c1.7,0,2.8,0.9,2.8,2.7c0,1.8-1,2.7-2.8,2.7
		h-0.9V28.3L120.8,28.3z M131.5,31c0,2.8,1.6,4.6,4.5,4.6c2.9,0,4.5-1.8,4.5-4.6c0-2.9-1.5-4.6-4.5-4.6
		C133,26.3,131.5,28.1,131.5,31L131.5,31z M133.9,31c0-1.6,0.6-2.9,2-2.9c1.5,0,2,1.3,2,2.9c0,1.5-0.6,2.9-2,2.9
		C134.5,33.8,133.9,32.5,133.9,31L133.9,31z M152.6,33.4c-0.7,0.3-1.5,0.5-2.2,0.5c-1.7,0-3-1.1-3-2.8c0-1.7,1.1-2.9,2.8-2.9
		c0.8,0,1.6,0.2,2.3,0.6l0.2-1.9c-0.9-0.3-1.7-0.5-2.7-0.5c-3,0-5.1,1.5-5.1,4.7c0,3.4,2.8,4.6,5.1,4.6c1.2,0,2-0.2,2.7-0.4
		L152.6,33.4L152.6,33.4z M159.1,35.5h2.4v-7.2h2.2v-1.8h-6.8v1.8h2.2V35.5L159.1,35.5z M167.7,31c0,2.8,1.6,4.6,4.5,4.6
		c2.9,0,4.5-1.8,4.5-4.6c0-2.9-1.5-4.6-4.5-4.6S167.7,28.1,167.7,31L167.7,31z M170.1,31c0-1.6,0.6-2.9,2-2.9c1.4,0,2,1.3,2,2.9
		c0,1.5-0.6,2.9-2,2.9C170.7,33.8,170.1,32.5,170.1,31L170.1,31z M181.4,35.5h2.4v-3.5h0.5c0.9,0,1.2,0.4,1.7,1.9l0.5,1.6h2.5
		l-0.9-2.4c-0.5-1.1-0.5-1.8-1.3-2v0c1.2-0.3,1.7-1.1,1.7-2.3c0-1.5-1.3-2.3-2.9-2.3h-4.3V35.5L181.4,35.5z M183.8,28.2h0.6
		c0.9,0,1.7,0.2,1.7,1c0,1-1,1-1.7,1h-0.6V28.2L183.8,28.2z M193.4,35.2c0.8,0.3,1.8,0.4,2.7,0.4c2,0,3.9-0.6,3.9-2.9
		c0-3.2-4.2-2.3-4.2-3.7c0-0.8,1-0.8,1.6-0.8c0.7,0,1.4,0.1,2,0.4l0.1-1.8c-0.6-0.2-1.4-0.3-2.3-0.3c-1.8,0-3.9,0.6-3.9,2.7
		c0,3.3,4.2,2.2,4.2,3.9c0,0.7-0.7,0.9-1.5,0.9c-1,0-1.9-0.3-2.5-0.6L193.4,35.2L193.4,35.2z"/>
	<path class="st4" d="M52.9,21.8h4.5v-6.7h0.9c1.7,0,2.3,0.7,3.2,3.6l1,3.1h4.7l-1.7-4.6c-0.8-2.1-0.9-3.4-2.4-3.7v-0.1
		c2.2-0.5,3.2-2,3.2-4.3c0-2.9-2.5-4.3-5.5-4.3h-8.1V21.8L52.9,21.8z M57.4,8h1.2c1.7,0,3.3,0.3,3.3,1.9c0,1.9-1.8,2-3.3,2h-1.2V8
		L57.4,8z M89.8,21.8h4.5V8.2h4.2V4.8H85.6v3.3h4.2V21.8L89.8,21.8z M100.2,21.8h12.2v-3.2h-7.7v-3.8h7v-3.2h-7V8h7.4V4.8h-11.9
		V21.8L100.2,21.8z M120.3,21.8h4.1l-0.1-11.6h0l5.9,11.6h5.6V4.8h-4.1l0.1,11.5h0L126,4.8h-5.8V21.8L120.3,21.8z M137.1,21.8h4.6
		l1.3-3.6h6.4l1.3,3.6h5l-6.5-16.9h-5.5L137.1,21.8L137.1,21.8z M148.3,15h-4.2l2.2-6.6h0L148.3,15L148.3,15z M156.3,21.3
		c1.5,0.5,3.5,0.7,5,0.7c3.8,0,7.5-1.2,7.5-5.6c0-6.1-8-4.3-8-7c0-1.5,1.9-1.6,3-1.6c1.3,0,2.6,0.2,3.8,0.8l0.3-3.5
		c-1.1-0.4-2.7-0.6-4.4-0.6c-3.4,0-7.4,1.1-7.4,5.2c0,6.2,8,4.2,8,7.3c0,1.4-1.4,1.7-2.8,1.7c-1.9,0-3.5-0.5-4.7-1.1L156.3,21.3
		L156.3,21.3z M170.2,21.8h12.2v-3.2h-7.7v-3.8h7v-3.2h-7V8h7.4V4.8h-11.9V21.8L170.2,21.8z M183.8,21.8h4.2l-0.2-11.6h0l5.9,11.6
		h5.6V4.8h-4.1l0.1,11.5h0l-5.7-11.5h-5.8V21.8L183.8,21.8z"/>
	<g>
		<path class="st4" d="M55,40.7c-0.7,0-1.2,0.4-1.4,0.7h0v-0.6h-0.7v5.9h0.8v-2.3h0c0.2,0.4,0.7,0.7,1.4,0.7c1.3,0,1.8-1.1,1.8-2.3
			C56.8,41.7,56.2,40.7,55,40.7z M54.8,44.4c-0.9,0-1.2-0.9-1.2-1.6c0-0.8,0.4-1.6,1.2-1.6c0.8,0,1.2,0.8,1.1,1.5
			C56,43.5,55.6,44.4,54.8,44.4z"/>
		<path class="st4" d="M61,42.4c0-1.1-0.5-1.7-1.7-1.7c-0.5,0-1,0.2-1.4,0.4l0,0.7c0.3-0.3,0.8-0.4,1.2-0.4c0.8,0,1,0.4,1,1.1
			c-0.3,0-0.5,0-0.8,0c-0.8,0-1.9,0.3-1.9,1.4c0,0.9,0.6,1.3,1.5,1.3c0.7,0,1.1-0.4,1.3-0.6h0v0.5H61c0-0.1,0-0.3,0-0.8V42.4z
			 M60.2,43.3c0,0.6-0.4,1.1-1.2,1.1c-0.4,0-0.8-0.2-0.8-0.7c0-0.7,1-0.8,1.4-0.8c0.2,0,0.3,0,0.5,0V43.3z"/>
		<path class="st4" d="M62.9,41.4L62.9,41.4l0-0.6h-0.7v4.2H63V43c0-1,0.4-1.7,1.1-1.7c0.1,0,0.3,0,0.4,0.1v-0.7
			c-0.2,0-0.3-0.1-0.5-0.1C63.6,40.7,63.1,41,62.9,41.4z"/>
		<path class="st4" d="M66.7,43.7v-2.3h1.1v-0.6h-1.1v-1.2l-0.8,0.2v1H65v0.6h0.9v2.4c0,0.8,0.5,1.2,1.3,1.2c0.2,0,0.5-0.1,0.7-0.1
			v-0.7c-0.1,0.1-0.3,0.1-0.5,0.1C67,44.4,66.7,44.2,66.7,43.7z"/>
		<path class="st4" d="M70.7,40.7c-0.6,0-1.1,0.3-1.4,0.8h0v-0.7h-0.7v4.2h0.8V43c0-1,0.4-1.7,1.3-1.7c0.7,0,0.9,0.5,0.9,1.5v2.2
			h0.8v-2.5C72.3,41.3,71.8,40.7,70.7,40.7z"/>
		<path class="st4" d="M75.2,40.7c-1.2,0-2,0.9-2,2.1c0,1.4,0.7,2.3,2.2,2.3c0.7,0,1-0.2,1.3-0.3V44c-0.2,0.2-0.8,0.4-1.3,0.4
			c-0.7,0-1.4-0.6-1.4-1.4h3C77.1,41.7,76.6,40.7,75.2,40.7z M74.1,42.5c0.1-0.5,0.4-1.2,1.1-1.2c0.7,0,1,0.5,1,1.2H74.1z"/>
		<path class="st4" d="M78.8,41.4L78.8,41.4l0-0.6H78v4.2h0.8V43c0-1,0.4-1.7,1.1-1.7c0.1,0,0.3,0,0.4,0.1v-0.7
			c-0.2,0-0.3-0.1-0.5-0.1C79.4,40.7,79,41,78.8,41.4z"/>
		<path class="st4" d="M84.8,40.7c-1.3,0-2.1,0.9-2.1,2.2c0,1.2,0.9,2.2,2.1,2.2c1.2,0,2.1-1,2.1-2.2C86.9,41.6,86.1,40.7,84.8,40.7
			z M84.8,44.4c-0.9,0-1.3-0.8-1.3-1.6c0-0.8,0.5-1.6,1.3-1.6c0.8,0,1.3,0.8,1.3,1.6C86.1,43.6,85.7,44.4,84.8,44.4z"/>
		<path class="st4" d="M88.3,40.4v0.4h-1v0.6h1v3.5h0.8v-3.5h1.1v-0.6h-1.1v-0.4c0-0.6,0.1-1,0.7-1c0.1,0,0.3,0,0.4,0l0-0.6
			c-0.2,0-0.3-0.1-0.5-0.1C88.6,38.7,88.3,39.4,88.3,40.4z"/>
		<path class="st4" d="M95.2,42.1L95.2,42.1c0.7-0.1,1.2-0.6,1.2-1.3c0-1.4-1.1-1.5-2.2-1.5h-1.4v5.7h0.8v-2.5h0.5
			c0.4,0,0.7,0,1,0.6l0.9,2h0.9l-1.1-2.3C95.6,42.3,95.5,42.2,95.2,42.1z M94.3,41.7h-0.7V40h0.8c0.7,0,1.1,0.3,1.1,0.8
			C95.5,41.3,95.1,41.7,94.3,41.7z"/>
		<polygon class="st4" points="97.8,44.9 100.9,44.9 100.9,44.2 98.6,44.2 98.6,42.3 100.7,42.3 100.7,41.6 98.6,41.6 98.6,40 
			100.9,40 100.9,39.2 97.8,39.2 		"/>
		<path class="st4" d="M103.8,39.2h-1.7v5.7h1.7c1.9,0,3-1,3-2.9C106.8,40.3,105.5,39.2,103.8,39.2z M103.8,44.2h-0.9V40h1
			c1.2,0,2.1,0.8,2.1,2.1C106,43.5,105.2,44.2,103.8,44.2z"/>
		<polygon class="st4" points="113.5,43.8 113.4,43.8 110.9,39.2 109.8,39.2 109.8,44.9 110.6,44.9 110.6,40.2 110.6,40.2 
			113.2,44.9 114.3,44.9 114.3,39.2 113.5,39.2 		"/>
		<path class="st4" d="M118.1,39.1c-1.7,0-2.7,1.3-2.7,2.9c0,1.7,1,2.9,2.7,2.9c1.7,0,2.7-1.2,2.7-2.9
			C120.9,40.4,119.9,39.1,118.1,39.1z M118.1,44.3c-1.3,0-1.9-1.1-1.9-2.2c0-1.2,0.6-2.2,1.9-2.2c1.3,0,1.9,1.1,1.9,2.2
			C120,43.2,119.5,44.3,118.1,44.3z"/>
		<path class="st4" d="M122.5,40.6c0-0.6,0.5-0.8,1-0.8c0.4,0,0.7,0.1,1.1,0.2l0.1-0.8c-0.4-0.1-0.8-0.2-1.2-0.2
			c-1,0-1.8,0.5-1.8,1.5c0,1.8,2.4,1.4,2.4,2.7c0,0.7-0.7,0.9-1.1,0.9c-0.4,0-0.9-0.2-1.2-0.3l-0.1,0.8c0.4,0.1,0.8,0.2,1.2,0.2
			c1.1,0,2.1-0.5,2.1-1.7C124.9,41.5,122.5,41.7,122.5,40.6z"/>
		<polygon class="st4" points="126,44.9 129.2,44.9 129.2,44.2 126.8,44.2 126.8,42.3 129,42.3 129,41.6 126.8,41.6 126.8,40 
			129.2,40 129.2,39.2 126,39.2 		"/>
		<path class="st4" d="M130.9,40.6c0-0.6,0.5-0.8,1-0.8c0.4,0,0.7,0.1,1.1,0.2l0.1-0.8c-0.4-0.1-0.8-0.2-1.2-0.2
			c-1,0-1.8,0.5-1.8,1.5c0,1.8,2.5,1.4,2.5,2.7c0,0.7-0.7,0.9-1.1,0.9c-0.4,0-0.9-0.2-1.2-0.3l-0.1,0.8c0.4,0.1,0.8,0.2,1.2,0.2
			c1.1,0,2.1-0.5,2.1-1.7C133.4,41.5,130.9,41.7,130.9,40.6z"/>
		<rect x="136.2" y="39.2" class="st4" width="0.8" height="5.7"/>
		<path class="st4" d="M140.5,40.7c-0.6,0-1.1,0.3-1.4,0.8h0v-0.7h-0.7v4.2h0.8V43c0-1,0.4-1.7,1.3-1.7c0.7,0,0.9,0.5,0.9,1.5v2.2
			h0.8v-2.5C142,41.3,141.6,40.7,140.5,40.7z"/>
		<path class="st4" d="M144.4,43.7v-2.3h1.1v-0.6h-1.1v-1.2l-0.8,0.2v1h-0.9v0.6h0.9v2.4c0,0.8,0.5,1.2,1.3,1.2
			c0.2,0,0.5-0.1,0.7-0.1v-0.7c-0.1,0.1-0.3,0.1-0.5,0.1C144.7,44.4,144.4,44.2,144.4,43.7z"/>
		<path class="st4" d="M148,40.7c-1.2,0-2,0.9-2,2.1c0,1.4,0.7,2.3,2.2,2.3c0.7,0,1-0.2,1.3-0.3V44c-0.2,0.2-0.8,0.4-1.3,0.4
			c-0.7,0-1.4-0.6-1.4-1.4h3C149.8,41.7,149.4,40.7,148,40.7z M146.8,42.5c0.1-0.5,0.4-1.2,1.1-1.2c0.7,0,1,0.5,1,1.2H146.8z"/>
		<path class="st4" d="M151.5,41.4L151.5,41.4l0-0.6h-0.7v4.2h0.8V43c0-1,0.4-1.7,1.1-1.7c0.1,0,0.3,0,0.4,0.1v-0.7
			c-0.2,0-0.3-0.1-0.5-0.1C152.2,40.7,151.7,41,151.5,41.4z"/>
		<path class="st4" d="M156,40.7c-0.6,0-1.1,0.3-1.4,0.8h0v-0.7h-0.7v4.2h0.8V43c0-1,0.4-1.7,1.3-1.7c0.7,0,0.9,0.5,0.9,1.5v2.2h0.8
			v-2.5C157.6,41.3,157.1,40.7,156,40.7z"/>
		<path class="st4" d="M162,42.4c0-1.1-0.5-1.7-1.7-1.7c-0.5,0-1,0.2-1.4,0.4l0,0.7c0.3-0.3,0.8-0.4,1.2-0.4c0.8,0,1,0.4,1,1.1
			c-0.3,0-0.5,0-0.8,0c-0.8,0-1.9,0.3-1.9,1.4c0,0.9,0.6,1.3,1.5,1.3c0.7,0,1.1-0.4,1.3-0.6h0v0.5h0.7c0-0.1,0-0.3,0-0.8V42.4z
			 M161.3,43.3c0,0.6-0.4,1.1-1.2,1.1c-0.4,0-0.8-0.2-0.8-0.7c0-0.7,1-0.8,1.4-0.8c0.2,0,0.3,0,0.5,0V43.3z"/>
		<path class="st4" d="M164.3,43.7v-2.3h1.1v-0.6h-1.1v-1.2l-0.8,0.2v1h-0.9v0.6h0.9v2.4c0,0.8,0.5,1.2,1.3,1.2
			c0.2,0,0.5-0.1,0.7-0.1v-0.7c-0.1,0.1-0.3,0.1-0.5,0.1C164.6,44.4,164.3,44.2,164.3,43.7z"/>
		<rect x="166.3" y="40.8" class="st4" width="0.8" height="4.2"/>
		<rect x="166.3" y="39" class="st4" width="0.9" height="0.9"/>
		<path class="st4" d="M170.3,40.7c-1.3,0-2.1,0.9-2.1,2.2c0,1.2,0.9,2.2,2.1,2.2c1.3,0,2.1-1,2.1-2.2
			C172.4,41.6,171.5,40.7,170.3,40.7z M170.3,44.4c-0.9,0-1.3-0.8-1.3-1.6c0-0.8,0.5-1.6,1.3-1.6c0.8,0,1.3,0.8,1.3,1.6
			C171.6,43.6,171.2,44.4,170.3,44.4z"/>
		<path class="st4" d="M175.5,40.7c-0.6,0-1.1,0.3-1.4,0.8h0v-0.7h-0.7v4.2h0.8V43c0-1,0.4-1.7,1.3-1.7c0.7,0,0.9,0.5,0.9,1.5v2.2
			h0.8v-2.5C177,41.3,176.5,40.7,175.5,40.7z"/>
		<path class="st4" d="M181.5,42.4c0-1.1-0.5-1.7-1.7-1.7c-0.5,0-1,0.2-1.4,0.4l0,0.7c0.3-0.3,0.8-0.4,1.2-0.4c0.8,0,1,0.4,1,1.1
			c-0.3,0-0.5,0-0.8,0c-0.8,0-1.9,0.3-1.9,1.4c0,0.9,0.6,1.3,1.5,1.3c0.7,0,1.1-0.4,1.3-0.6h0v0.5h0.7c0-0.1,0-0.3,0-0.8V42.4z
			 M180.7,43.3c0,0.6-0.4,1.1-1.2,1.1c-0.4,0-0.8-0.2-0.8-0.7c0-0.7,1-0.8,1.4-0.8c0.2,0,0.3,0,0.5,0V43.3z"/>
		<rect x="182.7" y="38.8" class="st4" width="0.8" height="6.1"/>
	</g>
</g>
</svg>
