<svg xmlns="http://www.w3.org/2000/svg" viewBox="0 0 178.70001 52.79821"><defs><style>.cls-1{fill:#0c2838;}.cls-2{fill:#40877e;}.cls-3{fill:#32d17e;}.cls-4{fill:#d9e506;}.cls-5{fill:#6984d1;}</style></defs><g id="Ebene_2" data-name="Ebene 2"><g id="Logo"><g id="_Gruppe_" data-name=" Gruppe "><path id="_Zusammengesetzter_Pfad_" data-name=" Zusammengesetzter Pfad " class="cls-1" d="M55,20.27v.44H40c.18,3.55,2.65,5,6.06,5,2.94,0,5-1,6.1-2.37l1.9,2.7a12.26,12.26,0,0,1-8.21,2.72c-5.46,0-9.44-2.94-9.44-8.32v-.47c0-5,3.59-8.9,9.36-8.9C52.66,11.01,55.03,15.71,55,20.27Zm-3.73-2.22c-.4-2.59-2.05-4.27-5.49-4.27-3.09,0-5.06,1.57-5.6,4.27Z"/><path id="_Zusammengesetzter_Pfad_2" data-name=" Zusammengesetzter Pfad 2" class="cls-1" d="M88.33,19.27v9h-4v-9c0-3.16-1.33-4.85-4.52-4.85a5.77,5.77,0,0,0-4.67,2V28.34h-4V18.69c0-2.69-1.15-4.3-4.27-4.3a6.07,6.07,0,0,0-4.92,2.22V28.34h-4v-17H61.5l.25,2.51a7.79,7.79,0,0,1,6.39-2.84,6.18,6.18,0,0,1,5.81,3.16,8.5,8.5,0,0,1,6.57-3.16C85.71,11.01,88.33,13.81,88.33,19.27Z"/><path id="_Zusammengesetzter_Pfad_3" data-name=" Zusammengesetzter Pfad 3" class="cls-1" d="M105.67,28.34a11.09008,11.09008,0,0,1-.4-2.07,8.78,8.78,0,0,1-6.64,2.44c-3.69,0-7.39-1.5-7.39-5.38,0-4.27,3.34-5.6,7.57-5.6a16.10981,16.10981,0,0,1,6.35,1.33v-1c0-3-2.19-3.95-5.31-3.95a9.27,9.27,0,0,0-6,1.8L92.6,12.86a15.60994,15.60994,0,0,1,7.71-1.8c4.81,0,8.44,2.08,8.33,7.36v5.42a18.37038,18.37038,0,0,0,.32,4.55Zm-.47-4.52v-2.4a15.87992,15.87992,0,0,0-5.45-1c-3,0-4.77.54-4.77,2.69s2.08,2.66,4.52,2.66A8,8,0,0,0,105.2,23.82Z"/><path id="_Zusammengesetzter_Pfad_4" data-name=" Zusammengesetzter Pfad 4" class="cls-1" d="M123.72,11.66l-.68,3.69a4.27994,4.27994,0,0,0-2.33-.61c-2,0-3.48,1.48-4.13,3.49V28.34h-3.84v-17h3.59l.21,3.87c.72-2.58,2.34-4,4.78-4A5.79,5.79,0,0,1,123.72,11.66Z"/><path id="_Zusammengesetzter_Pfad_5" data-name=" Zusammengesetzter Pfad 5" class="cls-1" d="M124.78,26.62l1.29-3.23a10.34005,10.34005,0,0,0,6.85,2.3c3.13,0,5-.72,5-2.59s-2.16-1.79-5.74-2.15c-4.2-.5-6.71-1.22-6.71-4.34s2.44-5.6,7.71-5.6a17.41987,17.41987,0,0,1,7.36,1.44l-1.15,3a11.34994,11.34994,0,0,0-6.12-1.46c-2.8,0-4.38.79-4.38,2.37s2.15,1.47,5.6,1.87c3.12.35,6.78.82,6.78,4.7s-3.09,5.74-8.18,5.74A16.12,16.12,0,0,1,124.78,26.62Z"/><path id="_Zusammengesetzter_Pfad_6" data-name=" Zusammengesetzter Pfad 6" class="cls-1" d="M162.38,11.34c-4.3,9.72-8.43,18.45-12,24.27l-3.77-1.19a43.83884,43.83884,0,0,0,3.66-6.15l-7.82-16.9h4.23l5.73,13.9,5.86-13.93Z"/><path id="_Zusammengesetzter_Pfad_7" data-name=" Zusammengesetzter Pfad 7" class="cls-1" d="M162.27,26.62l1.29-3.23a10.38,10.38,0,0,0,6.86,2.3c3.12,0,5-.72,5-2.59s-2.15-1.83-5.76-2.15c-4.2-.5-6.71-1.22-6.71-4.34s2.44-5.6,7.71-5.6a17.36,17.36,0,0,1,7.36,1.44l-1.15,3a11.35,11.35,0,0,0-6.17-1.44c-2.8,0-4.38.79-4.38,2.37s2.16,1.47,5.6,1.87c3.12.35,6.78.82,6.78,4.7s-3.08,5.74-8.18,5.74A16.14993,16.14993,0,0,1,162.27,26.62Z"/></g><polygon class="cls-2" points="12.73 17.01 12.73 22.68 0 17.01 0 11.34 12.73 17.01"/><polygon class="cls-3" points="25.47 5.67 0 17.01 0 11.34 25.47 0 25.47 5.67"/><polygon class="cls-4" points="12.73 17.01 12.73 22.68 25.47 17.01 25.47 11.34 12.73 17.01"/><polygon class="cls-5" points="6.37 31.18 6.37 36.85 25.47 28.35 25.47 22.68 6.37 31.18"/><path class="cls-1" d="M71.10986,39.56383h1.08008l3.6709,10.4043H74.82178l-1.10742-3.19238H69.51709l-1.10742,3.19238H67.4458Zm2.29688,6.33008-1.77735-5.15429h-.02734l-1.77734,5.15429Z"/><path class="cls-1" d="M77.41064,42.59216h.96387v1.1621a5.44223,5.44223,0,0,1,1.2334-.91894,3.22346,3.22346,0,0,1,1.583-.38672,2.173,2.173,0,0,1,1.64355.57422,2.23669,2.23669,0,0,1,.55078,1.61328v5.332h-.96386v-5.1543a1.63968,1.63968,0,0,0-.35547-1.1582,1.45856,1.45856,0,0,0-1.11426-.37988,2.71415,2.71415,0,0,0-1.33008.3418,6.06751,6.06751,0,0,0-1.24707.94336v5.40722h-.96387Z"/><path class="cls-1" d="M92.07129,50.16637a4.00191,4.00191,0,0,1-2.45752-.73535,3.6654,3.6654,0,0,1-1.35059-2.01269L89.145,47.097a2.9007,2.9007,0,0,0,2.96728,2.1875,3.135,3.135,0,0,0,1.86915-.499,1.60683,1.60683,0,0,0,.69433-1.38085,2.14617,2.14617,0,0,0-.1123-.71778,1.41121,1.41121,0,0,0-.4209-.58105,3.62377,3.62377,0,0,0-.834-.5127,11.83241,11.83241,0,0,0-1.35351-.51269q-.8335-.26661-1.46582-.52246a4.06974,4.06974,0,0,1-1.05322-.60157,2.2504,2.2504,0,0,1-.62891-.793,2.56321,2.56321,0,0,1-.209-1.09082,2.31023,2.31023,0,0,1,.23926-1.042,2.624,2.624,0,0,1,.66309-.8418,3.20709,3.20709,0,0,1,1.01611-.5664,3.87226,3.87226,0,0,1,1.30176-.209,4.57349,4.57349,0,0,1,1.30566.17383,3.3834,3.3834,0,0,1,1.01563.48926,3.23141,3.23141,0,0,1,.74414.75488,3.7626,3.7626,0,0,1,.48926.96094l-.84082.38965a2.85113,2.85113,0,0,0-1.07032-1.43848,3.356,3.356,0,0,0-2.58984-.30078,2.24141,2.24141,0,0,0-.70117.35547,1.50154,1.50154,0,0,0-.59522,1.20605,1.78176,1.78176,0,0,0,.13965.73829,1.48759,1.48759,0,0,0,.479.56054,3.91374,3.91374,0,0,0,.88281.47168q.542.21827,1.37012.47852a11.50968,11.50968,0,0,1,1.415.5332,4.08246,4.08246,0,0,1,1.002.63867,2.40872,2.40872,0,0,1,.60156.82032A2.72534,2.72534,0,0,1,95.667,47.3363a2.49139,2.49139,0,0,1-.27344,1.16894,2.6353,2.6353,0,0,1-.748.88867,3.62747,3.62747,0,0,1-1.14258.56739A4.83657,4.83657,0,0,1,92.07129,50.16637Z"/><path class="cls-1" d="M100.34082,39.56383h1.08008l3.6709,10.4043h-1.03907l-1.10742-3.19238H98.74805l-1.10743,3.19238h-.96386Zm2.29688,6.33008-1.77735-5.15429H100.833l-1.77735,5.15429Z"/><path class="cls-1" d="M106.85449,39.60485H110.293a4.456,4.456,0,0,1,2.66211.70117,2.45339,2.45339,0,0,1,.96777,2.12891,2.99619,2.99619,0,0,1-.27344,1.33984,2.42623,2.42623,0,0,1-.76855.90918,3.36932,3.36932,0,0,1-1.18359.52246,6.2874,6.2874,0,0,1-1.5.168H107.8457v4.59375h-.99121Zm3.41113,4.8877a3.57616,3.57616,0,0,0,1.96876-.45411,1.74615,1.74615,0,0,0,.69042-1.57617,1.65771,1.65771,0,0,0-.67675-1.49414,3.64236,3.64236,0,0,0-1.9961-.44726H107.8457v3.97168Z"/><path class="cls-1" d="M122.55273,50.16637a4.03929,4.03929,0,0,1-1.78125-.38574,3.90223,3.90223,0,0,1-1.35644-1.08789,5.07249,5.07249,0,0,1-.86816-1.70117,7.64043,7.64043,0,0,1-.30762-2.24609,7.17214,7.17214,0,0,1,.30762-2.15625,5.12987,5.12987,0,0,1,.875-1.68946,3.89962,3.89962,0,0,1,3.13085-1.48633,3.45133,3.45133,0,0,1,2.47461.86133,4.63683,4.63683,0,0,1,1.27149,2.30371l-.9502.23243a4.16448,4.16448,0,0,0-.98437-1.85938,2.4876,2.4876,0,0,0-1.8252-.62891,2.92838,2.92838,0,0,0-1.36718.31446,2.993,2.993,0,0,0-1.03516.88867,4.356,4.356,0,0,0-.667,1.38769,6.39128,6.39128,0,0,0-.23926,1.80469,7.12182,7.12182,0,0,0,.23926,1.92774,4.29306,4.29306,0,0,0,.67285,1.42578,2.927,2.927,0,0,0,2.42383,1.19922,2.70738,2.70738,0,0,0,1.89062-.66016,3.88777,3.88777,0,0,0,1.0625-1.97168l.9502.20508a4.64824,4.64824,0,0,1-1.36426,2.43359A3.66825,3.66825,0,0,1,122.55273,50.16637Z"/><path class="cls-1" d="M131.042,50.12536a3.31293,3.31293,0,0,1-1.28125-.25293,3.07258,3.07258,0,0,1-1.07422-.74512,3.58187,3.58187,0,0,1-.72754-1.20312,5.17239,5.17239,0,0,1,0-3.27832,3.57942,3.57942,0,0,1,.72168-1.20313,3.01812,3.01812,0,0,1,1.06641-.74121,3.34507,3.34507,0,0,1,1.29492-.25293,3.29117,3.29117,0,0,1,1.27832.25293,3.04219,3.04219,0,0,1,1.06348.74121,3.59338,3.59338,0,0,1,.7207,1.20313,5.17239,5.17239,0,0,1,0,3.27832,3.63266,3.63266,0,0,1-.7207,1.20312,3.01474,3.01474,0,0,1-1.06348.74512A3.29135,3.29135,0,0,1,131.042,50.12536Zm0-.82715a2.12183,2.12183,0,0,0,.99414-.22559,2.20366,2.20366,0,0,0,.74219-.626,2.84972,2.84972,0,0,0,.46875-.94922,4.402,4.402,0,0,0,.16016-1.22754,4.155,4.155,0,0,0-.1543-1.14551,2.971,2.971,0,0,0-.44727-.94922,2.2555,2.2555,0,0,0-.73437-.65332,2.08184,2.08184,0,0,0-1.0293-.24609,2.17129,2.17129,0,0,0-1.00195.22558,2.21747,2.21747,0,0,0-.74805.62208,2.818,2.818,0,0,0-.46875.95019,4.29991,4.29991,0,0,0-.16015,1.19629,4.47308,4.47308,0,0,0,.14648,1.16211,2.90875,2.90875,0,0,0,.44824.96,2.25123,2.25123,0,0,0,.749.66016A2.11265,2.11265,0,0,0,131.042,49.29821Z"/><path class="cls-1" d="M136.126,42.59216h.96386v1.1621a6.24047,6.24047,0,0,1,1.21387-.92675A2.91094,2.91094,0,0,1,139.79,42.4486a2.203,2.203,0,0,1,1.4043.373,1.83067,1.83067,0,0,1,.626.96,6.95737,6.95737,0,0,1,1.27442-.94043,3.00165,3.00165,0,0,1,1.51465-.39258,2.02244,2.02244,0,0,1,1.62988.58789,2.39886,2.39886,0,0,1,.49609,1.59961v5.332h-.96387v-5.1543a1.84784,1.84784,0,0,0-.30078-1.1582,1.31566,1.31566,0,0,0-1.08691-.37988,2.43018,2.43018,0,0,0-1.251.3418,6.65134,6.65134,0,0,0-1.21.94336v5.40722h-.9707v-5.1543a1.8479,1.8479,0,0,0-.30078-1.1582,1.32611,1.32611,0,0,0-1.09375-.37988,2.44167,2.44167,0,0,0-1.25782.3418,6.65134,6.65134,0,0,0-1.21.94336v5.40722H136.126Z"/><path class="cls-1" d="M148.83887,42.59216h.96386v1.04589a5.095,5.095,0,0,1,1.03907-.83007,2.68259,2.68259,0,0,1,1.42871-.35938,3.00613,3.00613,0,0,1,1.18945.23926,2.59816,2.59816,0,0,1,.96387.708,3.4654,3.4654,0,0,1,.64258,1.18945,6.07769,6.07769,0,0,1,0,3.37695,3.34381,3.34381,0,0,1-.65625,1.18946,2.66626,2.66626,0,0,1-.99121.70312,3.20583,3.20583,0,0,1-1.23731.23633,2.70617,2.70617,0,0,1-1.29883-.31445,4.49069,4.49069,0,0,1-1.08008-.81348v3.80762h-.96386Zm3.26074,6.69238a2.272,2.272,0,0,0,.90527-.17774,1.83253,1.83253,0,0,0,.708-.54,2.65606,2.65606,0,0,0,.46191-.92968,4.82626,4.82626,0,0,0,.167-1.35352,4.52045,4.52045,0,0,0-.17481-1.333,2.65843,2.65843,0,0,0-.48437-.93945,1.99957,1.99957,0,0,0-.71485-.55469,2.10438,2.10438,0,0,0-.86816-.18066,2.30942,2.30942,0,0,0-1.22363.32812,5.28312,5.28312,0,0,0-1.07325.88868v3.58886a4.55317,4.55317,0,0,0,1.10059.89551A2.42261,2.42261,0,0,0,152.09961,49.28454Z"/><path class="cls-1" d="M158.56543,50.09118a2.2314,2.2314,0,0,1-1.53809-.48828,1.72832,1.72832,0,0,1-.54687-1.35742,2.10246,2.10246,0,0,1,.25293-1.01563,2.51934,2.51934,0,0,1,.84082-.86133,6.25714,6.25714,0,0,1,1.541-.70019,15.2853,15.2853,0,0,1,2.36231-.51953v-.376a1.33239,1.33239,0,0,0-1.49707-1.51074,3.31435,3.31435,0,0,0-1.52442.32812,6.22835,6.22835,0,0,0-1.23046.834l-.51954-.60157a5.92905,5.92905,0,0,1,1.46973-.99511,4.39316,4.39316,0,0,1,1.89356-.37891,2.32027,2.32027,0,0,1,1.80468.62207,2.49024,2.49024,0,0,1,.56055,1.72949v3.34961a10.31842,10.31842,0,0,0,.04785,1.10352,2.853,2.853,0,0,0,.15723.71484h-.99121q-.06885-.23877-.11914-.48242a2.71147,2.71147,0,0,1-.05176-.57031,4.64031,4.64031,0,0,1-1.35645.88183A4.04494,4.04494,0,0,1,158.56543,50.09118Zm.21191-.793a3.44486,3.44486,0,0,0,1.45606-.30762,4.57261,4.57261,0,0,0,1.24414-.85449V45.83923a14.92877,14.92877,0,0,0-1.96582.4414,5.423,5.423,0,0,0-1.23633.5293,1.849,1.849,0,0,0-.65039.61523,1.38355,1.38355,0,0,0-.1875.69727,1.078,1.078,0,0,0,.35547.88183A1.50029,1.50029,0,0,0,158.77734,49.29821Z"/><path class="cls-1" d="M164.51758,42.59216h.96387v1.1621a5.44217,5.44217,0,0,1,1.23339-.91894,3.22349,3.22349,0,0,1,1.583-.38672,2.173,2.173,0,0,1,1.64356.57422,2.23674,2.23674,0,0,1,.55078,1.61328v5.332h-.96387v-5.1543a1.63963,1.63963,0,0,0-.35547-1.1582,1.45854,1.45854,0,0,0-1.11426-.37988,2.71409,2.71409,0,0,0-1.33007.3418,6.06724,6.06724,0,0,0-1.24707.94336v5.40722h-.96387Z"/><path class="cls-1" d="M172.69824,52.79821a4.67279,4.67279,0,0,1-.71094-.04492,3.41478,3.41478,0,0,1-.50585-.11231l.21875-.7998a2.59712,2.59712,0,0,0,.41015.082,4.75731,4.75731,0,0,0,.61524.03418,1.44045,1.44045,0,0,0,.93652-.27344,2.11808,2.11808,0,0,0,.57422-.86133l.30762-.81347-2.85743-7.417h1.03907l2.29687,6.22753h.02734l2.28321-6.22753h1.00488l-3.17871,8.23046a5.39571,5.39571,0,0,1-.38965.86133,2.33,2.33,0,0,1-.499.61524,1.96522,1.96522,0,0,1-.66309.37207A2.8518,2.8518,0,0,1,172.69824,52.79821Z"/></g></g></svg>