<?xml version="1.0" encoding="utf-8"?>
<!-- Generator: Adobe Illustrator 24.0.3, SVG Export Plug-In . SVG Version: 6.00 Build 0)  -->
<svg version="1.1" id="Ebene_1" xmlns="http://www.w3.org/2000/svg" xmlns:xlink="http://www.w3.org/1999/xlink" x="0px" y="0px"
	 viewBox="0 0 1190.6 453.9" style="enable-background:new 0 0 1190.6 453.9;" xml:space="preserve">
<style type="text/css">
	.st0{fill:#FFFFFF;}
</style>
<g id="Ebene_1_1_">
	<g>
		<path class="st0" d="M849,217l-1.9-0.8c-2.2-0.9-3.7-2-4.4-3.4c-0.8-1.4-1.2-3.4-1.2-6.1V152h5.6l20.5,55.6
			c0.1,0.3,0.2,0.7,0.2,1.2c0,0.5,0,0.9,0,1.2c0,1.6-0.5,3.1-1.5,4.4c-1,1.3-2.5,2.2-4.5,2.6v2.6h31.7V217c-2.6-0.4-4.5-1.2-5.7-2.5
			c-1.2-1.3-2.2-3.3-2.8-6.1l-21.2-58.8c3.9-1.3,7.3-3.2,10.3-5.6c3-2.4,5.4-5.1,7.4-8.3c2-3.1,3.5-6.5,4.5-10s1.5-7.2,1.5-10.9
			c0-4.6-0.8-9.1-2.4-13.6c-1.6-4.4-4-8.4-7.1-11.9c-3.2-3.5-7.1-6.3-11.8-8.4s-10.1-3.2-16.3-3.2h-32.4v2.7l1.9,0.8
			c2.2,0.9,3.7,2,4.4,3.4c0.8,1.4,1.2,3.4,1.2,6.1v116.1c0,2.6-0.4,4.7-1.2,6.1c-0.8,1.4-2.2,2.5-4.4,3.4l-1.9,0.8v2.6H849L849,217
			L849,217z M841.6,84.3h12.7c2.9,0,5.5,0.9,7.7,2.7c2.2,1.8,4,4.1,5.5,6.9c1.5,2.9,2.5,6.1,3.3,9.8c0.7,3.7,1.1,7.4,1.1,11.2
			c0,3.8-0.4,7.6-1.1,11.2s-1.8,6.9-3.3,9.8s-3.3,5.2-5.5,6.9c-2.2,1.8-4.8,2.6-7.7,2.6h-12.7V84.3z"/>
		<path class="st0" d="M509.2,218.4l-2.3-0.6c-2.1-0.6-3.6-1.5-4.3-2.7c-0.7-1.2-1.1-2.9-1.1-5.1V88.7c0-2.2,0.4-3.9,1.1-5.1
			c0.7-1.2,2.1-2.1,4.3-2.7l2.3-0.6v-2.2h-31.6v2.2l2.3,0.6c2.1,0.6,3.6,1.5,4.3,2.7c0.7,1.2,1.1,2.9,1.1,5.1V210
			c0,2.2-0.4,3.9-1.1,5.1c-0.7,1.2-2.1,2.1-4.3,2.7l-2.3,0.6v2.2h31.6V218.4z"/>
		<path class="st0" d="M643.5,215.3l-8.4-1.9c-2.4-0.5-4-1.4-4.6-2.4c-0.7-1.2-1-2.9-1-5.3v-67.1l33.3,63.8v3.3c0,2.4-0.3,4.1-1,5.3
			c-0.6,1-2.2,1.9-4.6,2.4l-8.4,1.9v4.6h38.8v-4.6l-8.4-1.9c-2.4-0.5-4-1.4-4.6-2.4c-0.7-1.2-1-2.9-1-5.3V92.1c0-2.3,0.3-4.1,1-5.3
			c0.6-1,2.2-1.9,4.6-2.4l8.4-1.9v-4.6h-38.8v4.6l8.4,1.9c2.4,0.5,4,1.4,4.6,2.4c0.7,1.2,1,2.9,1,5.3v67.1l-33.3-63.8v-3.3
			c0-2.3,0.3-4.1,1-5.3c0.6-1,2.2-1.9,4.6-2.4l8.4-1.9v-4.6h-38.8v4.6l8.4,1.9c2.4,0.5,4,1.4,4.6,2.4c0.7,1.2,1,2.9,1,5.3v113.6
			c0,2.3-0.3,4.1-1,5.3c-0.6,1-2.2,1.9-4.6,2.4l-8.4,1.9v4.6h38.8V215.3z"/>
		<path class="st0" d="M440.1,82.6h1.1c2.5,0,4.6,0.6,6.2,1.8c1.5,1.2,2.3,2.7,2.3,4.8c0,0.5,0,0.9-0.1,1.3
			c-0.1,0.4-0.2,0.9-0.3,1.4l-25.1,90.8L390.1,75.9h-4.2l-33.5,107.8l-26.3-92.5c-0.3-0.9-0.4-1.8-0.4-2.4c0-1.7,0.6-3.1,1.7-4.3
			s2.7-1.8,4.7-1.9l1-0.1v-4.8H297v4.6l0.9,0.2c2.5,0.5,4.6,1.6,6.2,3.1c1.6,1.6,2.8,3.7,3.6,6.2l37.8,128.8l0.2,0.8h4.2l33.3-107.3
			l33.9,106.5l0.2,0.8h4.2l36.8-129.6c0.5-1.6,1.2-2.9,2.2-4c1-1.1,2.2-2,3.5-2.7c1.3-0.7,2.8-1.2,4.3-1.6c1.6-0.4,3.3-0.8,4.9-1.1
			l0.9-0.2v-4.6h-34.1L440.1,82.6L440.1,82.6z"/>
		<path class="st0" d="M593.2,183.4h-4.5l-0.4,6.7c-0.2,2.5-0.6,5.1-1.2,7.7c-0.6,2.6-1.6,5-2.9,7c-1.2,2.1-2.9,3.7-4.8,5
			c-1.9,1.3-4.3,1.9-7,1.9H547v-59.1h5.2c2.8,0,5.1,0.4,7.1,1.2c1.9,0.8,3.5,2,4.7,3.5c1.2,1.5,2.2,3.3,2.8,5.4
			c0.6,2.1,1.1,4.5,1.3,7l0.6,6.7h4.5v-55.4h-4.5l-0.6,6.5c-0.2,2.5-0.7,4.9-1.3,7c-0.6,2.1-1.6,3.9-2.8,5.4
			c-1.2,1.5-2.8,2.7-4.7,3.5c-1.9,0.9-4.3,1.3-7,1.3H547v-59h25.3c2.7,0,5.1,0.6,7,1.9c2,1.3,3.6,2.9,4.8,5c1.3,2.1,2.2,4.4,2.9,7
			c0.6,2.6,1.1,5.2,1.2,7.7l0.4,6.9h4.5V77.9H521v3.9l2.4,0.9c2,0.8,3.4,1.8,4.1,3c0.7,1.2,1.1,3.1,1.1,5.6v114.9
			c0,2.5-0.4,4.4-1.1,5.6c-0.7,1.2-2.1,2.2-4.1,3l-2.4,0.9v3.9h72.2L593.2,183.4L593.2,183.4z"/>
		<path class="st0" d="M809.7,183.3h-4.3l-1,6.4c-0.4,2.5-1,5.1-2,7.7c-0.9,2.6-2.2,5-3.7,7.1c-1.5,2.1-3.4,3.8-5.5,5.2
			c-2.1,1.3-4.6,2-7.3,2H725v-59.1h32.2c2.8,0,5.2,0.4,7.4,1.3c2.1,0.9,4,2.1,5.5,3.6s2.8,3.3,3.7,5.4c0.9,2.1,1.6,4.4,2,6.9l1,6.6
			h4.3v-55.3h-4.3l-1,6.4c-0.4,2.5-1,4.8-2,6.9c-0.9,2.1-2.2,3.9-3.7,5.5c-1.5,1.5-3.3,2.8-5.5,3.6c-2.2,0.9-4.6,1.3-7.4,1.3H725
			V85.7h45.2c3.3,0,17,0.7,19,1.9c2.2,1.3,4,3.1,5.5,5.1c1.5,2.1,2.8,4.5,3.7,7.1c0.9,2.6,1.6,5.2,2,7.7l1,6.6h4.3V77.9H699.2v3.8
			l2.3,0.9c2,0.8,3.4,1.8,4.1,3c0.7,1.2,1.1,3.1,1.1,5.6v114.7c0,2.5-0.4,4.4-1.1,5.6c-0.7,1.2-2.1,2.2-4.1,3.1l-2.3,0.9v3.8h110.5
			L809.7,183.3L809.7,183.3z"/>
		<path class="st0" d="M692,269.9c-3-5.3-6.9-10.3-11.4-14.8c-4.5-4.5-9.5-8.3-14.8-11.4s-11-5.4-16.7-7c-5.7-1.6-11.6-2.4-17.5-2.5
			c-5.9-0.1-11.8,0.6-17.5,2.1c-5.7,1.4-11.2,3.6-16.5,6.6c-5.3,2.9-10.2,6.6-14.6,11c-4.4,4.4-8.1,9.3-11,14.6
			c-2.9,5.3-5.1,10.8-6.6,16.5c-1.5,5.7-2.1,11.6-2.1,17.5s0.9,11.8,2.5,17.5s3.9,11.3,6.9,16.6c3,5.3,6.9,10.3,11.4,14.9
			c4.5,4.5,9.5,8.3,14.8,11.4c5.3,3,11,5.4,16.7,7c5.7,1.6,11.6,2.4,17.5,2.5c0.3,0,0.5,0,0.8,0c5.6,0,11.2-0.7,16.7-2.1
			c5.7-1.4,11.2-3.6,16.5-6.5c5.3-2.9,10.2-6.6,14.6-11.1c4.4-4.4,8.1-9.3,11-14.6c2.9-5.3,5.1-10.8,6.6-16.5
			c1.4-5.7,2.1-11.6,2.1-17.5s-0.9-11.8-2.5-17.5C697.3,280.9,695,275.3,692,269.9 M689.3,296.2c-0.3,6.8-2.1,13.8-5.5,21
			c-3.4,7.2-8.7,14.5-15.8,21.5c-7.1,7.1-14.4,12.5-21.7,15.9c-7.2,3.4-14.3,5.3-21.1,5.6c-6.7,0.3-13.2-0.9-19.3-3.4
			c-6.1-2.6-11.6-6.3-16.4-11.1c-4.8-4.8-8.5-10.3-11.1-16.4c-2.5-6-3.7-12.5-3.4-19.3c0.3-6.8,2.1-13.8,5.5-21
			c3.4-7.2,8.7-14.5,15.8-21.5c7.1-7.1,14.4-12.4,21.6-15.9c7.2-3.4,14.3-5.3,21.1-5.6c0.7,0,1.4-0.1,2.1-0.1c6,0,11.8,1.1,17.2,3.4
			c6.1,2.5,11.6,6.3,16.4,11c4.8,4.8,8.5,10.3,11.1,16.4C688.5,283,689.6,289.5,689.3,296.2"/>
		<path class="st0" d="M153.3,315c-3.3-3.4-7-6.4-11.2-9c-4.2-2.6-8.5-5.1-12.9-7.5c-4.4-2.4-8.7-4.8-12.9-7.1
			c-4.2-2.4-7.9-5-11.2-7.8c-3.3-2.8-5.9-6-7.9-9.5c-2-3.5-3-7.6-3-12.3c0-4.4,0.7-8.3,2-11.6c1.3-3.3,3.2-6.1,5.4-8.3
			c2.2-2.2,4.8-3.9,7.7-5c2.9-1.1,5.8-1.6,8.9-1.6c4.2,0,8.3,0.8,12.5,2.3c4.2,1.5,8,4,11.6,7.6c3.6,3.5,6.7,8.2,9.4,14
			c2.7,5.8,4.7,13,5.9,21.5h3.2v-48.2h-3.2c-0.4,2.6-1.1,5.2-2.2,7.6s-2.3,4.4-3.6,6c-1.9-2.8-4.3-5.3-7-7.5c-2.7-2.2-5.7-4-8.8-5.4
			c-3.1-1.4-6.4-2.6-9.8-3.3c-3.4-0.8-6.7-1.1-9.9-1.1c-5,0-9.8,0.8-14.4,2.3s-8.8,3.8-12.4,6.9c-3.6,3.1-6.5,6.9-8.7,11.4
			c-2.2,4.6-3.3,9.8-3.3,15.8c0,5.7,1,10.6,3,14.9c2,4.3,4.7,8.1,7.9,11.4c3.3,3.3,7,6.3,11.2,9s8.5,5.1,12.9,7.5
			c4.4,2.4,8.7,4.7,12.9,7.1s7.9,5,11.2,7.8c3.3,2.8,5.9,6,7.9,9.5c2,3.5,3,7.6,3,12.4c0,4.2-0.8,8-2.4,11.3
			c-1.6,3.3-3.6,6.1-6.2,8.4c-2.6,2.3-5.6,4-8.9,5.2c-3.4,1.2-6.8,1.8-10.4,1.8c-4.3,0-8.7-0.9-13-2.6s-8.3-4.5-12-8.3
			s-6.8-8.7-9.4-14.7c-2.6-6-4.4-13.3-5.4-21.8h-3.2v50.1h3.2c0.4-2.8,1.2-5.3,2.4-7.6s2.6-4.3,4.1-6c4.8,6.2,10.4,10.6,16.6,13.3
			c6.2,2.7,12.8,4.1,19.9,4.1c5.2,0,10.2-0.8,15.2-2.4c5-1.6,9.4-4,13.4-7.1c3.9-3.1,7.1-6.9,9.5-11.5c2.4-4.5,3.6-9.7,3.6-15.5
			c0-5.7-1-10.7-3-15C159.2,322.2,156.6,318.4,153.3,315"/>
		<path class="st0" d="M208,236.3l0.6,0.1c3.9,0.7,7.4,3.1,7.4,6.7c0,0.3,0,0.6,0,1c0,0.4-0.1,0.7-0.1,1.1l-12.9,67.7l-12.5-67.5
			c-0.1-0.3-0.1-0.6-0.1-0.9s-0.1-0.6-0.1-0.9c0-1.3,0.3-2.4,0.8-3.3c0.6-0.9,1.3-1.6,2.3-2.2c0.9-0.6,2.1-1,3.2-1.2
			c1.2-0.3,1.1-0.3,2.4-0.6c0,0,0-0.1,0-0.1c0-1.3,0-2.6,0-3.9h-30.5v4l0.7,0.1c1.5,0.2,2.9,0.4,4.3,0.8c1.4,0.4,2.7,0.9,3.8,1.6
			c1.1,0.7,2.1,1.6,2.9,2.6c0.8,1,1.3,2.4,1.5,4l16.3,92l-5.4,24.9c-0.4,2.5-1.2,4.3-2.3,5.4s-5.7,2.3-8.6,2.9l-0.6,0.1v3.6h33.2
			v-3.6l-0.6-0.1c-1.8-0.3-3.2-1.5-4.2-2.5c-1-1.1-1.5-2.5-1.5-4.4c0-0.3,0-0.6,0.1-1s0.1-0.7,0.1-1.1l23-117.2
			c0.2-1.3,0.6-2.4,0.9-3.2c0.3-0.7,0.6-1.4,1.4-2.2c1.2-1.3,2.6-1.8,3.5-2.1c0.4-0.2,0.8-0.3,1.1-0.4l0.6-0.1v-3.9H208L208,236.3
			L208,236.3z"/>
		<path class="st0" d="M523.3,235l2,0.8c2.3,0.9,3.9,2,4.8,3.4s1.2,4.9,1.2,7.6v56.4H508v-56.4c0-2.6,0.4-6.2,1.3-7.6
			s2.4-2.5,4.8-3.4l2-0.8v-2.6h-34.2v2.6l2,0.8c2.3,0.9,3.9,2,4.8,3.4s1.3,4.9,1.3,7.6v114.7c0,2.6-0.4,4.7-1.3,6
			c-0.8,1.4-2.4,2.5-4.8,3.4l-2,0.8v2.6H516v-2.6l-2-0.8c-2.3-0.9-3.9-2-4.8-3.4c-0.8-1.4-1.3-3.4-1.3-6v-51.9h23.3v51.9
			c0,2.6-0.4,4.7-1.2,6c-0.8,1.4-2.4,2.5-4.8,3.4l-2,0.8v2.6h34.2v-2.6l-2-0.8c-2.3-0.9-3.9-2-4.8-3.4c-0.8-1.4-1.3-3.4-1.3-6V246.7
			c0-2.6,0.4-6.2,1.3-7.6s2.4-2.5,4.8-3.4l2-0.8v-2.6h-34.2L523.3,235L523.3,235z"/>
		<path class="st0" d="M745.2,236.9l8.2,1.9c2.3,0.5,3.9,1.4,4.4,2.4c0.6,1.2,1,2.9,1,5.3v66.8l-32.2-63.6v-3.3c0-2.3,0.3-4.1,1-5.3
			c0.6-1,2.1-1.9,4.4-2.4l8.2-1.9v-4.6h-37.8v4.6l8.2,1.9c2.3,0.5,3.9,1.4,4.4,2.4c0.6,1.2,1,2.9,1,5.3v113.7c0,2.3-0.3,4.1-1,5.3
			c-0.6,1-2.1,1.9-4.4,2.4l-8.2,1.9v4.6h37.8v-4.6l-8.2-1.9c-2.3-0.5-3.9-1.4-4.4-2.4c-0.6-1.2-1-2.9-1-5.3v-66.9l32.2,63.6v3.3
			c0,2.3-0.3,4.1-1,5.3c-0.6,1-2.1,1.9-4.4,2.4l-8.2,1.9v4.6h37.8v-4.6l-8.2-1.9c-2.3-0.5-3.9-1.4-4.4-2.4c-0.6-1.2-1-2.9-1-5.3
			V246.4c0-2.3,0.3-4.1,1-5.3c0.6-1,2.1-1.9,4.4-2.4l8.2-1.9v-4.6h-37.8L745.2,236.9L745.2,236.9z"/>
		<path class="st0" d="M793.7,235.3l2.9,0.6c2,0.4,3.2,1.1,3.8,1.9c0.6,0.9,1,2.2,1,3.9v123c0,1.7-0.3,3-1,3.9
			c-0.6,0.9-1.9,1.5-3.8,1.9l-2.9,0.6v3h33.2v-3l-2.9-0.6c-2-0.4-3.2-1.1-3.8-1.9c-0.6-0.9-1-2.2-1-3.9v-123c0-1.7,0.3-3,1-3.9
			c0.6-0.9,1.9-1.5,3.8-1.9l2.9-0.6v-3h-33.2V235.3z"/>
		<path class="st0" d="M944.1,367.3c-1.6-1.4-3.1-3.1-4.3-5l-47-72.2l38.8-44.8c1.1-1.2,2.4-2.4,3.7-3.4c1.4-1,2.8-1.9,4.3-2.6
			c1.4-0.8,2.9-1.4,4.3-1.9c1.4-0.5,2.7-0.8,3.8-1l0.7-0.1v-4h-33.6v4.1h0.8c0.7,0,1.6,0.1,2.5,0.4s1.9,0.6,2.7,1.2
			c0.8,0.5,1.6,1.1,2.1,1.8c0.5,0.6,0.8,1.2,0.8,2c0,0.3-0.1,0.6-0.2,1c-0.1,0.4-0.4,0.8-0.8,1.2l-58.8,66.8v-65.2
			c0-2.5,0.3-4.4,1-5.7c0.6-1.2,1.9-2.2,3.9-2.8l2.9-0.9v-3.9H838v3.9l2.9,0.9c2,0.6,3.3,1.6,3.9,2.8c0.7,1.3,1,3.2,1,5.7v115.2
			c0,2.5-0.3,4.4-1,5.7c-0.6,1.2-1.9,2.2-3.9,2.8l-2.9,0.9v3.9h33.6v-3.9l-2.9-0.9c-2-0.6-3.3-1.5-3.9-2.8c-0.7-1.3-1-3.3-1-5.7
			v-38.6l17-18.8l38.3,58.8c0.2,0.3,0.4,0.8,0.5,1.3c0.1,0.6,0.2,1.1,0.2,1.5c0,1.3-0.5,2.4-1.6,3.2c-1.1,0.9-2.5,1.5-4.1,1.8
			l-0.6,0.1v4h37.1v-4l-0.6-0.1C947.6,369.6,945.7,368.7,944.1,367.3"/>
		<path class="st0" d="M958.1,235l1.9,0.8c2.2,0.9,3.7,2,4.5,3.4c0.8,1.4,1.2,3.4,1.2,6.1v116.1c0,2.6-0.4,4.7-1.2,6
			c-0.8,1.4-2.3,2.5-4.5,3.4l-1.9,0.8v2.6h71.1V339h-3l-0.4,6c-0.2,2.6-0.6,5.2-1.3,7.9c-0.7,2.7-1.7,5.1-3,7.3
			c-1.3,2.2-3,4-5.1,5.3c-2.1,1.4-4.6,2.1-7.5,2.1h-26.3v-61.3h6c2.9,0,5.4,0.4,7.4,1.3c2,0.9,3.7,2.1,5.1,3.7
			c1.3,1.6,2.3,3.5,3,5.7c0.7,2.2,1.1,4.6,1.4,7.2l0.6,6h3V276h-3l-0.6,5.9c-0.2,2.6-0.7,5-1.4,7.2c-0.7,2.2-1.7,4.2-3,5.8
			c-1.3,1.6-3,2.9-5.1,3.8s-4.5,1.4-7.4,1.4h-6v-61.3h26.3c2.9,0,5.4,0.7,7.5,2c2.1,1.4,3.8,3.1,5.1,5.3c1.3,2.2,2.3,4.6,3,7.3
			c0.7,2.7,1.1,5.3,1.3,7.9l0.4,6.2h3v-35.2h-71.1L958.1,235L958.1,235z"/>
		<path class="st0" d="M463.4,244.1c-3.2-3.5-7.3-6.4-12.1-8.6c-4.8-2.1-10.4-3.2-16.8-3.2H401v4.5l2.6,1c1.9,0.8,3.2,1.7,3.9,2.9
			c0.7,1.2,1,3,1,5.4v114.4c0,2.4-0.3,4.2-1,5.4c-0.6,1.1-1.9,2.1-3.9,2.9l-2.6,1v4.5h33.8v-4.5l-2.6-1c-1.9-0.8-3.2-1.7-3.9-2.9
			c-0.7-1.2-1-3-1-5.4v-52.9h7.2c6.3,0,11.9-1.1,16.6-3.2c4.8-2.1,8.8-5,12.1-8.5c3.2-3.5,5.7-7.6,7.3-12.1
			c1.6-4.5,2.4-9.1,2.4-13.8c0-4.6-0.8-9.3-2.4-13.7C469.1,251.8,466.6,247.7,463.4,244.1 M454.3,280.9c-0.7,3.5-1.8,6.6-3.1,9.3
			c-1.4,2.7-3.1,4.9-5.2,6.5c-2,1.6-4.3,2.4-7,2.4h-11.5v-58.1H439c2.7,0,5,0.8,7,2.4c2.1,1.6,3.8,3.8,5.2,6.5
			c1.4,2.7,2.5,5.9,3.1,9.3c0.7,3.5,1,7.2,1,10.9C455.3,273.7,455,277.3,454.3,280.9"/>
		<path class="st0" d="M1108.4,369.1c-1.2-1.3-2.2-3.3-2.8-6l-21.2-58.8c3.9-1.3,7.3-3.2,10.3-5.6c2.9-2.4,5.4-5.1,7.4-8.3
			c2-3.1,3.5-6.5,4.5-10c1-3.6,1.5-7.2,1.5-10.9c0-4.6-0.8-9.1-2.4-13.6c-1.6-4.4-4-8.4-7.1-11.9s-7.1-6.3-11.8-8.4
			c-4.7-2.1-10.1-3.2-16.3-3.2H1038v2.6l1.9,0.8c2.2,0.9,3.7,2,4.4,3.4c0.8,1.4,1.2,3.4,1.2,6.1v116.2c0,2.6-0.4,4.7-1.2,6.1
			c-0.8,1.4-2.2,2.5-4.4,3.4l-1.9,0.8v2.6h31.7v-2.6l-1.9-0.8c-2.2-0.9-3.7-2-4.4-3.4c-0.8-1.4-1.2-3.4-1.2-6.1v-54.9h5.6l20.5,55.6
			c0.1,0.3,0.2,0.7,0.2,1.2c0,0.5,0.1,0.9,0.1,1.2c0,1.6-0.5,3.1-1.5,4.5c-1,1.3-2.5,2.2-4.5,2.5v2.6h31.7v-2.6
			C1111.5,371.2,1109.6,370.4,1108.4,369.1 M1082.5,297.4c-2.2,1.8-4.8,2.6-7.7,2.6h-12.7v-61.3h12.7c2.9,0,5.5,0.9,7.7,2.6
			c2.2,1.8,4,4.1,5.5,6.9s2.5,6.1,3.3,9.8c0.7,3.7,1.1,7.4,1.1,11.3s-0.4,7.6-1.1,11.3c-0.7,3.7-1.8,6.9-3.3,9.8
			C1086.6,293.4,1084.8,295.7,1082.5,297.4"/>
		<path class="st0" d="M357.2,235l1.9,0.8c2.2,0.9,3.7,2,4.5,3.4c0.8,1.4,1.2,3.4,1.2,6.1v1.5l-47.9,57.7l-49.6-57.3v-1.5
			c0-2.6,0.3-4.6,1-5.9c0.7-1.4,2.2-2.3,4.7-3l6.6-1.7v-2.6h-32.1v2.6c1,0,3.7,0.3,6,2.3c1.4,1.3,2.1,2.8,2.4,3.6
			c0.8,1.9,0.9,3.6,0.9,4.7V361c0,2.6-0.3,4.6-1,5.9c-0.7,1.4-2.2,2.3-4.7,3l-3.6,1.7v2.6h32.2v-2.6l-6.6-1.7c-2.5-0.6-4-1.6-4.7-3
			s-1-3.3-1-5.9v-89.7l43.9,50.7l53.5-64.9v104.2c0,2.6-0.4,4.7-1.2,6.1s-2.3,2.5-4.5,3.4l-1.9,0.8v2.6h32.2v-2.6l-1.9-0.8
			c-2.2-0.9-3.7-2-4.5-3.4c-0.8-1.4-1.2-3.4-1.2-6.1V245.2c0-2.6,0.4-4.7,1.2-6.1c0.8-1.4,2.3-2.5,4.5-3.4l1.9-0.8v-2.6h-32.2
			L357.2,235L357.2,235z"/>
		<path class="st0" d="M196.5,236.9c1.1-0.3,1.1-0.3,2.4-0.6c0,0,0-0.1,0-0.1"/>
	</g>
</g>
<g id="Ebene_2_1_">
</g>
</svg>
